<svg fill="none" height=" 100%" viewBox="0 0 158 35" width=" 100%" xmlns="http://www.w3.org/2000/svg">
<path clip-rule="evenodd" d="M94.8364 16.5658C94.764 23.9205 91.4967 27.5986 85.0312 27.5986C78.5658 27.5986 75.2246 23.8382 75.2246 16.3172C75.2246 8.79629 78.4935 5.03583 85.0312 5.03583C91.569 5.03583 94.8379 8.79629 94.8379 16.3172V16.5658H94.8364ZM85.0297 9.78431C82.338 9.78431 80.9913 11.9614 80.9913 16.3156V16.5421C81.039 20.7443 82.3841 22.847 85.0297 22.847C87.6753 22.847 89.0681 20.6699 89.0681 16.3156C89.0681 11.9614 87.7215 9.78431 85.0297 9.78431ZM102.913 13.9406H106.952C109.643 13.9406 110.99 12.457 110.99 9.48664C110.99 6.51626 109.643 5.03266 106.952 5.03266H102.913V13.939V13.9406ZM106.952 0.28418C113.489 0.28418 116.758 3.35272 116.758 9.48822C116.758 15.6237 113.489 18.6923 106.952 18.6923H102.913V27.0049H97.1449V0.28418H106.952ZM74.0703 5.628V10.9718C70.2243 10.3781 68.3021 11.7635 68.3021 15.1281V27.0033H62.5338V5.628H68.3021V8.39254C70.2705 4.83474 74.0703 5.628 74.0703 5.628ZM56.1869 1.4717V5.628H60.2253V10.3781H56.1869V19.2844C56.1869 22.0015 57.4812 23.0987 60.0714 22.5731L60.2253 22.5398V27.0033L60.0468 27.0524C58.7186 27.3912 50.4186 29.1171 50.4186 19.2844V10.3781H47.5345V5.628H50.4186L52.1485 1.4717H56.1869ZM130.025 12.0232C129.963 10.3274 128.758 9.95214 127.153 9.90306C125.223 9.96164 124.067 10.5158 123.682 11.5656H118.49C118.49 8.00303 121.374 5.03424 127.142 5.03424C131.841 5.03424 135.817 7.27786 135.796 11.5656L135.793 12.7198L135.796 27.0033H130.028V24.3765C128.778 26.9099 125.761 27.597 123.682 27.597C120.875 27.597 117.337 25.8158 117.337 21.0657C117.337 12.3905 130.028 15.2025 130.028 12.1593L130.025 12.0232ZM130.026 17.5032C129.517 18.8047 123.104 18.0352 123.104 21.0657C123.104 24.2562 130.026 23.4407 130.026 19.8782V17.5032ZM27.9197 12.1593C27.9027 8.92138 30.2805 5.03424 36.8614 5.03424C42.6297 5.03424 45.3122 8.00303 45.8031 11.5656H40.4519C39.8933 10.4572 38.6959 9.90306 36.8614 9.90306C33.3155 9.90306 33.2909 13.0413 36.7183 13.6208L36.8614 13.6429C42.4696 14.2367 45.7831 16.5737 45.8031 20.472C45.82 23.7099 43.4423 27.597 36.8614 27.597C31.0931 27.597 28.4106 24.6283 27.9197 21.0657H33.2709C33.8295 22.1741 35.0269 22.7282 36.8614 22.7282C40.4566 22.7282 40.4319 19.5029 36.8614 18.9868C31.2532 18.393 27.9397 16.056 27.9197 12.1578V12.1593ZM138.651 34.1284C143.646 34.9961 147.346 32.2394 149.747 25.8601L157.688 5.628H151.557L146.965 17.329L142.372 5.628H136.15L143.863 25.2806C142.589 28.2985 140.896 29.6712 138.786 29.3989L138.651 29.3799V34.13V34.1284ZM14.1901 8.18987L9.95006 18.9883C12.1539 18.032 14.5764 17.5032 17.1188 17.5032C17.3635 17.5032 17.6082 17.5079 17.8514 17.5174L14.1901 8.18987ZM0.583571 27.0033L11.0705 0.28418H17.3081L27.7966 27.0033H21.5743L19.8167 22.524C18.9441 22.3466 18.0422 22.2532 17.1188 22.2532C13.0235 22.2532 9.34368 24.0836 6.80892 26.9922L6.8043 27.0033H0.582031H0.583571Z" fill="currentColor" fill-rule="evenodd"></path>
</svg>