<?xml version="1.0" encoding="utf-8"?>
<!-- Uploaded to: SVG Repo, www.svgrepo.com, Generator: SVG Repo Mixer Tools -->
<svg width="800px" height="800px" viewBox="0 0 32 32" xmlns="http://www.w3.org/2000/svg">
  <g id="cosmos" transform="translate(-186 -186)">
    <path id="Path_49" data-name="Path 49" d="M190,203v9a2,2,0,0,0,4,0v-5a2,2,0,0,1,4,0v8a2,2,0,0,0,4,0v-8a2,2,0,0,1,4,0v2a2,2,0,0,0,4,0v-1" fill="none" stroke="#498efc" stroke-linecap="round" stroke-linejoin="round" stroke-width="2"/>
    <path id="Path_50" data-name="Path 50" d="M194,193v-1a2,2,0,0,1,4,0v5a2,2,0,0,0,4,0v-8a2,2,0,0,1,4,0v8a2,2,0,0,0,4,0v-2a2,2,0,0,1,4,0v5" fill="none" stroke="#498efc" stroke-linecap="round" stroke-linejoin="round" stroke-width="2"/>
    <circle id="Ellipse_15" data-name="Ellipse 15" cx="3" cy="3" r="3" transform="translate(187 197)" fill="none" stroke="#f1d17c" stroke-linejoin="round" stroke-width="2"/>
    <circle id="Ellipse_16" data-name="Ellipse 16" cx="3" cy="3" r="3" transform="translate(211 200)" fill="none" stroke="#f1d17c" stroke-linejoin="round" stroke-width="2"/>
  </g>
</svg>