<?xml version="1.0" encoding="UTF-8"?>
<svg xmlns="http://www.w3.org/2000/svg" xmlns:xlink="http://www.w3.org/1999/xlink" width="104.79pt" height="56.96pt" viewBox="0 0 104.79 56.96" version="1.1">
<defs>
<clipPath id="clip1">
  <path d="M 85 10 L 104.789063 10 L 104.789063 35 L 85 35 Z M 85 10 "/>
</clipPath>
<clipPath id="clip2">
  <path d="M 12 45 L 18 45 L 18 56.960938 L 12 56.960938 Z M 12 45 "/>
</clipPath>
<clipPath id="clip3">
  <path d="M 23 48 L 31 48 L 31 56.960938 L 23 56.960938 Z M 23 48 "/>
</clipPath>
<clipPath id="clip4">
  <path d="M 60 45 L 73 45 L 73 56.960938 L 60 56.960938 Z M 60 45 "/>
</clipPath>
</defs>
<g id="surface1">
<path style=" stroke:none;fill-rule:nonzero;fill:rgb(84.298706%,12.199402%,14.898682%);fill-opacity:1;" d="M 44.292969 20.984375 C 44.292969 32.578125 34.390625 41.972656 22.175781 41.972656 C 9.960938 41.972656 0.0625 32.578125 0.0625 20.984375 C 0.0625 9.394531 9.960938 0 22.175781 0 C 34.390625 0 44.292969 9.394531 44.292969 20.984375 "/>
<path style=" stroke:none;fill-rule:nonzero;fill:rgb(100%,100%,100%);fill-opacity:1;" d="M 5.78125 27.597656 C 7.289063 27.597656 8.371094 27.441406 9.03125 27.121094 C 9.667969 26.785156 10.199219 26.203125 10.621094 25.371094 C 11.046875 24.589844 11.257813 23.613281 11.257813 22.4375 C 11.257813 18.730469 9.296875 16.875 5.375 16.875 L 4.261719 16.875 L 4.261719 27.597656 Z M 4.898438 30.777344 L 1.007813 30.777344 L 1.007813 13.695313 L 4.898438 13.695313 C 7.359375 13.695313 9.1875 14.011719 10.378906 14.648438 C 11.585938 15.257813 12.589844 16.265625 13.398438 17.667969 C 14.140625 18.980469 14.511719 20.59375 14.511719 22.511719 C 14.511719 23.800781 14.300781 24.996094 13.875 26.09375 C 13.476563 27.203125 12.867188 28.128906 12.050781 28.871094 C 11.300781 29.570313 10.480469 30.074219 9.582031 30.375 C 8.683594 30.644531 7.125 30.777344 4.898438 30.777344 "/>
<path style=" stroke:none;fill-rule:nonzero;fill:rgb(100%,100%,100%);fill-opacity:1;" d="M 25.285156 28.074219 C 26.785156 28.074219 28.082031 27.519531 29.175781 26.410156 C 30.28125 25.328125 30.835938 23.949219 30.835938 22.277344 C 30.835938 20.679688 30.28125 19.304688 29.175781 18.144531 C 28.113281 17.035156 26.789063 16.480469 25.199219 16.480469 C 23.609375 16.480469 22.289063 17.035156 21.238281 18.144531 C 20.175781 19.230469 19.648438 20.609375 19.648438 22.277344 C 19.648438 24.1875 20.335938 25.695313 21.714844 26.804688 C 22.75 27.652344 23.9375 28.074219 25.285156 28.074219 M 25.285156 31.171875 C 22.742188 31.171875 20.621094 30.296875 18.925781 28.554688 C 17.230469 26.742188 16.382813 24.652344 16.382813 22.277344 C 16.382813 20.617188 16.78125 19.105469 17.582031 17.753906 C 18.347656 16.390625 19.425781 15.308594 20.820313 14.5 C 22.207031 13.703125 23.695313 13.304688 25.285156 13.304688 C 27.664063 13.304688 29.726563 14.175781 31.472656 15.921875 C 33.226563 17.695313 34.101563 19.816406 34.101563 22.277344 C 34.101563 24.8125 33.253906 26.929688 31.558594 28.625 C 29.839844 30.320313 27.746094 31.171875 25.285156 31.171875 "/>
<path style=" stroke:none;fill-rule:nonzero;fill:rgb(100%,100%,100%);fill-opacity:1;" d="M 41.097656 30.800781 L 37.769531 30.800781 L 37.769531 16.984375 L 34.75 16.984375 L 34.75 13.804688 L 44.203125 13.804688 L 44.203125 16.984375 L 41.097656 16.984375 "/>
<path style=" stroke:none;fill-rule:nonzero;fill:rgb(21.199036%,19.599915%,57.598877%);fill-opacity:1;" d="M 58.117188 21.546875 C 59.09375 21.546875 59.90625 21.21875 60.554688 20.5625 C 61.210938 19.914063 61.542969 19.101563 61.542969 18.125 C 61.542969 17.136719 61.210938 16.292969 60.554688 15.601563 C 59.894531 14.90625 59.082031 14.558594 58.117188 14.558594 L 55.363281 14.558594 L 55.363281 21.546875 Z M 55.363281 34.628906 L 50.648438 34.628906 L 50.648438 9.96875 L 58.574219 9.96875 C 60.753906 9.96875 62.628906 10.746094 64.207031 12.296875 C 65.796875 13.851563 66.589844 15.71875 66.589844 17.894531 L 66.589844 18.230469 C 66.589844 20.40625 65.796875 22.273438 64.207031 23.824219 C 62.628906 25.367188 60.753906 26.136719 58.574219 26.136719 L 55.363281 26.136719 "/>
<path style=" stroke:none;fill-rule:nonzero;fill:rgb(21.199036%,19.599915%,57.598877%);fill-opacity:1;" d="M 88.691406 34.628906 L 83.75 34.628906 L 81.914063 29.582031 L 71.832031 29.582031 L 69.769531 34.628906 L 64.949219 34.628906 L 74.460938 9.96875 L 79.175781 9.96875 L 79.28125 10.320313 L 76.882813 16.519531 L 73.546875 24.992188 L 80.199219 24.992188 L 78.59375 20.984375 L 81.011719 14.789063 "/>
<g clip-path="url(#clip1)" clip-rule="nonzero">
<path style=" stroke:none;fill-rule:nonzero;fill:rgb(21.199036%,19.599915%,57.598877%);fill-opacity:1;" d="M 99.617188 20.207031 L 97.09375 15.40625 L 99.847656 10.128906 L 104.789063 10.128906 Z M 97.554688 34.664063 L 92.855469 34.664063 L 92.855469 24.003906 L 85.636719 10.128906 L 90.683594 10.128906 L 91.601563 11.839844 L 97.554688 23.542969 "/>
</g>
<path style=" stroke:none;fill-rule:nonzero;fill:rgb(0.39978%,0.799561%,0.799561%);fill-opacity:1;" d="M 5.902344 45.730469 C 6.558594 45.730469 7.175781 45.730469 7.652344 45.71875 C 7.566406 46.171875 7.425781 47.203125 7.328125 47.730469 L 6.847656 47.769531 C 6.796875 46.636719 6.644531 46.285156 5.800781 46.285156 L 4.933594 46.285156 C 4.457031 46.285156 4.269531 46.359375 4.167969 46.835938 L 3.6875 49.378906 L 4.671875 49.378906 C 5.726563 49.378906 5.765625 49.230469 6.132813 48.363281 L 6.609375 48.363281 L 6.09375 51.015625 L 5.613281 51.015625 C 5.640625 50.046875 5.628906 49.949219 4.582031 49.949219 L 3.550781 49.949219 L 3.121094 52.25 C 2.945313 53.144531 3.046875 53.359375 3.8125 53.359375 L 4.519531 53.359375 C 5.238281 53.359375 5.511719 53.257813 5.828125 52.980469 C 6.117188 52.730469 6.507813 52.261719 6.785156 51.734375 L 7.238281 51.910156 C 7.085938 52.375 6.671875 53.472656 6.46875 53.914063 L 0 53.914063 L 0.101563 53.472656 C 1.105469 53.394531 1.257813 53.296875 1.449219 52.3125 L 2.429688 47.339844 C 2.617188 46.347656 2.519531 46.269531 1.511719 46.183594 L 1.636719 45.730469 "/>
<path style=" stroke:none;fill-rule:nonzero;fill:rgb(0.39978%,0.799561%,0.799561%);fill-opacity:1;" d="M 14.210938 52.667969 C 13.414063 53.660156 12.523438 54.0625 12.042969 54.0625 C 11.605469 54.0625 11.390625 53.785156 11.628906 52.605469 C 11.777344 51.824219 12.03125 50.855469 12.222656 50.074219 C 12.371094 49.457031 12.269531 49.28125 12.09375 49.28125 C 11.753906 49.28125 11.011719 49.945313 10.445313 50.917969 C 10.179688 51.371094 10.09375 51.683594 9.992188 52.101563 C 9.867188 52.640625 9.726563 53.246094 9.613281 53.785156 C 9.125 53.835938 8.542969 53.949219 8.167969 54.0625 L 8.066406 53.949219 C 8.367188 52.652344 8.707031 51.292969 9.023438 49.832031 C 9.109375 49.457031 9.085938 49.34375 8.984375 49.34375 C 8.847656 49.34375 8.492188 49.597656 8.230469 49.847656 L 8.042969 49.445313 C 8.847656 48.539063 9.578125 48.171875 10.03125 48.171875 C 10.507813 48.171875 10.695313 48.652344 10.417969 49.886719 L 10.320313 50.300781 C 11.023438 49.253906 12.246094 48.171875 13.175781 48.171875 C 13.65625 48.171875 14.082031 48.410156 13.691406 50.097656 C 13.527344 50.777344 13.304688 51.746094 13.164063 52.375 C 13.101563 52.703125 13.101563 52.84375 13.203125 52.84375 C 13.339844 52.84375 13.628906 52.691406 14.007813 52.265625 "/>
<g clip-path="url(#clip2)" clip-rule="nonzero">
<path style=" stroke:none;fill-rule:nonzero;fill:rgb(0.39978%,0.799561%,0.799561%);fill-opacity:1;" d="M 17.921875 46.371094 C 17.921875 46.875 17.542969 47.355469 17.003906 47.355469 C 16.535156 47.355469 16.222656 47.066406 16.222656 46.574219 C 16.222656 46.15625 16.5625 45.605469 17.203125 45.605469 C 17.695313 45.605469 17.921875 45.957031 17.921875 46.371094 M 14.835938 49.546875 C 15.566406 48.800781 16.511719 48.160156 17.113281 48.160156 C 17.457031 48.160156 17.605469 48.449219 17.53125 49.253906 C 17.457031 49.972656 16.988281 52.175781 16.75 53.28125 C 16.460938 54.578125 15.667969 55.777344 14.671875 56.492188 C 14.246094 56.808594 13.855469 56.960938 13.539063 56.960938 C 13.1875 56.960938 12.898438 56.769531 12.898438 56.457031 C 12.898438 56.203125 13.085938 55.863281 13.273438 55.699219 C 13.402344 55.585938 13.476563 55.550781 13.578125 55.625 C 13.828125 55.824219 14.144531 56.066406 14.394531 56.066406 C 14.558594 56.066406 14.699219 55.902344 14.8125 55.4375 C 15.125 54.191406 15.539063 51.875 15.894531 49.972656 C 15.96875 49.546875 15.957031 49.433594 15.84375 49.433594 C 15.691406 49.433594 15.253906 49.734375 15.023438 49.945313 "/>
</g>
<path style=" stroke:none;fill-rule:nonzero;fill:rgb(0.39978%,0.799561%,0.799561%);fill-opacity:1;" d="M 20.136719 52.074219 C 20.136719 53.046875 20.4375 53.5 20.914063 53.5 C 21.785156 53.5 22.300781 51.683594 22.300781 50.136719 C 22.300781 49.152344 21.996094 48.726563 21.542969 48.726563 C 20.4375 48.726563 20.136719 51.15625 20.136719 52.074219 M 23.9375 50.222656 C 23.9375 51.519531 23.332031 52.855469 22.113281 53.558594 C 21.632813 53.851563 21.027344 54.0625 20.398438 54.0625 C 18.890625 54.0625 18.488281 52.929688 18.488281 52 C 18.488281 50.210938 19.519531 48.953125 20.800781 48.425781 C 21.21875 48.261719 21.683594 48.171875 22.0625 48.171875 C 23.320313 48.171875 23.9375 49.003906 23.9375 50.222656 "/>
<g clip-path="url(#clip3)" clip-rule="nonzero">
<path style=" stroke:none;fill-rule:nonzero;fill:rgb(0.39978%,0.799561%,0.799561%);fill-opacity:1;" d="M 24.628906 49.542969 C 25.15625 48.816406 26 48.171875 26.578125 48.171875 C 27.132813 48.171875 27.296875 48.929688 27.398438 50.035156 C 27.496094 51.054688 27.523438 52.148438 27.5625 52.867188 C 28.238281 51.835938 28.996094 50.714844 28.980469 49.859375 C 28.980469 49.558594 28.84375 49.230469 28.78125 49.066406 C 28.707031 48.890625 28.730469 48.789063 28.832031 48.625 C 29.097656 48.296875 29.4375 48.171875 29.660156 48.171875 C 29.988281 48.171875 30.214844 48.410156 30.253906 48.980469 C 30.265625 49.34375 30.101563 49.9375 29.761719 50.527344 C 28.691406 52.351563 27.042969 54.628906 25.332031 56.558594 L 23.683594 56.945313 L 23.542969 56.59375 C 24.234375 56.179688 25.519531 55.285156 26.238281 54.378906 C 26.25 53.5625 26.074219 51.632813 25.921875 50.351563 C 25.824219 49.480469 25.683594 49.34375 25.570313 49.34375 C 25.445313 49.34375 25.21875 49.53125 24.867188 49.921875 "/>
</g>
<path style=" stroke:none;fill-rule:nonzero;fill:rgb(0.39978%,0.799561%,0.799561%);fill-opacity:1;" d="M 37.488281 48.878906 C 37.300781 48.902344 36.644531 48.941406 36.292969 48.953125 C 35.703125 51.796875 35.726563 51.648438 35.601563 52.363281 C 35.511719 52.828125 35.578125 52.933594 35.691406 52.933594 C 35.929688 52.933594 36.34375 52.652344 36.734375 52.214844 L 36.933594 52.605469 C 36.445313 53.273438 35.449219 54.066406 34.671875 54.066406 C 34.078125 54.066406 33.828125 53.625 34.128906 52.265625 L 34.832031 48.953125 L 33.851563 48.953125 L 33.828125 48.839844 L 34.214844 48.324219 L 34.972656 48.324219 L 35.25 47.015625 C 35.675781 46.800781 36.40625 46.421875 36.757813 46.144531 L 36.949219 46.257813 C 36.808594 46.710938 36.570313 47.667969 36.429688 48.324219 L 37.765625 48.324219 "/>
<path style=" stroke:none;fill-rule:nonzero;fill:rgb(0.39978%,0.799561%,0.799561%);fill-opacity:1;" d="M 38.332031 45.542969 C 39.148438 45.441406 39.792969 45.289063 40.207031 45.1875 C 40.421875 45.140625 40.585938 45.089844 40.660156 45.089844 C 40.8125 45.089844 40.835938 45.238281 40.773438 45.515625 C 40.484375 46.9375 40.117188 48.675781 39.816406 50.097656 C 40.523438 49.140625 41.71875 48.171875 42.609375 48.171875 C 43.101563 48.171875 43.59375 48.410156 43.203125 50.097656 C 43.039063 50.777344 42.8125 51.695313 42.648438 52.375 C 42.574219 52.703125 42.585938 52.84375 42.6875 52.84375 C 42.800781 52.84375 43.113281 52.667969 43.480469 52.289063 L 43.695313 52.691406 C 42.964844 53.5625 41.933594 54.0625 41.453125 54.0625 C 41.023438 54.0625 40.835938 53.785156 41.0625 52.792969 C 41.289063 51.886719 41.566406 50.855469 41.730469 50.074219 C 41.894531 49.457031 41.832031 49.269531 41.617188 49.269531 C 41.164063 49.269531 40.511719 49.796875 39.96875 50.742188 C 39.691406 51.195313 39.589844 51.558594 39.488281 51.988281 C 39.363281 52.527344 39.214844 53.320313 39.136719 53.785156 C 38.632813 53.835938 38.105469 53.949219 37.640625 54.0625 L 37.5625 53.949219 C 38.082031 51.558594 38.53125 49.253906 39.023438 46.609375 C 39.113281 46.082031 39.0625 46.042969 38.609375 45.996094 C 38.496094 45.980469 38.292969 45.957031 38.230469 45.957031 "/>
<path style=" stroke:none;fill-rule:nonzero;fill:rgb(0.39978%,0.799561%,0.799561%);fill-opacity:1;" d="M 46.160156 50.867188 C 47.46875 50.550781 47.871094 50.023438 47.871094 49.355469 C 47.871094 48.941406 47.65625 48.765625 47.367188 48.765625 C 47.039063 48.765625 46.398438 49.152344 46.160156 50.867188 M 46.058594 54.0625 C 45.289063 54.0625 44.472656 53.648438 44.472656 52.148438 C 44.472656 50.96875 44.976563 49.695313 45.921875 48.953125 C 46.433594 48.5625 47.242188 48.171875 47.933594 48.171875 C 48.851563 48.171875 49.269531 48.6875 49.269531 49.28125 C 49.269531 50.601563 47.355469 51.105469 46.109375 51.34375 C 46.097656 51.457031 46.082031 51.734375 46.082031 51.824219 C 46.082031 52.476563 46.285156 53.054688 46.964844 53.054688 C 47.582031 53.054688 48.210938 52.691406 48.816406 52.0625 L 49.015625 52.464844 C 48.085938 53.585938 47.015625 54.0625 46.058594 54.0625 "/>
<path style=" stroke:none;fill-rule:nonzero;fill:rgb(0.39978%,0.799561%,0.799561%);fill-opacity:1;" d="M 56.214844 51.535156 C 56.429688 51.207031 56.566406 50.953125 56.71875 50.261719 L 56.96875 49.152344 C 56.730469 48.890625 56.378906 48.789063 55.976563 48.789063 C 54.855469 48.789063 54.324219 50.679688 54.324219 52.175781 C 54.324219 52.667969 54.464844 52.90625 54.691406 52.90625 C 55.132813 52.90625 55.75 52.25 56.214844 51.535156 M 58.847656 52.628906 C 58.066406 53.648438 57.222656 54.0625 56.757813 54.0625 C 56.265625 54.0625 56.039063 53.6875 56.300781 52.476563 L 56.390625 52.035156 C 55.710938 52.980469 54.539063 54.0625 53.683594 54.0625 C 53.054688 54.0625 52.675781 53.472656 52.675781 52.464844 C 52.675781 51.144531 53.21875 49.921875 54.101563 49.167969 C 54.730469 48.636719 55.886719 48.171875 56.582031 48.171875 C 56.679688 48.171875 56.984375 48.171875 57.148438 48.25 L 57.472656 46.6875 C 57.574219 46.082031 57.449219 46.03125 56.96875 45.980469 C 56.855469 45.96875 56.667969 45.957031 56.617188 45.957031 L 56.71875 45.542969 C 57.535156 45.441406 58.253906 45.289063 58.65625 45.1875 C 58.882813 45.136719 59.046875 45.089844 59.121094 45.089844 C 59.285156 45.089844 59.296875 45.226563 59.234375 45.492188 C 58.71875 47.730469 58.039063 50.929688 57.761719 52.390625 C 57.699219 52.703125 57.714844 52.867188 57.8125 52.867188 C 57.953125 52.867188 58.265625 52.652344 58.644531 52.238281 "/>
<path style=" stroke:none;fill-rule:nonzero;fill:rgb(0.39978%,0.799561%,0.799561%);fill-opacity:1;" d="M 62.605469 46.382813 C 62.605469 46.886719 62.230469 47.367188 61.675781 47.367188 C 61.222656 47.367188 60.910156 47.078125 60.910156 46.585938 C 60.910156 46.15625 61.25 45.617188 61.890625 45.617188 C 62.378906 45.617188 62.605469 45.96875 62.605469 46.382813 M 62.394531 52.679688 C 61.601563 53.636719 60.707031 54.066406 60.191406 54.066406 C 59.773438 54.066406 59.546875 53.6875 59.75 52.804688 C 59.988281 51.796875 60.277344 50.714844 60.464844 49.871094 C 60.554688 49.507813 60.542969 49.394531 60.429688 49.394531 C 60.304688 49.394531 60.015625 49.570313 59.738281 49.808594 L 59.546875 49.40625 C 60.390625 48.585938 61.285156 48.171875 61.75 48.171875 C 62.179688 48.171875 62.28125 48.5625 62.003906 49.734375 C 61.816406 50.515625 61.539063 51.597656 61.347656 52.375 C 61.261719 52.691406 61.261719 52.867188 61.359375 52.867188 C 61.460938 52.867188 61.777344 52.691406 62.179688 52.277344 "/>
<g clip-path="url(#clip4)" clip-rule="nonzero">
<path style=" stroke:none;fill-rule:nonzero;fill:rgb(0.39978%,0.799561%,0.799561%);fill-opacity:1;" d="M 64.417969 48.324219 C 64.621094 47.492188 64.945313 46.800781 65.550781 46.222656 C 66.269531 45.527344 66.949219 45.328125 67.453125 45.328125 C 68.082031 45.328125 68.421875 45.605469 68.421875 45.929688 C 68.421875 46.234375 68.105469 46.585938 67.917969 46.6875 C 67.792969 46.75 67.703125 46.761719 67.589844 46.648438 C 67.25 46.246094 66.921875 45.957031 66.695313 45.957031 C 66.382813 45.957031 66.308594 46.15625 65.96875 48.324219 L 68.082031 48.324219 C 68.308594 47.304688 68.648438 46.675781 69.253906 46.082031 C 69.980469 45.390625 70.699219 45.089844 71.253906 45.089844 C 71.945313 45.089844 72.222656 45.351563 72.222656 45.65625 C 72.222656 45.917969 71.90625 46.375 71.71875 46.484375 C 71.59375 46.550781 71.492188 46.574219 71.378906 46.449219 C 71.039063 46.03125 70.726563 45.804688 70.484375 45.804688 C 70.210938 45.804688 70.007813 45.90625 69.628906 48.324219 L 70.976563 48.324219 L 70.714844 48.863281 C 70.484375 48.914063 69.769531 48.953125 69.515625 48.953125 C 69.316406 50.097656 69.214844 50.902344 68.886719 52.578125 C 68.472656 54.617188 67.765625 55.347656 66.921875 56.042969 C 66.371094 56.507813 65.804688 56.695313 65.488281 56.695313 C 65.011719 56.695313 64.59375 56.390625 64.621094 56.066406 C 64.621094 55.761719 64.886719 55.386719 65.097656 55.222656 C 65.199219 55.144531 65.273438 55.144531 65.351563 55.195313 C 65.714844 55.511719 66.132813 55.789063 66.394531 55.789063 C 66.773438 55.789063 66.886719 55.160156 66.984375 54.707031 C 67.378906 52.957031 67.628906 51.042969 67.957031 48.953125 L 65.867188 48.953125 C 65.679688 50.222656 65.527344 51.117188 65.199219 52.765625 C 64.78125 54.832031 64.078125 55.585938 63.210938 56.292969 C 62.683594 56.746094 62.140625 56.945313 61.8125 56.945313 C 61.335938 56.945313 60.917969 56.644531 60.945313 56.316406 C 60.945313 56.015625 61.195313 55.636719 61.410156 55.472656 C 61.511719 55.398438 61.585938 55.398438 61.660156 55.460938 C 62.015625 55.75 62.429688 56.015625 62.683594 56.015625 C 63.121094 56.015625 63.261719 55.144531 63.347656 54.65625 C 63.703125 52.882813 64.003906 50.917969 64.304688 48.953125 L 63.324219 48.953125 L 63.261719 48.8125 L 63.648438 48.324219 "/>
</g>
<path style=" stroke:none;fill-rule:nonzero;fill:rgb(0.39978%,0.799561%,0.799561%);fill-opacity:1;" d="M 72.324219 50.867188 C 73.632813 50.550781 74.035156 50.023438 74.035156 49.355469 C 74.035156 48.941406 73.820313 48.765625 73.53125 48.765625 C 73.203125 48.765625 72.5625 49.152344 72.324219 50.867188 M 72.222656 54.0625 C 71.453125 54.0625 70.636719 53.648438 70.636719 52.148438 C 70.636719 50.96875 71.136719 49.695313 72.082031 48.953125 C 72.597656 48.5625 73.40625 48.171875 74.097656 48.171875 C 75.015625 48.171875 75.429688 48.6875 75.429688 49.28125 C 75.429688 50.601563 73.515625 51.105469 72.273438 51.34375 C 72.257813 51.457031 72.246094 51.734375 72.246094 51.824219 C 72.246094 52.476563 72.449219 53.054688 73.128906 53.054688 C 73.742188 53.054688 74.375 52.691406 74.976563 52.0625 L 75.179688 52.464844 C 74.25 53.585938 73.175781 54.0625 72.222656 54.0625 "/>
<path style=" stroke:none;fill-rule:nonzero;fill:rgb(0.39978%,0.799561%,0.799561%);fill-opacity:1;" d="M 76.160156 49.457031 C 76.851563 48.675781 77.605469 48.171875 78.199219 48.171875 C 78.652344 48.171875 78.816406 48.714844 78.511719 49.984375 L 78.449219 50.261719 C 79.082031 49.140625 79.847656 48.171875 80.464844 48.171875 C 80.878906 48.171875 81.15625 48.523438 81.15625 48.851563 C 81.15625 49.253906 80.804688 49.757813 80.515625 49.945313 C 80.378906 50.035156 80.277344 50.035156 80.199219 49.945313 C 80 49.734375 79.824219 49.570313 79.660156 49.570313 C 79.292969 49.570313 78.652344 50.714844 78.511719 51.003906 C 78.210938 51.621094 77.972656 52.828125 77.78125 53.785156 C 77.304688 53.839844 76.726563 53.949219 76.335938 54.0625 L 76.234375 53.949219 C 76.550781 52.679688 76.914063 51.117188 77.089844 50.210938 C 77.253906 49.445313 77.21875 49.34375 77.117188 49.34375 C 77.015625 49.34375 76.664063 49.558594 76.347656 49.859375 "/>
<path style=" stroke:none;fill-rule:nonzero;fill:rgb(0.39978%,0.799561%,0.799561%);fill-opacity:1;" d="M 82.96875 50.867188 C 84.277344 50.550781 84.679688 50.023438 84.679688 49.355469 C 84.679688 48.941406 84.46875 48.765625 84.175781 48.765625 C 83.847656 48.765625 83.207031 49.152344 82.96875 50.867188 M 82.867188 54.0625 C 82.097656 54.0625 81.28125 53.648438 81.28125 52.148438 C 81.28125 50.96875 81.785156 49.695313 82.730469 48.953125 C 83.246094 48.5625 84.050781 48.171875 84.742188 48.171875 C 85.660156 48.171875 86.078125 48.6875 86.078125 49.28125 C 86.078125 50.601563 84.164063 51.105469 82.917969 51.34375 C 82.90625 51.457031 82.894531 51.734375 82.894531 51.824219 C 82.894531 52.476563 83.09375 53.054688 83.773438 53.054688 C 84.390625 53.054688 85.019531 52.691406 85.625 52.0625 L 85.824219 52.464844 C 84.894531 53.585938 83.824219 54.0625 82.867188 54.0625 "/>
<path style=" stroke:none;fill-rule:nonzero;fill:rgb(0.39978%,0.799561%,0.799561%);fill-opacity:1;" d="M 93 52.667969 C 92.207031 53.660156 91.3125 54.0625 90.835938 54.0625 C 90.394531 54.0625 90.179688 53.785156 90.417969 52.605469 C 90.570313 51.824219 90.820313 50.855469 91.011719 50.074219 C 91.160156 49.457031 91.0625 49.28125 90.886719 49.28125 C 90.542969 49.28125 89.800781 49.945313 89.234375 50.917969 C 88.972656 51.371094 88.882813 51.683594 88.78125 52.101563 C 88.65625 52.640625 88.519531 53.246094 88.40625 53.785156 C 87.914063 53.835938 87.335938 53.949219 86.957031 54.0625 L 86.855469 53.949219 C 87.15625 52.652344 87.496094 51.292969 87.8125 49.832031 C 87.902344 49.457031 87.875 49.34375 87.773438 49.34375 C 87.636719 49.34375 87.285156 49.597656 87.019531 49.847656 L 86.832031 49.445313 C 87.636719 48.539063 88.367188 48.171875 88.820313 48.171875 C 89.300781 48.171875 89.488281 48.652344 89.210938 49.886719 L 89.109375 50.300781 C 89.8125 49.253906 91.035156 48.171875 91.96875 48.171875 C 92.445313 48.171875 92.871094 48.410156 92.484375 50.097656 C 92.320313 50.777344 92.09375 51.746094 91.953125 52.375 C 91.890625 52.703125 91.890625 52.84375 91.992188 52.84375 C 92.132813 52.84375 92.417969 52.691406 92.796875 52.265625 "/>
<path style=" stroke:none;fill-rule:nonzero;fill:rgb(0.39978%,0.799561%,0.799561%);fill-opacity:1;" d="M 98.070313 52.601563 C 97.214844 53.597656 96.21875 54.0625 95.363281 54.0625 C 94.355469 54.0625 93.765625 53.347656 93.765625 52.148438 C 93.765625 51.082031 94.21875 49.910156 95.136719 49.105469 C 95.691406 48.613281 96.636719 48.171875 97.328125 48.171875 C 97.945313 48.171875 98.410156 48.398438 98.421875 48.789063 C 98.433594 49.105469 98.15625 49.496094 97.882813 49.621094 C 97.730469 49.683594 97.605469 49.660156 97.503906 49.542969 C 97.125 49.078125 96.835938 48.828125 96.523438 48.828125 C 95.90625 48.828125 95.425781 50.261719 95.425781 51.761719 C 95.425781 52.679688 95.753906 53.054688 96.257813 53.054688 C 96.8125 53.054688 97.351563 52.730469 97.871094 52.226563 "/>
<path style=" stroke:none;fill-rule:nonzero;fill:rgb(0.39978%,0.799561%,0.799561%);fill-opacity:1;" d="M 100.523438 50.867188 C 101.832031 50.550781 102.234375 50.023438 102.234375 49.355469 C 102.234375 48.941406 102.019531 48.765625 101.730469 48.765625 C 101.40625 48.765625 100.761719 49.152344 100.523438 50.867188 M 100.421875 54.0625 C 99.65625 54.0625 98.835938 53.648438 98.835938 52.148438 C 98.835938 50.96875 99.339844 49.695313 100.285156 48.953125 C 100.800781 48.5625 101.605469 48.171875 102.296875 48.171875 C 103.214844 48.171875 103.632813 48.6875 103.632813 49.28125 C 103.632813 50.601563 101.71875 51.105469 100.472656 51.34375 C 100.460938 51.457031 100.449219 51.734375 100.449219 51.824219 C 100.449219 52.476563 100.648438 53.054688 101.328125 53.054688 C 101.945313 53.054688 102.574219 52.691406 103.179688 52.0625 L 103.378906 52.464844 C 102.449219 53.585938 101.378906 54.0625 100.421875 54.0625 "/>
</g>
</svg>
