<?xml version="1.0" standalone="no"?>
<!DOCTYPE svg PUBLIC "-//W3C//DTD SVG 1.1//EN"
 "http://www.w3.org/Graphics/SVG/1.1/DTD/svg11.dtd">
<!-- Created with svg_stack (http://github.com/astraw/svg_stack) -->
<svg xmlns:sodipodi="http://sodipodi.sourceforge.net/DTD/sodipodi-0.dtd" xmlns="http://www.w3.org/2000/svg" version="1.1" width="1247.0" height="243.0">
  <defs/>
  <g id="id0:id0" transform="matrix(1.25,0,0,1.25,0.0,0.0)"><g transform="translate(0.000000,194.400000) scale(0.040000,-0.040000)" fill="#49b7cd" stroke="none">
<path d="M0 2430 l0 -2430 12470 0 12470 0 0 2430 0 2430 -12470 0 -12470 0 0 -2430z m4575 2142 c-11 -10 -54 -56 -95 -102 -41 -47 -81 -92 -90 -100 -8 -8 -49 -53 -90 -100 -41 -47 -82 -92 -90 -100 -8 -8 -28 -31 -44 -50 -16 -19 -59 -67 -96 -107 -37 -39 -76 -83 -87 -97 l-21 -26 -1458 -2 -1459 -3 0 -615 0 -615 1203 -3 1202 -2 0 -350 0 -350 -1203 -2 -1202 -3 0 -828 0 -827 -367 0 -368 0 0 2150 0 2150 2143 0 c2040 -1 2141 -1 2122 -18z m3030 -1 c144 -19 303 -53 337 -72 10 -5 27 -9 37 -9 11 0 23 -4 26 -10 3 -5 14 -10 24 -10 10 0 31 -6 47 -14 16 -8 47 -21 69 -31 199 -85 383 -221 511 -378 39 -48 77 -99 85 -114 8 -16 16 -30 19 -33 15 -14 83 -168 101 -225 6 -22 15 -49 20 -60 29 -73 45 -312 31 -463 -15 -165 -22 -211 -33 -218 -5 -3 -9 -18 -9 -34 0 -16 -4 -32 -10 -35 -5 -3 -10 -15 -10 -26 0 -10 -4 -27 -9 -37 -5 -9 -32 -64 -60 -122 -116 -238 -309 -429 -558 -554 -115 -58 -144 -70 -228 -97 -38 -12 -79 -25 -90 -30 -11 -4 -36 -10 -55 -14 -19 -3 -60 -10 -90 -16 -147 -27 -271 -31 -1170 -37 l-955 -7 -3 -817 -2 -818 -360 0 -360 0 0 1170 0 1170 1285 0 c900 0 1299 3 1332 11 94 22 128 31 145 40 10 5 25 9 33 9 8 0 15 3 15 8 0 4 23 18 51 32 74 36 178 149 221 240 93 196 102 410 25 580 -40 89 -158 216 -217 235 -11 4 -20 11 -20 16 0 5 -7 9 -15 9 -8 0 -25 5 -38 12 -48 24 -57 28 -77 28 -11 0 -28 4 -38 9 -56 29 -166 31 -1561 31 l-1423 0 60 68 c33 37 73 81 88 98 16 16 63 68 104 115 41 46 82 91 90 99 8 8 28 31 44 50 15 19 56 64 90 100 33 36 81 89 105 118 l43 52 1137 -4 c739 -2 1164 -7 1216 -15z m2078 -38 c30 -32 72 -78 93 -102 21 -25 59 -65 83 -90 23 -26 73 -80 110 -121 36 -41 98 -108 137 -150 39 -41 89 -95 110 -120 21 -24 66 -74 100 -110 34 -36 79 -85 100 -109 21 -25 59 -65 83 -90 23 -26 73 -80 110 -121 36 -41 98 -108 137 -150 39 -41 89 -95 110 -120 21 -25 46 -52 54 -60 8 -8 40 -42 70 -75 30 -34 100 -110 156 -170 55 -61 118 -130 140 -154 21 -25 59 -65 83 -90 23 -26 73 -80 110 -121 36 -41 78 -87 93 -101 l27 -27 -27 -29 c-15 -16 -45 -49 -66 -73 -21 -25 -71 -79 -110 -120 -39 -42 -101 -109 -137 -150 -37 -41 -87 -95 -110 -121 -24 -25 -62 -65 -83 -90 -21 -24 -66 -73 -100 -109 -34 -36 -79 -86 -100 -110 -21 -25 -71 -79 -110 -120 -39 -42 -89 -96 -110 -120 -22 -25 -85 -94 -140 -155 -56 -60 -126 -136 -156 -170 -30 -33 -62 -67 -70 -75 -8 -8 -33 -35 -54 -60 -21 -25 -71 -79 -110 -120 -39 -42 -89 -96 -110 -120 -22 -25 -85 -94 -140 -155 -56 -60 -126 -136 -156 -170 -30 -33 -64 -68 -74 -77 -18 -17 -54 -18 -498 -18 -263 0 -478 3 -478 6 0 3 6 11 13 18 6 7 55 60 107 117 177 193 205 224 220 239 8 8 33 35 54 60 21 25 71 79 110 120 39 42 101 109 137 150 37 41 87 95 110 121 24 25 62 65 83 90 22 24 85 93 140 154 56 60 126 136 156 170 30 33 62 67 70 75 8 8 33 35 54 60 21 25 71 79 110 120 39 42 89 96 110 120 21 25 71 79 110 120 39 42 101 109 137 150 37 41 87 95 110 121 83 86 119 129 119 142 0 7 -16 31 -37 52 -20 22 -59 65 -87 96 -28 30 -96 104 -152 165 -55 60 -118 129 -140 154 -21 24 -66 74 -100 110 -34 36 -79 85 -100 110 -21 25 -50 56 -64 70 -27 27 -104 112 -184 200 -27 30 -72 80 -100 110 -161 175 -257 280 -292 320 -21 25 -46 52 -54 60 -8 8 -40 42 -70 75 -30 34 -100 110 -156 170 -55 61 -118 130 -140 155 -21 24 -71 78 -110 120 -39 41 -92 99 -119 128 l-48 52 491 0 490 0 55 -57z m4202 41 c0 -6 -65 -82 -145 -170 -80 -87 -197 -214 -260 -284 -63 -69 -257 -280 -430 -469 -173 -190 -391 -429 -485 -531 -93 -102 -210 -230 -259 -283 -49 -54 -95 -97 -102 -95 -16 4 -506 539 -502 549 3 7 522 577 663 729 34 36 135 146 225 245 90 99 194 213 232 253 l69 72 497 -2 c356 -2 497 -6 497 -14z m2855 -3225 l0 -819 -119 0 c-66 0 -126 -3 -135 -6 -15 -6 -16 71 -16 822 l0 829 135 -3 135 -3 0 -820z m2545 731 c36 -47 98 -128 138 -180 39 -52 77 -102 84 -110 42 -52 112 -142 133 -170 14 -18 43 -56 65 -84 22 -28 61 -78 85 -111 25 -33 50 -66 57 -75 67 -85 112 -142 133 -170 31 -42 73 -93 81 -100 3 -3 8 -13 12 -22 3 -10 16 -18 27 -18 20 0 20 4 20 565 l0 565 135 0 135 0 0 -822 0 -823 -117 0 c-133 0 -116 -9 -203 105 -30 40 -82 107 -115 149 -33 42 -80 103 -105 136 -25 33 -50 66 -57 75 -67 84 -112 142 -133 170 -14 18 -43 56 -65 84 -22 28 -61 78 -85 111 -25 33 -51 66 -57 73 -7 7 -39 48 -70 90 -32 42 -62 82 -68 88 -27 31 -42 51 -48 67 -3 9 -16 17 -27 17 -20 0 -20 -4 -20 -580 l0 -580 -119 0 c-66 0 -126 -3 -135 -6 -15 -6 -16 71 -16 822 l0 829 135 -5 134 -5 66 -85z m3095 -730 l0 -819 -112 -3 -113 -3 -29 30 c-15 16 -54 64 -85 105 -31 41 -61 82 -68 90 -35 44 -111 141 -133 170 -14 18 -43 56 -65 84 -22 28 -61 78 -85 111 -25 33 -51 66 -57 73 -7 7 -39 48 -70 90 -32 42 -63 84 -70 92 -29 36 -112 143 -163 210 -30 40 -62 82 -71 93 -10 13 -22 18 -32 14 -16 -6 -17 -56 -17 -584 l0 -578 -130 0 -130 0 0 823 0 823 132 -3 132 -3 50 -66 c28 -36 62 -81 76 -99 14 -18 45 -59 70 -91 87 -111 195 -250 273 -353 12 -16 42 -55 67 -86 25 -31 56 -72 70 -90 14 -18 43 -56 65 -84 22 -28 61 -78 85 -111 51 -68 70 -92 86 -109 5 -6 13 -19 17 -29 4 -10 13 -17 20 -14 9 3 13 128 15 573 l2 569 135 -3 135 -3 0 -819z m953 782 c18 -20 66 -72 108 -116 42 -45 93 -101 115 -126 21 -24 66 -74 100 -110 34 -36 79 -85 100 -110 21 -25 46 -52 54 -60 8 -8 40 -42 70 -75 30 -34 100 -110 156 -170 55 -61 118 -130 140 -155 21 -25 46 -52 54 -60 8 -8 40 -42 70 -75 30 -34 100 -110 156 -170 55 -61 118 -130 140 -155 42 -48 50 -57 137 -148 31 -33 57 -63 57 -66 0 -3 -83 -6 -185 -6 l-186 0 -32 37 c-18 20 -66 73 -108 117 -42 45 -93 101 -115 126 -21 25 -54 60 -72 77 l-32 33 -423 0 c-316 0 -426 -3 -435 -12 -8 -8 -12 -66 -12 -195 l0 -183 -130 0 -130 0 0 823 0 822 186 -3 186 -3 31 -37z m-8890 -39 c41 -43 92 -98 113 -123 21 -24 71 -78 110 -120 39 -41 89 -95 110 -120 21 -24 66 -74 100 -110 34 -36 79 -85 100 -110 21 -25 50 -56 64 -70 27 -27 105 -113 184 -200 27 -30 76 -84 110 -120 34 -36 95 -103 136 -149 99 -111 99 -111 116 -111 12 0 14 94 14 655 l0 655 135 0 135 0 0 -822 0 -823 -187 3 -188 3 -45 47 c-61 65 -218 237 -266 292 -21 25 -50 56 -64 70 -14 14 -50 53 -80 86 -185 202 -241 264 -276 304 -21 25 -50 56 -64 70 -14 14 -50 53 -80 86 -185 202 -241 264 -276 304 -21 25 -50 56 -64 70 -28 28 -109 116 -184 200 -27 30 -60 67 -74 83 l-26 27 187 0 186 0 74 -77z m4019 -43 l3 -120 -475 -2 -475 -3 -3 -212 c-2 -184 0 -213 14 -227 14 -15 58 -16 420 -14 l404 3 0 -122 0 -123 -417 -2 -418 -3 -3 -219 c-2 -153 1 -223 9 -232 9 -12 94 -14 480 -14 l469 0 0 -117 0 -118 -610 0 -610 0 0 823 0 822 604 0 605 0 3 -120z m-6142 -76 c30 -33 100 -109 156 -170 55 -60 118 -129 140 -154 21 -24 71 -78 110 -120 39 -41 89 -95 110 -120 21 -25 46 -52 54 -60 8 -8 40 -42 70 -75 30 -34 100 -110 156 -170 55 -61 118 -130 140 -154 21 -25 59 -65 83 -90 23 -26 73 -80 110 -121 36 -41 98 -108 137 -150 39 -41 89 -95 110 -120 43 -49 54 -61 133 -144 l53 -56 -489 0 -489 0 -49 53 c-26 28 -75 81 -109 117 -34 36 -83 90 -110 120 -27 30 -72 80 -100 110 -150 163 -257 280 -292 319 -21 25 -59 65 -83 90 -23 26 -73 80 -110 121 -36 41 -98 108 -137 150 -39 41 -89 95 -110 120 -21 24 -49 55 -62 68 -22 23 -22 23 -3 48 11 14 66 75 123 137 57 61 128 138 158 171 30 33 68 74 84 90 15 17 44 50 63 73 l35 42 31 -33 c18 -17 57 -59 87 -92z"/>
<path d="M12855 4528 c-21 -24 -82 -90 -135 -148 -53 -58 -114 -125 -136 -150 -21 -24 -71 -78 -110 -120 -39 -41 -89 -95 -110 -120 -21 -24 -48 -54 -59 -66 -61 -64 -314 -341 -361 -394 -21 -25 -46 -52 -54 -60 -72 -72 -160 -172 -160 -183 0 -6 26 -39 58 -72 31 -33 75 -81 96 -105 21 -25 71 -79 110 -120 39 -42 102 -111 140 -154 l70 -78 50 54 c81 85 177 189 230 248 27 30 76 84 110 120 81 87 234 254 288 315 24 27 52 58 63 69 11 12 63 68 115 126 52 58 122 134 156 170 34 36 79 85 100 110 21 24 71 78 110 120 39 41 89 95 110 120 21 24 67 74 100 110 34 36 82 87 105 114 24 27 63 69 86 93 l41 43 -488 0 -488 0 -37 -42z"/>
<path d="M23192 1508 l3 -333 304 -3 c187 -1 308 1 314 7 7 7 0 20 -19 39 -33 32 -212 225 -270 292 -21 24 -71 78 -110 120 -39 41 -89 95 -110 120 -64 73 -82 90 -99 90 -14 0 -15 -37 -13 -332z"/>
</g>
</g>
  <g id="id1:id1" transform="matrix(1.25,0,0,1.25,0.0,0.0)"><g transform="translate(0.000000,194.400000) scale(0.040000,-0.040000)" fill="#000000" stroke="none">
<path d="M0 2430 l0 -2430 12470 0 12470 0 0 2430 0 2430 -12470 0 -12470 0 0 -2430z m4575 2142 c-11 -10 -54 -56 -95 -102 -41 -47 -81 -92 -90 -100 -8 -8 -49 -53 -90 -100 -41 -47 -82 -92 -90 -100 -8 -8 -28 -31 -44 -50 -16 -19 -59 -67 -96 -107 -37 -39 -76 -83 -87 -97 l-21 -26 -1458 -2 -1459 -3 0 -615 0 -615 1203 -3 1202 -2 0 -350 0 -350 -1203 -2 -1202 -3 0 -828 0 -827 -367 0 -368 0 0 2150 0 2150 2143 0 c2040 -1 2141 -1 2122 -18z m3030 -1 c144 -19 303 -53 337 -72 10 -5 27 -9 37 -9 11 0 23 -4 26 -10 3 -5 14 -10 24 -10 10 0 31 -6 47 -14 16 -8 47 -21 69 -31 199 -85 383 -221 511 -378 39 -48 77 -99 85 -114 8 -16 16 -30 19 -33 15 -14 83 -168 101 -225 6 -22 15 -49 20 -60 29 -73 45 -312 31 -463 -15 -165 -22 -211 -33 -218 -5 -3 -9 -18 -9 -34 0 -16 -4 -32 -10 -35 -5 -3 -10 -15 -10 -26 0 -10 -4 -27 -9 -37 -5 -9 -32 -64 -60 -122 -116 -238 -309 -429 -558 -554 -115 -58 -144 -70 -228 -97 -38 -12 -79 -25 -90 -30 -11 -4 -36 -10 -55 -14 -19 -3 -60 -10 -90 -16 -147 -27 -271 -31 -1170 -37 l-955 -7 -3 -817 -2 -818 -360 0 -360 0 0 1170 0 1170 1285 0 c900 0 1299 3 1332 11 94 22 128 31 145 40 10 5 25 9 33 9 8 0 15 3 15 8 0 4 23 18 51 32 74 36 178 149 221 240 93 196 102 410 25 580 -40 89 -158 216 -217 235 -11 4 -20 11 -20 16 0 5 -7 9 -15 9 -8 0 -25 5 -38 12 -48 24 -57 28 -77 28 -11 0 -28 4 -38 9 -56 29 -166 31 -1561 31 l-1423 0 60 68 c33 37 73 81 88 98 16 16 63 68 104 115 41 46 82 91 90 99 8 8 28 31 44 50 15 19 56 64 90 100 33 36 81 89 105 118 l43 52 1137 -4 c739 -2 1164 -7 1216 -15z m2078 -38 c30 -32 72 -78 93 -102 21 -25 59 -65 83 -90 23 -26 73 -80 110 -121 36 -41 98 -108 137 -150 39 -41 89 -95 110 -120 21 -24 66 -74 100 -110 34 -36 79 -85 100 -109 21 -25 59 -65 83 -90 23 -26 73 -80 110 -121 36 -41 98 -108 137 -150 39 -41 89 -95 110 -120 21 -25 46 -52 54 -60 8 -8 40 -42 70 -75 30 -34 100 -110 156 -170 55 -61 118 -130 140 -154 21 -25 59 -65 83 -90 23 -26 73 -80 110 -121 36 -41 78 -87 93 -101 l27 -27 -27 -29 c-15 -16 -45 -49 -66 -73 -21 -25 -71 -79 -110 -120 -39 -42 -101 -109 -137 -150 -37 -41 -87 -95 -110 -121 -24 -25 -62 -65 -83 -90 -21 -24 -66 -73 -100 -109 -34 -36 -79 -86 -100 -110 -21 -25 -71 -79 -110 -120 -39 -42 -89 -96 -110 -120 -22 -25 -85 -94 -140 -155 -56 -60 -126 -136 -156 -170 -30 -33 -62 -67 -70 -75 -8 -8 -33 -35 -54 -60 -21 -25 -71 -79 -110 -120 -39 -42 -89 -96 -110 -120 -22 -25 -85 -94 -140 -155 -56 -60 -126 -136 -156 -170 -30 -33 -64 -68 -74 -77 -18 -17 -54 -18 -498 -18 -263 0 -478 3 -478 6 0 3 6 11 13 18 6 7 55 60 107 117 177 193 205 224 220 239 8 8 33 35 54 60 21 25 71 79 110 120 39 42 101 109 137 150 37 41 87 95 110 121 24 25 62 65 83 90 22 24 85 93 140 154 56 60 126 136 156 170 30 33 62 67 70 75 8 8 33 35 54 60 21 25 71 79 110 120 39 42 89 96 110 120 21 25 71 79 110 120 39 42 101 109 137 150 37 41 87 95 110 121 83 86 119 129 119 142 0 7 -16 31 -37 52 -20 22 -59 65 -87 96 -28 30 -96 104 -152 165 -55 60 -118 129 -140 154 -21 24 -66 74 -100 110 -34 36 -79 85 -100 110 -21 25 -50 56 -64 70 -27 27 -104 112 -184 200 -27 30 -72 80 -100 110 -161 175 -257 280 -292 320 -21 25 -46 52 -54 60 -8 8 -40 42 -70 75 -30 34 -100 110 -156 170 -55 61 -118 130 -140 155 -21 24 -71 78 -110 120 -39 41 -92 99 -119 128 l-48 52 491 0 490 0 55 -57z m4202 41 c0 -6 -65 -82 -145 -170 -80 -87 -197 -214 -260 -284 -63 -69 -257 -280 -430 -469 -173 -190 -391 -429 -485 -531 -93 -102 -210 -230 -259 -283 -49 -54 -95 -97 -102 -95 -16 4 -506 539 -502 549 3 7 522 577 663 729 34 36 135 146 225 245 90 99 194 213 232 253 l69 72 497 -2 c356 -2 497 -6 497 -14z m2855 -3225 l0 -819 -119 0 c-66 0 -126 -3 -135 -6 -15 -6 -16 71 -16 822 l0 829 135 -3 135 -3 0 -820z m2545 731 c36 -47 98 -128 138 -180 39 -52 77 -102 84 -110 42 -52 112 -142 133 -170 14 -18 43 -56 65 -84 22 -28 61 -78 85 -111 25 -33 50 -66 57 -75 67 -85 112 -142 133 -170 31 -42 73 -93 81 -100 3 -3 8 -13 12 -22 3 -10 16 -18 27 -18 20 0 20 4 20 565 l0 565 135 0 135 0 0 -822 0 -823 -117 0 c-133 0 -116 -9 -203 105 -30 40 -82 107 -115 149 -33 42 -80 103 -105 136 -25 33 -50 66 -57 75 -67 84 -112 142 -133 170 -14 18 -43 56 -65 84 -22 28 -61 78 -85 111 -25 33 -51 66 -57 73 -7 7 -39 48 -70 90 -32 42 -62 82 -68 88 -27 31 -42 51 -48 67 -3 9 -16 17 -27 17 -20 0 -20 -4 -20 -580 l0 -580 -119 0 c-66 0 -126 -3 -135 -6 -15 -6 -16 71 -16 822 l0 829 135 -5 134 -5 66 -85z m3095 -730 l0 -819 -112 -3 -113 -3 -29 30 c-15 16 -54 64 -85 105 -31 41 -61 82 -68 90 -35 44 -111 141 -133 170 -14 18 -43 56 -65 84 -22 28 -61 78 -85 111 -25 33 -51 66 -57 73 -7 7 -39 48 -70 90 -32 42 -63 84 -70 92 -29 36 -112 143 -163 210 -30 40 -62 82 -71 93 -10 13 -22 18 -32 14 -16 -6 -17 -56 -17 -584 l0 -578 -130 0 -130 0 0 823 0 823 132 -3 132 -3 50 -66 c28 -36 62 -81 76 -99 14 -18 45 -59 70 -91 87 -111 195 -250 273 -353 12 -16 42 -55 67 -86 25 -31 56 -72 70 -90 14 -18 43 -56 65 -84 22 -28 61 -78 85 -111 51 -68 70 -92 86 -109 5 -6 13 -19 17 -29 4 -10 13 -17 20 -14 9 3 13 128 15 573 l2 569 135 -3 135 -3 0 -819z m953 782 c18 -20 66 -72 108 -116 42 -45 93 -101 115 -126 21 -24 66 -74 100 -110 34 -36 79 -85 100 -110 21 -25 46 -52 54 -60 8 -8 40 -42 70 -75 30 -34 100 -110 156 -170 55 -61 118 -130 140 -155 21 -25 46 -52 54 -60 8 -8 40 -42 70 -75 30 -34 100 -110 156 -170 55 -61 118 -130 140 -155 42 -48 50 -57 137 -148 31 -33 57 -63 57 -66 0 -3 -83 -6 -185 -6 l-186 0 -32 37 c-18 20 -66 73 -108 117 -42 45 -93 101 -115 126 -21 25 -54 60 -72 77 l-32 33 -423 0 c-316 0 -426 -3 -435 -12 -8 -8 -12 -66 -12 -195 l0 -183 -130 0 -130 0 0 823 0 822 186 -3 186 -3 31 -37z m-8890 -39 c41 -43 92 -98 113 -123 21 -24 71 -78 110 -120 39 -41 89 -95 110 -120 21 -24 66 -74 100 -110 34 -36 79 -85 100 -110 21 -25 50 -56 64 -70 27 -27 105 -113 184 -200 27 -30 76 -84 110 -120 34 -36 95 -103 136 -149 99 -111 99 -111 116 -111 12 0 14 94 14 655 l0 655 135 0 135 0 0 -822 0 -823 -187 3 -188 3 -45 47 c-61 65 -218 237 -266 292 -21 25 -50 56 -64 70 -14 14 -50 53 -80 86 -185 202 -241 264 -276 304 -21 25 -50 56 -64 70 -14 14 -50 53 -80 86 -185 202 -241 264 -276 304 -21 25 -50 56 -64 70 -28 28 -109 116 -184 200 -27 30 -60 67 -74 83 l-26 27 187 0 186 0 74 -77z m4019 -43 l3 -120 -475 -2 -475 -3 -3 -212 c-2 -184 0 -213 14 -227 14 -15 58 -16 420 -14 l404 3 0 -122 0 -123 -417 -2 -418 -3 -3 -219 c-2 -153 1 -223 9 -232 9 -12 94 -14 480 -14 l469 0 0 -117 0 -118 -610 0 -610 0 0 823 0 822 604 0 605 0 3 -120z m-6142 -76 c30 -33 100 -109 156 -170 55 -60 118 -129 140 -154 21 -24 71 -78 110 -120 39 -41 89 -95 110 -120 21 -25 46 -52 54 -60 8 -8 40 -42 70 -75 30 -34 100 -110 156 -170 55 -61 118 -130 140 -154 21 -25 59 -65 83 -90 23 -26 73 -80 110 -121 36 -41 98 -108 137 -150 39 -41 89 -95 110 -120 43 -49 54 -61 133 -144 l53 -56 -489 0 -489 0 -49 53 c-26 28 -75 81 -109 117 -34 36 -83 90 -110 120 -27 30 -72 80 -100 110 -150 163 -257 280 -292 319 -21 25 -59 65 -83 90 -23 26 -73 80 -110 121 -36 41 -98 108 -137 150 -39 41 -89 95 -110 120 -21 24 -49 55 -62 68 -22 23 -22 23 -3 48 11 14 66 75 123 137 57 61 128 138 158 171 30 33 68 74 84 90 15 17 44 50 63 73 l35 42 31 -33 c18 -17 57 -59 87 -92z"/>
<path d="M23192 1508 l3 -333 304 -3 c187 -1 308 1 314 7 7 7 0 20 -19 39 -33 32 -212 225 -270 292 -21 24 -71 78 -110 120 -39 41 -89 95 -110 120 -64 73 -82 90 -99 90 -14 0 -15 -37 -13 -332z"/>
</g>
</g>
  <g id="id2:id2" transform="matrix(1.25,0,0,1.25,0.0,0.0)"><g transform="translate(0.000000,194.400000) scale(0.040000,-0.040000)" fill="#113443" stroke="none">
<path d="M0 2430 l0 -2430 12470 0 12470 0 0 2430 0 2430 -12470 0 -12470 0 0 -2430z m4575 2142 c-11 -10 -54 -56 -95 -102 -41 -47 -81 -92 -90 -100 -8 -8 -49 -53 -90 -100 -41 -47 -82 -92 -90 -100 -8 -8 -28 -31 -44 -50 -16 -19 -59 -67 -96 -107 -37 -39 -76 -83 -87 -97 l-21 -26 -1458 -2 -1459 -3 0 -615 0 -615 1203 -3 1202 -2 0 -350 0 -350 -1203 -2 -1202 -3 0 -828 0 -827 -367 0 -368 0 0 2150 0 2150 2143 0 c2040 -1 2141 -1 2122 -18z m3030 -1 c144 -19 303 -53 337 -72 10 -5 27 -9 37 -9 11 0 23 -4 26 -10 3 -5 14 -10 24 -10 10 0 31 -6 47 -14 16 -8 47 -21 69 -31 199 -85 383 -221 511 -378 39 -48 77 -99 85 -114 8 -16 16 -30 19 -33 15 -14 83 -168 101 -225 6 -22 15 -49 20 -60 29 -73 45 -312 31 -463 -15 -165 -22 -211 -33 -218 -5 -3 -9 -18 -9 -34 0 -16 -4 -32 -10 -35 -5 -3 -10 -15 -10 -26 0 -10 -4 -27 -9 -37 -5 -9 -32 -64 -60 -122 -116 -238 -309 -429 -558 -554 -115 -58 -144 -70 -228 -97 -38 -12 -79 -25 -90 -30 -11 -4 -36 -10 -55 -14 -19 -3 -60 -10 -90 -16 -147 -27 -271 -31 -1170 -37 l-955 -7 -3 -817 -2 -818 -360 0 -360 0 0 1170 0 1170 1285 0 c900 0 1299 3 1332 11 94 22 128 31 145 40 10 5 25 9 33 9 8 0 15 3 15 8 0 4 23 18 51 32 74 36 178 149 221 240 93 196 102 410 25 580 -40 89 -158 216 -217 235 -11 4 -20 11 -20 16 0 5 -7 9 -15 9 -8 0 -25 5 -38 12 -48 24 -57 28 -77 28 -11 0 -28 4 -38 9 -56 29 -166 31 -1561 31 l-1423 0 60 68 c33 37 73 81 88 98 16 16 63 68 104 115 41 46 82 91 90 99 8 8 28 31 44 50 15 19 56 64 90 100 33 36 81 89 105 118 l43 52 1137 -4 c739 -2 1164 -7 1216 -15z m2078 -38 c30 -32 72 -78 93 -102 21 -25 59 -65 83 -90 23 -26 73 -80 110 -121 36 -41 98 -108 137 -150 39 -41 89 -95 110 -120 21 -24 66 -74 100 -110 34 -36 79 -85 100 -109 21 -25 59 -65 83 -90 23 -26 73 -80 110 -121 36 -41 98 -108 137 -150 39 -41 89 -95 110 -120 21 -25 46 -52 54 -60 8 -8 40 -42 70 -75 30 -34 100 -110 156 -170 55 -61 118 -130 140 -154 21 -25 59 -65 83 -90 23 -26 73 -80 110 -121 36 -41 78 -87 93 -101 l27 -27 -27 -29 c-15 -16 -45 -49 -66 -73 -21 -25 -71 -79 -110 -120 -39 -42 -101 -109 -137 -150 -37 -41 -87 -95 -110 -121 -24 -25 -62 -65 -83 -90 -21 -24 -66 -73 -100 -109 -34 -36 -79 -86 -100 -110 -21 -25 -71 -79 -110 -120 -39 -42 -89 -96 -110 -120 -22 -25 -85 -94 -140 -155 -56 -60 -126 -136 -156 -170 -30 -33 -62 -67 -70 -75 -8 -8 -33 -35 -54 -60 -21 -25 -71 -79 -110 -120 -39 -42 -89 -96 -110 -120 -22 -25 -85 -94 -140 -155 -56 -60 -126 -136 -156 -170 -30 -33 -64 -68 -74 -77 -18 -17 -54 -18 -498 -18 -263 0 -478 3 -478 6 0 3 6 11 13 18 6 7 55 60 107 117 177 193 205 224 220 239 8 8 33 35 54 60 21 25 71 79 110 120 39 42 101 109 137 150 37 41 87 95 110 121 24 25 62 65 83 90 22 24 85 93 140 154 56 60 126 136 156 170 30 33 62 67 70 75 8 8 33 35 54 60 21 25 71 79 110 120 39 42 89 96 110 120 21 25 71 79 110 120 39 42 101 109 137 150 37 41 87 95 110 121 83 86 119 129 119 142 0 7 -16 31 -37 52 -20 22 -59 65 -87 96 -28 30 -96 104 -152 165 -55 60 -118 129 -140 154 -21 24 -66 74 -100 110 -34 36 -79 85 -100 110 -21 25 -50 56 -64 70 -27 27 -104 112 -184 200 -27 30 -72 80 -100 110 -161 175 -257 280 -292 320 -21 25 -46 52 -54 60 -8 8 -40 42 -70 75 -30 34 -100 110 -156 170 -55 61 -118 130 -140 155 -21 24 -71 78 -110 120 -39 41 -92 99 -119 128 l-48 52 491 0 490 0 55 -57z m4202 41 c0 -6 -65 -82 -145 -170 -80 -87 -197 -214 -260 -284 -63 -69 -257 -280 -430 -469 -173 -190 -391 -429 -485 -531 -93 -102 -210 -230 -259 -283 -49 -54 -95 -97 -102 -95 -16 4 -506 539 -502 549 3 7 522 577 663 729 34 36 135 146 225 245 90 99 194 213 232 253 l69 72 497 -2 c356 -2 497 -6 497 -14z m2855 -3225 l0 -819 -119 0 c-66 0 -126 -3 -135 -6 -15 -6 -16 71 -16 822 l0 829 135 -3 135 -3 0 -820z m2545 731 c36 -47 98 -128 138 -180 39 -52 77 -102 84 -110 42 -52 112 -142 133 -170 14 -18 43 -56 65 -84 22 -28 61 -78 85 -111 25 -33 50 -66 57 -75 67 -85 112 -142 133 -170 31 -42 73 -93 81 -100 3 -3 8 -13 12 -22 3 -10 16 -18 27 -18 20 0 20 4 20 565 l0 565 135 0 135 0 0 -822 0 -823 -117 0 c-133 0 -116 -9 -203 105 -30 40 -82 107 -115 149 -33 42 -80 103 -105 136 -25 33 -50 66 -57 75 -67 84 -112 142 -133 170 -14 18 -43 56 -65 84 -22 28 -61 78 -85 111 -25 33 -51 66 -57 73 -7 7 -39 48 -70 90 -32 42 -62 82 -68 88 -27 31 -42 51 -48 67 -3 9 -16 17 -27 17 -20 0 -20 -4 -20 -580 l0 -580 -119 0 c-66 0 -126 -3 -135 -6 -15 -6 -16 71 -16 822 l0 829 135 -5 134 -5 66 -85z m3095 -730 l0 -819 -112 -3 -113 -3 -29 30 c-15 16 -54 64 -85 105 -31 41 -61 82 -68 90 -35 44 -111 141 -133 170 -14 18 -43 56 -65 84 -22 28 -61 78 -85 111 -25 33 -51 66 -57 73 -7 7 -39 48 -70 90 -32 42 -63 84 -70 92 -29 36 -112 143 -163 210 -30 40 -62 82 -71 93 -10 13 -22 18 -32 14 -16 -6 -17 -56 -17 -584 l0 -578 -130 0 -130 0 0 823 0 823 132 -3 132 -3 50 -66 c28 -36 62 -81 76 -99 14 -18 45 -59 70 -91 87 -111 195 -250 273 -353 12 -16 42 -55 67 -86 25 -31 56 -72 70 -90 14 -18 43 -56 65 -84 22 -28 61 -78 85 -111 51 -68 70 -92 86 -109 5 -6 13 -19 17 -29 4 -10 13 -17 20 -14 9 3 13 128 15 573 l2 569 135 -3 135 -3 0 -819z m953 782 c18 -20 66 -72 108 -116 42 -45 93 -101 115 -126 21 -24 66 -74 100 -110 34 -36 79 -85 100 -110 21 -25 46 -52 54 -60 8 -8 40 -42 70 -75 30 -34 100 -110 156 -170 55 -61 118 -130 140 -155 21 -25 46 -52 54 -60 8 -8 40 -42 70 -75 30 -34 100 -110 156 -170 55 -61 118 -130 140 -155 42 -48 50 -57 137 -148 31 -33 57 -63 57 -66 0 -3 -83 -6 -185 -6 l-186 0 -32 37 c-18 20 -66 73 -108 117 -42 45 -93 101 -115 126 -21 25 -54 60 -72 77 l-32 33 -423 0 c-316 0 -426 -3 -435 -12 -8 -8 -12 -66 -12 -195 l0 -183 -130 0 -130 0 0 823 0 822 186 -3 186 -3 31 -37z m-8890 -39 c41 -43 92 -98 113 -123 21 -24 71 -78 110 -120 39 -41 89 -95 110 -120 21 -24 66 -74 100 -110 34 -36 79 -85 100 -110 21 -25 50 -56 64 -70 27 -27 105 -113 184 -200 27 -30 76 -84 110 -120 34 -36 95 -103 136 -149 99 -111 99 -111 116 -111 12 0 14 94 14 655 l0 655 135 0 135 0 0 -822 0 -823 -187 3 -188 3 -45 47 c-61 65 -218 237 -266 292 -21 25 -50 56 -64 70 -14 14 -50 53 -80 86 -185 202 -241 264 -276 304 -21 25 -50 56 -64 70 -14 14 -50 53 -80 86 -185 202 -241 264 -276 304 -21 25 -50 56 -64 70 -28 28 -109 116 -184 200 -27 30 -60 67 -74 83 l-26 27 187 0 186 0 74 -77z m4019 -43 l3 -120 -475 -2 -475 -3 -3 -212 c-2 -184 0 -213 14 -227 14 -15 58 -16 420 -14 l404 3 0 -122 0 -123 -417 -2 -418 -3 -3 -219 c-2 -153 1 -223 9 -232 9 -12 94 -14 480 -14 l469 0 0 -117 0 -118 -610 0 -610 0 0 823 0 822 604 0 605 0 3 -120z m-6142 -76 c30 -33 100 -109 156 -170 55 -60 118 -129 140 -154 21 -24 71 -78 110 -120 39 -41 89 -95 110 -120 21 -25 46 -52 54 -60 8 -8 40 -42 70 -75 30 -34 100 -110 156 -170 55 -61 118 -130 140 -154 21 -25 59 -65 83 -90 23 -26 73 -80 110 -121 36 -41 98 -108 137 -150 39 -41 89 -95 110 -120 43 -49 54 -61 133 -144 l53 -56 -489 0 -489 0 -49 53 c-26 28 -75 81 -109 117 -34 36 -83 90 -110 120 -27 30 -72 80 -100 110 -150 163 -257 280 -292 319 -21 25 -59 65 -83 90 -23 26 -73 80 -110 121 -36 41 -98 108 -137 150 -39 41 -89 95 -110 120 -21 24 -49 55 -62 68 -22 23 -22 23 -3 48 11 14 66 75 123 137 57 61 128 138 158 171 30 33 68 74 84 90 15 17 44 50 63 73 l35 42 31 -33 c18 -17 57 -59 87 -92z"/>
<path d="M23192 1508 l3 -333 304 -3 c187 -1 308 1 314 7 7 7 0 20 -19 39 -33 32 -212 225 -270 292 -21 24 -71 78 -110 120 -39 41 -89 95 -110 120 -64 73 -82 90 -99 90 -14 0 -15 -37 -13 -332z"/>
</g>
</g>
  <g id="id3:id3" transform="matrix(1.25,0,0,1.25,0.0,0.0)"><g transform="translate(0.000000,194.400000) scale(0.040000,-0.040000)" fill="#092130" stroke="none">
<path d="M0 2430 l0 -2430 12470 0 12470 0 0 2430 0 2430 -12470 0 -12470 0 0 -2430z m13885 2144 c0 -6 -65 -82 -145 -170 -80 -87 -197 -214 -260 -284 -63 -69 -257 -280 -430 -469 -173 -190 -391 -429 -485 -531 -93 -102 -210 -230 -259 -283 -49 -54 -95 -97 -102 -95 -16 4 -506 539 -502 549 3 7 522 577 663 729 34 36 135 146 225 245 90 99 194 213 232 253 l69 72 497 -2 c356 -2 497 -6 497 -14z"/>
</g>
</g>
  <g id="id4:id4" transform="matrix(1.25,0,0,1.25,0.0,0.0)"><g transform="translate(0.000000,194.400000) scale(0.040000,-0.040000)" fill="#092130" stroke="none">
<path d="M0 2430 l0 -2430 12470 0 12470 0 0 2430 0 2430 -12470 0 -12470 0 0 -2430z m13885 2144 c0 -6 -65 -82 -145 -170 -80 -87 -197 -214 -260 -284 -63 -69 -257 -280 -430 -469 -173 -190 -391 -429 -485 -531 -93 -102 -210 -230 -259 -283 -49 -54 -95 -97 -102 -95 -16 4 -506 539 -502 549 3 7 522 577 663 729 34 36 135 146 225 245 90 99 194 213 232 253 l69 72 497 -2 c356 -2 497 -6 497 -14z"/>
</g>
</g>
  <g id="id5:id5" transform="matrix(1.25,0,0,1.25,0.0,0.0)"><g transform="translate(0.000000,194.400000) scale(0.040000,-0.040000)" fill="#092130" stroke="none">
<path d="M0 2430 l0 -2430 12470 0 12470 0 0 2430 0 2430 -12470 0 -12470 0 0 -2430z m13885 2144 c0 -6 -65 -82 -145 -170 -80 -87 -197 -214 -260 -284 -63 -69 -257 -280 -430 -469 -173 -190 -391 -429 -485 -531 -93 -102 -210 -230 -259 -283 -49 -54 -95 -97 -102 -95 -16 4 -506 539 -502 549 3 7 522 577 663 729 34 36 135 146 225 245 90 99 194 213 232 253 l69 72 497 -2 c356 -2 497 -6 497 -14z"/>
</g>
</g>
  <g id="id6:id6" transform="matrix(1.25,0,0,1.25,0.0,0.0)"><g transform="translate(0.000000,194.400000) scale(0.040000,-0.040000)" fill="#49b7cd" stroke="none">
<path d="M0 2430 l0 -2430 12470 0 12470 0 0 2430 0 2430 -12470 0 -12470 0 0 -2430z m4575 2142 c-11 -10 -54 -56 -95 -102 -41 -47 -81 -92 -90 -100 -8 -8 -49 -53 -90 -100 -41 -47 -82 -92 -90 -100 -8 -8 -28 -31 -44 -50 -16 -19 -59 -67 -96 -107 -37 -39 -76 -83 -87 -97 l-21 -26 -1458 -2 -1459 -3 0 -615 0 -615 1203 -3 1202 -2 0 -350 0 -350 -1203 -2 -1202 -3 0 -828 0 -827 -367 0 -368 0 0 2150 0 2150 2143 0 c2040 -1 2141 -1 2122 -18z m3030 -1 c144 -19 303 -53 337 -72 10 -5 27 -9 37 -9 11 0 23 -4 26 -10 3 -5 14 -10 24 -10 10 0 31 -6 47 -14 16 -8 47 -21 69 -31 199 -85 383 -221 511 -378 39 -48 77 -99 85 -114 8 -16 16 -30 19 -33 15 -14 83 -168 101 -225 6 -22 15 -49 20 -60 29 -73 45 -312 31 -463 -15 -165 -22 -211 -33 -218 -5 -3 -9 -18 -9 -34 0 -16 -4 -32 -10 -35 -5 -3 -10 -15 -10 -26 0 -10 -4 -27 -9 -37 -5 -9 -32 -64 -60 -122 -116 -238 -309 -429 -558 -554 -115 -58 -144 -70 -228 -97 -38 -12 -79 -25 -90 -30 -11 -4 -36 -10 -55 -14 -19 -3 -60 -10 -90 -16 -147 -27 -271 -31 -1170 -37 l-955 -7 -3 -817 -2 -818 -360 0 -360 0 0 1170 0 1170 1285 0 c900 0 1299 3 1332 11 94 22 128 31 145 40 10 5 25 9 33 9 8 0 15 3 15 8 0 4 23 18 51 32 74 36 178 149 221 240 93 196 102 410 25 580 -40 89 -158 216 -217 235 -11 4 -20 11 -20 16 0 5 -7 9 -15 9 -8 0 -25 5 -38 12 -48 24 -57 28 -77 28 -11 0 -28 4 -38 9 -56 29 -166 31 -1561 31 l-1423 0 60 68 c33 37 73 81 88 98 16 16 63 68 104 115 41 46 82 91 90 99 8 8 28 31 44 50 15 19 56 64 90 100 33 36 81 89 105 118 l43 52 1137 -4 c739 -2 1164 -7 1216 -15z m2078 -38 c30 -32 72 -78 93 -102 21 -25 59 -65 83 -90 23 -26 73 -80 110 -121 36 -41 98 -108 137 -150 39 -41 89 -95 110 -120 21 -24 66 -74 100 -110 34 -36 79 -85 100 -109 21 -25 59 -65 83 -90 23 -26 73 -80 110 -121 36 -41 98 -108 137 -150 39 -41 89 -95 110 -120 21 -25 46 -52 54 -60 8 -8 40 -42 70 -75 30 -34 100 -110 156 -170 55 -61 118 -130 140 -154 21 -25 59 -65 83 -90 23 -26 73 -80 110 -121 36 -41 78 -87 93 -101 l27 -27 -27 -29 c-15 -16 -45 -49 -66 -73 -21 -25 -71 -79 -110 -120 -39 -42 -101 -109 -137 -150 -37 -41 -87 -95 -110 -121 -24 -25 -62 -65 -83 -90 -21 -24 -66 -73 -100 -109 -34 -36 -79 -86 -100 -110 -21 -25 -71 -79 -110 -120 -39 -42 -89 -96 -110 -120 -22 -25 -85 -94 -140 -155 -56 -60 -126 -136 -156 -170 -30 -33 -62 -67 -70 -75 -8 -8 -33 -35 -54 -60 -21 -25 -71 -79 -110 -120 -39 -42 -89 -96 -110 -120 -22 -25 -85 -94 -140 -155 -56 -60 -126 -136 -156 -170 -30 -33 -64 -68 -74 -77 -18 -17 -54 -18 -498 -18 -263 0 -478 3 -478 6 0 3 6 11 13 18 6 7 55 60 107 117 177 193 205 224 220 239 8 8 33 35 54 60 21 25 71 79 110 120 39 42 101 109 137 150 37 41 87 95 110 121 24 25 62 65 83 90 22 24 85 93 140 154 56 60 126 136 156 170 30 33 62 67 70 75 8 8 33 35 54 60 21 25 71 79 110 120 39 42 89 96 110 120 21 25 71 79 110 120 39 42 101 109 137 150 37 41 87 95 110 121 83 86 119 129 119 142 0 7 -16 31 -37 52 -20 22 -59 65 -87 96 -28 30 -96 104 -152 165 -55 60 -118 129 -140 154 -21 24 -66 74 -100 110 -34 36 -79 85 -100 110 -21 25 -50 56 -64 70 -27 27 -104 112 -184 200 -27 30 -72 80 -100 110 -161 175 -257 280 -292 320 -21 25 -46 52 -54 60 -8 8 -40 42 -70 75 -30 34 -100 110 -156 170 -55 61 -118 130 -140 155 -21 24 -71 78 -110 120 -39 41 -92 99 -119 128 l-48 52 491 0 490 0 55 -57z m4202 41 c0 -6 -65 -82 -145 -170 -80 -87 -197 -214 -260 -284 -63 -69 -257 -280 -430 -469 -173 -190 -391 -429 -485 -531 -93 -102 -210 -230 -259 -283 -49 -54 -95 -97 -102 -95 -16 4 -506 539 -502 549 3 7 522 577 663 729 34 36 135 146 225 245 90 99 194 213 232 253 l69 72 497 -2 c356 -2 497 -6 497 -14z m2855 -3225 l0 -819 -119 0 c-66 0 -126 -3 -135 -6 -15 -6 -16 71 -16 822 l0 829 135 -3 135 -3 0 -820z m2545 731 c36 -47 98 -128 138 -180 39 -52 77 -102 84 -110 42 -52 112 -142 133 -170 14 -18 43 -56 65 -84 22 -28 61 -78 85 -111 25 -33 50 -66 57 -75 67 -85 112 -142 133 -170 31 -42 73 -93 81 -100 3 -3 8 -13 12 -22 3 -10 16 -18 27 -18 20 0 20 4 20 565 l0 565 135 0 135 0 0 -822 0 -823 -117 0 c-133 0 -116 -9 -203 105 -30 40 -82 107 -115 149 -33 42 -80 103 -105 136 -25 33 -50 66 -57 75 -67 84 -112 142 -133 170 -14 18 -43 56 -65 84 -22 28 -61 78 -85 111 -25 33 -51 66 -57 73 -7 7 -39 48 -70 90 -32 42 -62 82 -68 88 -27 31 -42 51 -48 67 -3 9 -16 17 -27 17 -20 0 -20 -4 -20 -580 l0 -580 -119 0 c-66 0 -126 -3 -135 -6 -15 -6 -16 71 -16 822 l0 829 135 -5 134 -5 66 -85z m3095 -730 l0 -819 -112 -3 -113 -3 -29 30 c-15 16 -54 64 -85 105 -31 41 -61 82 -68 90 -35 44 -111 141 -133 170 -14 18 -43 56 -65 84 -22 28 -61 78 -85 111 -25 33 -51 66 -57 73 -7 7 -39 48 -70 90 -32 42 -63 84 -70 92 -29 36 -112 143 -163 210 -30 40 -62 82 -71 93 -10 13 -22 18 -32 14 -16 -6 -17 -56 -17 -584 l0 -578 -130 0 -130 0 0 823 0 823 132 -3 132 -3 50 -66 c28 -36 62 -81 76 -99 14 -18 45 -59 70 -91 87 -111 195 -250 273 -353 12 -16 42 -55 67 -86 25 -31 56 -72 70 -90 14 -18 43 -56 65 -84 22 -28 61 -78 85 -111 51 -68 70 -92 86 -109 5 -6 13 -19 17 -29 4 -10 13 -17 20 -14 9 3 13 128 15 573 l2 569 135 -3 135 -3 0 -819z m953 782 c18 -20 66 -72 108 -116 42 -45 93 -101 115 -126 21 -24 66 -74 100 -110 34 -36 79 -85 100 -110 21 -25 46 -52 54 -60 8 -8 40 -42 70 -75 30 -34 100 -110 156 -170 55 -61 118 -130 140 -155 21 -25 46 -52 54 -60 8 -8 40 -42 70 -75 30 -34 100 -110 156 -170 55 -61 118 -130 140 -155 42 -48 50 -57 137 -148 31 -33 57 -63 57 -66 0 -3 -83 -6 -185 -6 l-186 0 -32 37 c-18 20 -66 73 -108 117 -42 45 -93 101 -115 126 -21 25 -54 60 -72 77 l-32 33 -423 0 c-316 0 -426 -3 -435 -12 -8 -8 -12 -66 -12 -195 l0 -183 -130 0 -130 0 0 823 0 822 186 -3 186 -3 31 -37z m-8890 -39 c41 -43 92 -98 113 -123 21 -24 71 -78 110 -120 39 -41 89 -95 110 -120 21 -24 66 -74 100 -110 34 -36 79 -85 100 -110 21 -25 50 -56 64 -70 27 -27 105 -113 184 -200 27 -30 76 -84 110 -120 34 -36 95 -103 136 -149 99 -111 99 -111 116 -111 12 0 14 94 14 655 l0 655 135 0 135 0 0 -822 0 -823 -187 3 -188 3 -45 47 c-61 65 -218 237 -266 292 -21 25 -50 56 -64 70 -14 14 -50 53 -80 86 -185 202 -241 264 -276 304 -21 25 -50 56 -64 70 -14 14 -50 53 -80 86 -185 202 -241 264 -276 304 -21 25 -50 56 -64 70 -28 28 -109 116 -184 200 -27 30 -60 67 -74 83 l-26 27 187 0 186 0 74 -77z m4019 -43 l3 -120 -475 -2 -475 -3 -3 -212 c-2 -184 0 -213 14 -227 14 -15 58 -16 420 -14 l404 3 0 -122 0 -123 -417 -2 -418 -3 -3 -219 c-2 -153 1 -223 9 -232 9 -12 94 -14 480 -14 l469 0 0 -117 0 -118 -610 0 -610 0 0 823 0 822 604 0 605 0 3 -120z m-6142 -76 c30 -33 100 -109 156 -170 55 -60 118 -129 140 -154 21 -24 71 -78 110 -120 39 -41 89 -95 110 -120 21 -25 46 -52 54 -60 8 -8 40 -42 70 -75 30 -34 100 -110 156 -170 55 -61 118 -130 140 -154 21 -25 59 -65 83 -90 23 -26 73 -80 110 -121 36 -41 98 -108 137 -150 39 -41 89 -95 110 -120 43 -49 54 -61 133 -144 l53 -56 -489 0 -489 0 -49 53 c-26 28 -75 81 -109 117 -34 36 -83 90 -110 120 -27 30 -72 80 -100 110 -150 163 -257 280 -292 319 -21 25 -59 65 -83 90 -23 26 -73 80 -110 121 -36 41 -98 108 -137 150 -39 41 -89 95 -110 120 -21 24 -49 55 -62 68 -22 23 -22 23 -3 48 11 14 66 75 123 137 57 61 128 138 158 171 30 33 68 74 84 90 15 17 44 50 63 73 l35 42 31 -33 c18 -17 57 -59 87 -92z"/>
<path d="M12855 4528 c-21 -24 -82 -90 -135 -148 -53 -58 -114 -125 -136 -150 -21 -24 -71 -78 -110 -120 -39 -41 -89 -95 -110 -120 -21 -24 -48 -54 -59 -66 -61 -64 -314 -341 -361 -394 -21 -25 -46 -52 -54 -60 -72 -72 -160 -172 -160 -183 0 -6 26 -39 58 -72 31 -33 75 -81 96 -105 21 -25 71 -79 110 -120 39 -42 102 -111 140 -154 l70 -78 50 54 c81 85 177 189 230 248 27 30 76 84 110 120 81 87 234 254 288 315 24 27 52 58 63 69 11 12 63 68 115 126 52 58 122 134 156 170 34 36 79 85 100 110 21 24 71 78 110 120 39 41 89 95 110 120 21 24 67 74 100 110 34 36 82 87 105 114 24 27 63 69 86 93 l41 43 -488 0 -488 0 -37 -42z"/>
<path d="M23192 1508 l3 -333 304 -3 c187 -1 308 1 314 7 7 7 0 20 -19 39 -33 32 -212 225 -270 292 -21 24 -71 78 -110 120 -39 41 -89 95 -110 120 -64 73 -82 90 -99 90 -14 0 -15 -37 -13 -332z"/>
</g>
</g>
  <g id="id7:id7" transform="matrix(1.25,0,0,1.25,0.0,0.0)"><g transform="translate(0.000000,194.400000) scale(0.040000,-0.040000)" fill="#49b7cd" stroke="none">
<path d="M0 2430 l0 -2430 12470 0 12470 0 0 2430 0 2430 -12470 0 -12470 0 0 -2430z m4575 2142 c-11 -10 -54 -56 -95 -102 -41 -47 -81 -92 -90 -100 -8 -8 -49 -53 -90 -100 -41 -47 -82 -92 -90 -100 -8 -8 -28 -31 -44 -50 -16 -19 -59 -67 -96 -107 -37 -39 -76 -83 -87 -97 l-21 -26 -1458 -2 -1459 -3 0 -615 0 -615 1203 -3 1202 -2 0 -350 0 -350 -1203 -2 -1202 -3 0 -828 0 -827 -367 0 -368 0 0 2150 0 2150 2143 0 c2040 -1 2141 -1 2122 -18z m3030 -1 c144 -19 303 -53 337 -72 10 -5 27 -9 37 -9 11 0 23 -4 26 -10 3 -5 14 -10 24 -10 10 0 31 -6 47 -14 16 -8 47 -21 69 -31 199 -85 383 -221 511 -378 39 -48 77 -99 85 -114 8 -16 16 -30 19 -33 15 -14 83 -168 101 -225 6 -22 15 -49 20 -60 29 -73 45 -312 31 -463 -15 -165 -22 -211 -33 -218 -5 -3 -9 -18 -9 -34 0 -16 -4 -32 -10 -35 -5 -3 -10 -15 -10 -26 0 -10 -4 -27 -9 -37 -5 -9 -32 -64 -60 -122 -116 -238 -309 -429 -558 -554 -115 -58 -144 -70 -228 -97 -38 -12 -79 -25 -90 -30 -11 -4 -36 -10 -55 -14 -19 -3 -60 -10 -90 -16 -147 -27 -271 -31 -1170 -37 l-955 -7 -3 -817 -2 -818 -360 0 -360 0 0 1170 0 1170 1285 0 c900 0 1299 3 1332 11 94 22 128 31 145 40 10 5 25 9 33 9 8 0 15 3 15 8 0 4 23 18 51 32 74 36 178 149 221 240 93 196 102 410 25 580 -40 89 -158 216 -217 235 -11 4 -20 11 -20 16 0 5 -7 9 -15 9 -8 0 -25 5 -38 12 -48 24 -57 28 -77 28 -11 0 -28 4 -38 9 -56 29 -166 31 -1561 31 l-1423 0 60 68 c33 37 73 81 88 98 16 16 63 68 104 115 41 46 82 91 90 99 8 8 28 31 44 50 15 19 56 64 90 100 33 36 81 89 105 118 l43 52 1137 -4 c739 -2 1164 -7 1216 -15z m2078 -38 c30 -32 72 -78 93 -102 21 -25 59 -65 83 -90 23 -26 73 -80 110 -121 36 -41 98 -108 137 -150 39 -41 89 -95 110 -120 21 -24 66 -74 100 -110 34 -36 79 -85 100 -109 21 -25 59 -65 83 -90 23 -26 73 -80 110 -121 36 -41 98 -108 137 -150 39 -41 89 -95 110 -120 21 -25 46 -52 54 -60 8 -8 40 -42 70 -75 30 -34 100 -110 156 -170 55 -61 118 -130 140 -154 21 -25 59 -65 83 -90 23 -26 73 -80 110 -121 36 -41 78 -87 93 -101 l27 -27 -27 -29 c-15 -16 -45 -49 -66 -73 -21 -25 -71 -79 -110 -120 -39 -42 -101 -109 -137 -150 -37 -41 -87 -95 -110 -121 -24 -25 -62 -65 -83 -90 -21 -24 -66 -73 -100 -109 -34 -36 -79 -86 -100 -110 -21 -25 -71 -79 -110 -120 -39 -42 -89 -96 -110 -120 -22 -25 -85 -94 -140 -155 -56 -60 -126 -136 -156 -170 -30 -33 -62 -67 -70 -75 -8 -8 -33 -35 -54 -60 -21 -25 -71 -79 -110 -120 -39 -42 -89 -96 -110 -120 -22 -25 -85 -94 -140 -155 -56 -60 -126 -136 -156 -170 -30 -33 -64 -68 -74 -77 -18 -17 -54 -18 -498 -18 -263 0 -478 3 -478 6 0 3 6 11 13 18 6 7 55 60 107 117 177 193 205 224 220 239 8 8 33 35 54 60 21 25 71 79 110 120 39 42 101 109 137 150 37 41 87 95 110 121 24 25 62 65 83 90 22 24 85 93 140 154 56 60 126 136 156 170 30 33 62 67 70 75 8 8 33 35 54 60 21 25 71 79 110 120 39 42 89 96 110 120 21 25 71 79 110 120 39 42 101 109 137 150 37 41 87 95 110 121 83 86 119 129 119 142 0 7 -16 31 -37 52 -20 22 -59 65 -87 96 -28 30 -96 104 -152 165 -55 60 -118 129 -140 154 -21 24 -66 74 -100 110 -34 36 -79 85 -100 110 -21 25 -50 56 -64 70 -27 27 -104 112 -184 200 -27 30 -72 80 -100 110 -161 175 -257 280 -292 320 -21 25 -46 52 -54 60 -8 8 -40 42 -70 75 -30 34 -100 110 -156 170 -55 61 -118 130 -140 155 -21 24 -71 78 -110 120 -39 41 -92 99 -119 128 l-48 52 491 0 490 0 55 -57z m4202 41 c0 -6 -65 -82 -145 -170 -80 -87 -197 -214 -260 -284 -63 -69 -257 -280 -430 -469 -173 -190 -391 -429 -485 -531 -93 -102 -210 -230 -259 -283 -49 -54 -95 -97 -102 -95 -16 4 -506 539 -502 549 3 7 522 577 663 729 34 36 135 146 225 245 90 99 194 213 232 253 l69 72 497 -2 c356 -2 497 -6 497 -14z m2855 -3225 l0 -819 -119 0 c-66 0 -126 -3 -135 -6 -15 -6 -16 71 -16 822 l0 829 135 -3 135 -3 0 -820z m2545 731 c36 -47 98 -128 138 -180 39 -52 77 -102 84 -110 42 -52 112 -142 133 -170 14 -18 43 -56 65 -84 22 -28 61 -78 85 -111 25 -33 50 -66 57 -75 67 -85 112 -142 133 -170 31 -42 73 -93 81 -100 3 -3 8 -13 12 -22 3 -10 16 -18 27 -18 20 0 20 4 20 565 l0 565 135 0 135 0 0 -822 0 -823 -117 0 c-133 0 -116 -9 -203 105 -30 40 -82 107 -115 149 -33 42 -80 103 -105 136 -25 33 -50 66 -57 75 -67 84 -112 142 -133 170 -14 18 -43 56 -65 84 -22 28 -61 78 -85 111 -25 33 -51 66 -57 73 -7 7 -39 48 -70 90 -32 42 -62 82 -68 88 -27 31 -42 51 -48 67 -3 9 -16 17 -27 17 -20 0 -20 -4 -20 -580 l0 -580 -119 0 c-66 0 -126 -3 -135 -6 -15 -6 -16 71 -16 822 l0 829 135 -5 134 -5 66 -85z m3095 -730 l0 -819 -112 -3 -113 -3 -29 30 c-15 16 -54 64 -85 105 -31 41 -61 82 -68 90 -35 44 -111 141 -133 170 -14 18 -43 56 -65 84 -22 28 -61 78 -85 111 -25 33 -51 66 -57 73 -7 7 -39 48 -70 90 -32 42 -63 84 -70 92 -29 36 -112 143 -163 210 -30 40 -62 82 -71 93 -10 13 -22 18 -32 14 -16 -6 -17 -56 -17 -584 l0 -578 -130 0 -130 0 0 823 0 823 132 -3 132 -3 50 -66 c28 -36 62 -81 76 -99 14 -18 45 -59 70 -91 87 -111 195 -250 273 -353 12 -16 42 -55 67 -86 25 -31 56 -72 70 -90 14 -18 43 -56 65 -84 22 -28 61 -78 85 -111 51 -68 70 -92 86 -109 5 -6 13 -19 17 -29 4 -10 13 -17 20 -14 9 3 13 128 15 573 l2 569 135 -3 135 -3 0 -819z m953 782 c18 -20 66 -72 108 -116 42 -45 93 -101 115 -126 21 -24 66 -74 100 -110 34 -36 79 -85 100 -110 21 -25 46 -52 54 -60 8 -8 40 -42 70 -75 30 -34 100 -110 156 -170 55 -61 118 -130 140 -155 21 -25 46 -52 54 -60 8 -8 40 -42 70 -75 30 -34 100 -110 156 -170 55 -61 118 -130 140 -155 42 -48 50 -57 137 -148 31 -33 57 -63 57 -66 0 -3 -83 -6 -185 -6 l-186 0 -32 37 c-18 20 -66 73 -108 117 -42 45 -93 101 -115 126 -21 25 -54 60 -72 77 l-32 33 -423 0 c-316 0 -426 -3 -435 -12 -8 -8 -12 -66 -12 -195 l0 -183 -130 0 -130 0 0 823 0 822 186 -3 186 -3 31 -37z m-8890 -39 c41 -43 92 -98 113 -123 21 -24 71 -78 110 -120 39 -41 89 -95 110 -120 21 -24 66 -74 100 -110 34 -36 79 -85 100 -110 21 -25 50 -56 64 -70 27 -27 105 -113 184 -200 27 -30 76 -84 110 -120 34 -36 95 -103 136 -149 99 -111 99 -111 116 -111 12 0 14 94 14 655 l0 655 135 0 135 0 0 -822 0 -823 -187 3 -188 3 -45 47 c-61 65 -218 237 -266 292 -21 25 -50 56 -64 70 -14 14 -50 53 -80 86 -185 202 -241 264 -276 304 -21 25 -50 56 -64 70 -14 14 -50 53 -80 86 -185 202 -241 264 -276 304 -21 25 -50 56 -64 70 -28 28 -109 116 -184 200 -27 30 -60 67 -74 83 l-26 27 187 0 186 0 74 -77z m4019 -43 l3 -120 -475 -2 -475 -3 -3 -212 c-2 -184 0 -213 14 -227 14 -15 58 -16 420 -14 l404 3 0 -122 0 -123 -417 -2 -418 -3 -3 -219 c-2 -153 1 -223 9 -232 9 -12 94 -14 480 -14 l469 0 0 -117 0 -118 -610 0 -610 0 0 823 0 822 604 0 605 0 3 -120z m-6142 -76 c30 -33 100 -109 156 -170 55 -60 118 -129 140 -154 21 -24 71 -78 110 -120 39 -41 89 -95 110 -120 21 -25 46 -52 54 -60 8 -8 40 -42 70 -75 30 -34 100 -110 156 -170 55 -61 118 -130 140 -154 21 -25 59 -65 83 -90 23 -26 73 -80 110 -121 36 -41 98 -108 137 -150 39 -41 89 -95 110 -120 43 -49 54 -61 133 -144 l53 -56 -489 0 -489 0 -49 53 c-26 28 -75 81 -109 117 -34 36 -83 90 -110 120 -27 30 -72 80 -100 110 -150 163 -257 280 -292 319 -21 25 -59 65 -83 90 -23 26 -73 80 -110 121 -36 41 -98 108 -137 150 -39 41 -89 95 -110 120 -21 24 -49 55 -62 68 -22 23 -22 23 -3 48 11 14 66 75 123 137 57 61 128 138 158 171 30 33 68 74 84 90 15 17 44 50 63 73 l35 42 31 -33 c18 -17 57 -59 87 -92z"/>
<path d="M12855 4528 c-21 -24 -82 -90 -135 -148 -53 -58 -114 -125 -136 -150 -21 -24 -71 -78 -110 -120 -39 -41 -89 -95 -110 -120 -21 -24 -48 -54 -59 -66 -61 -64 -314 -341 -361 -394 -21 -25 -46 -52 -54 -60 -72 -72 -160 -172 -160 -183 0 -6 26 -39 58 -72 31 -33 75 -81 96 -105 21 -25 71 -79 110 -120 39 -42 102 -111 140 -154 l70 -78 50 54 c81 85 177 189 230 248 27 30 76 84 110 120 81 87 234 254 288 315 24 27 52 58 63 69 11 12 63 68 115 126 52 58 122 134 156 170 34 36 79 85 100 110 21 24 71 78 110 120 39 41 89 95 110 120 21 24 67 74 100 110 34 36 82 87 105 114 24 27 63 69 86 93 l41 43 -488 0 -488 0 -37 -42z"/>
<path d="M23192 1508 l3 -333 304 -3 c187 -1 308 1 314 7 7 7 0 20 -19 39 -33 32 -212 225 -270 292 -21 24 -71 78 -110 120 -39 41 -89 95 -110 120 -64 73 -82 90 -99 90 -14 0 -15 -37 -13 -332z"/>
</g>
</g>
  <g id="id8:id8" transform="matrix(1.25,0,0,1.25,0.0,0.0)"><g transform="translate(0.000000,194.400000) scale(0.040000,-0.040000)" fill="#49b7cd" stroke="none">
<path d="M0 2430 l0 -2430 12470 0 12470 0 0 2430 0 2430 -12470 0 -12470 0 0 -2430z m4575 2142 c-11 -10 -54 -56 -95 -102 -41 -47 -81 -92 -90 -100 -8 -8 -49 -53 -90 -100 -41 -47 -82 -92 -90 -100 -8 -8 -28 -31 -44 -50 -16 -19 -59 -67 -96 -107 -37 -39 -76 -83 -87 -97 l-21 -26 -1458 -2 -1459 -3 0 -615 0 -615 1203 -3 1202 -2 0 -350 0 -350 -1203 -2 -1202 -3 0 -828 0 -827 -367 0 -368 0 0 2150 0 2150 2143 0 c2040 -1 2141 -1 2122 -18z m3030 -1 c144 -19 303 -53 337 -72 10 -5 27 -9 37 -9 11 0 23 -4 26 -10 3 -5 14 -10 24 -10 10 0 31 -6 47 -14 16 -8 47 -21 69 -31 199 -85 383 -221 511 -378 39 -48 77 -99 85 -114 8 -16 16 -30 19 -33 15 -14 83 -168 101 -225 6 -22 15 -49 20 -60 29 -73 45 -312 31 -463 -15 -165 -22 -211 -33 -218 -5 -3 -9 -18 -9 -34 0 -16 -4 -32 -10 -35 -5 -3 -10 -15 -10 -26 0 -10 -4 -27 -9 -37 -5 -9 -32 -64 -60 -122 -116 -238 -309 -429 -558 -554 -115 -58 -144 -70 -228 -97 -38 -12 -79 -25 -90 -30 -11 -4 -36 -10 -55 -14 -19 -3 -60 -10 -90 -16 -147 -27 -271 -31 -1170 -37 l-955 -7 -3 -817 -2 -818 -360 0 -360 0 0 1170 0 1170 1285 0 c900 0 1299 3 1332 11 94 22 128 31 145 40 10 5 25 9 33 9 8 0 15 3 15 8 0 4 23 18 51 32 74 36 178 149 221 240 93 196 102 410 25 580 -40 89 -158 216 -217 235 -11 4 -20 11 -20 16 0 5 -7 9 -15 9 -8 0 -25 5 -38 12 -48 24 -57 28 -77 28 -11 0 -28 4 -38 9 -56 29 -166 31 -1561 31 l-1423 0 60 68 c33 37 73 81 88 98 16 16 63 68 104 115 41 46 82 91 90 99 8 8 28 31 44 50 15 19 56 64 90 100 33 36 81 89 105 118 l43 52 1137 -4 c739 -2 1164 -7 1216 -15z m2078 -38 c30 -32 72 -78 93 -102 21 -25 59 -65 83 -90 23 -26 73 -80 110 -121 36 -41 98 -108 137 -150 39 -41 89 -95 110 -120 21 -24 66 -74 100 -110 34 -36 79 -85 100 -109 21 -25 59 -65 83 -90 23 -26 73 -80 110 -121 36 -41 98 -108 137 -150 39 -41 89 -95 110 -120 21 -25 46 -52 54 -60 8 -8 40 -42 70 -75 30 -34 100 -110 156 -170 55 -61 118 -130 140 -154 21 -25 59 -65 83 -90 23 -26 73 -80 110 -121 36 -41 78 -87 93 -101 l27 -27 -27 -29 c-15 -16 -45 -49 -66 -73 -21 -25 -71 -79 -110 -120 -39 -42 -101 -109 -137 -150 -37 -41 -87 -95 -110 -121 -24 -25 -62 -65 -83 -90 -21 -24 -66 -73 -100 -109 -34 -36 -79 -86 -100 -110 -21 -25 -71 -79 -110 -120 -39 -42 -89 -96 -110 -120 -22 -25 -85 -94 -140 -155 -56 -60 -126 -136 -156 -170 -30 -33 -62 -67 -70 -75 -8 -8 -33 -35 -54 -60 -21 -25 -71 -79 -110 -120 -39 -42 -89 -96 -110 -120 -22 -25 -85 -94 -140 -155 -56 -60 -126 -136 -156 -170 -30 -33 -64 -68 -74 -77 -18 -17 -54 -18 -498 -18 -263 0 -478 3 -478 6 0 3 6 11 13 18 6 7 55 60 107 117 177 193 205 224 220 239 8 8 33 35 54 60 21 25 71 79 110 120 39 42 101 109 137 150 37 41 87 95 110 121 24 25 62 65 83 90 22 24 85 93 140 154 56 60 126 136 156 170 30 33 62 67 70 75 8 8 33 35 54 60 21 25 71 79 110 120 39 42 89 96 110 120 21 25 71 79 110 120 39 42 101 109 137 150 37 41 87 95 110 121 83 86 119 129 119 142 0 7 -16 31 -37 52 -20 22 -59 65 -87 96 -28 30 -96 104 -152 165 -55 60 -118 129 -140 154 -21 24 -66 74 -100 110 -34 36 -79 85 -100 110 -21 25 -50 56 -64 70 -27 27 -104 112 -184 200 -27 30 -72 80 -100 110 -161 175 -257 280 -292 320 -21 25 -46 52 -54 60 -8 8 -40 42 -70 75 -30 34 -100 110 -156 170 -55 61 -118 130 -140 155 -21 24 -71 78 -110 120 -39 41 -92 99 -119 128 l-48 52 491 0 490 0 55 -57z m4202 41 c0 -6 -65 -82 -145 -170 -80 -87 -197 -214 -260 -284 -63 -69 -257 -280 -430 -469 -173 -190 -391 -429 -485 -531 -93 -102 -210 -230 -259 -283 -49 -54 -95 -97 -102 -95 -16 4 -506 539 -502 549 3 7 522 577 663 729 34 36 135 146 225 245 90 99 194 213 232 253 l69 72 497 -2 c356 -2 497 -6 497 -14z m2855 -3225 l0 -819 -119 0 c-66 0 -126 -3 -135 -6 -15 -6 -16 71 -16 822 l0 829 135 -3 135 -3 0 -820z m2545 731 c36 -47 98 -128 138 -180 39 -52 77 -102 84 -110 42 -52 112 -142 133 -170 14 -18 43 -56 65 -84 22 -28 61 -78 85 -111 25 -33 50 -66 57 -75 67 -85 112 -142 133 -170 31 -42 73 -93 81 -100 3 -3 8 -13 12 -22 3 -10 16 -18 27 -18 20 0 20 4 20 565 l0 565 135 0 135 0 0 -822 0 -823 -117 0 c-133 0 -116 -9 -203 105 -30 40 -82 107 -115 149 -33 42 -80 103 -105 136 -25 33 -50 66 -57 75 -67 84 -112 142 -133 170 -14 18 -43 56 -65 84 -22 28 -61 78 -85 111 -25 33 -51 66 -57 73 -7 7 -39 48 -70 90 -32 42 -62 82 -68 88 -27 31 -42 51 -48 67 -3 9 -16 17 -27 17 -20 0 -20 -4 -20 -580 l0 -580 -119 0 c-66 0 -126 -3 -135 -6 -15 -6 -16 71 -16 822 l0 829 135 -5 134 -5 66 -85z m3095 -730 l0 -819 -112 -3 -113 -3 -29 30 c-15 16 -54 64 -85 105 -31 41 -61 82 -68 90 -35 44 -111 141 -133 170 -14 18 -43 56 -65 84 -22 28 -61 78 -85 111 -25 33 -51 66 -57 73 -7 7 -39 48 -70 90 -32 42 -63 84 -70 92 -29 36 -112 143 -163 210 -30 40 -62 82 -71 93 -10 13 -22 18 -32 14 -16 -6 -17 -56 -17 -584 l0 -578 -130 0 -130 0 0 823 0 823 132 -3 132 -3 50 -66 c28 -36 62 -81 76 -99 14 -18 45 -59 70 -91 87 -111 195 -250 273 -353 12 -16 42 -55 67 -86 25 -31 56 -72 70 -90 14 -18 43 -56 65 -84 22 -28 61 -78 85 -111 51 -68 70 -92 86 -109 5 -6 13 -19 17 -29 4 -10 13 -17 20 -14 9 3 13 128 15 573 l2 569 135 -3 135 -3 0 -819z m953 782 c18 -20 66 -72 108 -116 42 -45 93 -101 115 -126 21 -24 66 -74 100 -110 34 -36 79 -85 100 -110 21 -25 46 -52 54 -60 8 -8 40 -42 70 -75 30 -34 100 -110 156 -170 55 -61 118 -130 140 -155 21 -25 46 -52 54 -60 8 -8 40 -42 70 -75 30 -34 100 -110 156 -170 55 -61 118 -130 140 -155 42 -48 50 -57 137 -148 31 -33 57 -63 57 -66 0 -3 -83 -6 -185 -6 l-186 0 -32 37 c-18 20 -66 73 -108 117 -42 45 -93 101 -115 126 -21 25 -54 60 -72 77 l-32 33 -423 0 c-316 0 -426 -3 -435 -12 -8 -8 -12 -66 -12 -195 l0 -183 -130 0 -130 0 0 823 0 822 186 -3 186 -3 31 -37z m-8890 -39 c41 -43 92 -98 113 -123 21 -24 71 -78 110 -120 39 -41 89 -95 110 -120 21 -24 66 -74 100 -110 34 -36 79 -85 100 -110 21 -25 50 -56 64 -70 27 -27 105 -113 184 -200 27 -30 76 -84 110 -120 34 -36 95 -103 136 -149 99 -111 99 -111 116 -111 12 0 14 94 14 655 l0 655 135 0 135 0 0 -822 0 -823 -187 3 -188 3 -45 47 c-61 65 -218 237 -266 292 -21 25 -50 56 -64 70 -14 14 -50 53 -80 86 -185 202 -241 264 -276 304 -21 25 -50 56 -64 70 -14 14 -50 53 -80 86 -185 202 -241 264 -276 304 -21 25 -50 56 -64 70 -28 28 -109 116 -184 200 -27 30 -60 67 -74 83 l-26 27 187 0 186 0 74 -77z m4019 -43 l3 -120 -475 -2 -475 -3 -3 -212 c-2 -184 0 -213 14 -227 14 -15 58 -16 420 -14 l404 3 0 -122 0 -123 -417 -2 -418 -3 -3 -219 c-2 -153 1 -223 9 -232 9 -12 94 -14 480 -14 l469 0 0 -117 0 -118 -610 0 -610 0 0 823 0 822 604 0 605 0 3 -120z m-6142 -76 c30 -33 100 -109 156 -170 55 -60 118 -129 140 -154 21 -24 71 -78 110 -120 39 -41 89 -95 110 -120 21 -25 46 -52 54 -60 8 -8 40 -42 70 -75 30 -34 100 -110 156 -170 55 -61 118 -130 140 -154 21 -25 59 -65 83 -90 23 -26 73 -80 110 -121 36 -41 98 -108 137 -150 39 -41 89 -95 110 -120 43 -49 54 -61 133 -144 l53 -56 -489 0 -489 0 -49 53 c-26 28 -75 81 -109 117 -34 36 -83 90 -110 120 -27 30 -72 80 -100 110 -150 163 -257 280 -292 319 -21 25 -59 65 -83 90 -23 26 -73 80 -110 121 -36 41 -98 108 -137 150 -39 41 -89 95 -110 120 -21 24 -49 55 -62 68 -22 23 -22 23 -3 48 11 14 66 75 123 137 57 61 128 138 158 171 30 33 68 74 84 90 15 17 44 50 63 73 l35 42 31 -33 c18 -17 57 -59 87 -92z"/>
<path d="M12855 4528 c-21 -24 -82 -90 -135 -148 -53 -58 -114 -125 -136 -150 -21 -24 -71 -78 -110 -120 -39 -41 -89 -95 -110 -120 -21 -24 -48 -54 -59 -66 -61 -64 -314 -341 -361 -394 -21 -25 -46 -52 -54 -60 -72 -72 -160 -172 -160 -183 0 -6 26 -39 58 -72 31 -33 75 -81 96 -105 21 -25 71 -79 110 -120 39 -42 102 -111 140 -154 l70 -78 50 54 c81 85 177 189 230 248 27 30 76 84 110 120 81 87 234 254 288 315 24 27 52 58 63 69 11 12 63 68 115 126 52 58 122 134 156 170 34 36 79 85 100 110 21 24 71 78 110 120 39 41 89 95 110 120 21 24 67 74 100 110 34 36 82 87 105 114 24 27 63 69 86 93 l41 43 -488 0 -488 0 -37 -42z"/>
<path d="M23192 1508 l3 -333 304 -3 c187 -1 308 1 314 7 7 7 0 20 -19 39 -33 32 -212 225 -270 292 -21 24 -71 78 -110 120 -39 41 -89 95 -110 120 -64 73 -82 90 -99 90 -14 0 -15 -37 -13 -332z"/>
</g>
</g>
  <g id="id9:id9" transform="matrix(1.25,0,0,1.25,0.0,0.0)"><g transform="translate(0.000000,194.400000) scale(0.040000,-0.040000)" fill="#49b7cd" stroke="none">
<path d="M0 2430 l0 -2430 12470 0 12470 0 0 2430 0 2430 -12470 0 -12470 0 0 -2430z m4575 2142 c-11 -10 -54 -56 -95 -102 -41 -47 -81 -92 -90 -100 -8 -8 -49 -53 -90 -100 -41 -47 -82 -92 -90 -100 -8 -8 -28 -31 -44 -50 -16 -19 -59 -67 -96 -107 -37 -39 -76 -83 -87 -97 l-21 -26 -1458 -2 -1459 -3 0 -615 0 -615 1203 -3 1202 -2 0 -350 0 -350 -1203 -2 -1202 -3 0 -828 0 -827 -367 0 -368 0 0 2150 0 2150 2143 0 c2040 -1 2141 -1 2122 -18z m3030 -1 c144 -19 303 -53 337 -72 10 -5 27 -9 37 -9 11 0 23 -4 26 -10 3 -5 14 -10 24 -10 10 0 31 -6 47 -14 16 -8 47 -21 69 -31 199 -85 383 -221 511 -378 39 -48 77 -99 85 -114 8 -16 16 -30 19 -33 15 -14 83 -168 101 -225 6 -22 15 -49 20 -60 29 -73 45 -312 31 -463 -15 -165 -22 -211 -33 -218 -5 -3 -9 -18 -9 -34 0 -16 -4 -32 -10 -35 -5 -3 -10 -15 -10 -26 0 -10 -4 -27 -9 -37 -5 -9 -32 -64 -60 -122 -116 -238 -309 -429 -558 -554 -115 -58 -144 -70 -228 -97 -38 -12 -79 -25 -90 -30 -11 -4 -36 -10 -55 -14 -19 -3 -60 -10 -90 -16 -147 -27 -271 -31 -1170 -37 l-955 -7 -3 -817 -2 -818 -360 0 -360 0 0 1170 0 1170 1285 0 c900 0 1299 3 1332 11 94 22 128 31 145 40 10 5 25 9 33 9 8 0 15 3 15 8 0 4 23 18 51 32 74 36 178 149 221 240 93 196 102 410 25 580 -40 89 -158 216 -217 235 -11 4 -20 11 -20 16 0 5 -7 9 -15 9 -8 0 -25 5 -38 12 -48 24 -57 28 -77 28 -11 0 -28 4 -38 9 -56 29 -166 31 -1561 31 l-1423 0 60 68 c33 37 73 81 88 98 16 16 63 68 104 115 41 46 82 91 90 99 8 8 28 31 44 50 15 19 56 64 90 100 33 36 81 89 105 118 l43 52 1137 -4 c739 -2 1164 -7 1216 -15z m2078 -38 c30 -32 72 -78 93 -102 21 -25 59 -65 83 -90 23 -26 73 -80 110 -121 36 -41 98 -108 137 -150 39 -41 89 -95 110 -120 21 -24 66 -74 100 -110 34 -36 79 -85 100 -109 21 -25 59 -65 83 -90 23 -26 73 -80 110 -121 36 -41 98 -108 137 -150 39 -41 89 -95 110 -120 21 -25 46 -52 54 -60 8 -8 40 -42 70 -75 30 -34 100 -110 156 -170 55 -61 118 -130 140 -154 21 -25 59 -65 83 -90 23 -26 73 -80 110 -121 36 -41 78 -87 93 -101 l27 -27 -27 -29 c-15 -16 -45 -49 -66 -73 -21 -25 -71 -79 -110 -120 -39 -42 -101 -109 -137 -150 -37 -41 -87 -95 -110 -121 -24 -25 -62 -65 -83 -90 -21 -24 -66 -73 -100 -109 -34 -36 -79 -86 -100 -110 -21 -25 -71 -79 -110 -120 -39 -42 -89 -96 -110 -120 -22 -25 -85 -94 -140 -155 -56 -60 -126 -136 -156 -170 -30 -33 -62 -67 -70 -75 -8 -8 -33 -35 -54 -60 -21 -25 -71 -79 -110 -120 -39 -42 -89 -96 -110 -120 -22 -25 -85 -94 -140 -155 -56 -60 -126 -136 -156 -170 -30 -33 -64 -68 -74 -77 -18 -17 -54 -18 -498 -18 -263 0 -478 3 -478 6 0 3 6 11 13 18 6 7 55 60 107 117 177 193 205 224 220 239 8 8 33 35 54 60 21 25 71 79 110 120 39 42 101 109 137 150 37 41 87 95 110 121 24 25 62 65 83 90 22 24 85 93 140 154 56 60 126 136 156 170 30 33 62 67 70 75 8 8 33 35 54 60 21 25 71 79 110 120 39 42 89 96 110 120 21 25 71 79 110 120 39 42 101 109 137 150 37 41 87 95 110 121 83 86 119 129 119 142 0 7 -16 31 -37 52 -20 22 -59 65 -87 96 -28 30 -96 104 -152 165 -55 60 -118 129 -140 154 -21 24 -66 74 -100 110 -34 36 -79 85 -100 110 -21 25 -50 56 -64 70 -27 27 -104 112 -184 200 -27 30 -72 80 -100 110 -161 175 -257 280 -292 320 -21 25 -46 52 -54 60 -8 8 -40 42 -70 75 -30 34 -100 110 -156 170 -55 61 -118 130 -140 155 -21 24 -71 78 -110 120 -39 41 -92 99 -119 128 l-48 52 491 0 490 0 55 -57z m4202 41 c0 -6 -65 -82 -145 -170 -80 -87 -197 -214 -260 -284 -63 -69 -257 -280 -430 -469 -173 -190 -391 -429 -485 -531 -93 -102 -210 -230 -259 -283 -49 -54 -95 -97 -102 -95 -16 4 -506 539 -502 549 3 7 522 577 663 729 34 36 135 146 225 245 90 99 194 213 232 253 l69 72 497 -2 c356 -2 497 -6 497 -14z m2855 -3225 l0 -819 -119 0 c-66 0 -126 -3 -135 -6 -15 -6 -16 71 -16 822 l0 829 135 -3 135 -3 0 -820z m2545 731 c36 -47 98 -128 138 -180 39 -52 77 -102 84 -110 42 -52 112 -142 133 -170 14 -18 43 -56 65 -84 22 -28 61 -78 85 -111 25 -33 50 -66 57 -75 67 -85 112 -142 133 -170 31 -42 73 -93 81 -100 3 -3 8 -13 12 -22 3 -10 16 -18 27 -18 20 0 20 4 20 565 l0 565 135 0 135 0 0 -822 0 -823 -117 0 c-133 0 -116 -9 -203 105 -30 40 -82 107 -115 149 -33 42 -80 103 -105 136 -25 33 -50 66 -57 75 -67 84 -112 142 -133 170 -14 18 -43 56 -65 84 -22 28 -61 78 -85 111 -25 33 -51 66 -57 73 -7 7 -39 48 -70 90 -32 42 -62 82 -68 88 -27 31 -42 51 -48 67 -3 9 -16 17 -27 17 -20 0 -20 -4 -20 -580 l0 -580 -119 0 c-66 0 -126 -3 -135 -6 -15 -6 -16 71 -16 822 l0 829 135 -5 134 -5 66 -85z m3095 -730 l0 -819 -112 -3 -113 -3 -29 30 c-15 16 -54 64 -85 105 -31 41 -61 82 -68 90 -35 44 -111 141 -133 170 -14 18 -43 56 -65 84 -22 28 -61 78 -85 111 -25 33 -51 66 -57 73 -7 7 -39 48 -70 90 -32 42 -63 84 -70 92 -29 36 -112 143 -163 210 -30 40 -62 82 -71 93 -10 13 -22 18 -32 14 -16 -6 -17 -56 -17 -584 l0 -578 -130 0 -130 0 0 823 0 823 132 -3 132 -3 50 -66 c28 -36 62 -81 76 -99 14 -18 45 -59 70 -91 87 -111 195 -250 273 -353 12 -16 42 -55 67 -86 25 -31 56 -72 70 -90 14 -18 43 -56 65 -84 22 -28 61 -78 85 -111 51 -68 70 -92 86 -109 5 -6 13 -19 17 -29 4 -10 13 -17 20 -14 9 3 13 128 15 573 l2 569 135 -3 135 -3 0 -819z m953 782 c18 -20 66 -72 108 -116 42 -45 93 -101 115 -126 21 -24 66 -74 100 -110 34 -36 79 -85 100 -110 21 -25 46 -52 54 -60 8 -8 40 -42 70 -75 30 -34 100 -110 156 -170 55 -61 118 -130 140 -155 21 -25 46 -52 54 -60 8 -8 40 -42 70 -75 30 -34 100 -110 156 -170 55 -61 118 -130 140 -155 42 -48 50 -57 137 -148 31 -33 57 -63 57 -66 0 -3 -83 -6 -185 -6 l-186 0 -32 37 c-18 20 -66 73 -108 117 -42 45 -93 101 -115 126 -21 25 -54 60 -72 77 l-32 33 -423 0 c-316 0 -426 -3 -435 -12 -8 -8 -12 -66 -12 -195 l0 -183 -130 0 -130 0 0 823 0 822 186 -3 186 -3 31 -37z m-8890 -39 c41 -43 92 -98 113 -123 21 -24 71 -78 110 -120 39 -41 89 -95 110 -120 21 -24 66 -74 100 -110 34 -36 79 -85 100 -110 21 -25 50 -56 64 -70 27 -27 105 -113 184 -200 27 -30 76 -84 110 -120 34 -36 95 -103 136 -149 99 -111 99 -111 116 -111 12 0 14 94 14 655 l0 655 135 0 135 0 0 -822 0 -823 -187 3 -188 3 -45 47 c-61 65 -218 237 -266 292 -21 25 -50 56 -64 70 -14 14 -50 53 -80 86 -185 202 -241 264 -276 304 -21 25 -50 56 -64 70 -14 14 -50 53 -80 86 -185 202 -241 264 -276 304 -21 25 -50 56 -64 70 -28 28 -109 116 -184 200 -27 30 -60 67 -74 83 l-26 27 187 0 186 0 74 -77z m4019 -43 l3 -120 -475 -2 -475 -3 -3 -212 c-2 -184 0 -213 14 -227 14 -15 58 -16 420 -14 l404 3 0 -122 0 -123 -417 -2 -418 -3 -3 -219 c-2 -153 1 -223 9 -232 9 -12 94 -14 480 -14 l469 0 0 -117 0 -118 -610 0 -610 0 0 823 0 822 604 0 605 0 3 -120z m-6142 -76 c30 -33 100 -109 156 -170 55 -60 118 -129 140 -154 21 -24 71 -78 110 -120 39 -41 89 -95 110 -120 21 -25 46 -52 54 -60 8 -8 40 -42 70 -75 30 -34 100 -110 156 -170 55 -61 118 -130 140 -154 21 -25 59 -65 83 -90 23 -26 73 -80 110 -121 36 -41 98 -108 137 -150 39 -41 89 -95 110 -120 43 -49 54 -61 133 -144 l53 -56 -489 0 -489 0 -49 53 c-26 28 -75 81 -109 117 -34 36 -83 90 -110 120 -27 30 -72 80 -100 110 -150 163 -257 280 -292 319 -21 25 -59 65 -83 90 -23 26 -73 80 -110 121 -36 41 -98 108 -137 150 -39 41 -89 95 -110 120 -21 24 -49 55 -62 68 -22 23 -22 23 -3 48 11 14 66 75 123 137 57 61 128 138 158 171 30 33 68 74 84 90 15 17 44 50 63 73 l35 42 31 -33 c18 -17 57 -59 87 -92z"/>
<path d="M12855 4528 c-21 -24 -82 -90 -135 -148 -53 -58 -114 -125 -136 -150 -21 -24 -71 -78 -110 -120 -39 -41 -89 -95 -110 -120 -21 -24 -48 -54 -59 -66 -61 -64 -314 -341 -361 -394 -21 -25 -46 -52 -54 -60 -72 -72 -160 -172 -160 -183 0 -6 26 -39 58 -72 31 -33 75 -81 96 -105 21 -25 71 -79 110 -120 39 -42 102 -111 140 -154 l70 -78 50 54 c81 85 177 189 230 248 27 30 76 84 110 120 81 87 234 254 288 315 24 27 52 58 63 69 11 12 63 68 115 126 52 58 122 134 156 170 34 36 79 85 100 110 21 24 71 78 110 120 39 41 89 95 110 120 21 24 67 74 100 110 34 36 82 87 105 114 24 27 63 69 86 93 l41 43 -488 0 -488 0 -37 -42z"/>
<path d="M23192 1508 l3 -333 304 -3 c187 -1 308 1 314 7 7 7 0 20 -19 39 -33 32 -212 225 -270 292 -21 24 -71 78 -110 120 -39 41 -89 95 -110 120 -64 73 -82 90 -99 90 -14 0 -15 -37 -13 -332z"/>
</g>
</g>
  <g id="id10:id10" transform="matrix(1.25,0,0,1.25,0.0,0.0)"><g transform="translate(0.000000,194.400000) scale(0.040000,-0.040000)" fill="#49b7cd" stroke="none">
<path d="M0 2430 l0 -2430 12470 0 12470 0 0 2430 0 2430 -12470 0 -12470 0 0 -2430z m4575 2142 c-11 -10 -54 -56 -95 -102 -41 -47 -81 -92 -90 -100 -8 -8 -49 -53 -90 -100 -41 -47 -82 -92 -90 -100 -8 -8 -28 -31 -44 -50 -16 -19 -59 -67 -96 -107 -37 -39 -76 -83 -87 -97 l-21 -26 -1458 -2 -1459 -3 0 -615 0 -615 1203 -3 1202 -2 0 -350 0 -350 -1203 -2 -1202 -3 0 -828 0 -827 -367 0 -368 0 0 2150 0 2150 2143 0 c2040 -1 2141 -1 2122 -18z m3030 -1 c144 -19 303 -53 337 -72 10 -5 27 -9 37 -9 11 0 23 -4 26 -10 3 -5 14 -10 24 -10 10 0 31 -6 47 -14 16 -8 47 -21 69 -31 199 -85 383 -221 511 -378 39 -48 77 -99 85 -114 8 -16 16 -30 19 -33 15 -14 83 -168 101 -225 6 -22 15 -49 20 -60 29 -73 45 -312 31 -463 -15 -165 -22 -211 -33 -218 -5 -3 -9 -18 -9 -34 0 -16 -4 -32 -10 -35 -5 -3 -10 -15 -10 -26 0 -10 -4 -27 -9 -37 -5 -9 -32 -64 -60 -122 -116 -238 -309 -429 -558 -554 -115 -58 -144 -70 -228 -97 -38 -12 -79 -25 -90 -30 -11 -4 -36 -10 -55 -14 -19 -3 -60 -10 -90 -16 -147 -27 -271 -31 -1170 -37 l-955 -7 -3 -817 -2 -818 -360 0 -360 0 0 1170 0 1170 1285 0 c900 0 1299 3 1332 11 94 22 128 31 145 40 10 5 25 9 33 9 8 0 15 3 15 8 0 4 23 18 51 32 74 36 178 149 221 240 93 196 102 410 25 580 -40 89 -158 216 -217 235 -11 4 -20 11 -20 16 0 5 -7 9 -15 9 -8 0 -25 5 -38 12 -48 24 -57 28 -77 28 -11 0 -28 4 -38 9 -56 29 -166 31 -1561 31 l-1423 0 60 68 c33 37 73 81 88 98 16 16 63 68 104 115 41 46 82 91 90 99 8 8 28 31 44 50 15 19 56 64 90 100 33 36 81 89 105 118 l43 52 1137 -4 c739 -2 1164 -7 1216 -15z m2078 -38 c30 -32 72 -78 93 -102 21 -25 59 -65 83 -90 23 -26 73 -80 110 -121 36 -41 98 -108 137 -150 39 -41 89 -95 110 -120 21 -24 66 -74 100 -110 34 -36 79 -85 100 -109 21 -25 59 -65 83 -90 23 -26 73 -80 110 -121 36 -41 98 -108 137 -150 39 -41 89 -95 110 -120 21 -25 46 -52 54 -60 8 -8 40 -42 70 -75 30 -34 100 -110 156 -170 55 -61 118 -130 140 -154 21 -25 59 -65 83 -90 23 -26 73 -80 110 -121 36 -41 78 -87 93 -101 l27 -27 -27 -29 c-15 -16 -45 -49 -66 -73 -21 -25 -71 -79 -110 -120 -39 -42 -101 -109 -137 -150 -37 -41 -87 -95 -110 -121 -24 -25 -62 -65 -83 -90 -21 -24 -66 -73 -100 -109 -34 -36 -79 -86 -100 -110 -21 -25 -71 -79 -110 -120 -39 -42 -89 -96 -110 -120 -22 -25 -85 -94 -140 -155 -56 -60 -126 -136 -156 -170 -30 -33 -62 -67 -70 -75 -8 -8 -33 -35 -54 -60 -21 -25 -71 -79 -110 -120 -39 -42 -89 -96 -110 -120 -22 -25 -85 -94 -140 -155 -56 -60 -126 -136 -156 -170 -30 -33 -64 -68 -74 -77 -18 -17 -54 -18 -498 -18 -263 0 -478 3 -478 6 0 3 6 11 13 18 6 7 55 60 107 117 177 193 205 224 220 239 8 8 33 35 54 60 21 25 71 79 110 120 39 42 101 109 137 150 37 41 87 95 110 121 24 25 62 65 83 90 22 24 85 93 140 154 56 60 126 136 156 170 30 33 62 67 70 75 8 8 33 35 54 60 21 25 71 79 110 120 39 42 89 96 110 120 21 25 71 79 110 120 39 42 101 109 137 150 37 41 87 95 110 121 83 86 119 129 119 142 0 7 -16 31 -37 52 -20 22 -59 65 -87 96 -28 30 -96 104 -152 165 -55 60 -118 129 -140 154 -21 24 -66 74 -100 110 -34 36 -79 85 -100 110 -21 25 -50 56 -64 70 -27 27 -104 112 -184 200 -27 30 -72 80 -100 110 -161 175 -257 280 -292 320 -21 25 -46 52 -54 60 -8 8 -40 42 -70 75 -30 34 -100 110 -156 170 -55 61 -118 130 -140 155 -21 24 -71 78 -110 120 -39 41 -92 99 -119 128 l-48 52 491 0 490 0 55 -57z m4202 41 c0 -6 -65 -82 -145 -170 -80 -87 -197 -214 -260 -284 -63 -69 -257 -280 -430 -469 -173 -190 -391 -429 -485 -531 -93 -102 -210 -230 -259 -283 -49 -54 -95 -97 -102 -95 -16 4 -506 539 -502 549 3 7 522 577 663 729 34 36 135 146 225 245 90 99 194 213 232 253 l69 72 497 -2 c356 -2 497 -6 497 -14z m2855 -3225 l0 -819 -119 0 c-66 0 -126 -3 -135 -6 -15 -6 -16 71 -16 822 l0 829 135 -3 135 -3 0 -820z m2545 731 c36 -47 98 -128 138 -180 39 -52 77 -102 84 -110 42 -52 112 -142 133 -170 14 -18 43 -56 65 -84 22 -28 61 -78 85 -111 25 -33 50 -66 57 -75 67 -85 112 -142 133 -170 31 -42 73 -93 81 -100 3 -3 8 -13 12 -22 3 -10 16 -18 27 -18 20 0 20 4 20 565 l0 565 135 0 135 0 0 -822 0 -823 -117 0 c-133 0 -116 -9 -203 105 -30 40 -82 107 -115 149 -33 42 -80 103 -105 136 -25 33 -50 66 -57 75 -67 84 -112 142 -133 170 -14 18 -43 56 -65 84 -22 28 -61 78 -85 111 -25 33 -51 66 -57 73 -7 7 -39 48 -70 90 -32 42 -62 82 -68 88 -27 31 -42 51 -48 67 -3 9 -16 17 -27 17 -20 0 -20 -4 -20 -580 l0 -580 -119 0 c-66 0 -126 -3 -135 -6 -15 -6 -16 71 -16 822 l0 829 135 -5 134 -5 66 -85z m3095 -730 l0 -819 -112 -3 -113 -3 -29 30 c-15 16 -54 64 -85 105 -31 41 -61 82 -68 90 -35 44 -111 141 -133 170 -14 18 -43 56 -65 84 -22 28 -61 78 -85 111 -25 33 -51 66 -57 73 -7 7 -39 48 -70 90 -32 42 -63 84 -70 92 -29 36 -112 143 -163 210 -30 40 -62 82 -71 93 -10 13 -22 18 -32 14 -16 -6 -17 -56 -17 -584 l0 -578 -130 0 -130 0 0 823 0 823 132 -3 132 -3 50 -66 c28 -36 62 -81 76 -99 14 -18 45 -59 70 -91 87 -111 195 -250 273 -353 12 -16 42 -55 67 -86 25 -31 56 -72 70 -90 14 -18 43 -56 65 -84 22 -28 61 -78 85 -111 51 -68 70 -92 86 -109 5 -6 13 -19 17 -29 4 -10 13 -17 20 -14 9 3 13 128 15 573 l2 569 135 -3 135 -3 0 -819z m953 782 c18 -20 66 -72 108 -116 42 -45 93 -101 115 -126 21 -24 66 -74 100 -110 34 -36 79 -85 100 -110 21 -25 46 -52 54 -60 8 -8 40 -42 70 -75 30 -34 100 -110 156 -170 55 -61 118 -130 140 -155 21 -25 46 -52 54 -60 8 -8 40 -42 70 -75 30 -34 100 -110 156 -170 55 -61 118 -130 140 -155 42 -48 50 -57 137 -148 31 -33 57 -63 57 -66 0 -3 -83 -6 -185 -6 l-186 0 -32 37 c-18 20 -66 73 -108 117 -42 45 -93 101 -115 126 -21 25 -54 60 -72 77 l-32 33 -423 0 c-316 0 -426 -3 -435 -12 -8 -8 -12 -66 -12 -195 l0 -183 -130 0 -130 0 0 823 0 822 186 -3 186 -3 31 -37z m-8890 -39 c41 -43 92 -98 113 -123 21 -24 71 -78 110 -120 39 -41 89 -95 110 -120 21 -24 66 -74 100 -110 34 -36 79 -85 100 -110 21 -25 50 -56 64 -70 27 -27 105 -113 184 -200 27 -30 76 -84 110 -120 34 -36 95 -103 136 -149 99 -111 99 -111 116 -111 12 0 14 94 14 655 l0 655 135 0 135 0 0 -822 0 -823 -187 3 -188 3 -45 47 c-61 65 -218 237 -266 292 -21 25 -50 56 -64 70 -14 14 -50 53 -80 86 -185 202 -241 264 -276 304 -21 25 -50 56 -64 70 -14 14 -50 53 -80 86 -185 202 -241 264 -276 304 -21 25 -50 56 -64 70 -28 28 -109 116 -184 200 -27 30 -60 67 -74 83 l-26 27 187 0 186 0 74 -77z m4019 -43 l3 -120 -475 -2 -475 -3 -3 -212 c-2 -184 0 -213 14 -227 14 -15 58 -16 420 -14 l404 3 0 -122 0 -123 -417 -2 -418 -3 -3 -219 c-2 -153 1 -223 9 -232 9 -12 94 -14 480 -14 l469 0 0 -117 0 -118 -610 0 -610 0 0 823 0 822 604 0 605 0 3 -120z m-6142 -76 c30 -33 100 -109 156 -170 55 -60 118 -129 140 -154 21 -24 71 -78 110 -120 39 -41 89 -95 110 -120 21 -25 46 -52 54 -60 8 -8 40 -42 70 -75 30 -34 100 -110 156 -170 55 -61 118 -130 140 -154 21 -25 59 -65 83 -90 23 -26 73 -80 110 -121 36 -41 98 -108 137 -150 39 -41 89 -95 110 -120 43 -49 54 -61 133 -144 l53 -56 -489 0 -489 0 -49 53 c-26 28 -75 81 -109 117 -34 36 -83 90 -110 120 -27 30 -72 80 -100 110 -150 163 -257 280 -292 319 -21 25 -59 65 -83 90 -23 26 -73 80 -110 121 -36 41 -98 108 -137 150 -39 41 -89 95 -110 120 -21 24 -49 55 -62 68 -22 23 -22 23 -3 48 11 14 66 75 123 137 57 61 128 138 158 171 30 33 68 74 84 90 15 17 44 50 63 73 l35 42 31 -33 c18 -17 57 -59 87 -92z"/>
<path d="M12855 4528 c-21 -24 -82 -90 -135 -148 -53 -58 -114 -125 -136 -150 -21 -24 -71 -78 -110 -120 -39 -41 -89 -95 -110 -120 -21 -24 -48 -54 -59 -66 -61 -64 -314 -341 -361 -394 -21 -25 -46 -52 -54 -60 -72 -72 -160 -172 -160 -183 0 -6 26 -39 58 -72 31 -33 75 -81 96 -105 21 -25 71 -79 110 -120 39 -42 102 -111 140 -154 l70 -78 50 54 c81 85 177 189 230 248 27 30 76 84 110 120 81 87 234 254 288 315 24 27 52 58 63 69 11 12 63 68 115 126 52 58 122 134 156 170 34 36 79 85 100 110 21 24 71 78 110 120 39 41 89 95 110 120 21 24 67 74 100 110 34 36 82 87 105 114 24 27 63 69 86 93 l41 43 -488 0 -488 0 -37 -42z"/>
<path d="M23192 1508 l3 -333 304 -3 c187 -1 308 1 314 7 7 7 0 20 -19 39 -33 32 -212 225 -270 292 -21 24 -71 78 -110 120 -39 41 -89 95 -110 120 -64 73 -82 90 -99 90 -14 0 -15 -37 -13 -332z"/>
</g>
</g>
  <g id="id11:id11" transform="matrix(1.25,0,0,1.25,0.0,0.0)"><g transform="translate(0.000000,194.400000) scale(0.040000,-0.040000)" fill="#092130" stroke="none">
<path d="M0 2430 l0 -2430 12470 0 12470 0 0 2430 0 2430 -12470 0 -12470 0 0 -2430z m13885 2144 c0 -6 -65 -82 -145 -170 -80 -87 -197 -214 -260 -284 -63 -69 -257 -280 -430 -469 -173 -190 -391 -429 -485 -531 -93 -102 -210 -230 -259 -283 -49 -54 -95 -97 -102 -95 -16 4 -506 539 -502 549 3 7 522 577 663 729 34 36 135 146 225 245 90 99 194 213 232 253 l69 72 497 -2 c356 -2 497 -6 497 -14z"/>
</g>
</g>
  <g id="id12:id12" transform="matrix(1.25,0,0,1.25,0.0,0.0)"><g transform="translate(0.000000,194.400000) scale(0.040000,-0.040000)" fill="#092130" stroke="none">
<path d="M0 2430 l0 -2430 12470 0 12470 0 0 2430 0 2430 -12470 0 -12470 0 0 -2430z m13885 2144 c0 -6 -65 -82 -145 -170 -80 -87 -197 -214 -260 -284 -63 -69 -257 -280 -430 -469 -173 -190 -391 -429 -485 -531 -93 -102 -210 -230 -259 -283 -49 -54 -95 -97 -102 -95 -16 4 -506 539 -502 549 3 7 522 577 663 729 34 36 135 146 225 245 90 99 194 213 232 253 l69 72 497 -2 c356 -2 497 -6 497 -14z"/>
</g>
</g>
  <g id="id13:id13" transform="matrix(1.25,0,0,1.25,0.0,0.0)"><g transform="translate(0.000000,194.400000) scale(0.040000,-0.040000)" fill="#092130" stroke="none">
<path d="M0 2430 l0 -2430 12470 0 12470 0 0 2430 0 2430 -12470 0 -12470 0 0 -2430z m13885 2144 c0 -6 -65 -82 -145 -170 -80 -87 -197 -214 -260 -284 -63 -69 -257 -280 -430 -469 -173 -190 -391 -429 -485 -531 -93 -102 -210 -230 -259 -283 -49 -54 -95 -97 -102 -95 -16 4 -506 539 -502 549 3 7 522 577 663 729 34 36 135 146 225 245 90 99 194 213 232 253 l69 72 497 -2 c356 -2 497 -6 497 -14z"/>
</g>
</g>
  <g id="id14:id14" transform="matrix(1.25,0,0,1.25,0.0,0.0)"><g transform="translate(0.000000,194.400000) scale(0.040000,-0.040000)" fill="#092130" stroke="none">
<path d="M0 2430 l0 -2430 12470 0 12470 0 0 2430 0 2430 -12470 0 -12470 0 0 -2430z m13885 2144 c0 -6 -65 -82 -145 -170 -80 -87 -197 -214 -260 -284 -63 -69 -257 -280 -430 -469 -173 -190 -391 -429 -485 -531 -93 -102 -210 -230 -259 -283 -49 -54 -95 -97 -102 -95 -16 4 -506 539 -502 549 3 7 522 577 663 729 34 36 135 146 225 245 90 99 194 213 232 253 l69 72 497 -2 c356 -2 497 -6 497 -14z"/>
</g>
</g>
  <g id="id15:id15" transform="matrix(1.25,0,0,1.25,0.0,0.0)"><g transform="translate(0.000000,194.400000) scale(0.040000,-0.040000)" fill="#092130" stroke="none">
<path d="M0 2430 l0 -2430 12470 0 12470 0 0 2430 0 2430 -12470 0 -12470 0 0 -2430z m13885 2144 c0 -6 -65 -82 -145 -170 -80 -87 -197 -214 -260 -284 -63 -69 -257 -280 -430 -469 -173 -190 -391 -429 -485 -531 -93 -102 -210 -230 -259 -283 -49 -54 -95 -97 -102 -95 -16 4 -506 539 -502 549 3 7 522 577 663 729 34 36 135 146 225 245 90 99 194 213 232 253 l69 72 497 -2 c356 -2 497 -6 497 -14z"/>
</g>
</g>
</svg>
