<svg xmlns="http://www.w3.org/2000/svg" xmlns:xlink="http://www.w3.org/1999/xlink" viewBox="0 0 150.24 33.49"><defs><style>.cls-1{fill:none;}.cls-2{fill:#1a1a1a;}.cls-3{clip-path:url(#clip-path);}.cls-4{fill:#00adb2;}</style><clipPath id="clip-path"><path class="cls-1" d="M31.94,16.74a15.2,15.2,0,1,1-15.2-15.2A15.19,15.19,0,0,1,31.94,16.74Z"/></clipPath></defs><g id="レイヤー_2" data-name="レイヤー 2"><g id="レイヤー_1-2" data-name="レイヤー 1"><path class="cls-2" d="M100.25,6.75a2.21,2.21,0,0,0-2.2-2.2h0a2.2,2.2,0,0,0-2.19,2.2V26.47a2.2,2.2,0,0,0,2.19,2.2h0a2.21,2.21,0,0,0,2.2-2.2Z"/><path class="cls-2" d="M117.85,4.56h0A2.19,2.19,0,0,1,120,6.75V26.47a2.2,2.2,0,0,1-2.2,2.2h0a2.2,2.2,0,0,1-2.2-2.2V6.75a2.19,2.19,0,0,1,2.19-2.19Z"/><path class="cls-2" d="M46,14.51H58.3v3.73H46Z"/><path class="cls-2" d="M125.94,16.7c0-7.32,5-12.37,12.15-12.37s12.15,5.09,12.15,12.37S145.11,29,138.09,29,125.94,24.09,125.94,16.7Zm19.61,0c0-5.34-2.89-8.67-7.46-8.67s-7.47,3.18-7.47,8.67,3,8.64,7.47,8.64S145.55,22.15,145.55,16.7Z"/><path class="cls-2" d="M46.27,26.47a2.2,2.2,0,1,1-4.39,0V6.75a2.2,2.2,0,0,1,4.39,0Z"/><path class="cls-2" d="M58,26.47a2.2,2.2,0,0,0,2.19,2.2h0a2.21,2.21,0,0,0,2.2-2.2V6.75a2.21,2.21,0,0,0-2.2-2.2h0A2.2,2.2,0,0,0,58,6.75Z"/><path class="cls-2" d="M84.73,19.34a7.33,7.33,0,0,1-.66,3.29c-.84,1.72-2.52,2.71-4.94,2.71s-4.1-1-4.94-2.71a7.28,7.28,0,0,1-.66-3.26V17.18H69.14v2.49a10.59,10.59,0,0,0,.91,4.68C71.52,27.5,74.67,29,79.13,29s7.58-1.53,9.08-4.64a10.71,10.71,0,0,0,.91-4.72V17.18H84.73Z"/><path class="cls-2" d="M73.53,17.13a2.2,2.2,0,0,1-2.19,2.19h0a2.2,2.2,0,0,1-2.2-2.19V13.75a2.2,2.2,0,0,1,2.2-2.19h0a2.2,2.2,0,0,1,2.19,2.19Z"/><path class="cls-2" d="M84.73,17.13a2.2,2.2,0,0,0,2.2,2.19h0a2.2,2.2,0,0,0,2.19-2.19V13.75a2.2,2.2,0,0,0-2.19-2.19h0a2.2,2.2,0,0,0-2.2,2.19Z"/><path class="cls-2" d="M116.84,9.35a4.53,4.53,0,0,1-.51,2.29s-1.91,3.26-2.35,3.92l-4.09,6.35a2.33,2.33,0,0,1-1.67,1,2.43,2.43,0,0,1-1.72-1l-3.85-5.55c-.39-.56-1-1.46-1.45-2a13.46,13.46,0,0,1-.91-1.5l-.58-1a5.14,5.14,0,0,1-.56-2.31L99.28,6c0-.68.36-.78.75-.22l5.45,7.9c.39.56,1,1.47,1.4,2,0,0,.77,1.13,1.32,2.09h0a7.21,7.21,0,0,0,.69-1.08s.52-.9,1.36-2.18l5.53-8.61c.37-.57.72-.48.78.2Z"/><g class="cls-3"><path class="cls-4" d="M16.26,33.17a1.55,1.55,0,0,1-1.54-1.55V8.86a1.54,1.54,0,0,1,2.77-.93l6.43,8.51,6.31-9.11a1.55,1.55,0,0,1,2.54,1.76L25.24,20a1.53,1.53,0,0,1-2.5.05L17.8,13.47V31.62A1.55,1.55,0,0,1,16.26,33.17Z"/><path class="cls-4" d="M16.26,18.21h0L2,18.18a1.55,1.55,0,0,1,0-3.09H2l14.29,0a1.55,1.55,0,0,1,0,3.09Z"/></g><path class="cls-4" d="M16.74,33.49A16.75,16.75,0,1,1,33.49,16.74,16.76,16.76,0,0,1,16.74,33.49Zm0-30.4A13.66,13.66,0,1,0,30.4,16.74,13.66,13.66,0,0,0,16.74,3.09Z"/><path class="cls-4" d="M73.53,6.8a2.2,2.2,0,1,1-2.19-2.19A2.19,2.19,0,0,1,73.53,6.8Z"/><path class="cls-4" d="M89.12,6.8a2.2,2.2,0,1,1-2.19-2.19A2.19,2.19,0,0,1,89.12,6.8Z"/></g></g></svg>