<svg height="281" width="2500" xmlns="http://www.w3.org/2000/svg" viewBox="-0.17700000000000002 0 4258.776999999999 478"><path d="M1016.917 413.937c-19.749-2.85-43.337-10.086-45.782-14.043-.585-.946-1.78.144-3.147 2.872-4.134 8.242-2.293 8.072-74.205 6.864-35.933-.604-86.933-1.098-113.333-1.098s-48.75-.486-49.667-1.079c-2.675-1.731-1.923-4.818 1.334-5.477 1.65-.333 6.687-.93 11.193-1.324 14.781-1.293 17.98-4.26 21.413-19.864 1.82-8.27 2.189-27.256 2.68-137.98.614-138.584.278-147.995-5.555-155.643-3.348-4.39-12.673-8.633-18.969-8.633h-3.096l-.018 25c-.02 28.607-.38 31-4.661 31-3.494 0-4.654-2.249-4.654-9.022 0-8.191-4.74-15.919-12.474-20.336-11.956-6.828-22.394-8.388-66.657-9.96l-19.798-.704.652 134.345c.659 135.426 1.192 150.466 5.644 159.075 4.26 8.239 8.538 9.837 31.284 11.683 9.607.78 11.39 1.298 11.798 3.426.264 1.379-.174 2.91-.974 3.405-2.045 1.264-149.775.915-151.808-.359-2.424-1.518-2.04-4.602.666-5.36 1.284-.36 8.712-1.053 16.507-1.541 16.92-1.059 21.4-3.175 25.277-11.94 5.045-11.405 5.45-21.862 6.156-159.025l.688-133.647-17.147.723c-31.046 1.307-53.074 3.097-57.814 4.697-8.144 2.748-12.954 7.42-17.382 16.88-2.315 4.946-4.667 9.893-5.226 10.993-.559 1.1-2.15 2-3.537 2-3.377 0-4.296-6.557-4.423-31.54l-.099-19.54-5.666.724c-10.547 1.347-16.916 6.577-19.697 16.177-2.034 7.019-2.48 23.397-4.744 173.954-1.122 74.676-2.593 137.226-3.267 139-1.528 4.02-5.109 4.136-9.957.322-3.362-2.645-100.28-107.876-182.447-198.097-18.2-19.983-33.293-36.333-33.54-36.333-.247 0-.182 12.75.144 28.333.327 15.584 1.17 58.034 1.874 94.334.704 36.3 1.906 69.9 2.672 74.666.765 4.767 2.884 11.755 4.708 15.53 4.287 8.872 9.173 11.277 24.714 12.163 13.368.762 15.926 1.744 13.727 5.27-1.403 2.248-8.053 2.357-129.023 2.102-70.15-.148-128.167-.654-128.928-1.125-.761-.47-1.196-1.832-.966-3.027.32-1.66 3.164-2.536 12.063-3.715 6.404-.849 13.2-2.562 15.1-3.808 9.48-6.21 10.133-17.844 9.64-171.39-.406-125.816-.41-126.009-3.282-132.22-3.906-8.451-7.708-10.57-22.185-12.359C3.27 78.117.373 77.277.053 75.61c-.23-1.189.318-2.616 1.217-3.172 2.491-1.54 127.745-1.207 129.296.344 3.177 3.177-.312 5.425-9.862 6.354-13.271 1.29-19.83 4.405-22.903 10.882-1.986 4.185-2.694 10.548-3.692 33.18-1.537 34.88-.22 243.93 1.6 253.903 1.56 8.54 6.55 15.359 14.145 19.326 4.159 2.171 8.366 2.849 20.056 3.23 23.395.765 33.419-2.366 42.026-13.124 8.199-10.248 7.942-6.366 15.781-239 1.55-46.005 3.209-79.398 4.018-80.91 1.687-3.153 5.833-4.6 10.104-3.529 3.18.798 38.224 38.791 145.22 157.439 27.775 30.8 54.072 59.9 58.437 64.667l7.936 8.666-.723-95.333c-.48-63.341-1.222-97.302-2.21-101.2-3.193-12.606-9.683-17.06-26.785-18.378-7.505-.579-11.062-1.415-11.562-2.719-1.781-4.64 1.509-4.963 51.07-5l48.713-.037 2.476-3.282c2.386-3.163 2.71-3.22 8.988-1.612 13.823 3.543 33.642 4.18 130.57 4.204 85.227.02 101.822-.287 111.142-2.055 10.113-1.918 11.144-1.908 13.401.135 2.234 2.021 10.819 2.201 99.278 2.078 80.513-.112 98.446-.472 106.412-2.134 5.27-1.099 10.267-1.999 11.105-2 2.468 0 2.967 3.11 1.622 10.104-.694 3.61-2.078 17.283-3.076 30.387-1.855 24.363-3.058 28.58-7.647 26.82-1.428-.548-2.3-3.451-2.87-9.559-.924-9.902-4.87-19.229-9.388-22.189-8.352-5.473-16.25-6.446-62.165-7.663-41.037-1.088-44.802-1.003-46.333 1.046-2.524 3.378-2.4 116.206.131 119.669 1.721 2.354 3.974 2.404 53 1.188 55.398-1.374 56.761-1.57 63.94-9.212 1.683-1.792 4.219-3.258 5.635-3.258 2.247 0 2.487.72 1.892 5.666-.375 3.117-1.73 19.167-3.01 35.667-2.411 31.06-3.534 35.642-7.854 32.056-1.137-.944-2.067-3.713-2.067-6.154 0-7.841-2.814-17.873-6.114-21.794-6.574-7.812-10.246-8.409-59.22-9.619-41.548-1.026-44.788-.942-46.403 1.204-1.377 1.83-1.652 13.885-1.333 58.307.364 50.536.637 56.52 2.804 61.333 3.439 7.639 9.409 13.252 18.375 17.276 13.664 6.132 25.642 7.788 57.224 7.913 33.67.133 41.38-1.372 51.165-9.986 8.82-7.763 11.924-17.021 16.124-48.093 1.442-10.664 8.52-12.765 10.426-3.095 5.176 26.263 9.64 36.253 21.495 48.109 13.59 13.59 29.483 19.957 53.48 21.426 47.175 2.887 79.605-24.538 72.784-61.55-4.15-22.515-20.382-40.677-60.14-67.29-32.785-21.943-43.596-30.193-58.47-44.617-26.21-25.418-36.608-46.594-36.707-74.76-.077-21.664 5.92-35.8 21.881-51.578 8.562-8.463 12.764-11.408 24.163-16.936 24.66-11.958 45.052-15.557 81.799-14.436 23.841.727 53.418 4.667 60.667 8.081l3.333 1.57.357 32.36c.23 20.797-.144 33.297-1.047 34.983-.809 1.511-2.786 2.623-4.665 2.623-3.369 0-3.616-.502-5.235-10.666-1.353-8.493-8.453-21.281-15.793-28.445-13.982-13.649-30.99-19.919-54.284-20.012-21.894-.088-37.465 4.973-48.598 15.793-8.785 8.538-12.056 16.6-11.9 29.33.287 23.344 11.883 36.531 59.832 68.044 42.01 27.61 67.069 48.474 80.08 66.68 5.75 8.045 15.253 26.42 15.253 29.494 0 .894.548 1.964 1.217 2.377 1.112.688 65.132-84.89 134.102-179.261 32.86-44.962 34.33-46.667 40.245-46.667 8.186 0 7.821-2.405 15.095 99.432 13.33 186.65 14.308 197.134 20.146 216.035 4.508 14.596 11.171 19.145 28.1 19.185 3.954.01 7.028.805 8.396 2.173 1.99 1.99 1.985 2.35-.059 4.608-1.219 1.348-4.697 2.795-7.73 3.217-3.032.422-29.813.299-59.513-.274l-54-1.043-.426-3.006c-.432-3.037.15-3.46 6.743-4.903 7.82-1.713 7.85-1.996 5.729-55.198-1.059-26.557-2.288-48.872-2.73-49.59-.5-.807-18.204-1.303-46.58-1.303-41.699 0-46.008.208-48.413 2.334-5.482 4.845-68.322 97.559-68.322 100.802 0 3.944 2.117 4.864 11.187 4.864 7.78 0 13.2 2.75 10.608 5.382-1.073 1.09-11.539 1.666-34.666 1.908-18.221.191-49.93.713-70.463 1.16-28.465.62-40.39.371-50.199-1.045zm295.521-138.053c.792-1.28-2.666-80.293-4.132-94.428-.403-3.892-1.258-6.892-1.899-6.667-1.999.702-70.528 100.153-69.811 101.312.992 1.605 74.847 1.393 75.843-.217zM2248.45 414.41c-22.4-3.051-44.8-10.141-48.139-15.236-1.75-2.673-1.99-8.515-1.624-39.686.451-38.393.86-40.956 6.546-40.956 3.013 0 5.217 3.841 5.217 9.094 0 6.698 5.969 24.955 10.766 32.93 12.826 21.324 38.812 34.017 69.511 33.953 29.636-.062 54.04-12.56 63.742-32.644 6.065-12.556 4.969-30.882-2.752-46-8.329-16.306-21.007-28.01-55.267-51.016-31.64-21.248-42.804-29.796-57.825-44.276-25.961-25.025-36.585-46.967-36.495-75.375.124-39.03 28.249-67.609 77.568-78.82 27.104-6.16 78.259-4.237 109.254 4.11l5.498 1.48v33.173c0 18.245-.364 34.122-.81 35.282-1.089 2.839-6.8 2.684-8.295-.225-.66-1.283-1.529-4.92-1.931-8.083-1.79-14.05-15.568-31.779-30.964-39.838-12.004-6.283-22.9-8.624-39.922-8.574-22.5.066-35.293 4.289-47.457 15.667-8.537 7.986-12.25 16.845-12.25 29.226 0 22.824 12.567 37.079 60.296 68.39 32.973 21.63 47.836 33.125 64.761 50.086 24.032 24.083 32.417 41.608 33.554 70.126.748 18.765-1.417 29.303-9.023 43.924-9.553 18.36-29.844 35.468-52.376 44.157-20.282 7.821-30.58 9.45-62.916 9.95-16.134.249-33.534-.12-38.667-.819zm1294.989-.014c-24.567-2.715-47.697-10.502-67.756-22.813-14.846-9.112-35.763-29.859-45.975-45.602-46.839-72.205-39.083-175.37 17.71-235.573 29.936-31.734 70.74-47.87 121.032-47.863 37.532.01 66.02 7.166 94.663 23.796 15.183 8.815 37.601 31.436 46.995 47.42 17.652 30.035 25.471 64.43 23.97 105.437-2.238 61.088-26.785 112.508-68.744 143.999-32.413 24.326-78.152 36.033-121.895 31.2zm61.448-27.35c39.418-13.041 61.034-52.367 65.521-119.2 5.053-75.258-17.77-137.842-60.461-165.796-13.454-8.81-21.046-12.006-35.45-14.923-29.93-6.063-59.948 3.045-80.196 24.33-14.143 14.868-24.825 38.619-29.866 66.408-2.967 16.353-4.102 57.626-2.072 75.342 7.965 69.516 39.65 117.99 87.157 133.338 18.405 5.945 38.367 6.126 55.367.502zm470.896 28.02c-26.71-3.096-42.254-7.047-59.484-15.121-14.996-7.028-25.966-14.71-38.842-27.205-6.046-5.867-11.194-10.414-11.44-10.105-.247.31-1.168 6.17-2.048 13.022-2.393 18.629-4.11 25.304-7.529 29.28l-3.09 3.595-45.117-.12c-146.445-.387-180.423-.909-181.99-2.797-2.68-3.23.886-4.93 12.42-5.92 13.392-1.152 16.907-3.436 20.163-13.102 4.396-13.055 5.111-38.15 4.695-164.728l-.404-122.667-2.972-6.029c-1.634-3.316-4.634-6.996-6.667-8.178-4.576-2.66-15.925-5.126-23.597-5.126-6.21 0-9.35-2.228-7.457-5.291.966-1.564 13.055-1.883 74.125-1.956 74.28-.088 78.041.151 76.24 4.846-.56 1.46-3.965 2.212-12.894 2.845-18.058 1.282-23.248 4.15-26.943 14.89-2.646 7.689-2.712 247.356-.072 261.333 2.41 12.76 4.831 17.259 11.755 21.845 7.753 5.135 14.468 6.004 45.148 5.84 27.737-.149 40.846-2.05 50.416-7.315 6.105-3.359 13.326-12.974 15.705-20.913 1.409-4.703 1.142-5.55-5.286-16.759-17.831-31.099-26.004-62.536-26.004-100.032 0-50.711 16.93-96.147 47.907-128.57 31.03-32.48 70.284-48.096 120.89-48.096 88.785 0 147.862 47.065 163.108 129.945 1.785 9.707 2.081 17.952 1.58 44-.667 34.605-2.192 44.088-11.053 68.721-20.516 57.03-65.76 96.113-124.028 107.142-10.891 2.062-38.981 3.683-47.235 2.726zm50.597-26.723c13.46-3.779 22.819-9.549 34.301-21.148 9.158-9.251 11.984-13.231 17.698-24.931 7.967-16.312 13.704-37.43 16.09-59.23 2.463-22.514 1.125-66.696-2.574-84.978-10.09-49.866-34.308-86.109-68.776-102.927-33.983-16.58-73.574-11.874-98.827 11.75-18.217 17.04-27.984 36.896-34.59 70.32-3.408 17.249-4.143 62.934-1.335 83.067 9.14 65.543 40.017 110.942 85.84 126.214 16.322 5.44 36.827 6.172 52.173 1.863zm-1224.37 17.855c-6-5.637-77.926-83.546-166.814-180.689-25.623-28.002-46.771-50.73-46.995-50.506s.248 36.324 1.05 80.22l1.458 79.813 13.485 16.603c17.115 21.072 31.707 36.595 39.33 41.839 4.8 3.302 7.726 4.229 15 4.75 7.8.557 9.142 1.034 9.794 3.475.443 1.653-.017 3.409-1.106 4.224-1.252.938-24.979 1.32-72.313 1.163-38.747-.127-71.159-.305-72.026-.395-2.378-.246-3.53-5.36-1.703-7.56 1.129-1.36 4.434-1.938 11.11-1.942 12.148-.01 18.562-3.3 17.919-9.2-.292-2.677-11.433-17.34-37.463-49.303l-37.048-45.492h-100.951l-.983 23.592c-1.256 30.153-.192 60.712 2.36 67.737 3.99 10.988 11.146 15.004 27.898 15.658 9.687.378 10.908.92 10.21 4.543-.437 2.273-3.573 2.408-56.736 2.438-51.753.03-56.46-.154-58.597-2.292-3.409-3.407-1.174-4.555 10.704-5.5 13.918-1.106 19.786-4.388 24.285-13.583 3.312-6.77 3.541-9.388 14.107-161.345 5.907-84.955 11.257-155.824 11.889-157.485 1.29-3.392 6.386-5.176 10.91-3.818 2.334.7 104.905 127.362 183.376 226.445l4.004 5.056.88-20.39c.485-11.214 2.24-62.325 3.9-113.58l3.02-93.191 3.185-2.579c1.816-1.47 4.469-2.333 6.174-2.007 6.216 1.189 1.432-3.846 108.507 114.172 36.325 40.038 75.025 82.658 86 94.71l19.953 21.916.083-40.582c.045-22.32-.254-66.081-.666-97.248l-.75-56.667-3.333-6.597c-4.85-9.6-8.21-11.492-23.55-13.266-11.68-1.35-13.117-1.807-13.117-4.16 0-4.099 6.043-4.386 73.334-3.49 33.733.45 90.733.927 126.666 1.06 59.603.222 66.65.485 80.343 2.992 17.013 3.116 35.54 9.61 44.178 15.486 14.316 9.738 26.135 27.719 29.845 45.405 3.443 16.412.365 41.806-7.416 61.184-8.88 22.116-23.864 38.132-45.616 48.758-19.436 9.494-28.512 11.295-56.932 11.295-24.106 0-27.692-.714-25.982-5.17.811-2.114 4.234-2.896 17.766-4.056 26.057-2.235 49.646-24.747 57.513-54.888 2.895-11.092 2.727-37.483-.312-49.22-3.275-12.646-9.936-24.54-18.72-33.425-9.388-9.497-19.443-14.695-33.92-17.538-12.229-2.4-37.7-1.96-40.35.7-1.398 1.402-1.685 27.616-1.497 136.666.148 86.09.738 138.23 1.628 144.043 2.766 18.055 9.474 24.53 24.043 23.208 16.49-1.495 25.054-9.15 52.763-47.17 8.8-12.074 46-62.472 82.666-111.996 36.667-49.523 80.167-108.389 96.667-130.812 16.5-22.424 31.6-41.953 33.555-43.4 3.705-2.74 9.286-2.635 12.151.23 1.713 1.713 1.715 1.737 10.74 126.828 11.918 165.185 12.53 171.404 18.563 188.667 2.652 7.587 9.937 14.93 15.662 15.786 2.564.384 8.262 1.189 12.662 1.789 6.727.918 8 1.513 8 3.74 0 5.634-3.602 5.94-63.906 5.442-46.235-.382-57.311-.816-58.238-2.281-1.846-2.916-.66-4.342 5.386-6.472 3.515-1.238 6.31-3.279 7.311-5.338 2.336-4.799-1.237-97.148-3.862-99.837-1.5-1.536-9.389-1.645-48.12-.666l-46.328 1.17-34.509 49.89c-18.98 27.44-34.335 50.776-34.122 51.858.645 3.267 4.413 4.751 13.537 5.332 8.762.558 11.047 2.045 8.77 5.707-.932 1.498-4.22 1.756-16.21 1.27-20.12-.817-127.267-1.598-152.375-1.111-48.344.936-52.948.516-50.965-4.65.492-1.283 4.001-2.162 10.985-2.752 12.56-1.062 16.586-2.872 19.78-8.893 5.14-9.688 5.533-20.981 5.533-159.318 0-130.695-.053-133.437-2.667-138.58-1.466-2.886-4.206-6.371-6.088-7.745-7.361-5.371-33.177-6.647-40.284-1.99-1.85 1.212-4.474 5.08-5.83 8.593-2.81 7.283-3.548 32.625-6.169 211.722-.794 54.267-1.799 100.41-2.232 102.54-.776 3.819-3.264 6.27-6.268 6.175-.845-.027-4.251-2.598-7.568-5.715zm-346.46-137.033c-1.019-3.057-76.433-94.49-77.199-93.598-1.083 1.262-4.153 92.144-3.166 93.741 1.086 1.758 80.951 1.616 80.365-.143zm747.335.367c.325-.55-.513-22-1.864-47.667-1.35-25.667-2.482-48.317-2.513-50.333-.032-2.017-.572-3.667-1.201-3.667-1.2 0-68.846 96.683-70.302 100.478-.767 1.998 2.482 2.189 37.224 2.189 20.935 0 38.33-.45 38.656-1z" fill="#006a33" stroke-width="1.333"/><g clip-rule="evenodd" fill-rule="evenodd" stroke-width="3.432"><path d="M1616.267 450.6h423.177V27.42h-423.177z" fill="#fff"/><path d="M1588.865 0h478v478h-478zm27.402 450.6h423.177V27.42h-423.177z" fill="#ec6d2d"/><path d="M2016.327 134.96l-.137-.118h-.018c-2.89-1.73-7.292-2.733-10.24-1.435-18.872-1.809-36.897-1.612-55.984-1.376h-1.337c-9.553.118-19.46.236-29.348.059l-80.006-1.632a942.967 942.929 0 0 0-59.424.413c-14.92.118-29.426.511-44.189.944-15.372.413-52.09.51-74.028.59a1202.224 1202.175 0 0 0-18.596.098c-2.594.137-5.74 3.754-5.798 6.643-.018 1.651.923 3.5 3.695 3.774 2.064.197 15.333.275 39.452.197l24.63-.099c6.546-.017 9.593.079 11.008-.078h.177c18.104-1.828 36.287-1.73 53.86-1.612h1.356c11.382.059 23.157.118 34.99-.354 2.457.57 5.052.04 7.548-.472l.374-.059c1.12-.216 2.28-.432 3.38-.53 2.694.786 5.78.747 9.023.668 3.146-.079 6.33-.118 9.24.55l.016.079.492-.017.017-.06c2.555-.864 4.875-.412 7.352.06a27.992 27.99 0 0 0 3.813.57c22.861-.63 48.14.177 79.69 2.594l14.92 1.612v.017h.156c13.269-1.297 26.97-.295 40.219.688a10.615 10.614 0 0 1 .334.017c9.966.728 19.382 1.416 28.738 1.219l.06.099.55-.197-.017-.118 4.953-3.95.017.016.217-.255-.017-.017a6.9 6.9 0 0 0-1.14-8.531z" fill="#e3b228"/><path d="M1883.976 304.907l.413-.255v-.983l-.354-31.135v-.079l-.017-.078a165.964 165.957 0 0 1-.786-15.352c-.138-6.152-.275-12.54-1.101-18.202-.158-8.059-1.77-16.727-3.322-25.08l-1.022-5.681-.099-.551-.393-.393c-1.238-1.238-1.67-2.83-2.142-4.639-.413-1.533-.826-3.086-1.77-4.58-2.083-3.813-5.385-7.508-8.314-10.771l-.157-.157c-.728-1.003-1.573-1.514-2.32-2.005-.432-.275-.845-.531-1.297-.924l-.669-.57-.413.099-.53-.433c-2.634-2.103-5.091-2.909-7.941-3.853l-.06-.017c-.825-1.18-2.398-1.356-3.46-1.376v-.766l-1.473-.236-6.94-1.042-1.022-.157-.629.845c-.255.334-.314.413-1.769-.118a9.258 9.258 0 0 0-2.201-.57l-.806-.079-.413.393a4.6 4.6 0 0 0-.786-.472l-2.87-.865-.236 1.337a6.723 6.722 0 0 0-3.303.727h-4.56l-4.246.018.491 1.611-.078.079c-1.867-.472-3.283.668-4.089 1.317l-.393.334c-1.513.255-2.359.884-2.968 1.336-.452.334-.59.452-1.002.472l-.708.079-.452.55a13.033 13.032 0 0 1-3.715 2.123l-2.34 1.042.512.491a3.813 3.813 0 0 0-1.101.728h-2.26v1.769l-.256-.04-1.258-.53c-.098-.041-.924 1.08-.924 1.08-1.376 1.927-3.165 3.814-5.052 5.818-2.202 2.34-4.501 4.777-6.231 7.41l-.53.787.333.786c-.413.256-1.474.924-1.67 2.202a5.642 5.641 0 0 0-1.2 2.988c-.04.255-.078.609-.157.766a5.838 5.838 0 0 0-1.278 3.086c-.118.649-.177 1.022-.452 1.356l-1.12 1.416.491.373c-.334.845-.334 1.73-.354 2.26 0 .237 0 .512-.04.708l-.727.452.157 1.12c.314 2.202.017 4.227-.256 6.37a27.264 27.263 0 0 0-.334 6.525c-.845 1.297-.649 2.85-.51 3.794.058.334.117.786.098 1.002l-1.12.865.805 1.317c.61 1.003.118 2.614-.334 4.128-.432 1.474-.943 3.283-.413 4.855a1.966 1.966 0 0 0-.727 1.69c0 1.2-.099 1.573-.157 1.652l-.826 1.71-.118.668 1.494 1.042a8.453 8.452 0 0 0 .06 2.752c.176 1.14.215 1.611-.119 2.064l-.943 1.67.924 1.101v.314c-.04.747-.138 2.104.825 3.106.017.197.06.374.118.55l-1.69.433 1.1 2.34-.117.589c-.157.688-.472 2.064.236 3.263-.53 1.376-.197 2.712.017 3.597.059.255.157.59.177.825-1.612 1.69-.826 3.912-.393 5.111-.747 1.14-.57 2.496-.413 3.322l-2.162.727 2.201 2.241a2.221 2.221 0 0 0 .256 1.69c.255.414.59.65.923.806l-.668.217.079.216v.017l.786 2.005-.04.236a4.698 4.698 0 0 0 .688 3.243 1.514 1.514 0 0 0-.354.963l-.865.865.826 1.2c.648.943.413 2.161-.06 4.088-.432 1.69-.963 3.833.018 5.68l-1.219 1.2 1.533 1.12a1.317 1.317 0 0 1-.118.236c-.393.727-1.1 2.064-.216 3.538l-.078-.177c.314.688.177 1.848.017 3.047-.196 1.75-.452 3.872.472 5.975l-.295 2.103.059-.255a2.713 2.713 0 0 0 .216 2.044l-.668.315.472 1.454a18.556 18.555 0 0 1 .491 5.406c0 3.734.017 8 3.4 11.243l.728.688.963-.295c2.536-.747 2.654-3.263 2.733-4.62 0-.294.017-.57.059-.786l.04-.373-.099-.373c-1.022-3.44-.59-7.942-.196-11.912l.275-3.027.04-.472-.216-.433c-.688-1.376-.511-2.751-.334-4.344a10.949 10.949 0 0 0-.157-4.697c.57-7.273.236-15.922-.079-23.51-.097-3.223-.236-6.27-.295-9.1v-.157a75.6 75.598 0 0 1-.215-11.185c.098-3.36.196-6.82-.099-10.004.806-3.637.767-6.959.688-10.477-.017-1.592-.06-3.244 0-4.954l.017-.432-.118-.216c.786-.963.963-1.946.57-2.89a16.374 16.374 0 0 0 .452-3.734 12.07 12.069 0 0 1 .236-2.575l.099-.413-.118-.413c-.216-.767 0-1.651.216-2.595a6.683 6.683 0 0 0 .06-3.833c1.375-2.732 1.65-6.073 1.945-9.336l.099-1.12c.118-.708-.138-1.377-.708-1.966v-.099c0-1.435.747-2.595 1.67-4.069a13.917 13.917 0 0 0 2.478-5.916l.04-.413-.017-.099.393-.354c.629-.51 1.592-1.336 1.572-2.634a2.103 2.103 0 0 0-.118-.688 13.996 13.995 0 0 0 2.614-3.44c.983-1.631 1.69-2.83 3.617-3.38l.944-.275.255-.963c.275-1.062 1.2-1.671 2.693-2.595a11.834 11.833 0 0 0 3.283-2.673c1.239.098 2.005-.236 2.438-.728a9.278 9.278 0 0 0 3.636-2.024c1.592-1.278 2.103-1.553 3.204-1.081l1.101.51.688-.687.137-.04c.492-.138 1.376-.374 1.888-1.18a10.517 10.516 0 0 0 1.238-.373c.904-.334 1.12-.354 1.415-.197a2.064 2.064 0 0 0 1.632.236l.059.138 1.258-.158 1.67-.216c4.994-.649 9.318-1.199 13.21.885l1.396.766.825-1.258.53.57c1.003 1.12 2.753 3.047 5.289 2.614.55.472 1.18.865 1.73 1.18l.727.452v.078l.334.452c.786 1.062 2.457 1.553 3.813 1.612 2.93 3.086 5.897 7.293 5.897 9.14v1.73h1.278l.04.098c.472 2.28 1.14 5.111 2.91 6.959-.512 1.16-.06 2.575.117 3.164l.177.63-.432 1.297 1.14 1.16.256.137c-.06 1.199.472 2.3.845 3.086a6.88 6.88 0 0 1 .295.668l-.275.63c-1.553 2.967.53 4.618 1.533 5.405a3.44 3.44 0 0 1 .374.314c-.787.59-.747 1.219-.885 2.28l.118 1.298.531.865h.04l.06.177c.058.255.196.609.412 1.002l-.59.57-.413 1.553.865 1.258.669.334a3.931 3.931 0 0 0 .452 1.75l.098.255-.157.766c-.57 2.85-1.297 6.526.472 9.475l-.157.156c-.826 1.082-.61 2.34-.472 3.263.04.295.138.767.079.924l-.433 1.789c0 .078.57.236 1.081.334-.059.196-.137.354-.177.55l-.373 2.045h.688c-.118.707-.138 1.356-.158 1.965-.017 1.042-.059 1.71-.432 2.26l-.138.237-.078.275c-.511 1.887.177 3.656.727 5.07l.315.767a1.966 1.966 0 0 0-.55 1.494c0 .158.078.275.117.413l-.393.393.334 1.003c.197.59.531.943.963 1.16l-.295.078c-.059.017-.059 1.356-.059 1.356v.472l-1.08.315.55 1.14a2.614 2.614 0 0 0-.275 2.123l-.747 1.336c.04-.04.118.786.786 1.101-.688 2.378 1.042 4.108 2.045 5.15a8.65 8.649 0 0 1 .904.983h-.865l.649 2.24.017.06-.452.471-1.416.708.452 1.926-.137.452c-.334 1.022-.079 1.69.216 2.104.06.098.138.137.216.196a3.833 3.833 0 0 0-1.218 2.418l-.158 1.631 1.317.197a11.676 11.676 0 0 0-.295 1.022c-.177.61-.314 1.14-.61 1.553l.018.017-.118.196 2.32 1.298a8.295 8.295 0 0 0-.669 1.69l-.236.708h-.177l-1.946.017.118 2.24a6.094 6.093 0 0 1 .197 1.2 10.104 10.103 0 0 0 .236 1.376v2.24c0 .296 0 .767.098 1.259l-.255.137.177 1.238c.098.63.04 1.239 0 1.868-.018.373-.06.766-.06 1.179l-1.572.826 1.926 2.103-.017.078a5.19 5.19 0 0 0-.491 2.025h-1.376l2.339 2.85c.196.255.373.885.511 1.356l.04.177c-.963.905-1.12 2.28-1.18 3.027-.04.334-.078.826-.157.944l.04-.04.59.786a2.949 2.948 0 0 0-.885 1.061 3.027 3.027 0 0 0-.196 1.632h-2.26l1.867 1.867-1.75.57 1.455 1.219v4.639c0 .845.413 1.553 1.1 1.906a.373.373 0 0 0 .138.04 3.499 3.499 0 0 0 2.752.393v1.927l2.241-.669a8.099 8.098 0 0 1 4.148-.295l1.847.393.236-1.867c.905-6.939.728-13.641.55-20.128-.156-6.31-.314-12.324.492-18.182a3.263 3.263 0 0 0-.334-2.91z" fill="#006a32"/><path d="M1751.213 304.907l.413-.255-.354-32.118v-.079l-.017-.078a165.964 165.957 0 0 1-.787-15.352c-.137-6.152-.275-12.54-1.12-18.202-.138-8.059-1.75-16.727-3.303-25.08l-1.022-5.681-.098-.551-.393-.393c-1.258-1.238-1.671-2.83-2.143-4.639-.413-1.533-.825-3.086-1.789-4.58-2.064-3.813-5.386-7.508-8.315-10.771l-.137-.157c-.727-1.003-1.592-1.514-2.34-2.005-.432-.275-.845-.531-1.297-.924l-.668-.57-.413.099-.53-.433c-2.634-2.103-5.092-2.909-7.942-3.853l-.059-.017c-.825-1.18-2.378-1.356-3.46-1.376v-.766l-1.474-.236-6.939-1.042-1.022-.157-.629.845c-.255.334-.314.413-1.769-.118-.668-.236-1.376-.492-2.182-.57l-.826-.079-.392.393a4.855 4.855 0 0 0-.806-.472l-2.87-.865-.236 1.337a6.683 6.683 0 0 0-3.303.727h-4.56l-4.266.018.511 1.611-.078.079c-1.868-.472-3.283.668-4.07 1.317-.137.118-.294.275-.412.334a6.428 6.428 0 0 0-2.968 1.336c-.452.334-.59.452-1.003.472l-.708.079-.452.55a13.033 13.032 0 0 1-3.715 2.123l-2.339 1.042.511.491a4.187 4.187 0 0 0-1.12.728h-2.241v1.769a.786.786 0 0 1-.256-.04l-1.278-.53a6.605 6.604 0 0 0-.904 1.08c-1.376 1.927-3.165 3.814-5.052 5.818-2.201 2.34-4.501 4.777-6.231 7.41l-.53.787.354.786c-.413.256-1.494.924-1.671 2.202-.845.924-1.042 2.162-1.18 2.988a5.21 5.209 0 0 1-.157.766 6.192 6.192 0 0 0-1.277 3.086c-.118.649-.177 1.022-.452 1.356l-1.12 1.416.51.373c-.354.845-.354 1.73-.354 2.26a7.666 7.666 0 0 1-.04.708l-.747.452.157 1.12c.315 2.202.04 4.227-.255 6.37a28.326 28.325 0 0 0-.334 6.525c-.846 1.297-.649 2.85-.492 3.794.06.334.118.786.099 1.002l-1.12.865.785 1.317c.61 1.003.118 2.614-.333 4.128-.413 1.474-.924 3.283-.393 4.855a1.848 1.848 0 0 0-.708 1.69c0 1.2-.118 1.573-.177 1.652l-.826 1.71-.137.668 1.494 1.042a9.003 9.003 0 0 0 .078 2.752c.177 1.14.216 1.611-.118 2.064l-.943 1.67.943 1.101-.017.314c-.04.747-.098 2.104.826 3.106.017.197.059.374.118.55l-1.69.433 1.1 2.34-.118.589c-.177.688-.491 2.064.216 3.263a5.995 5.995 0 0 0 .017 3.597c.06.255.158.59.177.825-1.592 1.69-.825 3.912-.393 5.111-.747 1.14-.57 2.496-.413 3.322l-2.162.727 2.221 2.241a2.221 2.221 0 0 0 .256 1.69 1.985 1.985 0 0 0 .924.806l-.688.217.098.216v.017l.786 2.005-.017.236a4.796 4.796 0 0 0 .669 3.243 1.632 1.631 0 0 0-.355.963l-.864.865.845 1.2c.649.943.393 2.161-.079 4.088-.432 1.69-.963 3.833.04 5.68l-1.218 1.2 1.533 1.12-.118.236c-.393.727-1.1 2.064-.196 3.538l-.099-.177c.314.688.196 1.848.04 3.047a10.811 10.81 0 0 0 .472 5.975l-.314 2.103.059-.255a2.91 2.91 0 0 0 .196 2.044l-.668.315.472 1.454a18.517 18.516 0 0 1 .51 5.406c.018 3.734.018 8 3.421 11.243l.727.688.964-.295c2.535-.747 2.653-3.263 2.732-4.62 0-.294 0-.57.04-.786l.04-.373-.098-.373c-1.023-3.44-.59-7.942-.216-11.912.098-1.081.196-2.064.255-3.027l.04-.472-.216-.433c-.688-1.376-.51-2.751-.334-4.344a10.654 10.654 0 0 0-.157-4.697c.57-7.273.236-15.922-.079-23.51-.118-3.223-.255-6.27-.295-9.1v-.157c-.432-3.617-.314-7.45-.216-11.185.098-3.36.196-6.82-.099-10.004.786-3.637.747-6.959.688-10.477-.017-1.592-.059-3.244 0-4.954l.017-.432-.118-.216c.767-.963.964-1.946.55-2.89.374-1.316.414-2.614.453-3.734.04-.904.059-1.77.255-2.575l.099-.413-.118-.413a5.465 5.464 0 0 1 .196-2.595 6.487 6.487 0 0 0 .079-3.833c1.356-2.732 1.651-6.073 1.926-9.336l.099-1.12a2.28 2.28 0 0 0-.688-1.966v-.099c0-1.435.727-2.595 1.67-4.069a13.662 13.661 0 0 0 2.458-5.916l.059-.413-.04-.099.393-.354c.629-.51 1.592-1.336 1.572-2.634a2.811 2.81 0 0 0-.118-.688c1.219-1.08 1.946-2.32 2.615-3.44.963-1.631 1.67-2.83 3.616-3.38l.944-.275.256-.963c.274-1.062 1.218-1.671 2.712-2.595a11.5 11.499 0 0 0 3.263-2.673c1.239.098 2.005-.236 2.457-.728a9.278 9.278 0 0 0 3.637-2.024c1.592-1.278 2.103-1.553 3.204-1.081l1.1.51.689-.687a.59.59 0 0 0 .157-.04c.492-.138 1.337-.374 1.868-1.18.472-.098.904-.255 1.258-.373.884-.334 1.1-.354 1.395-.197a2.064 2.064 0 0 0 1.632.236l.04.138 1.278-.158 1.69-.216c4.973-.649 9.298-1.199 13.19.885l1.396.766.825-1.258a6.683 6.683 0 0 1 .511.57c1.003 1.12 2.752 3.047 5.308 2.614.55.472 1.18.865 1.73 1.18l.727.452v.078l.354.452c.786 1.062 2.457 1.553 3.794 1.612 2.929 3.086 5.897 7.293 5.897 9.14v1.73h1.297l.017.098c.492 2.28 1.16 5.111 2.91 6.959-.492 1.16-.06 2.575.118 3.164l.177.63-.433 1.297 1.14 1.16.256.137c-.06 1.199.472 2.3.845 3.086l.314.668-.295.63c-1.553 2.967.531 4.618 1.534 5.405l.373.314c-.786.59-.747 1.219-.904 2.28l.137 1.298.53.865h.04l.06.177c.078.255.196.609.413 1.002l-.59.57-.413 1.553.865 1.258.727.275c-.017.707.275 1.317.452 1.75l.099.255-.158.766c-.57 2.85-1.297 6.526.472 9.475l-.137.156c-.826 1.082-.61 2.34-.452 3.263.04.295.118.767.078.924l-.452 1.789c0 .078.57.236 1.082.334-.06.196-.138.354-.177.55l-.374 2.045h.708c-.118.707-.138 1.356-.157 1.965-.017 1.042-.06 1.71-.433 2.26l-.137.237-.079.275c-.51 1.887.177 3.656.747 5.072l.295.766a2.025 2.025 0 0 0-.55 1.494c0 .157.078.275.098.413l-.373.393.334 1.002c.177.59.53.944.963 1.16l-.295.079c-.059.017-.059 1.356-.059 1.356v.472l-1.1.275.55 1.14a2.614 2.614 0 0 0-.275 2.123l-.747 1.336c.017-.04.137.787.806 1.101-.688 2.379 1.022 4.108 2.044 5.15a7.116 7.116 0 0 1 .904.983h-.865l.65 2.24.016.06a3.44 3.44 0 0 0-.452.472l-1.435.707.452 1.927-.137.452c-.334 1.022-.059 1.69.216 2.103.059.098.137.137.216.196a3.735 3.735 0 0 0-1.219 2.418l-.157 1.631 1.337.197c-.118.354-.236.688-.315 1.022-.177.61-.314 1.14-.59 1.553l.018.017-.118.197 2.32 1.297c-.315.61-.512 1.218-.669 1.69a3.322 3.322 0 0 1-.236.708h-.177l-1.946.017.118 2.24a6.094 6.093 0 0 1 .196 1.2 9.868 9.867 0 0 0 .216 1.376v2.24c0 .296 0 .767.099 1.259l-.276.137.177 1.238c.079.63.04 1.239 0 1.868-.017.373-.059.766-.059 1.18l-1.572.825 1.926 2.103a5.19 5.19 0 0 0-.53 2.103h-1.377l2.34 2.85c.196.256.373.885.51 1.357l.04.177c-.943.904-1.1 2.28-1.179 3.027-.04.334-.078.825-.177.943l.04-.04.59.786a2.949 2.948 0 0 0-.885 1.062 2.85 2.85 0 0 0-.196 1.631h-2.26l1.867 1.868-1.75.57 1.455 1.218v4.639c0 .845.413 1.553 1.081 1.907l.138.04a3.499 3.499 0 0 0 2.751.393v1.926l2.222-.668a8.158 8.157 0 0 1 4.167-.295l1.848.393.236-1.868c.904-6.938.727-13.641.55-20.128-.177-6.31-.334-12.324.472-18.182.531-1.179 0-2.24-.334-2.81z" fill="#295493"/><path d="M2014.42 307.286l.413-.276v-.963l-.354-31.135v-.216a157.964 157.957 0 0 1-.806-15.332c-.137-6.153-.275-12.54-1.1-18.163-.158-8.098-1.77-16.747-3.303-25.12l-1.042-5.7-.078-.511-.393-.413a9.553 9.553 0 0 1-2.143-4.64c-.413-1.532-.825-3.105-1.769-4.599-2.084-3.793-5.386-7.508-8.315-10.771l-.157-.177a8.06 8.06 0 0 0-2.32-1.986c-.432-.295-.845-.53-1.297-.924l-.669-.57-.413.098-.51-.432a22.841 22.84 0 0 0-7.942-3.853l-.059-.017c-.826-1.18-2.398-1.356-3.46-1.395v-.747l-1.474-.236-6.939-1.022-1.022-.157-.61.825c-.255.354-.314.413-1.788-.098-.668-.236-1.396-.511-2.182-.57l-.826-.079-.393.393a3.794 3.794 0 0 0-.806-.472l-2.87-.865-.236 1.337a6.939 6.939 0 0 0-3.302.727h-4.56l-4.246.017.51 1.632-.078.078c-1.867-.472-3.302.669-4.088 1.317l-.393.315a6.33 6.33 0 0 0-2.969 1.356c-.432.334-.57.432-1.002.472l-.708.059-.471.57c-.63.767-2.634 1.631-3.696 2.123l-2.339 1.022.511.51a3.735 3.735 0 0 0-1.1.709h-2.261v1.788c-.099 0-.197-.017-.236-.059l-1.278-.51a6.624 6.624 0 0 0-.924 1.06 54.647 54.644 0 0 1-5.052 5.819c-2.201 2.359-4.482 4.776-6.231 7.39l-.531.787.354.806c-.413.255-1.474.924-1.67 2.201a5.563 5.563 0 0 0-1.18 3.008 3.676 3.676 0 0 1-.177.766 5.858 5.858 0 0 0-1.278 3.067c-.098.668-.177 1.022-.452 1.376l-1.12 1.395.491.374c-.334.845-.334 1.73-.354 2.26 0 .236 0 .53-.04.708l-.727.452.157 1.14c.334 2.162.04 4.206-.256 6.349a27.166 27.165 0 0 0-.334 6.526c-.845 1.297-.649 2.83-.51 3.793.04.334.117.787.098.983l-1.12.885.805 1.297c.61 1.022.118 2.614-.334 4.167-.413 1.455-.943 3.263-.413 4.816-.118.118-.275.255-.393.413a1.966 1.966 0 0 0-.334 1.277c0 1.22-.118 1.573-.177 1.671l-.806 1.71-.137.669 1.494 1.041a9.042 9.042 0 0 0 .078 2.752c.177 1.14.216 1.612-.118 2.064l-.924 1.671.924 1.1v.296c-.04.747-.118 2.123.826 3.125.017.197.059.393.118.53l-1.69.433 1.1 2.359-.118.57c-.177.707-.472 2.064.216 3.282-.51 1.357-.177 2.713.04 3.597.079.256.157.59.177.826-1.592 1.67-.825 3.911-.393 5.09-.747 1.14-.57 2.497-.413 3.323l-2.142.747 2.201 2.24a2.28 2.28 0 0 0 .256 1.671 1.966 1.966 0 0 0 .924.806l-.669.216.079.236.786 2.025-.017.216a4.796 4.796 0 0 0 .668 3.243 1.632 1.631 0 0 0-.354.983l-.865.846.826 1.218c.668.944.413 2.162-.078 4.089-.413 1.67-.924 3.833.059 5.68l-1.22 1.219 1.514 1.1-.118.237c-.393.707-1.1 2.064-.196 3.538l-.079-.177c.315.688.177 1.828.018 3.027-.197 1.769-.452 3.892.472 5.995l-.295 2.123.059-.295a2.673 2.673 0 0 0 .216 2.044l-.688.295.472 1.474a18.38 18.379 0 0 1 .51 5.386c.018 3.755.018 8.02 3.401 11.244l.728.688.982-.275c2.516-.767 2.654-3.283 2.733-4.64a8.256 8.256 0 0 1 .04-.766l.04-.393-.099-.354c-1.022-3.44-.59-7.94-.216-11.931l.275-3.027.04-.472-.216-.413c-.688-1.396-.511-2.772-.334-4.344a10.654 10.654 0 0 0-.177-4.698c.57-7.292.236-15.922-.059-23.528a427.619 427.601 0 0 1-.315-9.082v-.177a75.6 75.598 0 0 1-.216-11.184c.098-3.361.196-6.801-.099-9.985.806-3.637.747-6.959.688-10.497a138.641 138.635 0 0 1 0-4.953l.018-.433-.118-.216c.786-.943.982-1.926.57-2.87a15.49 15.49 0 0 0 .452-3.754 13.13 13.13 0 0 1 .236-2.555l.098-.432-.118-.413a5.76 5.76 0 0 1 .216-2.595 6.683 6.683 0 0 0 .059-3.833c1.356-2.713 1.651-6.074 1.946-9.337l.079-1.12a2.24 2.24 0 0 0-.688-1.966v-.098c0-1.455.747-2.615 1.67-4.089a13.445 13.445 0 0 0 2.477-5.916l.06-.413-.04-.079a6.389 6.388 0 0 1 .392-.354c.649-.55 1.592-1.356 1.573-2.673a1.907 1.907 0 0 0-.118-.668c1.218-1.101 1.946-2.32 2.634-3.44.982-1.651 1.69-2.83 3.617-3.381l.943-.295.256-.944c.274-1.061 1.218-1.69 2.712-2.614a11.755 11.754 0 0 0 3.263-2.653c1.258.098 2.025-.236 2.457-.728a9.514 9.514 0 0 0 3.657-2.024c1.572-1.298 2.103-1.573 3.204-1.081l1.08.51.689-.707a.472.472 0 0 0 .157-.04 2.83 2.83 0 0 0 1.868-1.18 8.06 8.06 0 0 0 1.258-.373c.884-.334 1.1-.354 1.415-.177.315.196.904.413 1.612.236l.059.118 1.258-.158 1.69-.216c4.993-.628 9.318-1.199 13.21.905l1.396.747.825-1.239.531.55c1.003 1.121 2.752 3.047 5.288 2.635.55.472 1.18.865 1.73 1.199l.727.432v.079l.354.472c.786 1.041 2.457 1.552 3.794 1.592 2.929 3.066 5.897 7.292 5.897 9.14v1.73h1.297l.018.098c.471 2.28 1.14 5.091 2.89 6.958-.473 1.16-.06 2.556.137 3.145l.177.63-.433 1.297 1.14 1.16.256.157a6.33 6.33 0 0 0 .865 3.066l.295.649-.275.649c-1.573 2.968.53 4.619 1.513 5.405l.393.315c-.766.609-.747 1.218-.884 2.28l.118 1.317.53.845h.04l.06.196a4.718 4.717 0 0 0 .413 1.003l-.61.57-.393 1.553.865 1.238.688.334c-.017.708.256 1.317.433 1.75.04.078.078.156.098.274l-.157.767c-.59 2.85-1.298 6.526.472 9.494l-.157.137c-.806 1.081-.61 2.32-.452 3.244.04.295.118.786.078.943l-.432 1.77c-.017.078.57.235 1.061.353-.059.177-.137.334-.157.531l-.393 2.044h.708c-.118.688-.138 1.357-.158 1.966-.017 1.042-.059 1.73-.413 2.26l-.255.256-.079.295c-.51 1.867.177 3.636.747 5.052l.295.786a1.966 1.966 0 0 0-.55 1.474c.017.158.078.295.118.413l-.374.374.334 1.022a1.985 1.985 0 0 0 .963 1.16l-.295.078c-.059 0-.059 1.336-.059 1.336v.492l-1.1.295.55 1.12c-.275.531-.57 1.298-.275 2.143l-.747 1.317c.017-.04.118.786.786 1.12-.688 2.359 1.022 4.089 2.045 5.13a6.212 6.211 0 0 1 .904 1.023h-.865l.649 2.201.017.06c-.158.137-.295.314-.433.471l-1.415.727.452 1.927-.138.452c-.333 1.002-.059 1.69.216 2.083.06.099.138.138.216.197a3.833 3.833 0 0 0-1.218 2.417l-.158 1.632 1.337.196a52.72 52.718 0 0 0-.315 1.023c-.157.609-.295 1.16-.59 1.572h.018l-.138.217 2.32 1.297a9.396 9.396 0 0 0-.649 1.69l-.255.688h-.158l-1.965.017.118 2.241c.118.354.157.747.216 1.2a13.603 13.602 0 0 0 .197 1.375v2.26a8.06 8.06 0 0 0 .098 1.24l-.255.137.177 1.238a10.084 10.084 0 0 1 0 1.887 10.615 10.614 0 0 0-.06 1.16l-1.592.825 1.927 2.103a5.21 5.209 0 0 0-.511 2.123h-1.376l2.339 2.85c.196.236.373.885.491 1.337l.06.177c-.964.924-1.121 2.3-1.2 3.027-.04.334-.078.826-.157.963l.017-.04.61.767a2.968 2.968 0 0 0-.885 1.08 2.811 2.81 0 0 0-.197 1.632h-2.26l1.867 1.868-1.75.57 1.455 1.218v4.64c0 .844.413 1.532 1.081 1.886l.138.06c.904.589 1.926.569 2.752.392v1.907l2.221-.649a8.413 8.413 0 0 1 4.167-.314l1.848.392.236-1.867a126.591 126.586 0 0 0 .55-20.128 111.495 111.49 0 0 1 .473-18.201c.51-1.14-.017-2.202-.354-2.752z" fill="#ec6d2d"/></g></svg>