<svg width="900" height="500" version="1.1" xmlns="http://www.w3.org/2000/svg" desc="Created with imagetracer.js version 1.2.6" ><path fill="rgb(157,121,80)" stroke="rgb(157,121,80)" stroke-width="1" opacity="1" d="M 110.5 157 L 123.5 157 L 131.5 159 Q 140.4 162.6 146 169.5 Q 153.1 177.9 157 189.5 L 158 206.5 L 154 220 Q 181 220.1 192 237.5 L 201 256.5 L 201 268.5 Q 196.6 285.1 185.5 295 L 169.5 307 L 106.5 341 L 97.5 342 L 91 337.5 Q 87.2 334.3 88 326.5 L 95.5 317 L 115.5 306 L 122.5 304 L 159.5 283 L 167 275.5 L 169 271.5 L 170 262.5 Q 168.3 252.3 161.5 247 Q 156.1 242.4 146.5 242 L 139.5 244 L 104.5 264 L 98.5 264 Q 92.4 262.6 90 257.5 Q 87.7 254.3 89 247.5 L 95.5 240 L 120.5 226 L 129 218.5 Q 133 213.5 131 202.5 Q 128.3 192.8 120.5 188 Q 116.4 184.1 107.5 185 L 100.5 187 L 72.5 204 L 62.5 205 L 56 202 L 53 196.5 L 53 188.5 Q 54.4 182.4 59.5 180 L 87.5 164 L 99.5 159 L 110.5 157 Z " /><path fill="rgb(157,121,80)" stroke="rgb(157,121,80)" stroke-width="1" opacity="1" d="M 266.5 198 Q 274.8 196.7 277 201.5 L 299.5 243 L 319 204.5 L 323.5 199 L 332.5 198 L 338 204.5 L 338 277.5 L 334.5 284 L 328.5 285 L 322 280.5 L 321 278.5 L 320.5 239 L 308 263.5 L 303.5 268 Q 293.8 269.8 292 263.5 L 279.5 239 L 279 275.5 L 275.5 283 L 268.5 285 L 261 279.5 L 261 203.5 L 264.5 199 L 266.5 198 Z " /><path fill="rgb(157,121,80)" stroke="rgb(157,121,80)" stroke-width="1" opacity="1" d="M 483.5 198 Q 489.9 197.6 492 201.5 L 493 203.5 L 493.5 226 Q 498.7 219.2 512.5 221 Q 520.7 222.8 525 228.5 L 529 237.5 L 529 280.5 Q 526 285 518.5 285 L 514 283 L 512 278.5 L 512 242.5 L 507.5 237 L 499.5 236 L 494 240.5 L 493 243.5 L 493 279.5 L 489.5 284 L 483.5 285 L 479 282 L 478 279.5 L 478 203.5 L 480.5 199 L 483.5 198 Z " /><path fill="rgb(157,121,80)" stroke="rgb(157,121,80)" stroke-width="1" opacity="1" d="M 557.5 199 L 587.5 199 Q 588.8 201.2 593.5 200 Q 601.3 202.3 606 207.5 Q 611.9 213.6 611 226.5 Q 609.3 235.8 602.5 240 Q 599.9 239.3 601 242 L 609 248.5 Q 613.2 254.3 612 265.5 Q 609.9 274.9 603.5 280 L 591.5 285 L 560.5 285 Q 559.3 282.8 554.5 284 L 551 280.5 L 550 277.5 L 550 205.5 L 554.5 200 L 557.5 199 Z M 567 214 L 567 234 L 584 234 L 591 232 L 594 228 Q 595 221 593 218 L 588 214 L 567 214 Z M 567 249 L 567 270 L 585 270 L 592 268 L 594 266 L 596 260 L 595 255 L 589 249 L 567 249 Z " /><path fill="rgb(157,121,80)" stroke="rgb(157,121,80)" stroke-width="1" opacity="1" d="M 26.5 201 Q 38.3 199.2 41 206.5 L 87 285.5 L 90 291.5 L 90 299.5 L 84.5 306 L 75.5 307 L 69 302.5 L 23 223.5 L 19 215.5 L 19 208.5 L 24.5 202 L 26.5 201 Z " /><path fill="rgb(157,121,80)" stroke="rgb(157,121,80)" stroke-width="1" opacity="1" d="M 697.5 205 Q 706.5 203.5 708 209.5 L 708 224 L 717.5 224 Q 722 225 721 231.5 L 718.5 235 L 708 236 L 708 267.5 L 710.5 271 Q 717.4 270.1 720 273.5 L 721 279.5 L 717.5 284 Q 701.8 286.2 696 278.5 L 692 268.5 L 692 236 Q 685.3 237.1 683 232.5 Q 681.5 226.5 684.5 225 L 692 224 Q 689.9 211.6 695.5 206 L 697.5 205 Z " /><path fill="rgb(157,121,80)" stroke="rgb(157,121,80)" stroke-width="1" opacity="1" d="M 739.5 205 Q 746.8 203.8 749 207.5 L 750 209.5 L 750 224 L 759.5 224 L 763 227.5 Q 764.3 233.8 760.5 235 L 750 236 L 750 267.5 L 751 270 L 757.5 271 L 762 273.5 L 763 280.5 L 759.5 284 L 747.5 284 L 738 279 L 734 267.5 L 734 242.5 L 735 236 Q 727.5 237.3 725 232.5 Q 724.4 227.1 726 225 Q 728.8 223.1 735 224 L 735 209.5 L 737.5 206 L 739.5 205 Z " /><path fill="rgb(157,121,80)" stroke="rgb(157,121,80)" stroke-width="1" opacity="1" d="M 358.5 221 Q 366.3 219.3 368 223.5 L 369 227.5 L 369 263.5 L 373.5 269 L 375.5 269 L 380.5 270 L 387 266.5 L 389 262.5 L 389 226.5 L 393.5 221 Q 400.3 219.7 403 222.5 L 403 224.5 L 404 226.5 L 404 277.5 L 400 282.5 L 400.5 284 L 395.5 285 L 388.5 280 Q 383.9 286.9 370.5 285 Q 362.3 283.2 358 277.5 L 354 268.5 L 354 225.5 L 356.5 222 L 358.5 221 Z M 390 277 L 388 279 L 390 279 L 390 277 Z " /><path fill="rgb(157,121,80)" stroke="rgb(157,121,80)" stroke-width="1" opacity="1" d="M 441.5 221 Q 458.8 219.7 465 229.5 L 466 235.5 L 462.5 240 L 456.5 241 L 448.5 236 L 443.5 236 L 437 241.5 L 435 245.5 L 435 261.5 L 440.5 269 L 449.5 270 L 456.5 266 L 461.5 266 L 465 268.5 L 466 275.5 L 462.5 280 Q 455.4 286.9 439.5 285 Q 429.8 282.7 424 276.5 Q 415.9 266.6 417 247.5 Q 419.3 246.3 418 241.5 L 422 232.5 L 429.5 225 L 441.5 221 Z " /><path fill="rgb(157,121,80)" stroke="rgb(157,121,80)" stroke-width="1" opacity="1" d="M 643.5 221 Q 666 219 673 232.5 L 677 242.5 L 677 252.5 L 673.5 257 L 669.5 258 L 639 258 Q 637.6 267.4 644.5 270 Q 648.1 272.9 655.5 272 L 669.5 266 L 674 269.5 L 675 273.5 L 668.5 281 L 656.5 285 L 646.5 285 L 634.5 281 L 628 274.5 Q 620.6 264.4 623 244.5 Q 625.3 231.3 634.5 225 L 643.5 221 Z M 648 234 L 644 236 Q 639 240 639 247 L 663 247 L 660 239 Q 657 233 648 234 Z " /><path fill="rgb(157,121,80)" stroke="rgb(157,121,80)" stroke-width="1" opacity="1" d="M 790.5 221 Q 811 219 818 230.5 Q 824.4 237.6 824 251.5 L 822 256 L 816.5 258 L 785 258 Q 784.8 266.4 790.5 270 Q 794.5 273 802.5 272 L 813.5 266 L 816.5 266 L 820 268.5 L 821 275.5 Q 813.6 286.6 793.5 285 L 785.5 283 L 776 276.5 L 770 263.5 L 769 247.5 L 771 238.5 L 779.5 226 L 790.5 221 Z M 795 234 L 792 235 L 786 242 Q 785 247 787 247 L 809 247 L 806 237 L 800 234 L 795 234 Z " /><path fill="rgb(157,121,80)" stroke="rgb(157,121,80)" stroke-width="1" opacity="1" d="M 842.5 221 Q 848.9 221.1 851 225.5 L 851.5 227 L 862.5 221 L 870.5 221 L 879 225 L 881 232.5 L 876.5 238 Q 868.4 239.1 865.5 235 L 858.5 235 L 854 238.5 L 852 242.5 L 852 278.5 L 850 283 L 843.5 285 L 837 280.5 L 836 277.5 L 836 227.5 L 840.5 222 L 842.5 221 Z " /><path fill="rgb(255,255,255)" stroke="rgb(255,255,255)" stroke-width="1" opacity="1" d="M 0 0 L 900 0 L 900 500 L 0 500 L 0 0 Z M 111 157 L 100 159 L 88 164 L 60 180 Q 54 182 53 189 L 53 197 L 56 202 L 63 205 L 73 204 L 101 187 L 108 185 Q 116 184 121 188 Q 128 193 131 203 Q 133 213 129 219 L 121 226 L 96 240 L 89 248 Q 88 254 90 258 Q 92 263 99 264 L 105 264 L 140 244 L 147 242 Q 156 242 162 247 Q 168 252 170 263 L 169 272 L 167 276 L 160 283 L 123 304 L 116 306 L 96 317 L 88 327 Q 87 334 91 338 L 98 342 L 107 341 L 170 307 L 186 295 Q 197 285 201 269 L 201 257 L 192 238 Q 181 220 154 220 L 158 207 L 157 190 Q 153 178 146 170 Q 140 163 132 159 L 124 157 L 111 157 Z M 267 198 L 265 199 L 261 204 L 261 280 L 269 285 L 276 283 L 279 276 L 280 239 L 292 264 Q 294 270 304 268 L 308 264 L 321 239 L 321 279 L 322 281 L 329 285 L 335 284 L 338 278 L 338 205 L 333 198 L 324 199 L 319 205 L 300 243 L 277 202 Q 275 197 267 198 Z M 484 198 L 481 199 L 481 201 L 480 200 L 478 204 L 478 280 L 479 282 L 484 285 L 490 284 L 493 280 L 493 244 L 494 241 L 500 236 L 508 237 L 512 243 L 512 279 L 514 283 L 519 285 Q 526 285 529 281 L 529 238 L 525 229 Q 521 223 513 221 Q 499 219 494 226 L 493 204 L 492 202 Q 490 198 484 198 Z M 558 199 L 555 200 L 550 206 L 550 278 L 551 281 L 555 284 Q 559 283 561 285 L 592 285 L 604 280 Q 610 275 612 266 Q 613 254 609 249 L 601 242 Q 600 239 603 240 Q 609 236 611 227 Q 612 214 606 208 Q 601 202 594 200 Q 589 201 588 199 L 558 199 Z M 27 201 L 25 202 L 19 209 L 19 216 L 23 224 L 69 303 L 76 307 L 85 306 L 90 300 L 90 292 L 87 286 L 41 207 Q 38 199 27 201 Z M 698 205 L 696 206 Q 690 212 692 224 L 685 225 Q 681 226 683 233 Q 685 237 692 236 L 692 269 L 696 279 Q 702 286 718 284 L 721 280 L 720 274 Q 717 270 711 271 L 708 268 L 708 236 L 719 235 L 721 232 Q 722 225 718 224 L 708 224 L 708 210 Q 707 204 698 205 Z M 740 205 L 738 206 L 735 210 L 735 224 Q 729 223 726 225 Q 724 227 725 233 Q 728 237 735 236 L 734 243 L 734 268 L 738 279 L 748 284 L 760 284 L 763 281 L 762 274 L 758 271 L 751 270 L 750 268 L 750 236 L 761 235 Q 764 234 763 228 L 760 224 L 750 224 L 750 210 L 749 208 Q 747 204 740 205 Z M 359 221 L 357 222 L 354 226 L 354 269 L 358 278 Q 362 283 371 285 Q 384 287 389 280 L 396 285 L 401 284 L 400 283 L 404 278 L 404 227 L 403 225 L 403 223 Q 400 220 394 221 L 389 227 L 389 263 L 387 267 L 381 270 L 376 269 L 374 269 L 369 264 L 369 228 L 368 224 Q 366 219 359 221 Z M 442 221 L 430 225 L 422 233 L 418 242 Q 419 246 417 248 Q 416 267 424 277 Q 430 283 440 285 Q 455 287 463 280 L 466 276 L 465 269 L 462 266 L 457 266 L 450 270 L 441 269 L 435 262 L 435 246 L 437 242 L 444 236 L 449 236 L 457 241 L 463 240 L 466 236 L 465 230 Q 459 220 442 221 Z M 644 221 L 635 225 Q 625 231 623 245 Q 621 264 628 275 L 635 281 L 647 285 L 657 285 L 669 281 L 675 274 L 674 270 L 670 266 L 656 272 Q 648 273 645 270 Q 638 267 639 258 L 670 258 L 674 257 L 677 253 L 677 243 L 673 233 Q 666 219 644 221 Z M 791 221 L 780 226 L 771 239 L 769 248 L 770 264 L 776 277 L 786 283 L 794 285 Q 814 287 821 276 L 820 269 L 817 266 L 814 266 L 803 272 Q 795 273 791 270 Q 785 266 785 258 L 817 258 L 822 256 L 824 252 Q 824 238 818 231 Q 811 219 791 221 Z M 843 221 L 841 222 L 836 228 L 836 278 L 837 281 L 844 285 L 850 283 L 852 279 L 852 243 L 854 239 L 859 235 L 866 235 Q 868 239 877 238 L 881 233 L 879 225 L 871 221 L 863 221 L 852 227 L 851 226 Q 849 221 843 221 Z " /><path fill="rgb(255,255,255)" stroke="rgb(255,255,255)" stroke-width="1" opacity="1" d="M 567 214 L 587.5 214 L 593 217.5 Q 595.3 220.7 594 227.5 L 590.5 232 L 583.5 234 L 567 234 L 567 214 Z " /><path fill="rgb(255,255,255)" stroke="rgb(255,255,255)" stroke-width="1" opacity="1" d="M 647.5 234 Q 657.2 232.8 660 238.5 L 663 246.5 L 639 247 Q 638.8 239.5 643.5 236 L 647.5 234 Z " /><path fill="rgb(255,255,255)" stroke="rgb(255,255,255)" stroke-width="1" opacity="1" d="M 794.5 234 L 799.5 234 L 806 237 L 809 247 L 786.5 247 Q 785.4 246.9 786 241.5 L 791.5 235 L 794.5 234 Z " /><path fill="rgb(255,255,255)" stroke="rgb(255,255,255)" stroke-width="1" opacity="1" d="M 567 249 L 588.5 249 L 595 254.5 L 596 259.5 L 594 265.5 L 591.5 268 L 584.5 270 L 567 270 L 567 249 Z " /><path fill="rgb(255,255,255)" stroke="rgb(255,255,255)" stroke-width="1" opacity="1" d="M 389.5 277 L 390 279 L 388 278.5 L 389.5 277 Z " /></svg>