<svg version="1.1" id="Layer_1" xmlns="http://www.w3.org/2000/svg" xmlns:xlink="http://www.w3.org/1999/xlink" x="0px" y="0px" viewBox="0 0 175 74" style="enable-background:new 0 0 175 74;" xml:space="preserve">
 <style type="text/css">
  .st0{fill:#767676;}
	.st1{fill:#2B0080;}
	.st2{fill:#FFFFFF;}
 </style>
 <g>
  <g>
   <polygon class="st0" points="85.5,19.1 94.1,19.1 109.2,45.3 109.3,45.3 109.3,19.1 116,19.1 116,54.9 107.5,54.9 92.5,28.6 
			92.3,28.6 92.3,54.9 85.5,54.9 		">
   </polygon>
   <polygon class="st0" points="120.8,19.1 128,19.1 128,49 141.4,49 141.4,54.9 120.8,54.9 		">
   </polygon>
   <path class="st0" d="M145.9,19.1h15c4.6,0,11.5,1.3,11.5,9.2c0,4.2-2.9,7.2-7.1,8v0.1c4.9,0.5,8.4,3.8,8.4,8.1
			c0,8.8-8.1,10.4-12.6,10.4h-15.2V19.1z M153,33.5h5.4c3,0,6.8-0.9,6.8-4.6c0-4.1-3.6-4.4-6.9-4.4H153V33.5z M153,49.3h6.2
			c3.3,0,7.2-0.7,7.2-4.9c0-4.7-3.6-5.5-7.2-5.5H153V49.3z">
   </path>
  </g>
  <g>
   <path class="st1" d="M36.1,1.2C16.3,1.2,0.3,17.2,0.3,37c0,19.8,16,35.8,35.8,35.8c19.8,0,35.8-16,35.8-35.8
			C71.8,17.2,55.8,1.2,36.1,1.2z">
   </path>
   <path class="st2" d="M3.9,48.1l12.7-22h10.2l-12.7,22H3.9z M36.1,48c-6.3,0-11.5-5.1-11.5-11.4c0-2.1,0.6-4,1.5-5.7l2.8-4.8h10.2
			l-5.3,9.2c-0.2,0.4-0.4,0.9-0.4,1.3c0,1.5,1.2,2.7,2.6,2.7c1.4,0,2.6-1.2,2.6-2.7c0-1.3-0.9-2.4-2.2-2.6l4.5-7.7
			c3.8,1.9,6.5,5.8,6.5,10.3C47.5,42.9,42.4,48,36.1,48z">
   </path>
  </g>
 </g>
</svg>