<svg width="142" height="45" version="1.1" xmlns="http://www.w3.org/2000/svg" desc="Created with imagetracer.js version 1.2.6" ><path fill="rgb(0,14,158)" stroke="rgb(0,14,158)" stroke-width="1" opacity="0.6588235294117647" d="M 63.5 12 L 62.5 14 L 63.5 12 Z " /><path fill="rgb(0,14,158)" stroke="rgb(0,14,158)" stroke-width="1" opacity="0.6588235294117647" d="M 119.5 15 L 117.5 18 L 119.5 15 Z " /><path fill="rgb(0,14,158)" stroke="rgb(0,14,158)" stroke-width="1" opacity="0.6588235294117647" d="M 129.5 15 L 131.5 18 L 129.5 15 Z " /><path fill="rgb(0,14,158)" stroke="rgb(0,14,158)" stroke-width="1" opacity="0.6588235294117647" d="M 10.5 27 L 12.5 30 L 10.5 27 Z " /><path fill="rgb(0,14,158)" stroke="rgb(0,14,158)" stroke-width="1" opacity="0.6588235294117647" d="M 24.5 27 L 22.5 30 L 24.5 27 Z " /><path fill="rgb(0,14,158)" stroke="rgb(0,14,158)" stroke-width="1" opacity="0.6588235294117647" d="M 55.5 27 L 57 29.5 L 56 29.5 L 55.5 27 Z " /><path fill="rgb(0,14,158)" stroke="rgb(0,14,158)" stroke-width="1" opacity="0.6588235294117647" d="M 38.5 31 L 37.5 33 L 38.5 31 Z " /><path fill="rgb(0,14,158)" stroke="rgb(0,14,158)" stroke-width="1" opacity="0.6588235294117647" d="M 49.5 32 L 53 32.5 L 49.5 33 L 49.5 32 Z " /><path fill="rgb(0,14,158)" stroke="rgb(0,14,158)" stroke-width="1" opacity="0.6588235294117647" d="M 36.5 34 L 37.5 36 L 36.5 34 Z " /><path fill="rgb(0,14,158)" stroke="rgb(0,14,158)" stroke-width="1" opacity="0.6588235294117647" d="M 64.5 34 L 61.5 38 L 64.5 34 Z " /><path fill="rgb(0,14,158)" stroke="rgb(0,14,158)" stroke-width="1" opacity="0.6588235294117647" d="M 46.5 39 L 49 39.5 L 46.5 40 L 46.5 39 Z " /><path fill="rgb(0,15,158)" stroke="rgb(0,15,158)" stroke-width="1" opacity="1" d="M 16.5 5 L 25.5 7 L 30 10 Q 34.3 14.5 35 23.5 L 33 30.5 L 30 35 Q 25.5 39.3 16.5 40 L 9.5 38 L 5 35 Q 0.7 30.5 0 21.5 L 2 14.5 L 5 10 L 16.5 5 Z M 17 13 L 14 14 L 9 19 L 8 23 L 9 27 Q 11 33 22 31 Q 28 29 26 19 Q 24 13 17 13 Z " /><path fill="rgb(0,15,158)" stroke="rgb(0,15,158)" stroke-width="1" opacity="1" d="M 51.5 5 L 57.5 6 L 64 10.5 L 61.5 14 L 56.5 12 L 49.5 12 L 47 13 Q 46 16.8 48.5 18 Q 58.6 18.4 64 23.5 L 66 29.5 L 65 33.5 L 60.5 38 L 50.5 40 Q 49.3 37.8 44.5 39 L 37 34.5 L 40.5 30 Q 44.6 33.9 53.5 33 L 57 30.5 L 55.5 27 L 45.5 25 L 40 21.5 Q 37.3 19.2 38 13.5 L 43.5 7 L 51.5 5 Z " /><path fill="rgb(0,15,158)" stroke="rgb(0,15,158)" stroke-width="1" opacity="1" d="M 85.5 5 L 91.5 6 L 99 11.5 L 101 17 Q 87.5 16.1 83 25.5 Q 80.3 30.8 80.5 39 L 73 33.5 Q 69.3 29.2 69 21.5 L 71 14.5 L 75.5 9 L 80.5 6 L 85.5 5 Z " /><path fill="rgb(0,15,158)" stroke="rgb(0,15,158)" stroke-width="1" opacity="1" d="M 123.5 5 Q 133.6 5.4 138 11.5 L 142 21.5 L 142 40 L 133 40 L 133 18.5 Q 131 12 120.5 14 L 116 18.5 L 116 40 L 107 40 L 107 21.5 L 109 14.5 L 112 10 L 123.5 5 Z " /><path fill="rgb(0,15,158)" stroke="rgb(0,15,158)" stroke-width="1" opacity="0.8980392156862745" d="M 7.5 8 L 6.5 10 L 7.5 8 Z " /><path fill="rgb(0,15,158)" stroke="rgb(0,15,158)" stroke-width="1" opacity="0.8980392156862745" d="M 27.5 8 L 28.5 10 L 27.5 8 Z " /><path fill="rgb(0,15,158)" stroke="rgb(0,15,158)" stroke-width="1" opacity="0.8980392156862745" d="M 41.5 8 L 39.5 11 L 41.5 8 Z " /><path fill="rgb(0,15,158)" stroke="rgb(0,15,158)" stroke-width="1" opacity="0.8980392156862745" d="M 62.5 8 L 64.5 11 L 62.5 8 Z " /><path fill="rgb(0,15,158)" stroke="rgb(0,15,158)" stroke-width="1" opacity="0.8980392156862745" d="M 114.5 8 L 113.5 10 L 114.5 8 Z " /><path fill="rgb(0,15,158)" stroke="rgb(0,15,158)" stroke-width="1" opacity="0.8980392156862745" d="M 4.5 11 L 3.5 13 L 4.5 11 Z " /><path fill="rgb(0,15,158)" stroke="rgb(0,15,158)" stroke-width="1" opacity="0.8980392156862745" d="M 30.5 11 L 31.5 13 L 30.5 11 Z " /><path fill="rgb(0,15,158)" stroke="rgb(0,15,158)" stroke-width="1" opacity="0.8980392156862745" d="M 111.5 11 L 110.5 13 L 111.5 11 Z " /><path fill="rgb(0,15,158)" stroke="rgb(0,15,158)" stroke-width="1" opacity="0.8980392156862745" d="M 40.5 29 L 39.5 31 L 40.5 29 Z " /><path fill="rgb(0,15,158)" stroke="rgb(0,15,158)" stroke-width="1" opacity="0.8980392156862745" d="M 3.5 32 L 4.5 34 L 3.5 32 Z " /><path fill="rgb(0,15,158)" stroke="rgb(0,15,158)" stroke-width="1" opacity="0.8980392156862745" d="M 31.5 32 L 30.5 34 L 31.5 32 Z " /><path fill="rgb(0,15,158)" stroke="rgb(0,15,158)" stroke-width="1" opacity="0.8980392156862745" d="M 6.5 35 L 7.5 37 L 6.5 35 Z " /><path fill="rgb(0,15,158)" stroke="rgb(0,15,158)" stroke-width="1" opacity="0.8980392156862745" d="M 28.5 35 L 27.5 37 L 28.5 35 Z " /><path fill="rgb(0,0,0)" stroke="rgb(0,0,0)" stroke-width="1" opacity="0" d="M 0 0 L 141.5 0 L 142 0.5 L 142 15.5 L 141 15.5 Q 139.6 9.4 134.5 7 Q 129.4 3.6 119.5 5 Q 113 6.5 110 11.5 L 107 17.5 L 107 40 L 116 40 L 116 21.5 L 119.5 16 L 124.5 14 L 131 17.5 L 133 22.5 L 133 40 L 142 40 L 142 45 L 0.5 45 L 0 44.5 L 0 29.5 L 1 29.5 Q 2.4 35.6 7.5 38 Q 12.9 41.6 23.5 40 L 33 32.5 Q 36.6 27.1 35 16.5 L 27.5 7 Q 22.1 3.4 11.5 5 L 2 12.5 L 0.5 17 L 0 0 Z M 46 5 L 42 7 L 37 15 L 38 21 L 46 26 Q 52 25 55 28 Q 58 27 56 31 L 54 32 Q 44 33 41 28 L 36 35 L 40 38 L 45 40 L 59 40 L 64 37 L 66 34 L 66 25 L 62 20 L 48 17 L 50 13 Q 58 12 62 16 L 66 11 L 58 5 L 46 5 Z M 81 5 L 77 7 Q 71 10 69 18 Q 67 28 71 33 L 81 40 Q 91 42 96 38 Q 101 35 103 28 Q 105 17 101 13 L 92 5 L 81 5 Z " /><path fill="rgb(0,0,0)" stroke="rgb(0,0,0)" stroke-width="1" opacity="0" d="M 16.5 14 Q 22.1 13.9 24 17.5 L 26 23.5 L 22.5 29 L 17.5 31 L 11 27.5 L 9 21.5 L 13.5 15 L 16.5 14 Z " /><path fill="rgb(65,160,240)" stroke="rgb(65,160,240)" stroke-width="1" opacity="0.796078431372549" d="M 100.5 17 L 103 17.5 L 100.5 18 L 100.5 17 Z " /><path fill="rgb(65,160,240)" stroke="rgb(65,160,240)" stroke-width="1" opacity="0.796078431372549" d="M 101.5 29 L 102 30.5 L 100 31.5 L 101.5 29 Z " /><path fill="rgb(65,160,240)" stroke="rgb(65,160,240)" stroke-width="1" opacity="0.796078431372549" d="M 98.5 34 L 96.5 37 L 98.5 34 Z " /><path fill="rgb(65,160,240)" stroke="rgb(65,160,240)" stroke-width="1" opacity="0.796078431372549" d="M 81.5 37 L 82 39.5 L 81 39.5 L 81.5 37 Z " /><path fill="rgb(65,160,240)" stroke="rgb(65,160,240)" stroke-width="1" opacity="0.796078431372549" d="M 92.5 38 L 91.5 40 L 90 39.5 L 92.5 38 Z " /><path fill="rgb(0,16,157)" stroke="rgb(0,16,157)" stroke-width="1" opacity="0.24705882352941178" d="M 7.5 7 L 2.5 13 L 7.5 7 Z " /><path fill="rgb(0,16,157)" stroke="rgb(0,16,157)" stroke-width="1" opacity="0.24705882352941178" d="M 27.5 7 L 32.5 13 L 27.5 7 Z " /><path fill="rgb(0,16,157)" stroke="rgb(0,16,157)" stroke-width="1" opacity="0.24705882352941178" d="M 41.5 7 L 39.5 10 L 41.5 7 Z " /><path fill="rgb(0,16,157)" stroke="rgb(0,16,157)" stroke-width="1" opacity="0.24705882352941178" d="M 76.5 7 L 71.5 13 L 76.5 7 Z " /><path fill="rgb(0,16,157)" stroke="rgb(0,16,157)" stroke-width="1" opacity="0.24705882352941178" d="M 95.5 7 L 96.5 9 L 95.5 7 Z " /><path fill="rgb(0,16,157)" stroke="rgb(0,16,157)" stroke-width="1" opacity="0.24705882352941178" d="M 114.5 7 L 110.5 12 L 114.5 7 Z " /><path fill="rgb(0,16,157)" stroke="rgb(0,16,157)" stroke-width="1" opacity="0.24705882352941178" d="M 134.5 7 L 139.5 13 L 134.5 7 Z " /><path fill="rgb(0,16,157)" stroke="rgb(0,16,157)" stroke-width="1" opacity="0.24705882352941178" d="M 63.5 8 Q 68 10 64.5 12 L 63.5 8 Z " /><path fill="rgb(0,16,157)" stroke="rgb(0,16,157)" stroke-width="1" opacity="0.24705882352941178" d="M 98.5 10 L 100.5 13 L 98.5 10 Z " /><path fill="rgb(0,16,157)" stroke="rgb(0,16,157)" stroke-width="1" opacity="0.24705882352941178" d="M 51.5 12 L 54 12.5 L 51.5 13 L 51.5 12 Z " /><path fill="rgb(0,16,157)" stroke="rgb(0,16,157)" stroke-width="1" opacity="0.24705882352941178" d="M 37.5 14 L 38 17.5 L 37 17.5 L 37.5 14 Z " /><path fill="rgb(0,16,157)" stroke="rgb(0,16,157)" stroke-width="1" opacity="0.24705882352941178" d="M 59.5 14 L 61.5 15 L 63 14.5 L 60.5 16 L 59.5 14 Z " /><path fill="rgb(0,16,157)" stroke="rgb(0,16,157)" stroke-width="1" opacity="0.24705882352941178" d="M 12.5 15 L 11.5 17 L 12.5 15 Z " /><path fill="rgb(0,16,157)" stroke="rgb(0,16,157)" stroke-width="1" opacity="0.24705882352941178" d="M 38.5 20 L 41.5 24 L 38.5 20 Z " /><path fill="rgb(0,16,157)" stroke="rgb(0,16,157)" stroke-width="1" opacity="0.24705882352941178" d="M 60.5 20 L 63 21.5 L 61.5 21 L 60.5 20 Z " /><path fill="rgb(0,16,157)" stroke="rgb(0,16,157)" stroke-width="1" opacity="0.24705882352941178" d="M 64.5 23 L 66 25.5 L 65 25.5 L 64.5 23 Z " /><path fill="rgb(0,16,157)" stroke="rgb(0,16,157)" stroke-width="1" opacity="0.24705882352941178" d="M 40.5 28 L 41.5 30 L 40.5 29 L 38 30.5 L 40.5 28 Z " /><path fill="rgb(0,16,157)" stroke="rgb(0,16,157)" stroke-width="1" opacity="0.24705882352941178" d="M 2.5 32 L 7.5 38 L 2.5 32 Z " /><path fill="rgb(0,16,157)" stroke="rgb(0,16,157)" stroke-width="1" opacity="0.24705882352941178" d="M 32.5 32 L 27.5 38 L 32.5 32 Z " /><path fill="rgb(0,16,157)" stroke="rgb(0,16,157)" stroke-width="1" opacity="0.24705882352941178" d="M 71.5 32 L 76.5 38 L 71.5 32 Z " /><path fill="rgb(0,16,157)" stroke="rgb(0,16,157)" stroke-width="1" opacity="0.24705882352941178" d="M 100.5 32 L 99.5 34 L 100.5 32 Z " /><path fill="rgb(0,16,157)" stroke="rgb(0,16,157)" stroke-width="1" opacity="0.24705882352941178" d="M 38.5 36 L 39.5 38 L 38.5 36 Z " /><path fill="rgb(77,187,255)" stroke="rgb(77,187,255)" stroke-width="1" opacity="0.996078431372549" d="M 96.5 17 L 103 18 L 102 24.5 L 102 26.5 Q 100.9 33.9 95.5 37 Q 93.3 36.3 94 38.5 L 91.5 39 L 82 40 L 81 33.5 L 84 24.5 L 88.5 20 L 96.5 17 Z " /></svg>