<?xml version="1.0" encoding="iso-8859-1"?>
<!-- Uploaded to: SVG Repo, www.svgrepo.com, Generator: SVG Repo Mixer Tools -->
<!DOCTYPE svg PUBLIC "-//W3C//DTD SVG 1.1//EN" "http://www.w3.org/Graphics/SVG/1.1/DTD/svg11.dtd">
<svg fill="#000000" version="1.1" id="Capa_1" xmlns="http://www.w3.org/2000/svg" xmlns:xlink="http://www.w3.org/1999/xlink" 
	 width="800px" height="800px" viewBox="0 0 56.48 56.48" xml:space="preserve"
	>
<g>
	<path d="M55.026,9.939H1.454C0.65,9.939,0,10.59,0,11.393v33.695c0,0.803,0.65,1.454,1.454,1.454h53.572
		c0.804,0,1.454-0.651,1.454-1.454V11.393C56.48,10.591,55.83,9.939,55.026,9.939z M33.988,24.907
		c0.083-0.207,0.229-0.352,0.432-0.439c0.122-0.051,0.25-0.078,0.383-0.088c0.041-0.004,0.082-0.004,0.123-0.004
		c0.478,0,0.953,0,1.43,0c0.119,0,0.236,0.012,0.35,0.045c0.303,0.082,0.496,0.271,0.586,0.57c0.04,0.129,0.059,0.262,0.059,0.395
		c0,0.277,0,0.555,0,0.832c0,0.01,0,0.021-0.002,0.033c0,0.01-0.006,0.018-0.016,0.021c-0.012,0.006-0.023,0.01-0.037,0.016
		c-0.427,0.168-0.852,0.336-1.279,0.502c-0.33,0.131-0.662,0.262-0.992,0.393c-0.012,0.004-0.021,0.008-0.031,0.014
		c-0.009,0.004-0.014,0.01-0.014,0.021c-0.006,0.084,0,0.168,0.055,0.24c0.012,0.016,0.021,0.033,0.034,0.049
		c0.028,0.039,0.067,0.061,0.116,0.061c0.021,0,0.041,0,0.062,0c0.671,0,1.345,0,2.017,0c0.094,0,0.084-0.01,0.084,0.082
		c0,0.309,0,0.617,0,0.926c0,0.078,0.006,0.078-0.078,0.078c-0.381,0-0.762,0-1.144,0c-0.358,0-0.718,0-1.075,0
		c-0.137-0.002-0.272-0.008-0.406-0.037c-0.194-0.043-0.356-0.141-0.487-0.291c-0.086-0.1-0.155-0.207-0.188-0.336
		c-0.018-0.068-0.028-0.137-0.037-0.207c-0.021-0.156-0.012-0.313-0.014-0.469c-0.003-0.379,0.002-0.758-0.004-1.137
		c-0.004-0.266-0.007-0.531-0.005-0.797C33.905,25.218,33.928,25.059,33.988,24.907z M31.479,26.177c0-0.785,0-1.57,0-2.355
		c0-0.105,0.01-0.209,0.035-0.311c0.047-0.176,0.143-0.322,0.279-0.443c0.178-0.154,0.387-0.238,0.619-0.27
		c0.064-0.01,0.131-0.014,0.197-0.014c0.203-0.002,0.408-0.002,0.611,0c0.062,0,0.062,0,0.062,0.059c0,0.309,0,0.617,0,0.926
		c0,0.063-0.001,0.063-0.061,0.063c-0.115,0-0.23,0-0.349,0c-0.055,0-0.106,0.008-0.159,0.027c-0.082,0.031-0.137,0.088-0.162,0.172
		c-0.008,0.027-0.015,0.057-0.016,0.086c-0.002,0.076-0.002,0.15-0.001,0.225c0,0.029,0.006,0.035,0.037,0.035
		c0.071,0,0.146,0,0.218,0c0.141,0,0.281,0,0.422,0c0.012,0,0.022,0,0.034,0c0.026,0.002,0.033,0.008,0.034,0.031
		c0.001,0.012,0.001,0.023,0.001,0.035c0,0.316,0,0.635,0,0.953c0,0.062,0,0.062-0.065,0.062c-0.201,0-0.403,0-0.604,0
		c-0.083,0-0.076-0.006-0.076,0.078c0,0.758,0,1.516,0,2.275c0,0.25,0,0.504,0,0.756c0,0.018,0.001,0.035,0,0.055
		c-0.002,0.025-0.007,0.029-0.034,0.031c-0.014,0-0.027,0-0.041,0c-0.302,0-0.604,0-0.906,0c-0.08,0-0.076,0.002-0.076-0.078
		C31.479,27.776,31.479,26.975,31.479,26.177z M4.135,23.856c0.063-0.375,0.213-0.713,0.453-1.006
		c0.324-0.398,0.739-0.65,1.242-0.754c0.066-0.014,0.135-0.021,0.202-0.033c0-0.004-0.001-0.008-0.001-0.014
		c0.046,0,0.092,0,0.137,0c0.087,0,0.172,0,0.259,0c0.007,0.018,0.022,0.014,0.034,0.014c0.12,0.014,0.237,0.035,0.354,0.066
		c0.726,0.195,1.3,0.764,1.504,1.488c0.035,0.123,0.058,0.25,0.071,0.379c0.011,0.105,0.021,0.209,0.021,0.313
		c0,0.029-0.002,0.059-0.003,0.086c-0.018,0.012-0.023-0.002-0.031-0.008c-0.144-0.123-0.312-0.201-0.496-0.244
		c-0.061-0.014-0.06-0.014-0.076-0.076c-0.122-0.465-0.397-0.809-0.821-1.031c-0.194-0.104-0.404-0.158-0.626-0.172
		c-0.709-0.047-1.355,0.383-1.599,1.035c-0.024,0.064-0.045,0.133-0.061,0.201c-0.005,0.021-0.014,0.031-0.034,0.035
		c-0.075,0.02-0.147,0.045-0.218,0.076c-0.109,0.047-0.209,0.109-0.303,0.182c-0.008,0.006-0.015,0.012-0.021,0.016
		c-0.009,0.006-0.02,0-0.02-0.01c-0.001-0.049-0.003-0.096-0.001-0.143C4.109,24.122,4.113,23.989,4.135,23.856z M8.523,27.536
		c0,0.168-0.019,0.332-0.068,0.492c-0.04,0.129-0.102,0.246-0.195,0.346c-0.117,0.127-0.263,0.199-0.427,0.24
		c-0.11,0.026-0.224,0.039-0.338,0.039c-0.847,0-1.693,0-2.539-0.002c-0.264,0-0.49-0.101-0.691-0.267
		c-0.037-0.03-0.063-0.069-0.089-0.108c-0.072-0.113-0.117-0.236-0.146-0.367C4.015,27.843,4.005,27.776,4,27.709
		c-0.002-0.027,0-0.057-0.025-0.076c0-0.748,0-1.498,0-2.246C4.003,25.37,3.997,25.341,4,25.314c0.008-0.086,0.022-0.17,0.043-0.254
		c0.032-0.121,0.079-0.236,0.151-0.342c0.024-0.035,0.053-0.066,0.087-0.094c0.155-0.123,0.33-0.205,0.526-0.24
		c0.04-0.008,0.082-0.008,0.122-0.008c0.864,0,1.729,0,2.595,0c0.132,0,0.263,0.016,0.388,0.057c0.236,0.076,0.403,0.23,0.503,0.457
		c0.052,0.117,0.079,0.242,0.094,0.367c0.013,0.096,0.015,0.189,0.015,0.285C8.523,26.208,8.523,26.872,8.523,27.536z
		 M13.471,28.334c-0.075,0.076-0.157,0.146-0.25,0.197c-0.116,0.063-0.242,0.101-0.375,0.112c-0.079,0.009-0.159,0.009-0.238,0.009
		c-0.39,0-0.78,0-1.171,0c-0.02,0-0.04,0-0.061,0c-0.024,0.002-0.03,0.008-0.031,0.035c-0.001,0.02-0.001,0.04-0.001,0.061
		c0,0.472,0,0.939,0,1.41c0,0.021,0.001,0.039,0,0.062c-0.002,0.024-0.007,0.028-0.034,0.03c-0.014,0-0.027,0-0.04,0
		c-0.301,0-0.6,0-0.899,0c-0.016,0-0.032,0-0.049,0c-0.021-0.002-0.027-0.008-0.029-0.026c0-0.023,0-0.047,0-0.068
		c0-0.791,0-1.58,0-2.369c0-0.76,0-1.518,0-2.275c0-0.156,0.016-0.313,0.057-0.465c0.024-0.092,0.06-0.18,0.106-0.264
		c0.044-0.078,0.101-0.145,0.176-0.197c0.144-0.098,0.298-0.17,0.471-0.199c0.038-0.008,0.077-0.01,0.116-0.01
		c0.52,0,1.039,0,1.56,0c0.104,0,0.207,0.014,0.309,0.041c0.285,0.072,0.479,0.246,0.583,0.521c0.037,0.1,0.06,0.205,0.072,0.311
		c0.013,0.092,0.014,0.182,0.014,0.271c0,0.711-0.002,1.42,0.001,2.131C13.758,27.921,13.661,28.147,13.471,28.334z M18.069,27.624
		c0,0.174-0.03,0.343-0.106,0.5c-0.085,0.179-0.21,0.316-0.382,0.414c-0.106,0.062-0.22,0.095-0.342,0.104
		c-0.079,0.011-0.158,0.011-0.238,0.011c-0.436,0-0.871,0-1.307,0c-0.163-0.002-0.326-0.019-0.484-0.065
		c-0.129-0.039-0.247-0.101-0.347-0.193C14.75,28.287,14.68,28.152,14.642,28c-0.027-0.104-0.04-0.209-0.041-0.316
		c-0.001-0.295-0.002-0.59,0-0.885c0.002-0.139,0.02-0.275,0.063-0.41c0.085-0.262,0.258-0.436,0.519-0.525
		c0.119-0.041,0.242-0.059,0.367-0.066c0.033-0.002,0.068-0.002,0.102-0.002c0.427,0,0.854,0,1.28,0
		c0.105,0,0.091,0.014,0.092-0.096c0.001-0.033-0.001-0.068-0.011-0.102c-0.019-0.059-0.057-0.098-0.112-0.119
		c-0.037-0.014-0.074-0.021-0.113-0.021c-0.022-0.002-0.045-0.002-0.068-0.002c-0.669,0-1.339,0-2.008,0
		c-0.019,0-0.037,0.002-0.056,0c-0.033,0-0.036-0.004-0.037-0.041c-0.001-0.014,0-0.027,0-0.041c0-0.305-0.001-0.607,0-0.912
		c0-0.096-0.008-0.086,0.082-0.086c0.402,0,0.804,0,1.205,0c0.365,0,0.731,0,1.097,0c0.132,0,0.263,0.012,0.39,0.045
		c0.141,0.037,0.271,0.096,0.38,0.191c0.136,0.121,0.217,0.273,0.258,0.447c0.028,0.115,0.041,0.232,0.041,0.352
		C18.07,26.147,18.071,26.886,18.069,27.624z M22.371,26.764c0,0.76,0.001,1.521,0,2.281c0,0.164-0.016,0.326-0.063,0.484
		c-0.055,0.184-0.144,0.348-0.284,0.48c-0.135,0.127-0.296,0.198-0.478,0.227c-0.07,0.012-0.14,0.014-0.21,0.014
		c-0.777,0-1.554,0-2.329,0c-0.019,0-0.037,0-0.056,0c-0.024-0.002-0.03-0.008-0.03-0.035c-0.001-0.014,0-0.026,0-0.039
		c0-0.311,0-0.619,0-0.928c0-0.082-0.006-0.078,0.076-0.078c0.652,0,1.307,0,1.961,0c0.036,0,0.072-0.002,0.108-0.008
		c0.079-0.012,0.145-0.051,0.198-0.109c0.038-0.043,0.06-0.092,0.061-0.147c0.002-0.072,0.001-0.146,0-0.217
		c0-0.027-0.007-0.033-0.031-0.035c-0.021,0-0.041,0-0.061,0c-0.416,0-0.831,0-1.247,0c-0.103,0-0.204-0.009-0.304-0.031
		c-0.211-0.045-0.378-0.162-0.515-0.323c-0.107-0.13-0.181-0.277-0.217-0.441c-0.024-0.109-0.03-0.219-0.03-0.332
		c0-0.393,0-0.785,0-1.178c0-0.629,0-1.258,0-1.887c0-0.092-0.009-0.084,0.083-0.084c0.299,0,0.595,0,0.893,0
		c0.089,0,0.082-0.006,0.082,0.08c0,0.912,0,1.824,0,2.738c0,0.057,0,0.113,0.014,0.168c0.033,0.131,0.118,0.203,0.253,0.205
		c0.257,0,0.513,0,0.77,0c0.113-0.002,0.199-0.057,0.267-0.143c0.03-0.035,0.043-0.08,0.045-0.127c0-0.02,0-0.039,0-0.061
		c0-0.924,0-1.848,0-2.771c0-0.102-0.012-0.09,0.092-0.09c0.288,0,0.576,0,0.865,0c0.097,0,0.088-0.01,0.088,0.088
		C22.371,25.229,22.371,25.997,22.371,26.764z M23.195,28.583c0-0.315,0-0.631,0-0.947c0-0.074-0.003-0.068,0.071-0.068
		c0.593,0,1.185,0,1.777,0c0.058,0,0.113-0.006,0.166-0.025c0.052-0.02,0.092-0.051,0.112-0.104c0-0.002,0.001-0.004,0.002-0.006
		c0.018-0.105,0.03-0.207-0.036-0.303c-0.038-0.055-0.086-0.082-0.154-0.08c-0.275,0.002-0.55,0-0.824,0c-0.029,0-0.059,0-0.088,0
		c-0.263-0.006-0.492-0.096-0.688-0.27c-0.063-0.059-0.127-0.117-0.177-0.188c-0.094-0.135-0.145-0.285-0.146-0.447
		c-0.003-0.283-0.003-0.566,0.001-0.852c0.001-0.121,0.022-0.242,0.063-0.359c0.08-0.229,0.234-0.385,0.459-0.473
		c0.127-0.051,0.261-0.076,0.396-0.084c0.044-0.002,0.087-0.002,0.131-0.002c0.324,0,0.648,0,0.974,0c0.364,0,0.729,0,1.096,0
		c0.088,0,0.082-0.006,0.082,0.08c0,0.309,0,0.617,0,0.926c0,0.08,0.004,0.074-0.073,0.074c-0.586,0-1.172,0-1.757,0
		c-0.051,0-0.101,0.002-0.149,0.012c-0.028,0.006-0.057,0.016-0.084,0.027c-0.066,0.031-0.101,0.084-0.104,0.154
		c-0.002,0.039-0.001,0.078,0,0.117c0.003,0.074,0.041,0.129,0.109,0.16c0.041,0.018,0.085,0.029,0.131,0.033
		c0.036,0.002,0.072,0.002,0.108,0.002c0.296,0,0.591,0,0.886,0c0.193,0.002,0.373,0.053,0.527,0.172
		c0.193,0.145,0.327,0.332,0.383,0.57c0.016,0.066,0.023,0.133,0.023,0.201c0,0.266-0.001,0.531,0,0.797
		c0,0.09-0.017,0.178-0.049,0.26c-0.086,0.226-0.229,0.406-0.416,0.554c-0.078,0.062-0.168,0.098-0.267,0.115
		c-0.094,0.016-0.188,0.022-0.284,0.022c-0.711,0-1.42,0-2.132,0C23.19,28.653,23.195,28.655,23.195,28.583z M24.873,33.228
		c0.021,0.222-0.182,0.445-0.417,0.478c-0.021,0.002-0.041,0.002-0.062,0.002c-0.193,0-0.387,0-0.579,0c-0.018,0-0.037,0-0.055,0
		c-0.013,0.002-0.02,0.011-0.021,0.023c-0.001,0.02-0.001,0.041-0.001,0.061c0,0.214,0,0.427,0,0.642c-0.169,0-0.337,0-0.504,0
		c0.008-0.027,0.004-0.055,0.004-0.082c0-0.678,0-1.355,0-2.035c0-0.094,0.01-0.186,0.035-0.275c0.04-0.139,0.131-0.225,0.27-0.264
		c0.063-0.016,0.127-0.027,0.193-0.025c0.214,0,0.427,0,0.64,0c0.081,0,0.158,0.016,0.232,0.043c0.135,0.051,0.213,0.15,0.246,0.287
		c0.01,0.043,0.016,0.084,0.016,0.129c0.001,0.051,0.002,0.104,0.002,0.154C24.873,32.653,24.873,32.94,24.873,33.228z
		 M26.844,32.731c0,0.18,0.005,0.356-0.002,0.536c-0.007,0.188-0.096,0.328-0.271,0.406c-0.052,0.023-0.107,0.033-0.165,0.033
		c-0.243,0-0.485,0-0.729,0c-0.07-0.002-0.14-0.014-0.206-0.041c-0.149-0.061-0.233-0.172-0.252-0.334
		c-0.019-0.166-0.006-0.334-0.007-0.502c0-0.039,0.008-0.076,0.018-0.113c0.044-0.166,0.153-0.262,0.318-0.301
		c0.054-0.014,0.108-0.016,0.162-0.016c0.139,0.002,0.276,0,0.416,0c0.052,0,0.103,0,0.155,0c0.074,0.002,0.072,0.002,0.067-0.07
		c-0.006-0.076-0.029-0.1-0.104-0.105c-0.019,0-0.036,0-0.055,0c-0.298,0-0.595,0-0.892,0c-0.084,0-0.079,0.007-0.079-0.075
		c0-0.109,0-0.22,0-0.326c0-0.015,0-0.029,0.001-0.041c0.002-0.021,0.009-0.028,0.028-0.031c0.013,0,0.027,0,0.041,0
		c0.345,0,0.689,0,1.034,0c0.078,0,0.154,0.013,0.228,0.031c0.151,0.039,0.239,0.142,0.274,0.291c0.012,0.051,0.02,0.103,0.02,0.153
		C26.844,32.394,26.844,32.563,26.844,32.731z M28.772,34.128c-0.046,0.143-0.142,0.237-0.285,0.286
		c-0.012,0.004-0.027,0.002-0.036,0.019c-0.422,0-0.844,0-1.266,0c-0.001-0.148-0.002-0.295-0.002-0.443
		c0-0.01,0.001-0.018,0.002-0.027c0.001-0.014,0.01-0.02,0.021-0.02c0.021-0.002,0.042-0.002,0.062-0.002c0.291,0,0.582,0,0.872,0
		c0.029,0,0.059,0,0.087-0.012c0.053-0.019,0.078-0.058,0.086-0.111c0.001-0.002,0.001-0.004,0.001-0.006
		c-0.002-0.119,0.017-0.104-0.098-0.104c-0.182,0-0.363,0-0.545,0c-0.046,0-0.092-0.004-0.136-0.014
		c-0.068-0.013-0.129-0.041-0.181-0.088c-0.079-0.074-0.144-0.158-0.163-0.269c-0.007-0.031-0.009-0.062-0.009-0.094
		c0-0.48,0-0.959,0-1.438c0-0.013,0-0.023,0.002-0.035c0.001-0.012,0.008-0.021,0.021-0.021c0.011,0,0.021,0,0.033,0
		c0.127,0,0.255,0,0.382,0c0.011,0,0.022,0,0.034,0c0.013,0.002,0.021,0.012,0.021,0.023c0.002,0.02,0.001,0.041,0.001,0.061
		c0.001,0.396,0.001,0.795,0,1.191c0,0.029,0,0.059,0.009,0.088c0.019,0.062,0.052,0.092,0.117,0.094c0.077,0.002,0.154,0,0.231,0
		c0.049,0,0.096,0.002,0.143,0c0.066-0.004,0.116-0.043,0.131-0.102c0.006-0.021,0.006-0.045,0.006-0.066c0-0.279,0-0.559,0-0.838
		c0-0.127,0-0.254,0-0.381c0-0.018,0-0.033,0.001-0.049c0.001-0.012,0.009-0.021,0.022-0.021c0.012,0,0.022,0,0.034,0
		c0.127,0,0.254,0,0.381,0c0.011,0,0.022,0,0.034,0c0.01,0.002,0.017,0.008,0.018,0.02c0.001,0.021,0.002,0.039,0.002,0.062
		c0,0.397,0,0.798,0,1.197c0,0.295-0.001,0.59,0.001,0.885C28.807,33.987,28.796,34.056,28.772,34.128z M28.261,28.653
		c-0.166,0-0.33-0.017-0.49-0.065c-0.132-0.039-0.253-0.103-0.353-0.197c-0.114-0.111-0.183-0.246-0.221-0.4
		c-0.024-0.098-0.036-0.197-0.036-0.295c-0.003-0.307-0.004-0.613,0-0.92c0.002-0.16,0.026-0.316,0.091-0.465
		c0.08-0.188,0.212-0.324,0.398-0.41c0.11-0.049,0.227-0.076,0.347-0.092c0.086-0.012,0.172-0.012,0.259-0.012
		c0.408,0,0.816,0,1.225,0c0.016,0,0.03,0,0.048,0c0.052,0,0.053,0,0.054-0.053c0-0.031,0.001-0.061-0.001-0.09
		c-0.012-0.111-0.068-0.16-0.152-0.184c-0.045-0.012-0.09-0.014-0.137-0.014c-0.676,0-1.352,0-2.028,0c-0.021,0-0.041,0-0.062,0
		c-0.016,0-0.026-0.01-0.026-0.023c0-0.018,0-0.033,0-0.049c0-0.311,0-0.623,0-0.934c0-0.078-0.003-0.074,0.072-0.074
		c0.407,0,0.813,0,1.22,0c0.365,0,0.731,0,1.096,0c0.133,0,0.263,0.012,0.391,0.047c0.138,0.035,0.265,0.094,0.373,0.189
		c0.138,0.121,0.22,0.275,0.261,0.451c0.028,0.119,0.041,0.238,0.041,0.357c0,0.73,0,1.463,0,2.193
		c-0.002,0.188-0.033,0.371-0.123,0.539c-0.084,0.159-0.201,0.289-0.358,0.381c-0.107,0.063-0.226,0.097-0.347,0.108
		c-0.078,0.011-0.154,0.011-0.232,0.011C29.135,28.653,28.697,28.653,28.261,28.653z M30.948,32.138c0,0.027,0,0.056-0.001,0.082
		c-0.001,0.021-0.009,0.027-0.029,0.029c-0.018,0-0.035,0-0.054,0c-0.192,0-0.386,0-0.578,0c-0.021,0-0.042,0-0.062,0.002
		c-0.061,0.006-0.086,0.029-0.094,0.09c-0.002,0.012-0.002,0.027-0.002,0.041c0,0.215,0.002,0.431,0,0.646
		c0,0.025,0.002,0.049,0.008,0.074c0.017,0.062,0.062,0.102,0.125,0.104c0.07,0.002,0.142,0,0.213,0c0.131,0,0.263,0,0.395,0
		c0.02,0,0.036,0,0.055,0.002c0.012,0,0.021,0.008,0.022,0.02c0.002,0.013,0.002,0.023,0.002,0.035c0,0.129,0,0.259,0,0.388
		c0,0.012,0,0.022-0.002,0.034c-0.002,0.013-0.011,0.021-0.022,0.021c-0.016,0.002-0.031,0.002-0.047,0.002c-0.246,0-0.49,0-0.736,0
		c-0.067,0-0.135-0.01-0.2-0.026c-0.163-0.045-0.257-0.154-0.289-0.318c-0.011-0.051-0.015-0.104-0.015-0.156
		c0.002-0.168,0-0.336,0-0.502c0-0.17,0.002-0.336,0-0.504c0-0.047,0.004-0.092,0.014-0.137c0.029-0.162,0.127-0.26,0.288-0.297
		c0.044-0.01,0.089-0.017,0.135-0.017c0.269,0,0.535,0,0.804,0c0.075,0,0.072-0.004,0.072,0.076
		C30.948,31.929,30.948,32.034,30.948,32.138z M32.865,32.735c0,0.178,0.003,0.354,0,0.53c-0.002,0.146-0.062,0.265-0.176,0.354
		c-0.072,0.058-0.155,0.084-0.246,0.088c-0.059,0.002-0.118,0-0.178,0c-0.17,0-0.34,0-0.512,0c-0.078,0-0.158-0.006-0.234-0.028
		c-0.141-0.047-0.231-0.142-0.268-0.283c-0.014-0.055-0.019-0.111-0.02-0.168c-0.004-0.121-0.002-0.242,0-0.361
		c0-0.082,0.015-0.162,0.052-0.238c0.06-0.117,0.16-0.182,0.285-0.211c0.053-0.014,0.106-0.016,0.162-0.016
		c0.19,0.002,0.381,0,0.571,0c0.072,0,0.07,0.004,0.067-0.07c0-0.012,0-0.023-0.001-0.033c-0.004-0.026-0.02-0.047-0.043-0.057
		c-0.025-0.012-0.052-0.016-0.079-0.016c-0.062,0-0.118,0-0.179,0c-0.245,0-0.489,0-0.734,0c-0.015,0-0.027,0-0.041,0
		c-0.052,0-0.053-0.002-0.053-0.055c-0.001-0.123,0-0.244,0-0.367c0-0.013,0-0.021,0.002-0.033c0.001-0.01,0.007-0.018,0.018-0.018
		c0.019-0.003,0.035-0.003,0.055-0.003c0.343,0,0.686,0,1.027,0c0.082,0,0.164,0.013,0.241,0.035
		c0.076,0.021,0.142,0.062,0.191,0.123c0.024,0.033,0.043,0.069,0.057,0.108c0.021,0.062,0.033,0.121,0.033,0.188
		C32.865,32.382,32.865,32.556,32.865,32.735z M34.648,32.226c-0.002,0.015-0.01,0.021-0.021,0.023c-0.021,0-0.041,0-0.062,0
		c-0.252,0-0.505,0-0.757,0c-0.018,0-0.035,0-0.053,0c-0.051,0.004-0.08,0.035-0.098,0.076c-0.018,0.037-0.001,0.098,0.031,0.125
		c0.01,0.008,0.023,0.014,0.035,0.018c0.031,0.008,0.062,0.013,0.095,0.013c0.13,0,0.259,0,0.388,0c0.038,0,0.077,0,0.115,0.01
		c0.084,0.022,0.15,0.072,0.205,0.14s0.096,0.145,0.111,0.229c0.004,0.022,0.008,0.045,0.006,0.067
		c-0.002,0.123-0.004,0.248-0.01,0.373c-0.002,0.08-0.035,0.148-0.078,0.215c-0.023,0.033-0.051,0.064-0.08,0.093
		c-0.078,0.071-0.174,0.098-0.274,0.1c-0.166,0-0.332,0-0.497,0c-0.158,0-0.318,0-0.477,0c-0.018,0-0.037,0-0.055-0.002
		c-0.014-0.002-0.021-0.01-0.021-0.021c0-0.012,0-0.023,0-0.035c0-0.127,0-0.254,0-0.381c0-0.012,0-0.021,0-0.033
		c0.001-0.016,0.009-0.025,0.023-0.027c0.02,0,0.037,0,0.056,0c0.252,0,0.504,0,0.755,0c0.023,0,0.046,0,0.068-0.004
		c0.049-0.008,0.074-0.039,0.078-0.088c0-0.016,0-0.033,0-0.049c-0.004-0.051-0.039-0.086-0.092-0.092c-0.016-0.002-0.031,0-0.048,0
		c-0.122,0-0.245,0-0.368,0c-0.167,0-0.294-0.082-0.396-0.205c-0.043-0.051-0.063-0.115-0.063-0.184
		c-0.001-0.142-0.003-0.279,0-0.423c0.001-0.073,0.025-0.146,0.063-0.213c0.062-0.106,0.16-0.162,0.279-0.188
		c0.045-0.01,0.094-0.014,0.142-0.014c0.309,0,0.616,0,0.926,0c0.017,0,0.032,0,0.048,0c0.014,0.002,0.02,0.01,0.021,0.021
		c0,0.01,0,0.018,0,0.027c0.003,0.131,0.004,0.264,0.004,0.395C34.649,32.206,34.649,32.218,34.648,32.226z M36.583,33.649
		c0,0.008,0.001,0.014,0,0.02c-0.001,0.033-0.004,0.037-0.034,0.039c-0.016,0-0.031,0-0.047,0c-0.109,0-0.219,0-0.328,0
		c-0.017,0-0.031,0-0.047,0c-0.027-0.002-0.033-0.006-0.035-0.03c0-0.021,0-0.041,0-0.063c0-0.397,0-0.797,0-1.199
		c0-0.026,0.002-0.057-0.006-0.088c-0.012-0.047-0.035-0.067-0.084-0.073c-0.008-0.003-0.018-0.003-0.027-0.003
		c-0.129,0-0.258,0-0.387,0c-0.012,0-0.022,0-0.033,0.003c-0.043,0.006-0.097,0.047-0.092,0.102c0,0.02,0,0.037,0,0.055
		c0,0.404,0,0.809,0,1.213c0,0.096,0.002,0.086-0.084,0.086c-0.113,0-0.229,0-0.342,0c-0.016,0-0.031,0-0.048,0
		c-0.015-0.002-0.024-0.01-0.026-0.025c0-0.02,0-0.041,0-0.061c0-0.418,0-0.836,0-1.254c0-0.422,0-0.844,0-1.266
		c0-0.084-0.008-0.078,0.077-0.078c0.118,0,0.236,0,0.354,0c0.016,0,0.031,0,0.048,0.002c0.009,0,0.019,0.006,0.019,0.018
		c0.002,0.021,0.002,0.041,0.002,0.062c0,0.188,0,0.377,0,0.563c0,0.088-0.007,0.082,0.08,0.082c0.191,0,0.381,0,0.573,0
		c0.088,0,0.17,0.021,0.248,0.062c0.104,0.053,0.169,0.143,0.203,0.252c0.012,0.036,0.019,0.075,0.019,0.114
		C36.583,32.668,36.583,33.159,36.583,33.649z M37.151,33.706c-0.193-0.004-0.31-0.149-0.31-0.313c0-0.168,0.141-0.307,0.309-0.307
		c0.188,0,0.32,0.166,0.309,0.313C37.469,33.542,37.338,33.712,37.151,33.706z M38.252,27.952c-0.041-0.141-0.062-0.283-0.062-0.422
		v-2.16c0-0.105,0.01-0.201,0.027-0.293c0.032-0.173,0.106-0.328,0.221-0.461c0.148-0.177,0.312-0.294,0.506-0.357
		c0.113-0.035,0.227-0.048,0.322-0.056c0.127-0.01,0.252-0.011,0.379-0.011h1.342c0.023,0,0.051,0.001,0.076,0.003l0.136,0.013
		l0.024,0.162v0.355l-0.176,0.023c-0.012,0.001-0.037,0.002-0.062,0.002l-1.008-0.001l-0.504,0.001
		c-0.153,0-0.287,0.021-0.407,0.067c-0.071,0.029-0.121,0.06-0.161,0.096c-0.062,0.056-0.104,0.129-0.13,0.225
		c-0.017,0.058-0.022,0.117-0.028,0.178c-0.008,0.104-0.007,0.206-0.007,0.31l-0.001,0.586l0.001,1.17
		c0.001,0.145,0.015,0.264,0.045,0.372c0.031,0.107,0.082,0.203,0.149,0.281c0.062,0.07,0.146,0.121,0.273,0.166
		c0.053,0.018,0.112,0.025,0.172,0.031c0.082,0.01,0.162,0.015,0.242,0.015h1.43c0.088,0,0.193,0.036,0.193,0.21v0.168
		c-0.005,0.102-0.068,0.169-0.165,0.178l-0.008,0.002H39.58c-0.191,0-0.363-0.021-0.527-0.061c-0.121-0.025-0.242-0.082-0.363-0.167
		C38.473,28.421,38.326,28.21,38.252,27.952z M40.223,33.601c-0.086,0.07-0.188,0.105-0.301,0.105c-0.193-0.002-0.386,0-0.58,0
		c-0.018,0-0.035,0-0.054,0c-0.013,0.002-0.021,0.01-0.021,0.023c-0.002,0.02-0.002,0.041-0.002,0.061c0,0.213,0,0.426,0,0.641
		c-0.168,0-0.336,0-0.504,0c0.01-0.026,0.006-0.055,0.006-0.082c0-0.674,0-1.348,0-2.021c0-0.08,0.007-0.157,0.022-0.235
		c0.007-0.037,0.019-0.074,0.033-0.111c0.037-0.084,0.099-0.145,0.185-0.182c0.075-0.031,0.155-0.05,0.237-0.05
		c0.22,0,0.438,0,0.661,0c0.075,0,0.148,0.015,0.219,0.037c0.133,0.047,0.217,0.14,0.256,0.272c0.014,0.054,0.02,0.105,0.02,0.16
		c0,0.117,0,0.232,0,0.349c0,0.223-0.003,0.444,0.001,0.668C40.404,33.39,40.338,33.507,40.223,33.601z M42.372,32.735
		c0,0.178,0.003,0.356-0.001,0.537c-0.002,0.145-0.062,0.264-0.179,0.352c-0.076,0.056-0.162,0.08-0.255,0.084
		c-0.053,0.002-0.104,0-0.156,0c-0.175,0-0.35,0-0.523,0c-0.088,0-0.172-0.01-0.254-0.039c-0.086-0.032-0.156-0.086-0.201-0.165
		c-0.029-0.052-0.047-0.107-0.055-0.166c-0.02-0.166-0.007-0.332-0.009-0.496c0-0.041,0.008-0.082,0.019-0.121
		c0.045-0.17,0.156-0.267,0.323-0.306c0.056-0.012,0.108-0.014,0.163-0.014c0.188,0.002,0.372,0,0.559,0c0.019,0,0.037,0,0.055,0
		c0.013,0,0.021-0.009,0.021-0.021c0-0.017,0.002-0.031,0-0.048c0-0.075-0.021-0.09-0.096-0.104c-0.02-0.004-0.04-0.002-0.061-0.002
		c-0.301,0-0.601,0-0.899,0c-0.078,0-0.073,0.006-0.073-0.074c0-0.109,0-0.221,0-0.334c0-0.012,0-0.025,0-0.039
		c0-0.016,0.008-0.027,0.025-0.027c0.017,0,0.035,0,0.054,0c0.338,0,0.677,0,1.015,0c0.076,0,0.148,0.01,0.223,0.027
		c0.148,0.037,0.247,0.127,0.285,0.279c0.015,0.051,0.021,0.102,0.021,0.151C42.371,32.386,42.372,32.56,42.372,32.735z
		 M44.299,34.134c-0.047,0.137-0.135,0.229-0.271,0.276c-0.017,0.004-0.036,0.004-0.048,0.021c-0.422,0-0.844,0-1.268,0
		c0-0.147,0-0.295,0-0.442c0-0.011,0-0.019,0.002-0.026c0-0.015,0.008-0.021,0.021-0.021c0.021-0.002,0.041-0.002,0.062-0.002
		c0.291,0,0.582,0,0.871,0c0.029,0,0.059,0,0.088-0.013c0.051-0.016,0.074-0.053,0.088-0.104c0-0.002,0-0.004,0-0.006
		c0-0.129,0.02-0.111-0.099-0.111c-0.179,0-0.358,0-0.537,0c-0.043,0-0.086-0.004-0.129-0.01c-0.071-0.012-0.135-0.039-0.188-0.086
		c-0.111-0.098-0.18-0.215-0.178-0.367c0.002-0.203,0-0.404,0-0.605c0-0.27,0-0.537,0-0.805c0-0.02,0-0.041,0-0.061
		c0.002-0.012,0.008-0.021,0.021-0.023c0.011,0,0.021,0,0.035,0c0.125,0,0.253,0,0.38,0c0.012,0,0.022,0,0.034,0
		c0.014,0.002,0.021,0.01,0.021,0.021c0.001,0.021,0.001,0.041,0.001,0.061c0,0.389,0,0.777,0,1.166
		c0,0.035,0.002,0.072,0.009,0.107c0.014,0.066,0.049,0.1,0.117,0.102c0.073,0.002,0.146,0,0.219,0c0.053,0,0.104,0.002,0.155,0
		c0.066-0.004,0.115-0.041,0.132-0.102c0.006-0.021,0.006-0.039,0.006-0.062c0-0.151,0-0.305,0-0.454c0-0.252,0-0.505,0-0.759
		c0-0.021,0-0.039,0.002-0.062c0-0.012,0.008-0.02,0.021-0.021c0.013,0,0.022,0,0.033,0c0.128,0,0.255,0,0.383,0
		c0.011,0,0.021,0,0.033,0c0.01,0.002,0.018,0.011,0.018,0.021c0.003,0.02,0.003,0.039,0.003,0.061c0,0.357,0,0.717,0,1.076
		c0,0.33,0,0.662,0.002,0.992C44.338,33.981,44.324,34.058,44.299,34.134z M44.684,28.777c-0.088,0.018-0.178,0.025-0.267,0.025
		h-1.253c-0.193,0-0.361-0.027-0.515-0.086c-0.313-0.121-0.539-0.332-0.667-0.629c-0.043-0.102-0.07-0.212-0.088-0.35
		c-0.012-0.097-0.012-0.19-0.012-0.283v-0.52c0-0.144,0.015-0.282,0.043-0.411c0.025-0.128,0.068-0.244,0.131-0.353
		c0.117-0.208,0.295-0.359,0.529-0.448c0.139-0.055,0.291-0.086,0.453-0.092c0.047-0.003,0.096-0.005,0.143-0.005h1.897
		c0-0.044,0-0.088-0.002-0.132c-0.002-0.137-0.024-0.251-0.067-0.35c-0.051-0.115-0.115-0.205-0.194-0.274
		c-0.056-0.05-0.112-0.079-0.177-0.091c-0.103-0.021-0.195-0.03-0.289-0.03l-0.736-0.001l-1.479,0.001
		c-0.024,0-0.051-0.001-0.076-0.003c-0.1-0.008-0.162-0.074-0.166-0.178V24.38c0.002-0.065,0.025-0.17,0.166-0.188l0.065-0.002
		c0.697,0,1.396,0,2.093,0.002c0.195,0,0.369,0.013,0.531,0.039c0.163,0.026,0.309,0.099,0.434,0.215
		c0.115,0.107,0.211,0.241,0.293,0.409c0.076,0.156,0.123,0.323,0.141,0.498c0.008,0.071,0.01,0.146,0.01,0.22l-0.001,0.631
		l0.001,1.262c0.002,0.136-0.009,0.279-0.027,0.426c-0.017,0.116-0.06,0.228-0.131,0.344C45.288,28.528,45.024,28.708,44.684,28.777
		z M45.676,32.452c0.012,0.008,0.022,0.015,0.037,0.019c0.03,0.008,0.062,0.012,0.094,0.012c0.137,0,0.271,0,0.408,0
		c0.104,0,0.191,0.037,0.264,0.111c0.104,0.102,0.162,0.227,0.152,0.377c-0.007,0.1-0.007,0.198-0.009,0.299
		c-0.003,0.164-0.083,0.285-0.21,0.379c-0.066,0.049-0.146,0.059-0.229,0.061c-0.129,0-0.258,0-0.387,0c-0.035,0-0.068,0-0.104,0
		c-0.156,0-0.312,0-0.471,0c-0.015,0-0.03,0-0.047,0c-0.035-0.002-0.039-0.004-0.039-0.041c0-0.141,0-0.281,0-0.422
		c0-0.031,0.006-0.035,0.035-0.037c0.02,0,0.036,0,0.055,0c0.248,0,0.496,0,0.742,0c0.021,0,0.041,0,0.062-0.002
		c0.057-0.008,0.085-0.037,0.089-0.094c0.001-0.016,0.001-0.031-0.001-0.047c-0.006-0.049-0.039-0.084-0.089-0.09
		c-0.017-0.002-0.032,0-0.047,0c-0.125,0-0.25,0-0.375,0c-0.171-0.002-0.298-0.086-0.399-0.215c-0.042-0.052-0.06-0.117-0.059-0.185
		c0-0.135-0.004-0.269,0.001-0.401c0.006-0.189,0.112-0.369,0.353-0.412c0.047-0.008,0.096-0.013,0.144-0.013
		c0.302,0,0.604,0,0.905,0c0.017,0,0.031,0,0.047,0c0.025,0,0.031,0.007,0.031,0.033c0.002,0.106,0.002,0.213,0.002,0.319
		c0,0.039,0.002,0.078,0,0.117c0,0.021-0.006,0.027-0.026,0.029c-0.019,0-0.036,0-0.056,0c-0.252,0-0.504,0-0.756,0
		c-0.019,0-0.035,0-0.055,0c-0.048,0.004-0.078,0.035-0.098,0.076C45.629,32.366,45.645,32.425,45.676,32.452z M46.605,28.804
		l-0.037-0.23v-3.029c0-0.184,0.02-0.349,0.061-0.503c0.047-0.188,0.129-0.346,0.25-0.48c0.137-0.149,0.316-0.253,0.533-0.309
		c0.098-0.027,0.207-0.044,0.33-0.051c0.137-0.01,0.275-0.024,0.415-0.005l0.132,0.016l0.021,0.154v0.338l-0.147,0.043
		c-0.026,0.003-0.051,0.004-0.071,0.004l-0.16-0.001l-0.074,0.001c-0.109,0.002-0.195,0.013-0.273,0.033
		c-0.06,0.015-0.115,0.038-0.173,0.07c-0.094,0.057-0.163,0.137-0.208,0.242c-0.031,0.073-0.054,0.155-0.066,0.255
		c-0.01,0.075-0.008,0.15-0.008,0.226v2.994c0,0.062,0,0.128-0.053,0.18c-0.052,0.053-0.117,0.053-0.15,0.053H46.605L46.605,28.804z
		 M48.582,33.239c0,0.063-0.01,0.123-0.031,0.18c-0.069,0.179-0.203,0.273-0.395,0.289c-0.012,0-0.021,0-0.033,0
		c-0.225,0-0.449,0-0.674,0c-0.062,0-0.127-0.008-0.188-0.022c-0.188-0.047-0.301-0.195-0.31-0.377
		c-0.003-0.033-0.004-0.066-0.004-0.103c-0.001-0.114-0.001-0.229,0-0.348c0-0.037,0.003-0.076,0.011-0.113
		c0.039-0.185,0.151-0.289,0.33-0.33c0.053-0.012,0.104-0.014,0.157-0.014c0.185,0,0.372,0,0.558,0c0.02,0,0.036,0,0.055,0
		c0.017,0,0.023-0.013,0.023-0.027c0-0.024-0.001-0.049-0.001-0.073c-0.001-0.031-0.018-0.052-0.046-0.062
		c-0.021-0.008-0.048-0.015-0.072-0.015c-0.043,0-0.086,0-0.13,0c-0.265,0-0.53,0-0.796,0c-0.021,0-0.042,0-0.062,0
		c-0.012-0.002-0.021-0.01-0.021-0.022c-0.001-0.012-0.001-0.021-0.001-0.033c0-0.12,0-0.239,0-0.36c0-0.01,0-0.023,0.001-0.033
		c0.001-0.014,0.01-0.021,0.021-0.023c0.019,0,0.035,0,0.055,0c0.174,0,0.35,0,0.523,0c0.17,0,0.34,0,0.51,0
		c0.082,0,0.164,0.014,0.242,0.037c0.127,0.037,0.209,0.123,0.248,0.25c0.02,0.062,0.028,0.127,0.028,0.193
		C48.581,32.567,48.581,32.903,48.582,33.239z M49.764,31.083c0,0.119,0,0.24,0,0.361c0,0.01,0,0.021-0.004,0.032
		c0,0.017-0.01,0.023-0.025,0.025c-0.016,0-0.031,0-0.049,0c-0.032,0-0.067,0-0.102,0c-0.029,0-0.059,0.006-0.087,0.016
		c-0.045,0.021-0.071,0.056-0.081,0.103c-0.002,0.011-0.003,0.021-0.002,0.027c0,0.118-0.017,0.102,0.098,0.104
		c0.068,0,0.137,0,0.205,0c0.039,0,0.047,0.007,0.047,0.041c0,0.14,0,0.277,0,0.416c0,0.005,0,0.009-0.002,0.015
		c-0.002,0.02-0.008,0.026-0.028,0.028c-0.017,0-0.032,0-0.048,0c-0.067,0-0.137,0-0.204,0c-0.017,0-0.031,0-0.048,0.003
		c-0.01,0.002-0.018,0.008-0.019,0.018c-0.001,0.021-0.002,0.045-0.002,0.068c0,0.426,0,0.854,0,1.278
		c0,0.103,0.011,0.09-0.092,0.09c-0.108,0-0.22,0-0.326,0c-0.021,0-0.037,0-0.056-0.002c-0.01-0.002-0.016-0.008-0.018-0.018
		c-0.002-0.021-0.002-0.041-0.002-0.062c0-0.361,0-0.723,0-1.082c0-0.352,0-0.701,0-1.049c0-0.041-0.003-0.082,0.01-0.123
		c0.023-0.096,0.076-0.178,0.156-0.238c0.088-0.065,0.188-0.102,0.297-0.106c0.113-0.006,0.229-0.002,0.342-0.002
		c0.029,0,0.035,0.006,0.037,0.037C49.764,31.069,49.764,31.075,49.764,31.083z M51.523,32.577c0,0.029-0.012,0.045-0.039,0.058
		c-0.125,0.045-0.25,0.092-0.375,0.141c-0.219,0.082-0.438,0.164-0.655,0.246c-0.062,0.022-0.063,0.027-0.05,0.09
		c0.004,0.016,0.007,0.031,0.013,0.045c0.015,0.031,0.039,0.049,0.073,0.053c0.02,0,0.037,0,0.057,0c0.295,0,0.594,0,0.892,0
		c0.081,0,0.077-0.006,0.077,0.076c0,0.115,0,0.232,0,0.348c0,0.017,0,0.031,0,0.047c-0.002,0.021-0.01,0.027-0.031,0.029
		c-0.018,0-0.035,0-0.055,0c-0.176,0-0.35,0-0.523,0c-0.17,0-0.34,0-0.51,0c-0.055,0-0.104-0.004-0.155-0.014
		c-0.169-0.033-0.308-0.178-0.335-0.348c-0.008-0.051-0.014-0.103-0.014-0.154c0.002-0.324,0.002-0.648,0.002-0.975
		c0-0.101,0.027-0.191,0.078-0.277c0.051-0.082,0.125-0.137,0.219-0.164c0.057-0.016,0.115-0.025,0.175-0.025
		c0.228,0,0.453,0,0.681,0c0.057,0,0.111,0.01,0.168,0.025c0.166,0.043,0.262,0.152,0.295,0.318c0.01,0.043,0.016,0.086,0.016,0.129
		C51.521,32.341,51.521,32.459,51.523,32.577z M52.064,33.706c-0.186-0.002-0.315-0.146-0.311-0.313
		c-0.011-0.133,0.108-0.305,0.307-0.307c0.188,0,0.31,0.158,0.312,0.307C52.375,33.552,52.243,33.708,52.064,33.706z M52.506,27.43
		c0,0.219-0.033,0.423-0.102,0.604c-0.12,0.328-0.35,0.556-0.68,0.673c-0.119,0.045-0.252,0.072-0.416,0.087
		c-0.103,0.009-0.203,0.009-0.305,0.009h-0.636h-0.317c-0.147-0.002-0.295-0.018-0.439-0.043c-0.096-0.019-0.18-0.047-0.258-0.092
		c-0.303-0.164-0.5-0.41-0.579-0.735c-0.037-0.153-0.056-0.3-0.056-0.448v-1.906c0-0.191,0.025-0.373,0.076-0.539
		c0.057-0.19,0.146-0.347,0.271-0.477c0.137-0.141,0.311-0.241,0.516-0.301c0.149-0.044,0.312-0.064,0.512-0.064h1.855l0.002-1.212
		c-0.001-0.117,0.068-0.187,0.195-0.187h0.17c0.117,0,0.186,0.068,0.189,0.188V27.43L52.506,27.43z M41.879,32.978
		c-0.002,0.041,0,0.078,0,0.117c0,0.025-0.006,0.049-0.018,0.072c-0.018,0.029-0.041,0.047-0.076,0.051
		c-0.018,0.002-0.036,0.004-0.054,0.004c-0.113,0-0.228,0-0.341,0c-0.021,0-0.041-0.002-0.062-0.006
		c-0.053-0.012-0.088-0.051-0.09-0.104c-0.001-0.049-0.001-0.101-0.001-0.147c0.003-0.066,0.029-0.097,0.098-0.099
		c0.062-0.004,0.121-0.002,0.184-0.002c0.012,0,0.021,0,0.035,0c0.058,0,0.117,0,0.176,0c0.017,0,0.033-0.002,0.048,0.002
		C41.852,32.886,41.883,32.913,41.879,32.978z M43.156,26.179c0.641,0,1.277,0,1.913,0.001v1.407c0,0.119-0.019,0.226-0.058,0.326
		c-0.054,0.138-0.146,0.229-0.283,0.28c-0.092,0.035-0.191,0.052-0.309,0.052c-0.236,0.002-0.471,0.002-0.707,0.002h-0.377h-0.188
		c-0.194,0-0.365-0.063-0.523-0.194c-0.048-0.039-0.08-0.07-0.103-0.104c-0.021-0.028-0.035-0.062-0.044-0.096
		c-0.022-0.088-0.035-0.169-0.036-0.244c-0.002-0.253-0.002-0.507,0-0.76c0.001-0.093,0.019-0.184,0.051-0.269
		c0.077-0.205,0.222-0.329,0.44-0.377C43.002,26.185,43.075,26.179,43.156,26.179z M39.907,32.374
		c-0.004,0.117-0.001,0.234-0.001,0.353c0,0.113,0,0.227,0,0.34c0,0.023-0.002,0.045-0.012,0.066
		c-0.021,0.049-0.057,0.073-0.11,0.075c-0.041,0-0.082,0-0.123,0c-0.069,0-0.14,0-0.21,0c-0.018,0-0.031,0-0.048,0
		c-0.093-0.01-0.124-0.053-0.136-0.135c-0.002-0.013-0.002-0.026-0.002-0.039c0-0.201,0-0.403,0-0.604
		c0-0.043,0.011-0.08,0.031-0.117s0.053-0.062,0.098-0.062c0.132,0,0.265,0,0.395,0C39.863,32.25,39.907,32.304,39.907,32.374z
		 M50.975,32.298c0.014,0.01,0.023,0.021,0.031,0.034c0.01,0.021,0.004,0.035-0.016,0.046c-0.01,0.006-0.021,0.01-0.031,0.014
		c-0.173,0.062-0.345,0.125-0.517,0.188c-0.011,0.004-0.019,0.006-0.026,0.008c-0.014,0.006-0.021-0.002-0.023-0.014
		c0-0.033,0-0.064,0-0.098l0,0c0-0.023,0-0.049,0-0.074c0-0.055,0.029-0.088,0.078-0.107c0.024-0.01,0.052-0.018,0.08-0.018
		c0.113,0,0.229,0,0.347,0C50.926,32.276,50.95,32.282,50.975,32.298z M50.29,24.75h1.66v2.672c0,0.11-0.013,0.21-0.038,0.304
		c-0.025,0.094-0.064,0.171-0.115,0.232c-0.021,0.024-0.043,0.047-0.066,0.066c-0.123,0.1-0.271,0.164-0.45,0.197
		c-0.095,0.017-0.199,0.023-0.312,0.023h-0.871c-0.146,0-0.291-0.023-0.432-0.068c-0.046-0.017-0.09-0.037-0.129-0.055
		c-0.104-0.051-0.172-0.129-0.215-0.245c-0.023-0.067-0.039-0.143-0.044-0.23c-0.002-0.029-0.002-0.058-0.001-0.112l-0.001-2.062
		c0-0.086,0.017-0.175,0.05-0.271c0.02-0.055,0.053-0.11,0.096-0.164c0.043-0.05,0.088-0.099,0.139-0.143
		c0.062-0.051,0.125-0.084,0.201-0.104c0.074-0.02,0.153-0.032,0.237-0.038c0.095-0.005,0.187-0.005,0.282-0.005
		C50.284,24.75,50.287,24.75,50.29,24.75z M48.045,32.89c0.024,0.017,0.036,0.033,0.036,0.063c-0.001,0.054-0.001,0.106,0,0.162
		c0.002,0.056-0.049,0.106-0.103,0.104c-0.053-0.002-0.104,0.002-0.155,0.002c-0.019,0-0.037,0-0.056,0c-0.055,0-0.108,0-0.164,0
		c-0.014,0-0.029,0-0.047-0.002c-0.064-0.008-0.108-0.049-0.113-0.112c-0.003-0.05-0.001-0.097,0-0.144
		c0.001-0.014,0.006-0.026,0.009-0.041c0.009-0.024,0.024-0.043,0.052-0.051c0.016-0.006,0.034-0.01,0.053-0.01
		c0.136,0,0.271,0,0.406,0C47.994,32.864,48.02,32.875,48.045,32.89z M24.375,32.347c0.003,0.019,0.002,0.035,0.002,0.056
		c0,0.104,0,0.213,0,0.317c0,0.113-0.001,0.228,0,0.34c0,0.025-0.002,0.052-0.013,0.074c-0.021,0.043-0.054,0.072-0.104,0.072
		c-0.127,0-0.253,0-0.381,0c-0.021,0-0.04-0.004-0.061-0.012c-0.032-0.014-0.056-0.037-0.067-0.07
		c-0.009-0.023-0.013-0.049-0.013-0.074c0.001-0.213,0.001-0.426,0-0.639c0-0.031,0.008-0.059,0.02-0.086
		c0.025-0.051,0.064-0.078,0.124-0.076c0.123,0.002,0.245,0,0.367,0c0.009,0,0.018,0,0.027,0
		C24.333,32.259,24.367,32.292,24.375,32.347z M34.963,26.137c-0.002-0.016-0.004-0.031-0.004-0.047c0-0.059,0-0.119,0-0.178
		c0-0.061,0.002-0.123,0-0.184c0-0.063,0.023-0.113,0.067-0.158c0.077-0.078,0.169-0.117,0.28-0.115c0.238,0.002,0.478,0,0.715,0
		c0.058,0,0.113,0.01,0.162,0.039c0.057,0.031,0.089,0.076,0.091,0.143c0,0.02-0.007,0.033-0.026,0.041
		c-0.054,0.02-0.105,0.041-0.158,0.061C35.743,25.87,35.398,26,35.053,26.13c-0.023,0.01-0.047,0.016-0.071,0.023
		C34.971,26.155,34.963,26.147,34.963,26.137z M12.689,25.63c0.011,0.039,0.014,0.08,0.014,0.121
		c-0.001,0.254-0.001,0.51-0.001,0.764c0,0.256,0,0.512,0,0.77c0,0.043-0.002,0.088-0.025,0.125
		c-0.057,0.092-0.133,0.158-0.251,0.158c-0.25,0-0.5,0-0.749,0c-0.056,0-0.109-0.01-0.16-0.031
		c-0.084-0.033-0.135-0.096-0.157-0.184c-0.011-0.041-0.015-0.084-0.015-0.127c0.001-0.191,0-0.383,0-0.572
		c0-0.281,0.001-0.564,0-0.844c0-0.047,0.003-0.092,0.014-0.137c0.024-0.104,0.088-0.172,0.191-0.201
		c0.037-0.01,0.075-0.016,0.114-0.016c0.261,0,0.522,0,0.783,0c0.026,0,0.054,0.002,0.081,0.01
		C12.617,25.485,12.668,25.543,12.689,25.63z M17.022,27.02c0.002,0.033,0.001,0.068,0.002,0.102c0,0.07,0,0.141,0,0.211
		c0,0.027-0.003,0.055-0.011,0.08c-0.016,0.061-0.052,0.1-0.106,0.123c-0.049,0.023-0.101,0.031-0.152,0.031
		c-0.166,0-0.332,0-0.497,0c-0.109,0-0.218-0.002-0.326,0c-0.094,0.002-0.166-0.039-0.229-0.102
		c-0.027-0.025-0.043-0.059-0.043-0.098c0-0.121,0.002-0.244,0.003-0.367c0-0.006,0-0.014,0.002-0.02
		c0.021-0.105,0.041-0.15,0.163-0.168c0.03-0.006,0.062-0.008,0.094-0.008c0.136,0,0.272,0,0.407,0c0.136,0,0.272,0,0.409-0.002
		c0.038,0,0.076,0.006,0.114,0.014C16.953,26.843,17.014,26.915,17.022,27.02z M32.336,32.892c0.021,0.013,0.033,0.031,0.034,0.056
		c0.001,0.058,0.004,0.112,0,0.17c-0.004,0.051-0.032,0.104-0.112,0.104c-0.134,0-0.269,0.002-0.4,0
		c-0.079-0.002-0.122-0.047-0.124-0.123c-0.001-0.045-0.002-0.092,0.001-0.137c0.004-0.066,0.031-0.095,0.098-0.097
		c0.07-0.004,0.141-0.002,0.211-0.002c0.065,0,0.133,0,0.196,0C32.274,32.862,32.305,32.875,32.336,32.892z M26.31,32.89
		c0.021,0.013,0.033,0.031,0.035,0.056c0.006,0.062,0.009,0.121-0.001,0.183c-0.01,0.062-0.044,0.09-0.107,0.094
		c-0.027,0.002-0.054,0.002-0.081,0.002c-0.098,0-0.195,0-0.293,0c-0.02,0-0.041,0-0.061-0.006c-0.053-0.011-0.088-0.05-0.092-0.104
		c-0.001-0.056-0.001-0.108,0.002-0.162c0.002-0.053,0.027-0.078,0.08-0.084c0.019-0.004,0.036-0.004,0.054-0.004
		c0.059,0,0.118,0,0.177,0c0.066,0,0.132,0,0.197,0C26.255,32.864,26.282,32.875,26.31,32.89z M29.582,27.022
		c0.001,0.037,0.001,0.072,0.001,0.109c0,0.072,0,0.145,0,0.217c-0.003,0.109-0.059,0.178-0.163,0.205
		c-0.037,0.01-0.072,0.014-0.109,0.014c-0.135,0-0.271,0-0.406,0c-0.137,0-0.273-0.004-0.409,0c-0.093,0.002-0.165-0.035-0.23-0.098
		c-0.028-0.029-0.046-0.063-0.046-0.104c0-0.117,0.001-0.236,0.002-0.354c0-0.029,0.008-0.059,0.016-0.086
		c0.016-0.059,0.054-0.094,0.112-0.105c0.037-0.01,0.075-0.018,0.114-0.016c0.283,0,0.566,0,0.851-0.002
		c0.035,0,0.07,0.008,0.105,0.018C29.518,26.848,29.575,26.921,29.582,27.022z"/>
</g>
</svg>