<?xml version="1.0" standalone="no"?>
<!DOCTYPE svg PUBLIC "-//W3C//DTD SVG 20010904//EN"
 "http://www.w3.org/TR/2001/REC-SVG-20010904/DTD/svg10.dtd">
<svg version="1.0" xmlns="http://www.w3.org/2000/svg"
 width="256.000000pt" height="256.000000pt" viewBox="0 0 256.000000 256.000000"
 preserveAspectRatio="xMidYMid meet">

<g transform="translate(0.000000,256.000000) scale(0.100000,-0.100000)"
fill="#000000" stroke="none">
<path d="M105 2201 c-48 -22 -69 -44 -90 -94 -13 -32 -15 -138 -15 -829 0
-748 1 -795 19 -833 22 -48 44 -69 94 -90 32 -13 172 -15 1169 -15 1078 0
1135 1 1173 19 48 22 69 44 90 94 13 32 15 138 15 827 0 689 -2 795 -15 827
-21 50 -42 72 -90 94 -38 18 -95 19 -1175 19 -1080 0 -1137 -1 -1175 -19z
m671 -766 c-45 -44 -47 -44 -123 -47 -63 -2 -78 -6 -81 -20 -2 -11 8 -20 33
-28 49 -16 65 -35 65 -79 0 -47 -32 -98 -80 -125 -30 -18 -56 -21 -182 -25
-163 -4 -157 -6 -134 59 l13 35 129 5 c107 4 129 8 132 21 2 11 -11 21 -43 33
-57 22 -69 43 -55 96 14 51 53 97 93 109 18 5 88 10 155 10 l124 1 -46 -45z
m234 18 c30 -25 32 -30 28 -82 -7 -102 -78 -215 -155 -247 -42 -18 -107 -18
-142 1 -73 37 -55 175 35 275 75 83 173 105 234 53z m400 22 c0 -2 -19 -22
-42 -44 -41 -38 -46 -41 -105 -41 -51 0 -64 -3 -73 -19 -18 -34 -11 -41 35
-41 25 0 45 -2 45 -5 0 -3 -7 -21 -14 -40 -14 -33 -18 -35 -64 -35 -49 0 -49
0 -62 -42 -26 -88 -35 -98 -90 -98 -34 0 -50 4 -50 13 1 26 109 299 126 318 9
10 31 23 48 28 32 9 246 15 246 6z m202 -26 c28 -28 30 -34 25 -83 -10 -97
-74 -198 -151 -238 -52 -27 -137 -21 -169 11 -47 47 -19 178 57 269 36 42 101
72 159 72 41 0 53 -5 79 -31z m280 21 c41 -12 58 -34 58 -76 0 -26 -35 -94
-48 -94 -4 0 -17 -8 -29 -18 l-23 -17 20 -63 c29 -94 29 -93 -37 -90 l-58 3
-12 48 c-6 27 -13 53 -15 59 -3 7 -15 -16 -27 -50 l-23 -62 -54 0 c-30 0 -54
4 -54 9 0 11 117 338 126 352 7 12 131 11 176 -1z m408 4 c0 -4 -5 -24 -12
-45 l-11 -39 -66 0 -66 0 -34 -98 c-19 -53 -42 -116 -52 -139 -18 -42 -20 -43
-64 -43 -27 0 -45 5 -45 11 0 6 20 67 45 136 25 68 45 126 45 128 0 3 -13 5
-30 5 -22 0 -30 5 -30 18 0 10 -7 27 -15 38 -8 10 -15 22 -15 27 0 4 79 7 175
7 96 0 175 -3 175 -6z"/>
<path d="M866 1377 c-22 -22 -66 -123 -66 -151 0 -21 27 -38 49 -31 41 13 103
163 80 192 -17 19 -37 16 -63 -10z"/>
<path d="M1467 1380 c-29 -23 -69 -121 -65 -159 7 -64 75 -22 108 67 35 93 14
137 -43 92z"/>
<path d="M1777 1360 l-15 -40 29 0 c22 0 32 7 44 30 18 36 13 50 -19 50 -17 0
-27 -10 -39 -40z"/>
</g>
</svg>
