<?xml version="1.0" encoding="UTF-8"?>
<!DOCTYPE svg PUBLIC "-//W3C//DTD SVG 1.1//EN" "http://www.w3.org/Graphics/SVG/1.1/DTD/svg11.dtd">
<!-- Creator: CorelDRAW -->
<svg xmlns="http://www.w3.org/2000/svg" xml:space="preserve" width="112.557mm" height="61.9161mm" version="1.1" style="shape-rendering:geometricPrecision; text-rendering:geometricPrecision; image-rendering:optimizeQuality; fill-rule:evenodd; clip-rule:evenodd"
viewBox="0 0 11334.02 6234.69"
 xmlns:xlink="http://www.w3.org/1999/xlink"
 xmlns:xodm="http://www.corel.com/coreldraw/odm/2003">
 <defs>
  <style type="text/css">
   <![CDATA[
    .fil0 {fill:#16509D;fill-rule:nonzero}
    .fil1 {fill:#F58634;fill-rule:nonzero}
   ]]>
  </style>
 </defs>
 <g id="Слой_x0020_1">
  <metadata id="CorelCorpID_0Corel-Layer"/>
  <path class="fil0" d="M854.25 5136.31c-12.08,0 -22.15,-3.76 -29.92,-11.12 -7.76,-7.36 -11.56,-16 -11.56,-25.87l0 -760.88 -308.76 0 0 134.46c0,119.24 -6.34,220.39 -19.04,303.59 -12.73,83.24 -35.44,151.14 -68.03,203.86 -32.67,52.75 -78.59,91.36 -137.85,115.98 -59.26,24.58 -134.73,37.87 -226.62,39.9 -12.09,0 -22.68,-3.76 -31.54,-11.12 -8.85,-7.36 -13.3,-16.45 -13.3,-27.33l0 -155.23c0,-21.62 13.87,-34.44 41.52,-38.41 31.05,-4.88 57,-18.87 78.03,-42.07 21.06,-23.09 38.15,-54.66 51.46,-94.55 13.3,-39.91 22.76,-87.65 28.26,-143.31 5.46,-55.62 8.29,-117.47 8.29,-185.38l0 -299.91c0,-10.88 4.13,-19.69 12.42,-26.6 8.37,-6.87 18.55,-10.3 30.72,-10.3l810.15 0c12.2,0 22.44,3.47 30.72,10.3 8.29,6.88 12.38,15.73 12.38,26.6l0 960.33c0,9.83 -4.13,18.48 -12.38,25.87 -8.37,7.36 -18.56,11.12 -30.72,11.12l-214.13 0 -0.08 0.04 0 0.04zm529.64 0c-12.2,0 -22.15,-3.76 -29.91,-11.12 -7.76,-7.36 -11.57,-16 -11.57,-25.87l0 -960.33c0,-10.88 3.85,-19.74 11.57,-26.6 7.75,-6.87 17.74,-10.34 29.91,-10.34l775.35 0c12.09,0 22.15,3.47 29.84,10.34 7.76,6.88 11.56,15.73 11.56,26.6l0 138.86c0,10.88 -3.84,19.73 -11.56,26.59 -7.72,6.88 -17.74,10.43 -29.84,10.43l-529.64 0 0 199.38 493.1 0c12.08,0 22.15,3.76 29.92,11.12 7.76,7.36 11.56,16.45 11.56,27.33l0 128.63c0,9.82 -3.84,18.48 -11.56,25.87 -7.76,7.36 -17.74,11.12 -29.92,11.12l-493.1 0 0 205.36 542.82 0c12.2,0 22.15,3.48 29.92,10.35 7.76,6.87 11.56,15.76 11.56,26.59l0 138.86c0,9.83 -3.84,18.48 -11.56,25.88 -7.76,7.35 -17.74,11.12 -29.92,11.12l-788.64 0 0.08 -0.04 0.03 -0.13zm1316.67 0c-12.2,0 -22.15,-3.76 -29.91,-11.12 -7.76,-7.36 -11.57,-16 -11.57,-25.87l0 -765.24 -295.54 0c-12.2,0 -22.15,-3.69 -29.92,-11.12 -7.75,-7.36 -11.56,-15.97 -11.56,-25.88l0 -158.05c0,-10.88 3.85,-19.74 11.56,-26.6 7.76,-6.87 17.75,-10.34 29.92,-10.34l893.18 0c12.09,0 22.11,3.47 29.84,10.34 7.76,6.88 11.56,15.73 11.56,26.6l0 158.05c0,9.83 -3.84,18.48 -11.56,25.88 -7.76,7.36 -17.74,11.12 -29.84,11.12l-295.54 0 0 765.24c0,9.82 -3.84,18.48 -11.56,25.87 -7.76,7.36 -17.74,11.12 -29.88,11.12l-219.1 0 -0.04 0 -0.04 0z"/>
  <path class="fil1" d="M11079.22 2073.83l-1789.03 0c-46.77,0 -88.93,18.83 -119.37,49.27l0 0.45c-30.64,30.72 -49.68,73 -49.68,119.37l0 881.65 1958.17 0 0 -1050.75 -0.04 0 -0.04 0zm-3108.17 -403.04l0 354.32 961.75 0c17.42,-28.46 38.11,-54.58 61.53,-78.06l0.28 0.28c76.12,-76.12 180.74,-123.21 295.66,-123.21l1794.13 0 0 -524.18c0,-173.87 -42.89,-338.32 -118.61,-483.2l-2024.46 0 -970.23 853.97 0 0.04 -0.04 0.04zm-249.58 354.32l0 -352.99 -1012.67 -855.42 -2013.76 0c-19.4,37.15 -36.74,75.59 -51.67,115.17 -91.15,8.85 -182.64,20.61 -273.31,35.58 59.74,-224.6 178.47,-425.79 338.4,-585.72 235.55,-235.55 560.68,-381.73 918.33,-381.73l4407.09 0c357.59,0 682.69,146.18 918.29,381.73 235.64,235.56 381.85,560.69 381.85,918.16l0 3735.93c0,357.55 -146.18,581.47 -381.85,817.03 -235.56,235.55 -560.69,381.85 -918.29,381.85l-4407.09 0c-357.6,0 -682.74,-146.26 -918.33,-381.85 -191.9,-191.9 -342,-153.9 -384.57,-1221.79 86.59,15.48 191.37,71.55 278.62,81.17 23.84,104.49 63.46,658.11 116.13,748.42l1993.47 0 1009.24 -751.37 0 -585.27 1149.96 0 0 -1849.3 -1171.87 0c-15.97,-52.11 -33.63,-103.86 -52.92,-155.23 -12.09,-32.18 -25.4,-63.67 -39.65,-94.47l114.52 0 0.03 0.08 0.04 0.04zm-839.25 -1387.98l962.14 812.82 921.89 -811.44 0 -388.81 -1884.03 0 0 387.56 0 -0.04 0 -0.09zm1088.83 4073.47l966.99 750.04 2004.02 0c90.38,-154.99 142.25,-233.65 142.25,-424.91l0 -372.64 -1794.13 0c-115.04,0 -219.75,-47.26 -295.96,-123.45 -46.12,-46.13 -81.45,-102.84 -102.19,-166.07l-920.99 0 0 336.94 0 0.08 0 0zm795.2 931.27l-921.89 -710.38 -962.14 711.64 0 341.94 1884.03 0 0 -343.2zm1973.77 68.44l-1724.18 0 0 274.68 1018.06 0c271.12,0 519.21,-104.33 706.1,-274.68l0.04 0 -0.01 0zm-1724.18 -5460.73l0 317.49 1768.57 0 -8.81 -8.85c-190.37,-190.41 -453.08,-308.6 -741.72,-308.6l-1018.06 0 0 -0.04 0.01 0zm-2383.32 5735.48l0 -274.68 -1711.98 0c186.88,170.43 435.01,274.68 706.29,274.68l1005.73 0 -0.04 0zm-1756.29 -5417.95l1756.33 0 0 -317.49 -1005.73 0c-288.75,0 -551.43,118.2 -741.75,308.6l-8.69 8.85 -0.16 0.04zm4244.78 2807.25l0 870.02c0,46.77 19.04,89.18 49.68,119.86 30.44,30.44 72.72,49.28 119.37,49.28l1789.03 0 0 -1039.2 -1958.17 0 0.04 0.04 0.04 0z"/>
  <path class="fil0" d="M3150.66 3828.62l-3150.58 0 0 -509.47c0,-392.08 101.87,-693.93 305.69,-905.39 203.82,-211.47 422.28,-352.71 655.32,-423.78 233.13,-70.98 511.74,-131.22 835.95,-180.62 64.88,-9.33 179.08,-24.74 342.68,-46.29 179.08,-21.62 317.25,-40.94 414.47,-57.92 97.3,-16.98 178.31,-46.29 243.19,-87.97 64.77,-41.76 97.18,-97.99 97.18,-168.98 0,-108.05 -77.9,-186.84 -233.86,-236.16 -155.92,-49.39 -345.06,-74.17 -567.31,-74.17 -209.93,6.22 -388.24,41.76 -534.91,106.52 -146.65,64.88 -220.07,162.06 -220.07,291.79l-1338.42 0c0,-487.84 214.57,-815.85 643.69,-984.14 429.19,-168.28 912.34,-252.4 1449.59,-252.4 345.87,0 673.07,23.93 981.88,71.76 308.76,47.86 582.72,157.49 822.07,328.85 127.18,91.15 220.64,205.56 280.19,343.44 -105.27,38.65 -206.45,84.86 -301.6,140.2 -320.66,186.44 -612.68,439.58 -760.64,787.59 -79.03,186.04 -134.09,378.58 -161.9,576.21 -19.36,4.08 -38.93,8.05 -58.74,12.08 -89.54,18.56 -268.59,38.65 -537.24,60.24 -382.87,33.95 -679.22,69.45 -889.22,106.52 -209.92,37.04 -314.91,95.73 -314.91,175.98l1777.84 0c-0.73,284.1 62.99,560.68 171.77,823.33 14.55,35.24 30.56,69.49 47.78,102.87l0.16 -0.03 -0.04 -0.05zm2253.82 -160.45c342.68,0 592.06,-79.51 747.94,-238.54 155.92,-158.95 230.83,-352.71 224.6,-581.31 6.22,-216.07 -68.68,-399.88 -224.6,-551.11 -155.88,-151.32 -405.21,-226.91 -747.94,-226.91 -339.65,0 -586.64,75.63 -740.94,226.91 -154.38,151.31 -228.48,334.99 -222.38,551.11 -6.22,228.48 67.87,422.28 222.38,581.31 154.38,158.95 401.29,238.54 740.94,238.54zm-4.68 -2570.31c605.11,-3.11 1066.72,88.76 1384.7,275.48 317.98,186.85 524.92,407.53 620.68,662.33 95.73,254.71 143.55,525.68 143.55,812.82 0,460.03 -142.78,873.78 -428.38,1241.12 -285.56,367.46 -859.11,551.11 -1720.55,551.11 -605.12,0 -1075.26,-100.29 -1410.21,-301 -335,-200.71 -558.11,-435.33 -669.27,-703.99 -111.17,-268.59 -162.06,-531.02 -152.81,-787.31 0,-265.47 54.82,-527.22 164.46,-785.01 109.63,-257.82 330.3,-483.19 662.32,-676.18 331.96,-192.94 800.45,-289.44 1405.6,-289.44l-0.08 0.04 0 0.05z"/>
  <path class="fil0" d="M38.97 6223.17c-7.72,0 -13.99,-2.59 -18.84,-7.84 -4.89,-5.26 -7.31,-11.28 -7.31,-18.24l0 -678.93c0,-7.71 2.42,-13.87 7.31,-18.76 4.89,-4.88 11.24,-7.31 18.84,-7.31l318.5 0c59.87,0 109.02,8.37 147.27,25.06 38.28,16.7 66.62,40.55 85.1,71.55 18.48,31.04 27.69,67.72 27.69,110.15 0,25.11 -4.73,47.22 -14.11,66.34 -9.37,19.12 -20.9,35.01 -34.45,47.59 -13.57,12.57 -26.31,21.58 -38.15,27.12 26.51,12.58 50.05,33.12 70.54,61.7 20.54,28.62 30.72,61.97 30.72,100.25 0,45.96 -10.27,85.45 -30.72,118.56 -20.54,32.99 -50.53,58.49 -89.86,76.17 -39.33,17.78 -87.52,26.67 -144.64,26.67l-327.89 0 0 -0.16 0 0.08zm161.86 -135.75l145.2 0c29.92,0 52.51,-8.69 67.88,-26.15 15.32,-17.42 22.96,-37.19 22.96,-59.54 0,-24.38 -7.84,-44.92 -23.48,-61.62 -15.65,-16.7 -38.12,-25.06 -67.35,-25.06l-145.2 0 0 172.33 0 0.04 -0.01 0zm0 -305.01l135.79 0c28.63,0 49.92,-7.55 64.27,-22.42 14.27,-15 21.35,-33.64 21.35,-55.87 0,-22.27 -7.08,-40.55 -21.35,-54.86 -14.35,-14.28 -35.7,-21.35 -64.27,-21.35l-135.79 0 0 154.58 0 -0.08 0 0zm573.34 440.72c-6.91,0 -13.05,-2.59 -18.23,-7.84 -5.26,-5.26 -7.84,-11.28 -7.84,-18.23l0 -678.94c0,-7.71 2.67,-13.86 7.84,-18.75 5.26,-4.89 11.28,-7.32 18.23,-7.32l112.79 0c11.8,0 20.54,2.95 26.15,8.85 5.54,5.94 9.01,10.63 10.43,14.11l183.77 329.02 183.77 -329.02c2.06,-3.47 5.75,-8.17 10.96,-14.11 5.26,-5.94 13.74,-8.85 25.63,-8.85l111.77 0c7.68,0 14.12,2.43 19.36,7.32 5.26,4.88 7.84,11.15 7.84,18.75l0 678.94c0,6.95 -2.67,13.05 -7.84,18.23 -5.26,5.26 -11.68,7.84 -19.36,7.84l-124.3 0c-7.72,0 -14.03,-2.59 -19.36,-7.84 -5.26,-5.26 -7.84,-11.28 -7.84,-18.23l0 -391.76 -116.99 218.29c-3.47,6.26 -8.01,11.8 -13.58,16.7 -5.54,4.89 -13.21,7.32 -22.96,7.32l-54.38 0c-9.75,0 -17.42,-2.43 -22.96,-7.32 -5.54,-4.88 -10.15,-10.43 -13.58,-16.7l-118.04 -218.29 0 391.76c0,6.95 -2.35,13.05 -7.24,18.23 -4.88,5.26 -11.16,7.84 -18.84,7.84l-125.28 0 0.09 0 -0.01 0zm864.89 0c-7.72,0 -13.87,-2.59 -18.76,-7.84 -4.88,-5.26 -7.31,-11.28 -7.31,-18.23l0 -678.94c0,-7.71 2.43,-13.86 7.31,-18.75 4.89,-4.89 11.16,-7.32 18.76,-7.32l487.72 0c7.72,0 13.87,2.43 18.76,7.32 4.89,4.88 7.32,11.15 7.32,18.75l0 98.16c0,7.72 -2.43,13.87 -7.32,18.76 -4.88,4.88 -11.16,7.31 -18.76,7.31l-333.21 0 0 141 310.21 0c7.72,0 13.87,2.67 18.76,7.84 4.89,5.26 7.32,11.68 7.32,19.36l0 90.88c0,6.95 -2.43,13.05 -7.32,18.23 -4.89,5.26 -11.16,7.84 -18.76,7.84l-310.21 0 0 145.16 341.55 0c7.71,0 13.86,2.43 18.75,7.32 4.89,4.88 7.32,11.15 7.32,18.76l0 98.15c0,6.95 -2.43,13.06 -7.32,18.23 -4.88,5.26 -11.15,7.84 -18.75,7.84l-496.1 0 0.04 0.16 0 0zm934.74 10.47c-65.45,0 -121.84,-10.75 -169.18,-32.34 -47.34,-21.63 -84.04,-53.24 -110.19,-95.08 -26.16,-41.8 -40.55,-93.67 -43.38,-155.64 -0.73,-28.63 -1.05,-59.19 -1.05,-91.88 0,-32.83 0.4,-64.07 1.05,-94.03 2.83,-60.56 17.42,-112.05 43.86,-154.55 26.43,-42.56 63.35,-74.54 110.63,-96.08 47.43,-21.63 103.4,-32.34 168.17,-32.34 45.97,0 88.44,5.74 127.42,17.22 38.97,11.44 73.13,28.21 102.36,50.18 29.26,21.94 51.98,48.38 68.39,79.39 16.29,30.96 24.86,65.98 25.63,104.99 0.65,6.26 -1.25,11.44 -5.74,15.64 -4.48,4.13 -9.91,6.26 -16.16,6.26l-141 0c-9.01,0 -16.01,-1.89 -20.9,-5.74 -4.88,-3.76 -8.97,-10.96 -12.57,-21.35 -9.67,-36.91 -25.55,-62.13 -47.58,-75.71 -21.95,-13.57 -48.88,-20.37 -80.98,-20.37 -38.36,0 -68.63,10.63 -90.87,31.85 -22.27,21.19 -34.49,56.6 -36.54,105.99 -2.06,57.12 -2.06,115.62 0,175.48 2.05,49.52 14.35,84.7 36.54,105.99 22.23,21.19 52.5,31.86 90.87,31.86 32.06,0 59.27,-6.96 81.46,-20.86 22.23,-13.99 37.87,-38.97 46.97,-75.27 2.83,-10.43 6.79,-17.58 12.04,-21.35 5.26,-3.84 12.41,-5.74 21.43,-5.74l140.99 0c6.27,0 11.69,2.06 16.17,6.26 4.61,4.13 6.42,9.37 5.74,15.65 -0.73,38.97 -9.33,73.97 -25.63,104.98 -16.29,31.04 -39.17,57.49 -68.39,79.36 -29.27,21.95 -63.39,38.65 -102.36,50.17 -38.97,11.44 -81.46,17.22 -127.42,17.22l0.24 -0.2 -0.04 0.06zm620.44 -10.47c-7.72,0 -13.87,-2.59 -18.76,-7.84 -4.89,-5.26 -7.31,-11.28 -7.31,-18.23l0 -541.09 -185.91 0c-7.72,0 -13.87,-2.59 -18.76,-7.84 -4.89,-5.26 -7.32,-11.28 -7.32,-18.23l0 -111.77c0,-7.72 2.43,-13.87 7.32,-18.76 4.88,-4.89 11.16,-7.32 18.76,-7.32l561.94 0c7.71,0 13.87,2.43 18.76,7.32 4.88,4.89 7.31,11.16 7.31,18.76l0 111.77c0,7.04 -2.43,13.06 -7.31,18.23 -4.89,5.26 -11.12,7.84 -18.76,7.84l-185.91 0 0 541.09c0,6.95 -2.43,13.05 -7.24,18.23 -4.88,5.26 -11.16,7.84 -18.84,7.84l-137.84 0 -0.08 0 -0.04 0zm497.11 0c-7.72,0 -13.87,-2.59 -18.76,-7.84 -4.89,-5.26 -7.31,-11.28 -7.31,-18.23l0 -678.94c0,-7.71 2.42,-13.86 7.31,-18.75 4.89,-4.89 11.16,-7.32 18.76,-7.32l487.72 0c7.72,0 13.87,2.43 18.76,7.32 4.89,4.88 7.32,11.15 7.32,18.75l0 98.16c0,7.72 -2.43,13.87 -7.32,18.76 -4.88,4.88 -11.16,7.31 -18.76,7.31l-333.25 0 0 141 310.17 0c7.68,0 13.95,2.67 18.84,7.84 4.88,5.26 7.23,11.68 7.23,19.36l0 90.88c0,6.95 -2.35,13.05 -7.23,18.23 -4.89,5.26 -11.16,7.84 -18.84,7.84l-310.17 0 0 145.16 341.5 0c7.72,0 14,2.43 18.84,7.32 4.89,4.88 7.32,11.15 7.32,18.76l0 98.15c0,6.95 -2.43,13.06 -7.32,18.23 -4.88,5.26 -11.16,7.84 -18.84,7.84l-496.09 0 0.08 0.16 0.04 0z"/>
 </g>
</svg>
