<svg height="39" viewBox="0 0 170 39" width="170" xmlns="http://www.w3.org/2000/svg">
<path clip-rule="evenodd" d="M83.8926 0.983716C86.7799 0.983716 89.6673 0.904935 92.5542 1.02311C95.0859 1.10189 97.5382 1.61396 99.9113 2.6775C104.579 4.84398 106.121 10.8313 103.867 14.8491C102.996 16.4642 103.115 17.0156 104.381 18.2761C108.415 22.1758 109.166 28.2419 106.002 32.4961C103.946 35.2534 100.979 36.6321 97.696 37.2627C95.8374 37.6168 93.9385 37.8138 92.08 37.9713C90.5374 38.0895 89.5486 37.1835 88.8762 35.923C88.4411 35.0962 88.0456 34.2686 87.6896 33.402C87.1359 32.1419 87.6501 31.3143 89.074 31.3143C91.4867 31.3143 93.8994 31.3143 96.2725 30.9602C96.905 30.8417 97.4982 30.6447 98.0915 30.3694C99.6736 29.66 100.702 28.4782 100.781 26.7057C100.86 24.8547 99.9113 23.5544 98.3688 22.6485C96.8658 21.7819 95.2046 21.5849 93.543 21.5455C90.7352 21.4667 87.8874 21.4273 85.0792 21.4667C82.9829 21.5065 81.5986 20.6002 80.8075 18.7094C80.5702 18.1973 80.3329 17.6853 80.0956 17.1338C79.4627 15.7157 79.9374 14.9673 81.4799 14.9279H84.7628C87.571 14.8885 90.4188 14.8491 93.227 14.7704C94.2158 14.731 95.1251 14.4946 95.9956 14.0219C98.2106 12.8402 98.3292 10.0829 96.2725 8.66485C94.6509 7.56192 92.752 7.52253 90.8934 7.52253C86.7008 7.44375 82.4683 7.48314 78.2762 7.52253C76.4963 7.52253 75.2702 6.73472 74.5187 5.19849C74.1232 4.41068 73.7672 3.66226 73.4508 2.83507C72.9762 1.69274 73.4903 0.944325 74.7165 0.944325C77.8015 0.904935 80.8471 0.944325 83.8926 0.983716C83.8926 0.944325 83.8926 0.944325 83.8926 0.983716Z" fill-rule="evenodd"></path>
<path clip-rule="evenodd" d="M80.0956 37.6564C77.4456 37.7746 75.7448 36.5531 74.6769 34.1896C71.3545 26.9422 67.9925 19.694 64.6701 12.4465C64.591 12.289 64.5515 12.1708 64.4724 12.0128C64.156 11.422 63.9186 10.7527 63.0485 10.7527C62.2179 10.7527 61.941 11.422 61.6642 12.0526C58.3022 19.3398 54.8611 26.6271 51.5387 33.9537C49.838 37.7348 47.3857 37.8136 44.538 37.6166C43.5096 37.5378 42.9163 36.6319 43.1536 35.6081C43.2327 35.2532 43.3514 34.8593 43.5096 34.5446C48.2163 24.342 52.9231 14.1403 57.6298 3.93779C58.8164 1.37742 60.8336 0.471831 63.5231 0.589608C65.9358 0.708173 67.5575 1.81111 68.5463 3.97758C73.2135 14.1399 77.9202 24.342 82.6269 34.5052C82.7851 34.8593 82.9433 35.2142 83.0224 35.5683C83.2598 36.6716 82.6269 37.5378 81.4799 37.6564C81.0053 37.6958 80.5307 37.6564 80.0956 37.6564Z" fill-rule="evenodd"></path>
<path clip-rule="evenodd" d="M19.9759 37.6957C17.2863 37.7351 15.5856 36.5927 14.5572 34.3475C9.89004 24.2241 5.22285 14.1402 0.555671 4.01685C0.397462 3.66233 0.239252 3.30782 0.120595 2.95331C-0.235377 1.81098 0.1997 0.905003 1.38627 0.708051C3.32434 0.392928 5.22285 0.471709 6.8445 1.85037C7.47734 2.40184 7.91242 3.03209 8.26839 3.74111C11.5908 10.989 14.9527 18.2368 18.2751 25.4846C18.6311 26.2331 18.8684 27.1784 19.8572 27.2178C20.8856 27.2572 21.1229 26.2724 21.4789 25.524C24.8013 18.3156 28.1632 11.1071 31.4856 3.85929C32.9886 0.58988 35.7178 0.235366 38.3678 0.62927C39.7125 0.826223 40.1476 1.96855 39.4752 3.3866C38.4864 5.59246 37.4581 7.79833 36.4297 10.0042C32.7118 18.0398 28.9938 26.0361 25.3155 34.0717C24.208 36.5533 22.4677 37.8138 19.9759 37.6957Z" fill-rule="evenodd"></path>
<path clip-rule="evenodd" d="M121.705 19.4184V3.58341C121.705 1.81084 122.536 1.06242 124.275 0.983636C127.242 0.826075 127.954 1.69266 127.914 4.56817C127.835 12.5648 127.875 20.5607 127.875 28.5569C127.875 30.8022 128.745 31.7082 130.999 31.7082C133.491 31.7082 136.023 31.748 138.514 31.7082C139.741 31.7082 140.808 32.1021 141.679 32.8899C142.786 33.9144 143.577 35.2143 144.368 36.5138C144.843 37.3016 144.447 37.9319 143.498 38.0894C143.261 38.1288 142.984 38.0894 142.746 38.0894H124.513C122.575 38.0894 121.665 37.2228 121.665 35.2931C121.705 29.9754 121.705 24.6967 121.705 19.4184Z" fill-rule="evenodd"></path>
<path clip-rule="evenodd" d="M146.939 19.4184V3.58341C146.939 1.73245 147.73 1.06242 149.589 0.944642C152.714 0.747689 153.189 2.04718 153.149 4.52878C153.07 12.525 153.11 20.5217 153.11 28.5179C153.11 30.8416 153.94 31.6692 156.313 31.6692H163.828C165.014 31.6692 166.043 32.0631 166.873 32.8509C167.981 33.8746 168.772 35.1745 169.563 36.4748C170.038 37.2228 169.682 37.8535 168.812 38.0106C168.535 38.0504 168.219 38.0504 167.942 38.0504H149.708C147.77 38.0504 146.899 37.1838 146.899 35.2533C146.939 29.9754 146.939 24.6967 146.939 19.4184Z" fill-rule="evenodd"></path>
<path clip-rule="evenodd" d="M32.5536 37.6957C30.0618 37.9714 29.0729 36.7109 30.2991 34.1505C35.0058 24.0666 39.673 13.9432 44.3006 3.85929C45.685 0.826224 48.5327 0.235367 51.2223 0.747443C52.5275 0.983785 52.8835 2.12611 52.2111 3.58355C50.7081 6.89235 49.1656 10.2011 47.623 13.4706C44.4588 20.3245 41.2946 27.1784 38.1304 34.0717C37.0625 36.514 35.3222 37.8532 32.5536 37.6957Z" fill-rule="evenodd"></path>
<path clip-rule="evenodd" d="M110.511 19.4972V3.66225C110.511 1.77151 111.302 0.983704 113.201 0.983704H114.467C115.693 1.02309 116.602 1.85029 116.721 3.03201C116.761 3.30774 116.721 3.62286 116.721 3.8986V34.8993C116.721 37.3411 116.009 38.0505 113.596 38.0505H113.122C111.5 38.0505 110.551 37.1047 110.551 35.4901C110.511 30.1724 110.511 24.8149 110.511 19.4972Z" fill-rule="evenodd"></path>
</svg>