<svg version="1.1" id="Layer_1" xmlns:x="ns_extend;" xmlns:i="ns_ai;" xmlns:graph="ns_graphs;" xmlns="http://www.w3.org/2000/svg" xmlns:xlink="http://www.w3.org/1999/xlink" x="0px" y="0px" viewBox="0 0 435.5 86" style="enable-background:new 0 0 435.5 86;" xml:space="preserve">
 <metadata>
  <sfw xmlns="ns_sfw;">
   <slices>
   </slices>
   <sliceSourceBounds bottomLeftOrigin="true" height="86" width="435.5" x="4973.1" y="0">
   </sliceSourceBounds>
  </sfw>
 </metadata>
 <g>
  <path d="M96.6,26.9v32.2c0,4.4-3.6,8.1-8.1,8.1H48.3c-11.9,0-17.9-12.9-10.1-20.8l-0.7-0.7L16.1,67.2H8.1c-4.4,0-8.1-3.6-8.1-8.1
		V26.9c0-4.4,3.6-8.1,8.1-8.1h24.2c11.9,0,17.9,12.9,10.1,20.8l0.7,0.7l21.5-21.5h24.2C93,18.8,96.6,22.4,96.6,26.9z M162.1,28v-9.2
		h-39.5v10l24.9-0.2L120.8,58v9.2h42.7v-10l-28.2,0.1L162.1,28z M250.7,17.7c-7.7,0-13.1,3.5-15.4,9.2H234
		c-1.4-6.2-6.6-9.2-13.3-9.2c-6.4,0-12.7,2.5-15.1,8.5v-7.3h-13v48.3h13.2V37.9c0-7.1,4-9.9,8.2-9.9h0.6c4.2,0,8.1,1.9,8.1,8.7v30.4
		H236l-0.1-29.4c0-7,4.1-9.8,8.3-9.8h0.6c4.2,0,8.1,2,8.1,8.6v30.5h13.2V34C266.1,21.3,257.9,17.7,250.7,17.7z M323.4,42.9
		c0,15.6-8.8,25.4-20.6,25.4c-8.5,0-13.7-4.2-15.6-8.6V86H274V18.8h13.2v7.8c1.9-4.6,7.4-9,15.6-9C314.5,17.7,323.4,27.3,323.4,42.9
		L323.4,42.9z M309.7,42.9c0-9.1-3.6-15.4-11.2-15.4H298c-7.7,0-11.3,6.3-11.3,15.4s3.6,15.6,11.3,15.6h0.5
		C306,58.5,309.7,52,309.7,42.9L309.7,42.9z M329.7,67.2H343V0h-13.2L329.7,67.2z M384.2,50.9h13c-2.3,10.6-11,17.5-23.7,17.4
		c-15.2-0.1-24.3-10.2-24.3-25.2c0-15.8,9.8-25.4,24-25.4c14.3,0,23.7,9.5,23.7,25.2v2.7h-34.5v0.5c0.2,7.2,4.6,12.6,11.2,12.6h0.4
		C379.7,58.7,383,55.1,384.2,50.9L384.2,50.9z M362.6,37.6h21.2c-0.5-6-4.2-10.9-10.3-10.9h-0.6C366.6,26.7,363.1,31.8,362.6,37.6
		L362.6,37.6z M433.1,18.6c-7.5,0-12.7,2-15.6,10v-9.7h-12.9v48.3h13.2V43.1c0-8.1,5.9-11.3,12.5-11.3c2,0,3.4,0.2,5.2,0.6V18.6
		C435.1,18.6,434.1,18.6,433.1,18.6z M170.8,46.7v20.4H184V33.5l0,0C176.7,33.5,170.8,39.4,170.8,46.7L170.8,46.7z M170.8,32.1H184
		V18.8h-13.2L170.8,32.1z">
  </path>
 </g>
</svg>