<?xml version="1.0" ?>
<!DOCTYPE svg  PUBLIC '-//W3C//DTD SVG 1.1//EN'  'http://www.w3.org/Graphics/SVG/1.1/DTD/svg11.dtd'>
<!-- Uploaded to: SVG Repo, www.svgrepo.com, Generator: SVG Repo Mixer Tools -->
<svg fill="#000000" width="800px" height="800px" viewBox="0 0 512 512" enable-background="new 0 0 512 512" id="Roulette" version="1.1" xml:space="preserve" xmlns="http://www.w3.org/2000/svg" xmlns:xlink="http://www.w3.org/1999/xlink">
<g>
<path d="M341.406,135.953c-0.012-0.397-0.035-0.792-0.078-1.184c-0.017-0.151-0.043-0.3-0.064-0.451   c-0.037-0.257-0.078-0.513-0.127-0.767c-0.039-0.198-0.078-0.395-0.124-0.591c-0.054-0.226-0.117-0.45-0.182-0.673   c-0.098-0.344-0.207-0.683-0.329-1.018c-0.045-0.125-0.091-0.251-0.141-0.374c-0.322-0.826-0.717-1.619-1.18-2.375   c-0.018-0.029-0.035-0.058-0.054-0.087c-1.908-3.083-4.905-5.51-8.655-6.602c-7.816-2.276-15.972,2.015-18.594,9.628   c-0.081,0.234-0.174,0.461-0.244,0.703c-2.346,8.056,2.275,16.515,10.331,18.861c8.057,2.346,16.491-2.298,18.837-10.354   c0.132-0.445,0.234-0.892,0.322-1.339c0.023-0.111,0.043-0.224,0.064-0.336c0.076-0.437,0.139-0.874,0.176-1.308   c0.005-0.062,0.005-0.122,0.01-0.183c0.027-0.377,0.039-0.751,0.037-1.125C341.412,136.236,341.411,136.095,341.406,135.953z"/>
<path d="M303.016,292.753c-0.555-0.085-1.119-0.151-1.693-0.151c-0.834,0-1.645,0.1-2.427,0.273l-1.161-1.161l-26.881-26.915   l-0.419-0.42c2.575-5.014,2.813-10.912,0.714-16.082c-0.137-0.348-0.301-0.687-0.462-1.026l0.431-0.43l26.902-26.867l0.754-0.753   c3.406,0.553,7.023-0.46,9.659-3.084c4.005-4.005,4.312-10.299,0.951-14.669c-0.286-0.379-0.605-0.752-0.951-1.098   c-4.345-4.358-11.41-4.358-15.761-0.007c-0.738,0.739-1.338,1.55-1.83,2.415c-1.25,2.235-1.669,4.809-1.269,7.274l-0.737,0.738   l-26.99,26.953l-0.366,0.366c-5.38-2.526-11.684-2.437-16.989,0.293l-0.152-0.152l-26.874-26.909l-0.578-0.578   c0.6-3.004-0.036-6.202-1.922-8.778c-0.333-0.453-0.685-0.898-1.091-1.304c-4.351-4.351-11.417-4.364-15.768-0.013   c-0.625,0.625-1.145,1.304-1.59,2.016c-2.667,4.305-2.149,10.026,1.583,13.758c2.742,2.742,6.569,3.758,10.113,3.034l0.559,0.559   l26.967,27.002l0.167,0.168c-2.511,5.209-2.54,11.308-0.1,16.542l-0.345,0.344l-27.169,27.132l-0.848,0.848   c-0.192-0.02-0.384-0.054-0.577-0.063c-3.034-0.146-6.121,0.918-8.442,3.24c-3.173,3.16-4.032,7.758-2.582,11.709   c0.532,1.477,1.384,2.861,2.568,4.045c4.357,4.357,11.41,4.357,15.767,0.014c2.796-2.797,3.792-6.705,2.992-10.301l0.645-0.646   l26.744-26.707l0.397-0.396c5.257,2.521,11.416,2.522,16.671-0.005l0.438,0.439l26.867,26.902l1.422,1.422   c-0.12,0.656-0.192,1.328-0.192,2.02c0,0.885,0.113,1.73,0.301,2.549c1.157,4.931,5.57,8.609,10.848,8.609   c4.451,0,8.309-2.615,10.087-6.407c0.687-1.431,1.063-3.039,1.063-4.732c0-1.694-0.377-3.303-1.063-4.742   C309.847,295.726,306.732,293.326,303.016,292.753z"/>
<path d="M256,70.077C153.481,70.077,70.077,153.482,70.077,256c0,102.518,83.404,185.923,185.923,185.923   c102.518,0,185.923-83.405,185.923-185.923C441.923,153.482,358.518,70.077,256,70.077z M429.923,256   c0,14.771-1.856,29.115-5.339,42.817l-67.686-18.136c1.937-7.914,2.971-16.179,2.971-24.682c0-8.502-1.033-16.767-2.971-24.681   l67.686-18.136C428.066,226.886,429.923,241.229,429.923,256z M82.077,256c0-14.771,1.857-29.115,5.339-42.817l67.685,18.136   c-1.936,7.915-2.971,16.179-2.971,24.682s1.035,16.768,2.971,24.682l-67.685,18.137C83.934,285.115,82.077,270.771,82.077,256z    M338.674,232.852c0.012,0.041,0.023,0.082,0.035,0.123c0.277,0.996,0.539,2,0.781,3.01c1.541,6.427,2.379,13.123,2.379,20.016   c0,6.894-0.838,13.591-2.38,20.018c-0.241,1.008-0.502,2.008-0.778,3.001c-0.014,0.048-0.027,0.096-0.041,0.144   c-1.125,4.012-2.533,7.905-4.205,11.657c0,0.001-0.001,0.002-0.002,0.003c-1.261,2.83-2.67,5.58-4.219,8.24   c-0.004,0.006-0.008,0.012-0.011,0.019c-4.138,7.101-9.265,13.558-15.192,19.182c-9.689,9.193-21.508,16.154-34.639,20.054   c-1.746,0.52-3.517,0.977-5.306,1.387c-0.253,0.057-0.505,0.119-0.76,0.176c-0.76,0.166-1.524,0.318-2.292,0.465   c-0.495,0.094-0.992,0.182-1.49,0.268c-0.666,0.114-1.332,0.232-2.003,0.332c-1.113,0.164-2.233,0.308-3.36,0.428   c-0.453,0.049-0.911,0.084-1.367,0.126c-0.889,0.081-1.779,0.151-2.676,0.204c-0.417,0.025-0.834,0.051-1.252,0.069   c-1.293,0.059-2.59,0.099-3.896,0.099c-1.307,0-2.604-0.04-3.897-0.099c-0.418-0.019-0.834-0.044-1.25-0.069   c-0.896-0.053-1.789-0.123-2.677-0.204c-0.456-0.042-0.914-0.077-1.368-0.126c-1.126-0.12-2.246-0.264-3.36-0.428   c-0.671-0.1-1.337-0.218-2.004-0.333c-0.497-0.085-0.993-0.173-1.487-0.267c-0.769-0.146-1.537-0.299-2.298-0.467   c-0.248-0.054-0.492-0.114-0.738-0.171c-1.797-0.411-3.577-0.87-5.33-1.392c-13.131-3.9-24.949-10.863-34.639-20.059   c-2.961-2.811-5.722-5.828-8.26-9.029c-0.003-0.004-0.007-0.009-0.01-0.014c-2.534-3.198-4.845-6.581-6.91-10.125   c-0.008-0.014-0.016-0.028-0.024-0.043c-1.542-2.648-2.946-5.388-4.203-8.207c-0.004-0.009-0.009-0.019-0.013-0.027   c-0.419-0.94-0.821-1.89-1.207-2.847c-0.002-0.006-0.004-0.013-0.007-0.019c-1.148-2.854-2.146-5.784-2.987-8.78   c-0.014-0.05-0.028-0.099-0.042-0.147c-0.276-0.993-0.537-1.992-0.778-3c-1.542-6.427-2.38-13.124-2.38-20.018   s0.839-13.591,2.38-20.018c0.241-1.007,0.501-2.006,0.778-2.999c0.014-0.049,0.028-0.098,0.042-0.148   c0.84-2.995,1.837-5.924,2.985-8.777c0.003-0.008,0.006-0.016,0.009-0.023c0.385-0.957,0.787-1.904,1.205-2.843   c0.005-0.011,0.01-0.022,0.015-0.034c1.255-2.816,2.659-5.552,4.199-8.199c0.01-0.017,0.019-0.034,0.029-0.05   c2.063-3.54,4.372-6.919,6.903-10.116c0.006-0.008,0.013-0.016,0.019-0.024c2.537-3.2,5.296-6.216,8.255-9.024   c9.697-9.202,21.525-16.168,34.668-20.068c1.735-0.515,3.495-0.969,5.273-1.376c0.259-0.059,0.516-0.123,0.775-0.179   c0.757-0.166,1.52-0.318,2.284-0.464c0.499-0.095,1-0.183,1.501-0.269c0.664-0.115,1.326-0.232,1.995-0.331   c1.114-0.164,2.235-0.308,3.363-0.429c0.453-0.049,0.909-0.083,1.364-0.125c0.89-0.081,1.782-0.151,2.679-0.205   c0.416-0.025,0.832-0.05,1.25-0.069c1.293-0.059,2.59-0.099,3.897-0.099c1.307,0,2.604,0.041,3.897,0.099   c0.418,0.019,0.834,0.044,1.25,0.069c0.897,0.053,1.79,0.124,2.679,0.205c0.455,0.042,0.912,0.077,1.364,0.125   c1.128,0.121,2.249,0.265,3.363,0.429c0.669,0.099,1.331,0.216,1.995,0.331c0.501,0.086,1.002,0.174,1.5,0.269   c0.766,0.146,1.527,0.298,2.285,0.464c0.259,0.057,0.516,0.12,0.774,0.179c1.778,0.407,3.538,0.862,5.272,1.376   c13.141,3.899,24.965,10.862,34.66,20.061c2.965,2.813,5.729,5.834,8.27,9.04c0.001,0,0.002,0.001,0.002,0.001   c2.538,3.203,4.852,6.591,6.92,10.139c0.005,0.009,0.01,0.018,0.015,0.026c1.547,2.657,2.956,5.405,4.216,8.233   c0.001,0.002,0.002,0.004,0.002,0.006c0.422,0.944,0.826,1.897,1.213,2.859c0,0,0,0,0,0   C336.83,226.906,337.831,229.846,338.674,232.852z M327.783,180.996c-11.896-11.39-26.488-19.981-42.709-24.719l18.137-67.686   c28.257,7.979,53.609,22.943,74.084,42.892L327.783,180.996z M226.926,156.277c-16.222,4.737-30.814,13.33-42.71,24.72   l-49.512-49.512c20.475-19.95,45.828-34.914,74.086-42.894L226.926,156.277z M184.215,331.002   c11.896,11.391,26.488,19.983,42.71,24.721l-18.136,67.686c-28.258-7.98-53.611-22.944-74.086-42.895L184.215,331.002z    M285.074,355.723c16.221-4.736,30.813-13.329,42.709-24.719l49.512,49.512c-20.475,19.95-45.828,34.914-74.086,42.893   L285.074,355.723z"/>
</g>
</svg>