<svg width="150" height="24" viewBox="0 0 150 24" fill="none" xmlns="http://www.w3.org/2000/svg">
<g clip-path="url(#clip0_1_2)">
<path d="M106.907 18.7677V4.87442C106.907 4.68603 107.072 4.5212 107.261 4.5212H110.016C110.11 4.5212 110.228 4.56829 110.275 4.63894L116.915 12.6688V4.85087C116.915 4.66249 117.08 4.49765 117.268 4.49765H120.424C120.612 4.49765 120.777 4.66249 120.777 4.85087V18.7441C120.777 18.9325 120.612 19.0973 120.424 19.0973H117.645C117.551 19.0973 117.433 19.0502 117.386 18.9796L110.746 10.9498V18.7441C110.746 18.9325 110.581 19.0973 110.392 19.0973H107.237C107.072 19.1209 106.907 18.956 106.907 18.7677Z" fill="#A6CE39"/>
<path d="M123.791 18.7677V4.87441C123.791 4.68603 123.956 4.52119 124.144 4.52119H134.835C135.024 4.52119 135.188 4.68603 135.188 4.87441V7.25275C135.188 7.44113 135.024 7.60597 134.835 7.60597H127.677V10.2904H133.94C134.129 10.2904 134.294 10.4553 134.294 10.6436V12.81C134.294 12.9984 134.129 13.1633 133.94 13.1633H127.677V16.0361H135.118C135.306 16.0361 135.471 16.2009 135.471 16.3893V18.7677C135.471 18.956 135.306 19.1209 135.118 19.1209H124.144C123.933 19.1209 123.791 18.956 123.791 18.7677Z" fill="#A6CE39"/>
<path d="M141.523 18.7677V7.60597H137.308C137.119 7.60597 136.954 7.44113 136.954 7.25275V4.85087C136.954 4.66249 137.119 4.49765 137.308 4.49765H149.647C149.835 4.49765 150 4.66249 150 4.85087V7.2292C150 7.41759 149.835 7.58242 149.647 7.58242H145.455V18.7441C145.455 18.9325 145.29 19.0973 145.102 19.0973H141.852C141.664 19.1209 141.523 18.956 141.523 18.7677Z" fill="#A6CE39"/>
<path d="M17.8729 17.2135C21.1371 17.2135 23.7834 14.5673 23.7834 11.303C23.7834 8.0387 21.1371 5.39247 17.8729 5.39247C14.6086 5.39247 11.9623 8.0387 11.9623 11.303C11.9623 14.5673 14.6086 17.2135 17.8729 17.2135Z" fill="#A6CE39"/>
<path fill-rule="evenodd" clip-rule="evenodd" d="M27.2449 15.9419C27.1036 16.0361 26.9153 15.8477 27.033 15.7064C30 12.2449 31.0126 8.12402 29.2465 5.0628C27.0801 1.29514 21.358 0.518055 15.8713 2.54317C9.98433 4.70958 6.14602 9.16013 6.9231 13.6578C8.47726 22.8885 26.8446 22.0879 33.2261 21.5699C33.4145 21.5463 33.4616 21.8289 33.2732 21.876C16.8603 25.6201 2.37836 23.3595 0.235505 15.0942C-1.81316 7.15856 10.055 2.51963 15.4003 1.1303C22.7237 -0.777078 32.0958 -0.729982 34.0032 4.61539C35.2512 8.07693 32.4255 12.4804 27.2449 15.9419Z" fill="#A6CE39"/>
<path d="M38.7363 18.6264L44.8823 4.73313C44.9294 4.61539 45.0707 4.52119 45.212 4.52119H48.7206C48.8619 4.52119 48.9796 4.59184 49.0503 4.73313L55.1963 18.6264C55.2905 18.8619 55.1256 19.1209 54.8666 19.1209H51.5699C51.4286 19.1209 51.2873 19.0267 51.2402 18.909L50.1806 16.2951H43.6814L42.6217 18.8854C42.5746 19.0267 42.4333 19.0973 42.292 19.0973H39.0424C38.8069 19.1209 38.6421 18.8619 38.7363 18.6264ZM49.0503 13.3987L46.9545 8.14757L44.8588 13.3987H49.0503Z" fill="#A6CE39"/>
<path d="M56.774 18.7677V4.87441C56.774 4.68603 56.9388 4.52119 57.1272 4.52119H59.8352C59.953 4.52119 60.0707 4.59184 60.1413 4.68603L65.2748 13.2339L70.4082 4.68603C70.4789 4.59184 70.5966 4.52119 70.7143 4.52119H73.4223C73.6107 4.52119 73.7756 4.68603 73.7756 4.87441V18.7677C73.7756 18.956 73.6107 19.1209 73.4223 19.1209H70.5024C70.314 19.1209 70.1492 18.956 70.1492 18.7677V10.8791L66.2167 17.4725C66.146 17.5667 66.0283 17.6374 65.9106 17.6374H64.5919C64.4741 17.6374 64.3564 17.5667 64.2858 17.4725L60.3768 11.1146V18.7677C60.3768 18.956 60.212 19.1209 60.0236 19.1209H57.1037C56.9153 19.1209 56.774 18.956 56.774 18.7677Z" fill="#A6CE39"/>
<path d="M83.595 19.4035C81.4286 19.4035 79.7331 18.8148 78.5322 17.6374C77.3313 16.46 76.7426 14.8116 76.7426 12.6217V4.85087C76.7426 4.66249 76.9074 4.49765 77.0958 4.49765H80.3454C80.5338 4.49765 80.6986 4.66249 80.6986 4.85087V12.4804C80.6986 14.9765 81.6405 16.1774 83.595 16.1774C85.573 16.1774 86.562 14.9294 86.562 12.4804V4.85087C86.562 4.66249 86.7269 4.49765 86.9152 4.49765H90.0942C90.2826 4.49765 90.4474 4.66249 90.4474 4.85087V12.5981C90.4474 14.7645 89.8352 16.4364 88.6342 17.6138C87.4568 18.8148 85.7378 19.4035 83.595 19.4035Z" fill="#A6CE39"/>
<path d="M98.4773 19.4035C97.2999 19.4035 96.1225 19.2622 95.0157 18.956C94.0738 18.7206 93.2732 18.3909 92.6374 18.0141C92.4961 17.9199 92.4255 17.7316 92.4961 17.5667L93.5087 15.3061C93.5322 15.259 93.5793 15.1648 93.7206 15.1413C93.8619 15.0942 93.9561 15.1648 93.9796 15.1648C94.5212 15.4945 95.157 15.7535 95.887 15.989C96.7818 16.2716 97.6531 16.3893 98.5244 16.3893C100.22 16.3893 101.068 15.9419 101.068 15.0471C101.068 14.7174 100.926 14.27 100.29 13.9874C99.8195 13.7755 99.066 13.5636 98.0534 13.3281C96.9466 13.0926 96.0047 12.8336 95.2748 12.551C94.5448 12.292 93.909 11.8446 93.3909 11.2559C92.8729 10.6672 92.6138 9.86657 92.6138 8.87756C92.6138 8.00629 92.8493 7.20566 93.3438 6.49922C93.8148 5.79278 94.5448 5.22764 95.5102 4.82732C96.4757 4.40346 97.6766 4.19153 99.066 4.19153C100.031 4.19153 100.997 4.30927 101.915 4.5212C102.692 4.70958 103.399 4.94506 104.011 5.27473C104.176 5.36892 104.246 5.55731 104.176 5.72214L103.21 8.00629C103.187 8.05338 103.14 8.14757 102.998 8.19467C102.881 8.21822 102.787 8.17112 102.763 8.17112C101.491 7.53533 100.243 7.22921 99.0189 7.22921C98.1476 7.22921 97.5353 7.34694 97.1115 7.62952C96.6876 7.91209 96.4757 8.26531 96.4757 8.71272C96.4757 9.01884 96.617 9.44271 97.2292 9.72528C97.6766 9.93721 98.4302 10.1256 99.4427 10.3375C100.573 10.573 101.515 10.832 102.245 11.1146C102.975 11.3736 103.587 11.821 104.129 12.3862C104.647 12.9513 104.906 13.752 104.906 14.741C104.906 15.6123 104.67 16.3893 104.176 17.0958C103.705 17.8022 102.975 18.3674 102.009 18.7912C101.068 19.1915 99.8666 19.4035 98.4773 19.4035Z" fill="#A6CE39"/>
</g>
<defs>
<clipPath id="clip0_1_2">
<rect width="150" height="23.6421" fill="white"/>
</clipPath>
</defs>
</svg>
