<?xml version="1.0" encoding="UTF-8"?>
<!-- Created with Inkscape (http://www.inkscape.org/) -->
<svg width="4332.9" height="719.95" version="1.1" viewBox="0 0 4332.9 719.95" xmlns="http://www.w3.org/2000/svg">
 <path d="m397.65 0 122.98 229.99h257.66l-153.33-229.99zm-41.384 7.4215-111.28 222.56h230.28zm-126.28 252.56-14.999 29.998h292.36l-16.034-29.998zm306.68 0 16.054 29.998h265.57l-19.999-29.998zm-336.68 59.996-199.99 399.97h737.26l-213.87-399.97zm368.77 0 213.87 399.97h322.3l-266.64-399.97z"/>
 <path d="m1167.1 579.96h46.546l62.256-144.29h200.15l62.256 144.29h46.546l-184.44-429.97h-47.71zm125.68-183.28 83.783-197.24 82.62 197.24z"/>
 <path d="m1608 261.7v429.97h43.055v-171.06h1.1637c19.782 44.219 72.147 66.91 119.28 66.91 92.511 0 172.22-70.401 172.22-165.24 0-46.546-18.618-88.438-37.819-105.89-40.728-43.637-83.783-61.674-130.33-61.674-45.964 0-101.82 20.364-125.68 61.674h-1.1637v-54.692zm164.66 284.51c-34.328 0-66.91-13.964-90.765-38.983-25.019-25.019-33.746-54.11-33.746-89.02 0-70.401 57.601-122.18 127.42-122.18 69.238 0 125.09 56.437 125.09 125.68 0 71.565-57.019 124.51-128 124.51z"/>
 <path d="m1984.8 261.7v429.97h43.055v-171.06h1.1636c19.782 44.219 72.147 66.91 119.28 66.91 92.511 0 172.22-70.401 172.22-165.24 0-46.546-18.618-88.438-37.819-105.89-40.728-43.637-83.784-61.674-130.33-61.674-45.964 0-101.82 20.364-125.68 61.674h-1.1637v-54.692zm164.66 284.51c-34.328 0-66.91-13.964-90.765-38.983-25.019-25.019-33.746-54.11-33.746-89.02 0-70.401 57.601-122.18 127.42-122.18 69.238 0 125.09 56.437 125.09 125.68 0 71.565-57.019 124.51-128 124.51z"/>
 <path d="m2690.7 261.7h-41.31v60.51h-1.1636c-22.691-45.383-73.311-67.492-123.35-67.492-54.11 0-94.256 20.946-124.51 52.365-27.928 29.091-45.964 68.074-45.964 111.71 0 48.292 19.782 88.438 31.419 101.24 40.728 46.546 92.511 67.492 140.22 67.492 50.037 0 98.911-22.691 122.18-67.492h1.1636v59.928h41.31zm-165.82 34.328c70.983 0 124.51 56.437 124.51 126.84 0 66.329-57.019 123.35-123.35 123.35-68.074 0-128.58-54.11-128.58-123.93 0-70.401 57.601-126.26 127.42-126.26z"/>
 <path d="m2744 579.96h43.055v-178.04c0-36.073 2.9092-57.601 32.582-82.62 18.037-15.128 34.328-20.364 57.601-22.11v-42.474c-38.983 1.1637-75.638 15.128-91.347 52.946h-1.1637v-45.965h-40.728z"/>
 <path d="m3203.2 261.7h-41.31v60.51h-1.1636c-22.691-45.383-73.31-67.492-123.35-67.492-54.11 0-94.256 20.946-124.51 52.365-27.928 29.091-45.964 68.074-45.964 111.71 0 48.292 19.782 88.438 31.419 101.24 40.728 46.546 92.511 67.492 140.22 67.492 50.037 0 98.911-22.691 122.18-67.492h1.1636v59.928h41.31zm-165.82 34.328c70.983 0 124.51 56.437 124.51 126.84 0 66.329-57.019 123.35-123.35 123.35-68.074 0-128.58-54.11-128.58-123.93 0-70.401 57.601-126.26 127.42-126.26z"/>
 <path d="m3283.1 579.96h43.055v-279.28h73.892v-38.983h-73.892v-111.71h-43.055v111.71h-66.329v38.983h66.329z"/>
 <path d="m3390 618.95h43.056l51.201-112.29h-43.056z"/>
 <path d="m3557.5 579.96h43.055v-429.97h-43.055z"/>
 <path d="m3636.4 579.96h43.056v-167.57c0.5819-26.764 0-54.692 16.873-77.383 17.455-24.437 48.292-38.983 77.965-38.983 32.582 0 62.838 13.964 82.038 40.728 16.291 22.691 18.618 48.292 18.618 75.638v167.57h43.056v-167.57c0-40.146-4.6547-73.892-29.092-104.73-28.51-34.328-70.401-52.946-112.87-52.946-41.892 0-74.474 18.619-97.747 52.946h-1.1637v-45.965h-40.728z"/>
 <path d="m4210.1 486.87c-27.928 38.983-62.256 59.347-111.71 59.347-70.983 0-126.26-55.856-126.26-126.26 0-71.565 59.347-123.93 129.75-123.93 43.637 0 86.111 24.437 108.22 62.256h48.292c-24.437-64.001-89.602-103.57-157.09-103.57-91.929 0-172.22 71.565-172.22 165.82 0 97.166 79.129 166.99 173.97 166.99 68.656 0 126.26-38.401 154.77-100.66z"/>
 <path d="m4289.9 579.96h43.056v-73.311h-43.056z"/>
</svg>
