<?xml version="1.0" encoding="utf-8"?>
<!-- Generator: Adobe Illustrator 25.3.1, SVG Export Plug-In . SVG Version: 6.00 Build 0)  -->
<svg version="1.1" id="Warstwa_1" xmlns="http://www.w3.org/2000/svg" xmlns:xlink="http://www.w3.org/1999/xlink" x="0px" y="0px"
	 viewBox="0 0 141 32" style="enable-background:new 0 0 141 32;" xml:space="preserve">
<style type="text/css">
	.st0{fill:#F9FAFB;}
	.st1{fill:#7CD6FB;}
	.st2{fill-rule:evenodd;clip-rule:evenodd;fill:#F9FAFB;}
	.st3{fill-rule:evenodd;clip-rule:evenodd;fill:#7CD6FB;}
</style>
<path class="st0" d="M0.5,28.3L13.1,4.1L18.9,0l12.3,29.3L16.6,11.1L0.5,28.3z"/>
<path class="st1" d="M11.2,23.8l5.1,4.3l18.9-17.5L16.6,32L11.2,23.8z"/>
<g>
	<path class="st2" d="M60.6,12.6l1.1-1.9h-2.4l-1.1,1.9l-2.6,4.6l-2.6-4.6l-1.1-1.9h-2.4l1.1,1.9l5,8.7L60.6,12.6z M50.4,21.3h2.4
		l-1.1-1.9l-5-8.7l-5,8.7l-1.1,1.9h2.4l1.1-1.9l2.6-4.6l2.6,4.6L50.4,21.3z M70.7,21.3h-2.4l-1.1-1.9l-2.6-4.6l-2.6,4.6l-1.1,1.9
		h-2.4l1.1-1.9l5-8.7l5,8.7L70.7,21.3z M80.3,12.6v-1.9h-12v1.9h4.9v8.7h2.1v-8.7H80.3z M90.2,21.3h-2.4l-1.1-1.9l-2.6-4.6l-2.6,4.6
		l-1.1,1.9H78l1.1-1.9l5-8.7l5,8.7L90.2,21.3z M102.1,21.3l-1.1-1.9l-1.7-3c0.3,0,0.6-0.1,0.9-0.2c1.1-0.5,1.9-1.5,1.9-2.6
		c0-0.8-0.4-1.5-0.9-2c-0.6-0.5-1.4-0.8-2.3-0.8h-7.6v10.6h2.1v-4.9h2.1c0.8,0,1.4,0.4,1.8,0.9l0.1,0.1l1.2,2l1.1,1.9L102.1,21.3z
		 M99.3,14.4c-0.1,0.1-0.3,0.1-0.4,0.1l-5.4,0v-2h5.4c0.4,0,0.6,0.2,0.8,0.3c0.1,0.1,0.3,0.3,0.3,0.7C99.9,13.9,99.7,14.3,99.3,14.4
		z"/>
	<path class="st3" d="M124.3,18.9v-8.2h-0.9v8.2c0,0.8-0.6,1.4-1.3,1.4h-9.6c-0.7,0-1.3-0.6-1.3-1.4v-8.2h-0.9v8.2
		c0,1.3,1,2.4,2.2,2.4h9.6C123.3,21.3,124.3,20.3,124.3,18.9z M140.5,21.3l-6.2-5.3l6.2-5.3h-1.4l-5.5,4.7l-5.5-4.7h-1.4l6.2,5.3
		l-6.2,5.3h1.4l5.5-4.7l5.5,4.7H140.5z"/>
</g>
</svg>
