<?xml version="1.0" encoding="utf-8"?>
<!-- Generator: Adobe Illustrator 19.0.0, SVG Export Plug-In . SVG Version: 6.00 Build 0)  -->
<svg version="1.1" id="layer" xmlns="http://www.w3.org/2000/svg" xmlns:xlink="http://www.w3.org/1999/xlink" x="0px" y="0px"
	 viewBox="-153 -46 652 652" style="enable-background:new -153 -46 652 652;" xml:space="preserve">
<style type="text/css">
	.st0{fill:#E40707;}
</style>
<path id="Shape" class="st0" d="M-54.4,199.5c42.9-3.7,80.6,28.6,84.3,72.3c2.2,25.9-8.2,51.3-27.8,67.9
	c-28.1,23.8-68.6,24.4-97.4,1.7c-34-26.9-40.2-76.8-13.8-111.5C-95.9,212.5-76,201.5-54.4,199.5z M-53.8,202.2
	c-41.4,3.4-72.3,40.4-69,82.6s39.6,73.7,81,70.3c41.5-3.4,72.3-40.3,69-82.6c-1.9-24-14.8-45.6-34.7-58.6
	C-21.2,205-37.4,200.9-53.8,202.2z"/>
<path id="Shape_11_" class="st0" d="M-58.5,206.2c35.9-5.6,70.3,17,80.1,52.7c5.4,19.7,2.5,41.9-8.7,59c-10.2,4.7-21.7,5.5-32.7,5
	c-18.4-0.9-36.4-5.8-54.9-6.3c-10.4-0.3-21.1,1.1-30.8,5.4c-23.5-32.6-16.6-78.5,15.4-102.4C-80.9,212.6-70,208.1-58.5,206.2z
	 M-47.7,207.6c-1.5,4.5-2.9,9-4.4,13.6c-4.7,0-9.4-0.1-14.1,0.1c3.8,2.8,7.6,5.6,11.4,8.5c-1.4,4.5-2.9,9-4.3,13.6
	c3.8-2.8,7.6-5.6,11.4-8.4c3.8,2.8,7.6,5.6,11.4,8.4c-1.4-4.5-2.9-9.1-4.3-13.6c3.8-2.8,7.6-5.6,11.4-8.5c-4.7-0.1-9.4,0-14.1,0
	C-44.8,216.6-46.3,212.1-47.7,207.6z M-80.4,225.3c-0.5,2.3-0.8,4.6-1.3,6.9l-6.9,0.9l6.1,3.4c-0.4,2.3-0.8,4.7-1.2,6.9
	c1.7-1.6,3.4-3.2,5.1-4.9c2,1.1,4,2.3,6.1,3.3c-1-2.1-2-4.3-3-6.4c1.7-1.6,3.4-3.3,5-4.9c-2.3,0.3-4.6,0.6-6.9,0.9
	C-78.4,229.6-79.4,227.5-80.4,225.3z M-18,231.7l-6.9-0.9c1.7,1.7,3.3,3.3,5,4.9c-1,2.1-2,4.3-3,6.4l6.1-3.3
	c1.7,1.6,3.4,3.3,5.1,4.9c-0.5-2.3-0.8-4.7-1.2-7c2-1.1,4-2.3,6.1-3.4l-6.9-0.9c-0.5-2.3-0.8-4.7-1.3-6.9
	C-16,227.5-17,229.6-18,231.7z M-102.3,241.8c0.1,1.4,0.2,2.8,0.3,4.2l-3.9,1.6l4,1c0.1,1.4,0.2,2.8,0.3,4.2
	c0.7-1.2,1.4-2.4,2.2-3.5l4,0.9L-98,247l2.2-3.6l-3.9,1.6C-100.5,243.9-101.4,242.8-102.3,241.8z M4.2,245l-3.8-1.6l2.2,3.6
	c-0.9,1.1-1.8,2.1-2.7,3.2l4-0.9l2.2,3.5l0.3-4.2l4-1L6.6,246l0.3-4.2L4.2,245z M-91.7,252.3c-4.4,1.2-8.6,4-10.8,8.1
	c-0.2,14.4,0,28.8-0.1,43.3c3.3,2.3,6.9,3.9,10.8,4.9c4.5,1.2,9.1,0.9,13.7,0.6c4.6-0.3,9.3-1.5,12.7-4.7c5.3-4.7,6.9-13,4.1-19.6
	c-1.5-3.7-4.8-6.3-8.3-7.9c3.5-2.2,6.2-6,6-10.3c0.1-7.7-6.5-14.4-13.8-15.2C-82.1,251-87,251-91.7,252.3z M-71.9,251.2
	c5.2,1.9,8.6,6.7,10.4,11.8c2.3,0,4.6,0,6.9,0c0,15.4,0,30.9,0,46.3h11.8c0-15.4,0-30.9,0-46.3c2.2,0,4.4,0,6.5,0
	c3.5-5.3,8.4-9.8,14.4-11.8C-38.6,251.3-55.3,251.2-71.9,251.2z M-20.4,252.8c-6.4,2.3-11.6,6.9-14.6,13.1
	c-3.3,6.7-3.8,14.4-2.7,21.7c1,6.9,4.4,13.4,9.9,17.7c5.2,4.1,12,5.4,18.3,4.9c6.4-0.5,13.1-2.3,18.2-6.5c0-9.2,0-18.4,0-27.7
	c-6.4,0-12.8,0-19.2,0c0,3.5,0,7.1,0,10.6H-3c0,3.5,0,7.1,0,10.6c-3.9,2.7-9.1,2.7-13.5,1.1c-4.8-1.9-8.1-6.7-9.1-11.7
	c-1-5.1-0.7-10.4,1.2-15.2c1.8-4.4,5.5-8,10.1-8.9c5.7-1.5,11.6,1,15.9,4.7c1.7-3.3,3.3-6.6,5.1-9.9
	C-0.5,250.6-11.4,249.8-20.4,252.8z"/>
<path class="st0" d="M116.1,272.8c1.8,1.6,3.7,3.2,5.6,4.8c-1.2,0.9-2.5,1.7-3.7,2.6c2.4,3.9,2.5,8.9,0.5,13
	c-2.2,3.9-6.6,6.1-11,6.1c-1.9,0.1-3.9-0.7-5.7,0.4c-0.8,0.3-2,1.5-0.7,2.1c1.4,0.6,3,0.1,4.5-0.1c4.3-0.8,9.2-0.9,13,1.5
	c4.6,3.3,4,11.1-0.7,14c-7.9,5.1-18.7,4.2-26.4-1c1.7-2,3.4-4,5.1-5.9c4.3,3.8,10.8,4.9,15.9,2.1c1.2-0.6,1.6-2.1,1-3.3
	c-0.3-0.5-0.8-1-1.4-1.2c-4.6-1.4-9.3,0.7-13.9-0.1c-2.5-0.2-5.3-1.7-5.5-4.5c-0.5-3,2.1-5.1,4.4-6.4c-5.7-3.2-7.6-11.7-3.5-16.9
	c4.5-5.9,13.1-6.5,19.5-3.7L116.1,272.8z M103,281.4c-3.9,1.5-4.5,7.3-1.7,10c1.8,1.8,4.6,2,6.9,1.3c3.5-1.3,4.4-6.4,2.4-9.3
	C109,280.9,105.6,280.4,103,281.4z M465.7,276.2c1-1.1,2.1-2.3,3.1-3.4c1.8,1.6,3.7,3.2,5.6,4.8c-1.2,0.9-2.5,1.7-3.7,2.6
	c2.1,3.5,2.5,7.9,1,11.7c-1.6,3.8-5,6.5-9.1,7.1c-2.1,0.4-4.2,0-6.3,0c-1.2,0.4-3,0.7-3.1,2.3c1.2,1.3,3,0.7,4.5,0.5
	c4.3-0.9,9.1-1.1,13.1,1.2c4.6,2.7,4.7,10.2,0.7,13.5c-4,3.3-9.2,4.3-14.2,4.1c-4.7-0.2-9.3-1.7-13.2-4.4c1.7-2,3.4-3.9,5-5.9
	c3,2.6,6.9,3.9,10.8,3.6c2.2-0.3,5-0.5,6.3-2.7c0.7-1.7-0.9-3.4-2.5-3.5c-4.9-0.7-10,1.4-14.8-0.3c-2.2-0.5-3.7-2.5-3.7-4.8
	c-0.1-2.7,2.4-4.5,4.4-5.7c-5.7-3.1-7.6-11.7-3.5-16.9C450.8,274.1,459.4,273.4,465.7,276.2z M455.6,281.4
	c-4.3,1.7-4.4,8.7-0.5,10.8c2.6,1.4,6.5,1.1,8.2-1.6c1.4-2.5,1.4-6-0.7-8.1C460.9,280.7,457.9,280.5,455.6,281.4z M185.5,278
	c5.1-4.8,13.6-4.3,18.9,0c4.7-3.9,12-4.6,17.2-1.3c3,2,4.4,5.7,4.4,9.2c0,7.3,0,14.6,0,21.9h-8c0-6.7,0-13.2,0-19.9
	c0-2-0.3-4.3-1.9-5.6c-3-2.3-7.8-1.3-9.7,1.9c-0.2,7.9,0,15.7-0.1,23.6h-8c0-7.3,0.1-14.6,0-21.9c0.1-4.3-5.4-6-8.6-4.1
	c-1.2,0.8-3.1,1.7-3.1,3.4c-0.1,7.5,0,15,0,22.6h-8v-32.5h5.5L185.5,278z M233.2,280.4c5.9-6.9,17-7.6,24.1-2.1
	c4.6,3.6,6.3,10.1,4.6,15.6c-8.2,0-16.3,0-24.5,0c0.3,3.2,2.1,6.3,5.1,7.3c4.2,1.5,9.4,1.1,13.1-1.9c1,1.9,2.1,3.9,3.1,5.9
	c-4.7,3.2-10.6,3.5-16.1,3c-5.4-0.5-10.7-4.3-12.5-9.7C228.1,292.5,228.8,285.2,233.2,280.4z M242.8,281.6c-2.8,0.9-4.4,3.7-5.1,6.5
	c5.6,0,11.2,0,16.8,0c-0.5-2.1-1-4.2-2.8-5.5C249.2,280.8,245.7,280.7,242.8,281.6z M312.2,276.5c5.7-2.3,12.1-2.5,18-0.5
	c3.4,1.2,5.7,4.5,6.3,8c1.2,5.7,0.3,11.4,0.9,17.1c0.2,2,1.1,3.8,2.5,5.1c-1.4,2.1-4,2.5-6.3,2c-1.8-0.5-2.8-2.1-3.7-3.5
	c-2.2,2.5-5.7,3.5-8.9,3.7c-3.5,0.1-7.2-0.6-9.8-3.2c-2.7-2.7-3.1-7.1-2-10.7c1.1-3.6,4.4-5.9,7.9-7.1c3.9-1.2,8-1.5,12.1-0.8
	c-0.3-2-1.1-4.1-3.1-4.8c-3.9-1.5-8.4-0.9-12.2,0.6C313.3,280.5,312.7,278.5,312.2,276.5z M318.8,293.8c-2.8,1.7-3,6.9,0.3,8.1
	c2.7,0.8,6.1,0.7,8.4-1.3c2.1-2.1,1.6-5.3,1.7-8.1C325.7,292,321.8,291.9,318.8,293.8z M349.5,278c5-4.8,13.6-4.3,18.8,0
	c4.7-3.9,12-4.6,17.1-1.3c3,2,4.5,5.7,4.4,9.2c0.1,7.3,0,14.6,0,22h-8c0-6.6,0-13.2,0-19.9c0-2-0.3-4.3-1.9-5.7
	c-3-2.3-7.8-1.3-9.8,1.9c-0.2,7.9,0,15.7-0.1,23.6h-8c-0.1-7.3,0.1-14.6-0.1-21.9c0-4.3-5.5-6-8.7-4.1c-1.2,0.8-3.1,1.7-3.1,3.4
	c0,7.5,0,15,0,22.6h-8c0-10.8,0-21.7,0-32.5h5.5C348.4,276.2,349,277.1,349.5,278z M418.7,278.2c3.9-3.9,10.1-4.3,15.1-2.7
	c4.5,1.5,7.5,6,7.7,10.8c0.2,7.2,0,14.4,0.1,21.6h-8c0-6.4,0-12.8,0-19.2c0-2.5-0.6-5.4-2.9-6.7c-3.7-1.9-8.2-0.7-11,2.1
	c-0.1,7.9,0,15.8,0,23.7h-8c0-10.8,0-21.7,0-32.5h5.8C417.8,276.3,418.2,277.2,418.7,278.2z M75.6,275.3h12.5c0,10.8,0,21.7,0,32.5
	H80c0-8.8,0-17.5,0-26.3h-4.4C75.7,279.5,75.6,277.4,75.6,275.3z M160,275.3h12.5v32.5h-8.1c0-8.8,0-17.5,0-26.3c-1.4,0-2.9,0-4.4,0
	V275.3z M393,275.3h12.5c0,10.8,0,21.7,0,32.5h-8c0-8.8,0-17.5,0-26.3h-4.4C393,279.4,393,277.4,393,275.3z M277,267.2
	c4.8-3.7,11.2-4.9,17.2-4.5c4,0.3,7.9,1.7,11.2,4.3c-1.2,2.1-2.3,4.3-3.5,6.4c-4-2.7-8.8-4.5-13.6-3.3c-5.2,0.9-9.3,5.4-10.4,10.5
	c-1.1,4.9-0.9,10.4,1.8,14.8c3.9,6.4,13.3,8.1,19.4,3.9c0-2.9,0-5.9,0-8.8h-6.5c0-2.3,0-4.5,0-6.8c5,0,9.9,0,14.8,0
	c0,6.7,0,13.3,0,20c-5,3.5-11.2,4.8-17.1,4.8c-5.8,0.1-12-1.9-15.9-6.4c-5.2-5.5-6.5-13.6-5.4-21C269.7,275.7,272.6,270.6,277,267.2
	z M42.7,263.3c4.6-0.1,9.1-0.4,13.7-0.4c4,0.1,8.2,0.8,11.4,3.3c3.1,2.5,4.3,6.9,3.2,10.7c-0.8,2.7-3.1,4.4-5.4,5.7
	c3.1,1.1,6.1,3.1,7.4,6.2c1.9,4.4,1.6,10-1.8,13.6c-3.5,3.8-8.7,5.3-13.6,5.3c-5,0.1-10.1,0-15.1,0L42.7,263.3z M51,269.7
	c0,3.5,0,7.1,0,10.6c3.1,0.1,6.5,0.5,9.4-0.9c3.3-1.5,3.8-6.9,0.6-8.7C58,269.1,54.4,269.7,51,269.7z M51,286.6c0,4.9,0,9.8,0,14.6
	c3.5,0.2,7.1,0.5,10.4-0.7c5.5-1.7,5.7-11.4,0.2-13.1C58.3,286.2,54.6,286.5,51,286.6z M75.7,263.4h12.4c0,2.3,0,4.7,0,7
	c-4.2,0-8.3,0-12.5,0C75.6,268.1,75.7,265.7,75.7,263.4z M124.2,263.3c11,0,22.1,0,33.2,0c0,2.3,0,4.7,0,7.1h-9.9
	c0,12.4,0,25,0,37.4c-2.8,0-5.6,0-8.4,0c0-12.5,0-25,0-37.4h-14.9V263.3z M160,270.4c0-2.3,0-4.7,0-7c4.1,0,8.3,0,12.4,0v7
	C168.3,270.4,164.1,270.4,160,270.4z M393.1,263.4c4.1,0,8.3,0,12.5,0c0,2.3,0,4.7,0,7c-4.1,0-8.3,0-12.4,0
	C393.1,268.1,393.1,265.7,393.1,263.4z"/>
<path class="st0" d="M-88.6,264.6c3-3.7,9.9-3.1,11.9,1.5c0.8,2.5-0.3,6-3.1,6.7c-3.2,0.9-6.5,0.4-9.8,0.5
	C-89.4,270.5-90.3,267.2-88.6,264.6z M-89.6,282.9c4.1,0.2,8.4-0.6,12.3,1c5.7,2.3,5.3,12.2-0.4,14.2c-3.9,0.5-8.2,0.8-11.9-1.1
	C-89.6,292.4-89.6,287.6-89.6,282.9z M-67,320c20.9,2.1,41.7,7.8,62.8,5.3c5-0.5,9.9-1.7,14.7-3.6c-3.7,4.9-7.6,9.6-12.5,13.3
	c-3.9,0.7-7.8,0.3-11.6-0.1c-11.3-1.5-22.1-5-32.9-8.6C-53.3,324.2-60,321.6-67,320z M-80.7,324.5c9,0.2,17.6,3.3,26.2,6.1
	c14.2,4.6,28.2,10.2,43.2,11.4c-6.4,3.6-13.1,6.5-20.3,8.1c-1,0.3-1.8-0.5-2.7-0.8c-8.9-5-17.4-10.7-26.3-16
	C-67,329.6-73.6,326.2-80.7,324.5z M-91.9,336.5c6.3,0.4,12.7,1.3,18.4,4.1c6.5,2.9,12.2,7.1,18,11.1
	C-68.7,350-81.3,344.8-91.9,336.5z"/>
</svg>
