<?xml version="1.0" encoding="UTF-8"?>
<svg xmlns="http://www.w3.org/2000/svg" xmlns:xlink="http://www.w3.org/1999/xlink" id="Ebene_1" width="300" height="300" viewBox="0 0 300 300">
  <defs>
    <style>.cls-1{fill:none;}.cls-1,.cls-2{stroke-width:0px;}.cls-3{clip-path:url(#clippath);}.cls-2{fill:url(#Unbenannter_Verlauf_4);}</style>
    <clipPath id="clippath">
      <rect class="cls-1" width="300" height="300"></rect>
    </clipPath>
    <linearGradient id="Unbenannter_Verlauf_4" x1="-217.07" y1="346.26" x2="593.88" y2="-100.47" gradientUnits="userSpaceOnUse">
      <stop offset="0" stop-color="#91f378"></stop>
      <stop offset="1" stop-color="#0ae2a9"></stop>
    </linearGradient>
  </defs>
  <g id="booongo">
    <g class="cls-3">
      <path class="cls-2" d="m157.95,156.06c0,5.69-1.83,10.05-5.43,13-3.35,2.64-7.97,3.96-13.86,3.96h-23.87c-6.2,0-9.34-2.69-9.34-8.13v-41.18c0-2.44.91-4.37,2.69-5.79,1.57-1.22,3.66-1.83,6.2-1.83h23.16c11.88,0,17.82,4.52,17.82,13.61,0,3.15-.66,5.74-1.98,7.72-1.32,1.98-3.4,3.76-6.25,5.28,3.05.3,5.64,1.83,7.72,4.57,2.08,2.69,3.15,5.64,3.15,8.79Zm-13.15-23.92c0-4.21-2.34-6.35-7.06-6.35h-15.69c-3.96,0-5.94,1.88-5.94,5.64v7.52h21.73c2.08,0,3.76-.61,5.03-1.78,1.27-1.22,1.93-2.89,1.93-5.03Zm2.64,23.56c0-4.72-2.95-7.11-8.79-7.11h-22.55v9.24c0,3.66,1.93,5.48,5.74,5.48h16.81c2.59,0,4.67-.61,6.2-1.83,1.73-1.37,2.59-3.3,2.59-5.79Zm66.83,11.98c0,3.55-1.47,5.38-4.42,5.38-1.98,0-3.71-.91-5.13-2.74l-28.39-36.51v34.13c0,3.45-1.78,5.13-5.28,5.13-3.15,0-4.72-1.73-4.72-5.23v-46.62c0-3.45,1.57-5.13,4.72-5.13,2.18,0,3.96.86,5.38,2.59l27.88,35.85v-33.31c0-3.45,1.57-5.13,4.72-5.13,3.55,0,5.28,1.73,5.28,5.13v46.47h-.05Zm60.74-.76c0,4.37-1.78,6.6-5.33,6.6-3.35,0-5.03-2.23-4.98-6.65-4.06,4.27-10.16,6.65-17.27,6.65-8.02,0-13.81-3-18.38-8.58-4.27-5.18-6.35-11.88-6.35-20.06,0-8.73,2.29-15.69,6.8-20.92,4.77-5.59,11.48-8.38,20.06-8.38,9.09,0,16.66,3.4,21.43,8.48,2.64,2.69,4.01,5.18,4.01,7.46,0,1.22-.41,2.34-1.17,3.25-.76.86-1.73,1.32-2.95,1.32-2.18,0-3.96-.86-5.33-2.64-4.01-5.08-9.95-8.53-16.5-8.53-4.88,0-8.84,2.13-11.88,6.35-2.74,3.81-4.16,8.23-4.16,13.3,0,5.64,1.27,10.21,3.86,13.66,2.95,3.96,7.11,5.94,12.49,5.94,7.46,0,12.59-3.91,15.39-11.68h-10c-2.95,0-4.42-1.52-4.42-4.57s1.47-4.57,4.42-4.57h13.76c4.32,0,6.5,1.98,6.5,5.99v17.57Zm-186.27-37.88h0c2.03,4.62,2.95,9.6,2.95,14.93v.91c-.15,5.03-1.12,9.7-2.95,14.07-1.88,4.21-4.57,8.18-8.13,11.73-7.36,7.36-16.25,11.12-26.71,11.12s-19.35-3.71-26.71-11.12l-.46-.56-.61-.61c-.46-.61-.66-1.32-.66-2.23,0-1.02.36-1.93,1.07-2.59.76-.76,1.63-1.07,2.59-1.07.66,0,1.27.15,1.73.41l1.42,1.47.25.2c5.89,5.84,13,8.79,21.38,8.79s15.59-3,21.53-8.99c2.13-2.13,3.86-4.42,5.23-6.8,2.34-4.16,3.61-8.79,3.76-13.86v-.91c0-8.43-3-15.64-8.99-21.63-5.43-5.43-11.83-8.38-19.3-8.84l-2.29-.05c-6.14,0-11.63,1.63-16.55,4.77-1.83,1.22-3.55,2.59-5.18,4.21l-1.47,1.63c-.56.36-1.12.46-1.88.46-1.02,0-1.93-.41-2.69-1.12-.76-.76-1.07-1.52-1.07-2.54,0-.81.2-1.47.61-2.08l.91-1.02.46-.46c3.15-3.1,6.55-5.48,10.16-7.31,5.03-2.49,10.51-3.76,16.55-3.76l2.29.05c9.5.46,17.62,4.16,24.43,10.97,3.81,3.61,6.45,7.57,8.33,11.83h0Zm-31.84,6.25h0c4.01,0,7.52,1.47,10.36,4.42.81.81,1.52,1.73,2.13,2.69.46.81.86,1.68,1.22,2.54.61,1.68.91,3.55.91,5.48,0,3-.76,5.69-2.13,8.02l-.15.05-.86,1.27-1.12,1.27c-2.89,2.95-6.35,4.57-10.56,4.67l-10.36-.25.61.05c-1.02,0-1.88-.41-2.54-1.12-.76-.66-1.07-1.52-1.07-2.49,0-1.02.36-1.88,1.07-2.59l.46-.36c.61-.41,1.27-.56,2.08-.56l11.78-.46c.91-.41,1.83-1.02,2.59-1.88,1.63-1.52,2.34-3.4,2.34-5.69,0-2.13-.66-3.96-2.08-5.48l-.36-.25c-1.07-1.12-2.34-1.93-3.81-2.23-3.55-.2-7.11-.2-10.66,0h-.36c-.61-.05-1.12-.25-1.63-.61l-.56-.46c-.66-.61-1.02-1.32-1.02-2.08v-14.42c0-1.02.36-1.83.91-2.54.76-.66,1.63-1.02,2.59-1.02.91,0,1.73.36,2.49,1.02.76.76,1.12,1.52,1.12,2.54v12.04c2.08-1.07,4.27-1.57,6.6-1.57h0Zm-7.67,11.43h0c1.02,0,1.88.36,2.59,1.07s1.12,1.63,1.12,2.59-.41,1.88-1.12,2.59c-.66.76-1.52,1.12-2.59,1.12h-.46c-.81-.15-1.52-.46-2.23-1.12-.76-.76-1.07-1.52-1.07-2.59s.36-1.88,1.07-2.59c.61-.61,1.32-.91,2.13-1.02l.56-.05h0Z"></path>
    </g>
  </g>
</svg>
