<svg fill="none" height="68" viewBox="0 0 161 68" width="161" xmlns="http://www.w3.org/2000/svg">
<g clip-path="url(#clip0_6300_33229)">
<path d="M40.9176 53.0922C29.7428 56.6967 18.9574 58.4569 9.96484 58.485C14.3925 62.7142 19.8852 65.6839 25.8672 67.083C31.8491 68.4822 38.1003 68.2591 43.9655 66.4373C49.8308 64.6156 55.0943 61.2621 59.2044 56.7283C63.3145 52.1945 66.1201 46.6473 67.327 40.668C60.2654 45.4096 51.185 49.7836 40.9176 53.0922Z" fill="#E42314"></path>
<path d="M41.4003 40.8965L40.5117 43.0368H42.2889L41.4003 40.8965Z" fill="#E42314"></path>
<path d="M16.765 40.6897H15.5781V44.151H16.765C17.2563 44.1748 17.7374 44.0071 18.1057 43.6836C18.4243 43.3389 18.6011 42.8881 18.6011 42.4204C18.6011 41.9526 18.4243 41.5018 18.1057 41.157C17.7374 40.8336 17.2563 40.6659 16.765 40.6897V40.6897Z" fill="#E42314"></path>
<path d="M28.2336 14.3622C38.501 11.0506 48.4387 9.29659 56.9602 9.01309C52.443 4.8791 46.8883 2.02669 40.8782 0.754739C34.8681 -0.517217 28.6238 -0.161898 22.7997 1.78348C16.9755 3.72885 11.7859 7.19266 7.77461 11.812C3.7633 16.4313 1.07798 22.036 0 28.0389C7.29076 22.8299 17.062 17.9637 28.2336 14.3622Z" fill="#E42314"></path>
<path d="M47.1648 47.7743C54.9925 45.2508 62.01 41.9984 67.7026 38.4468C68.3693 33.4037 67.889 28.2765 66.297 23.4418C64.705 18.607 62.0417 14.1875 58.5028 10.5078C51.8055 10.9595 44.2196 12.4176 36.4108 14.9348C29.9883 16.973 23.8017 19.6809 17.9546 23.0131H24.8153V25.5801H17.4899V28.5834H23.9581V31.0757H17.4899V34.269H25.0727V36.8361H14.2841V25.2842C4.66046 31.6645 -0.658465 38.8456 1.17522 44.4471C4.14552 53.516 24.7336 55.0052 47.1648 47.7743ZM32.2033 45.2135H30.9034V39.6275H32.2033V45.2135ZM38.1848 40.6805H36.3919V45.2135H35.0952V40.6805H33.2991V39.6275H38.1848V40.6805ZM49.6516 45.2135H45.5383V39.6275H46.8257V44.1604H49.6516V45.2135ZM41.0421 23.0131H53.187V25.6206H48.7284V36.8361H45.5038V25.6206H41.0389L41.0421 23.0131ZM42.0499 39.6275L44.5618 45.2135H43.1991L42.703 44.0171H40.1001L39.604 45.2135H38.2758L40.7877 39.6275H42.0499ZM27.1827 26.2313C27.8396 25.1464 28.7875 24.2641 29.9207 23.6829C31.1382 23.0604 32.4917 22.7458 33.8612 22.7669C35.0002 22.7548 36.1302 22.9666 37.1863 23.39C38.1536 23.7775 39.0145 24.3872 39.6982 25.1689L37.6259 27.0631C37.1706 26.5657 36.6143 26.1696 35.9935 25.9011C35.3727 25.6326 34.7016 25.4978 34.0245 25.5054C33.2003 25.49 32.3853 25.6796 31.6539 26.0568C30.9773 26.4118 30.4181 26.9526 30.0431 27.6145C29.6487 28.3211 29.4494 29.1186 29.4654 29.9261C29.4505 30.7267 29.6498 31.5168 30.0431 32.216C30.4182 32.8746 30.9734 33.4146 31.6445 33.7737C32.3622 34.1584 33.168 34.3527 33.9836 34.3376C34.8577 34.352 35.7214 34.1485 36.4955 33.7456V29.6956H39.4407V35.3033C38.6487 35.8874 37.759 36.3282 36.8127 36.6056C35.8395 36.905 34.8267 37.0583 33.8078 37.0604C32.4499 37.0821 31.1082 36.7661 29.905 36.1414C28.7799 35.5569 27.8399 34.6749 27.189 33.593C26.543 32.471 26.2033 31.2012 26.2033 29.909C26.2033 28.6169 26.543 27.347 27.189 26.225L27.1827 26.2313ZM24.3757 40.9235C24.6386 40.4851 25.0205 40.1288 25.4778 39.8955C25.9621 39.645 26.5015 39.5176 27.0477 39.5247C27.5056 39.518 27.9603 39.6016 28.3853 39.7708C28.7742 39.9277 29.1197 40.1744 29.3932 40.4905L28.5611 41.2538C28.3777 41.0538 28.1535 40.8948 27.9034 40.7874C27.6533 40.6799 27.383 40.6265 27.1105 40.6307C26.7825 40.6259 26.4586 40.7031 26.1685 40.855C25.8961 40.9965 25.6704 41.2128 25.5186 41.4781C25.3602 41.7642 25.2801 42.0864 25.2862 42.4127C25.2801 42.739 25.3602 43.0613 25.5186 43.3473C25.6701 43.6107 25.8931 43.8266 26.1622 43.9704C26.4512 44.1256 26.7757 44.204 27.1042 44.1978C27.4562 44.204 27.8041 44.1215 28.1152 43.9579V42.3224H29.299V44.5904C28.9794 44.825 28.6215 45.0031 28.2408 45.1169C27.8492 45.2367 27.4418 45.2976 27.032 45.2976C26.4856 45.3069 25.9456 45.1794 25.4621 44.9268C25.0087 44.6914 24.6304 44.3354 24.3694 43.8988C24.1101 43.4452 23.9739 42.9326 23.9739 42.4111C23.9739 41.8897 24.1101 41.3771 24.3694 40.9235H24.3757ZM21.3049 39.6182H22.6016V45.2041H21.3049V39.6182ZM19.5371 43.8801C19.2764 44.3026 18.898 44.6413 18.4476 44.8552C17.9449 45.0962 17.3919 45.2157 16.8337 45.2041H14.2873V39.6275H16.8337C17.3917 39.6174 17.9444 39.7369 18.4476 39.9765C18.8973 40.1914 19.2754 40.5298 19.5371 40.9516C19.7925 41.3997 19.9267 41.9057 19.9267 42.4205C19.9267 42.9353 19.7925 43.4413 19.5371 43.8894V43.8801Z" fill="#E42314"></path>
</g>
<path d="M93.8809 34.2246C93.8809 35.8327 93.5716 37.1771 92.9531 38.2578C92.3411 39.332 91.4525 40.1426 90.2871 40.6895C89.1217 41.2298 87.7188 41.5 86.0781 41.5H82.0352V27.2227H86.5176C88.015 27.2227 89.3138 27.4896 90.4141 28.0234C91.5143 28.5508 92.3672 29.3353 92.9727 30.377C93.5781 31.4121 93.8809 32.6947 93.8809 34.2246ZM90.7363 34.3027C90.7363 33.248 90.5801 32.3822 90.2676 31.7051C89.9616 31.0215 89.5059 30.5169 88.9004 30.1914C88.3014 29.8659 87.5592 29.7031 86.6738 29.7031H85.0625V39H86.3613C87.8392 39 88.9362 38.6061 89.6523 37.8184C90.375 37.0306 90.7363 35.8587 90.7363 34.3027ZM96.8398 41.5V27.2227H99.8672V41.5H96.8398ZM108.881 33.4824H114.545V40.8848C113.796 41.1322 113.018 41.3307 112.211 41.4805C111.404 41.6237 110.489 41.6953 109.467 41.6953C108.048 41.6953 106.843 41.4154 105.854 40.8555C104.864 40.2956 104.112 39.4688 103.598 38.375C103.083 37.2812 102.826 35.9368 102.826 34.3418C102.826 32.8444 103.113 31.5488 103.686 30.4551C104.265 29.3613 105.108 28.515 106.215 27.916C107.328 27.3171 108.686 27.0176 110.287 27.0176C111.042 27.0176 111.788 27.099 112.523 27.2617C113.259 27.4245 113.926 27.6361 114.525 27.8965L113.52 30.3184C113.083 30.097 112.585 29.9115 112.025 29.7617C111.465 29.612 110.88 29.5371 110.268 29.5371C109.389 29.5371 108.624 29.7389 107.973 30.1426C107.328 30.5462 106.827 31.1126 106.469 31.8418C106.117 32.5645 105.941 33.4173 105.941 34.4004C105.941 35.3314 106.068 36.1582 106.322 36.8809C106.576 37.597 106.977 38.1602 107.523 38.5703C108.07 38.974 108.783 39.1758 109.662 39.1758C110.092 39.1758 110.453 39.1562 110.746 39.1172C111.046 39.0716 111.326 39.026 111.586 38.9805V36.002H108.881V33.4824ZM117.953 41.5V27.2227H120.98V41.5H117.953ZM130.082 41.5H127.055V29.7422H123.178V27.2227H133.959V29.7422H130.082V41.5ZM144.896 41.5L143.861 38.1016H138.656L137.621 41.5H134.359L139.398 27.1641H143.1L148.158 41.5H144.896ZM143.139 35.5625L142.104 32.2422C142.038 32.0208 141.951 31.7376 141.84 31.3926C141.736 31.041 141.628 30.6862 141.518 30.3281C141.413 29.9635 141.329 29.6478 141.264 29.3809C141.199 29.6478 141.107 29.9798 140.99 30.377C140.88 30.7676 140.772 31.1387 140.668 31.4902C140.564 31.8418 140.489 32.0924 140.443 32.2422L139.418 35.5625H143.139ZM149.965 41.5V27.2227H152.992V39H158.783V41.5H149.965Z" fill="#D31F12"></path>
<defs>
<clipPath id="clip0_6300_33229">
<rect fill="white" height="68" width="68"></rect>
</clipPath>
</defs>
</svg>