<?xml version="1.0" encoding="utf-8"?>
<!-- Generator: Adobe Illustrator 19.0.0, SVG Export Plug-In . SVG Version: 6.00 Build 0)  -->
<svg version="1.1" id="layer" xmlns="http://www.w3.org/2000/svg" xmlns:xlink="http://www.w3.org/1999/xlink" x="0px" y="0px"
	 viewBox="-153 -46 652 652" style="enable-background:new -153 -46 652 652;" xml:space="preserve">
<style type="text/css">
	.st0{filter:url(#Adobe_OpacityMaskFilter);}
	.st1{fill:#FFFFFF;}
	.st2{mask:url(#b_1_);fill:#259BFF;}
</style>
<defs>
	<filter id="Adobe_OpacityMaskFilter" filterUnits="userSpaceOnUse" x="-124" y="28.6" width="595.9" height="500">
		<feColorMatrix  type="matrix" values="1 0 0 0 0  0 1 0 0 0  0 0 1 0 0  0 0 0 1 0"/>
	</filter>
</defs>
<mask maskUnits="userSpaceOnUse" x="-124" y="28.6" width="595.9" height="500" id="b_1_">
	<g class="st0">
		<path id="a_1_" class="st1" d="M-124,28.6h595.9v499.8H-124V28.6z"/>
	</g>
</mask>
<path class="st2" d="M471.9,503.6l-595.9,25v-500h595.9V503.6"/>
<path class="st1" d="M-41.5,446.1c9.2,0,12.6-5.1,12.6-10c0-12.7-20.2-8.3-20.2-16c0-3.2,3-5.4,7-5.4c3.7,0,7.3,1.2,9.9,4.1l2.6-3.1
	c-2.9-3-6.9-4.8-12.1-4.8c-6.8,0-11.8,3.9-11.8,9.5c0,12.2,20.2,7.3,20.2,16.1c0,2.7-1.9,5.9-8,5.9c-4.1,0-8-1.8-10.7-4.9l-2.6,3.3
	C-51.8,443.8-47.4,446.1-41.5,446.1 M30.7,445.5v-30.3h10.8v-3.8H15.7v3.8h10.8v30.3H30.7 M102.1,446.1c9.3,0,14-5.4,14-13.9v-20.8
	h-4.3v20.8c0,6.2-3.4,10.2-9.7,10.2c-6.3,0-9.6-3.9-9.6-10.2v-20.8h-4.3v20.9C88.1,440.6,92.9,446.1,102.1,446.1 M176.6,441.7h-7.4
	v-26.6h7.4c8.4,0,13.1,5.9,13.1,13.3C189.7,435.8,184.9,441.7,176.6,441.7z M176.6,445.5c10.6,0,17.5-7.3,17.5-17
	c0-9.7-6.9-17.1-17.5-17.1H165v34.1C165,445.5,176.6,445.5,176.6,445.5z M241.7,445.5h4.2v-34.1h-4.2V445.5z M310.5,442.3
	c-7.7,0-12.5-5.9-12.5-13.9c0-8,4.9-13.9,12.5-13.9c7.6,0,12.6,5.9,12.6,13.9C323.1,436.4,318.1,442.3,310.5,442.3z M310.5,446.1
	c10.1,0,17-7.6,17-17.7c0-10.1-6.9-17.7-17-17.7s-16.9,7.6-16.9,17.7C293.5,438.5,300.4,446.1,310.5,446.1z M386.1,446.1
	c9.2,0,12.6-5.1,12.6-10c0-12.7-20.2-8.3-20.2-16c0-3.2,3-5.4,7-5.4c3.7,0,7.3,1.2,9.9,4.1l2.6-3.1c-2.9-3-6.9-4.8-12.1-4.8
	c-6.8,0-11.8,3.9-11.8,9.5c0,12.2,20.2,7.3,20.2,16.1c0,2.7-1.9,5.9-8,5.9c-4.1,0-8-1.8-10.7-4.9l-2.6,3.3
	C375.8,443.8,380.2,446.1,386.1,446.1 M282.2,340l-0.1,37.8h-40l-147.7,0.4v0H-25.2c-0.4,0-0.9,0-1.3,0c-4.5,0-15.7-0.9-23.7-9.4
	c-8.9-9.4-9.1-20.8-9.1-22.6l0-48.2c-0.1-2.4-0.1-14.5,9-24.4c7.5-8.2,19.3-8.8,22.7-8.8l164.4-0.2v71.7h96.7v-71.1h48.7l-0.2,33.5
	l46.8-33.5h64.4l-67.2,55.6l67.9,57h-66.6L282.2,340z M337.9,320.8l76.4-63.2h-87.9l-36.7,26.3l0.1-26.3h-63.9v71.1h-81.5v-71.7
	l-172,0.2c-4.2,0-18.7,0.8-28.3,11.3c-10.8,11.7-11.2,25.5-11,29.7l0,48c0,2.8,0.4,16.5,11.2,27.8c10.1,10.6,23.8,11.8,29.2,11.8
	l128.5,0v0l147.7-0.4h40l0.1-29.2l34.8,29.2h90.2C414.8,385.4,337.9,320.8,337.9,320.8z"/>
<path class="st1" d="M86.9,272.4v26.5H-11c0,0-2.9-0.2-4.7,1.8c-1.7,1.9-1.5,4.4-1.5,4.4l0,3.6H86.7v26H-17.3l0,3.6
	c0,0,0.1,2.6,1.7,4c2.2,1.9,4.2,1.7,4.2,1.7h98.3v26.5H-25.4c0,0-11.8,0.9-19.3-7c-7.2-7.7-7-17.3-7-17.3l0-48.5
	c0,0-0.7-10.7,7-19.1c6.2-6.7,17.5-6.4,17.5-6.4L86.9,272.4 M94.9,272.2h34.3v71.7h105.4v26.7H94.9V272.2 M331.3,272.8h40.9l-58,48
	l59,49.5h-43l-55.4-46.4l-0.1,46.4h-33.6v-97.4h33.6l-0.2,40.8L331.3,272.8"/>
</svg>
