<?xml version="1.0" encoding="utf-8"?>
<!-- Generator: Adobe Illustrator 19.2.1, SVG Export Plug-In . SVG Version: 6.00 Build 0)  -->
<svg version="1.1" id="layer" xmlns="http://www.w3.org/2000/svg" xmlns:xlink="http://www.w3.org/1999/xlink" x="0px" y="0px"
	 viewBox="0 0 652 652" style="enable-background:new 0 0 652 652;" xml:space="preserve">
<style type="text/css">
	.st0{fill:url(#SVGID_1_);}
	.st1{fill:url(#SVGID_2_);}
</style>
<path d="M94.7,378.4c-3,0-5.4-2.4-5.4-5.4c0-3,2.4-5.4,5.4-5.4c3,0,5.4,2.4,5.4,5.4C100.1,376,97.7,378.4,94.7,378.4 M94.7,366.3
	c-3.7,0-6.7,3-6.7,6.8c0,3.7,3,6.8,6.7,6.8c3.7,0,6.8-3,6.8-6.8C101.4,369.3,98.4,366.3,94.7,366.3 M119.3,273.7h67.1v15.2h-49.6
	V311h33v15.2h-33v24.8h51.2v15.2h-68.6V273.7z M183,300.4h17.8l15.6,45.9l14.5-45.9h17.3l-24,65.8h-16L183,300.4z M245.6,333.5
	c0-20.1,13.9-34.3,33.9-34.3c19.8,0,33.7,14.2,33.7,34.3c0,19.8-14.2,34-34.2,34C259.2,367.5,245.6,353.6,245.6,333.5z M295.6,333.9
	v-0.6c0-12.5-6.1-20.1-16.2-20.1c-10.2,0-16.3,7.5-16.3,20.1v0.6c0,12.3,6,19.5,16,19.5C289.3,353.4,295.6,346.2,295.6,333.9z
	 M321.1,272.4h17.4v93.8h-17.4V272.4z M348.4,339.9v-39.5h17.3v38.5c0,8.8,4.2,13.9,12,13.9c9.1,0,12.8-7.7,12.8-19v-33.5h17.3v65.8
	h-17.3v-9.3c-3.5,6.8-9.5,10.6-18,10.6C357.6,367.5,348.4,356.9,348.4,339.9z M423.6,348.8v-34.4h-9.3v-13.9h9.3V288l16.9-9.5v21.9
	h13v13.9h-13.1v32.8c0,3.2,1.5,4.6,4.7,4.7h7.7v14.4h-13.4C426.7,365.6,423.9,359.7,423.6,348.8z M461.3,274h18v16.9h-18V274z
	 M461.6,300.4h17.4v65.8h-17.4V300.4z M486.9,333.5c0-20.1,13.9-34.3,33.9-34.3c19.8,0,33.7,14.2,33.7,34.3c0,19.8-14.2,34-34.2,34
	C500.6,367.5,486.9,353.6,486.9,333.5z M537,333.9v-0.6c0-12.5-6.1-20.1-16.2-20.1c-10.2,0-16.3,7.5-16.3,20.1v0.6
	c0,12.3,6,19.5,16,19.5C530.7,353.4,537,346.2,537,333.9z M562.3,300.4h17.3v10.7c3.5-7.7,9.9-12.1,19.2-12.1
	c14.4,0,22.9,9.6,22.9,27.7v39.5h-17.3v-38.5c0-9.2-3.5-13.9-11.6-13.9c-8.2,0-13.2,6.7-13.2,19v33.5h-17.3L562.3,300.4L562.3,300.4
	z M92.1,371.9h-1v-0.7H94v0.7h-1v2.9h-0.9C92.1,374.8,92.1,371.9,92.1,371.9z M94.3,371.3h1.3l0.6,2.3l0.7-2.3h1.3v3.5h-0.8v-2.8
	l-0.9,2.8h-0.7l-0.9-2.8v2.8h-0.7V371.3L94.3,371.3z M83.7,316.7c5.4,0.2,11.3,0,17.8-0.5c-0.9-13.1-5.2-24-11.6-32.4
	c0.3,2.3,0.5,4.7,0.5,7.1C90.3,300.3,87.9,309.1,83.7,316.7z M81.4,320.5c-9.6,14.4-26,23.9-44.6,23.9c-1.3,0-2.6-0.1-3.9-0.2
	c-4.8,7.3-7.8,15.4-11.2,23c33.4,17.8,76.5-1,79.8-46.4C94,320.3,87.4,320.2,81.4,320.5z"/>
<radialGradient id="SVGID_1_" cx="453.8783" cy="344.8956" r="45.5441" fx="408.4362" fy="347.9427" gradientTransform="matrix(-0.8331 -0.5531 0.4978 -0.7498 262.4344 799.6368)" gradientUnits="userSpaceOnUse">
	<stop  offset="0.1698" style="stop-color:#ECECEC"/>
	<stop  offset="0.2146" style="stop-color:#D6D6D6"/>
	<stop  offset="0.3543" style="stop-color:#969696"/>
	<stop  offset="0.4875" style="stop-color:#606060"/>
	<stop  offset="0.6108" style="stop-color:#373737"/>
	<stop  offset="0.722" style="stop-color:#191919"/>
	<stop  offset="0.8171" style="stop-color:#060606"/>
	<stop  offset="0.8851" style="stop-color:#000000"/>
</radialGradient>
<path class="st0" d="M21.7,269.9c9.3,20.9,16.2,45.4,62,46.9c4.2-7.7,6.7-16.5,6.7-25.9c0-2.4-0.2-4.7-0.5-7.1
	C74.1,263.1,45.4,257.2,21.7,269.9z"/>
<radialGradient id="SVGID_2_" cx="346.8721" cy="541.7015" r="19.1486" fx="336.3685" fy="541.9243" gradientTransform="matrix(-0.4226 -0.9063 2.3873 -1.1132 -1089.4366 1249.8126)" gradientUnits="userSpaceOnUse">
	<stop  offset="0.1155" style="stop-color:#ECECEC"/>
	<stop  offset="0.1694" style="stop-color:#E1E1E1"/>
	<stop  offset="0.2654" style="stop-color:#C2C2C2"/>
	<stop  offset="0.3924" style="stop-color:#909090"/>
	<stop  offset="0.5455" style="stop-color:#4C4C4C"/>
	<stop  offset="0.6987" style="stop-color:#000000"/>
</radialGradient>
<path class="st1" d="M81.4,320.5c-27.5,1.4-40.5,11.4-48.5,23.8c1.3,0.1,2.6,0.2,3.9,0.2C55.4,344.4,71.8,334.9,81.4,320.5z"/>
</svg>
