<svg width="182" height="30" viewBox="0 0 182 30" fill="none" xmlns="http://www.w3.org/2000/svg">
<g clip-path="url(#clip0)">
<path d="M0 23.6577V30H17.8341L20.5332 23.6577H0Z" fill="#0099FA"/>
<path d="M0 15.9866V22.4296L22.4126 19.2886L25.3316 12.4229L0 15.9866Z" fill="#0099FA"/>
<path d="M0 8.07383V14.7181L27.371 7.67114L30.6299 0L0 8.07383Z" fill="#0099FA"/>
<path d="M16.4948 19.6511C16.6877 19.6205 16.8635 19.5215 16.9903 19.3721C17.1172 19.2226 17.1869 19.0324 17.1869 18.8357C17.1869 18.639 17.1172 18.4488 16.9903 18.2993C16.8635 18.1498 16.6877 18.0509 16.4948 18.0203C16.3019 18.0509 16.1262 18.1498 15.9993 18.2993C15.8725 18.4488 15.8027 18.639 15.8027 18.8357C15.8027 19.0324 15.8725 19.2226 15.9993 19.3721C16.1262 19.5215 16.3019 19.6205 16.4948 19.6511Z" fill="#0099FA"/>
<path d="M43.946 18.5238H49.944L51.9033 13.8124H43.946V10.5506H53.2829L55.4022 5.51708L55.4222 5.47681H38.0879V27.0204H55.4422V21.9466H43.946V18.5238Z" fill="#090A0B"/>
<path d="M112.183 5.47659H103.006V27.0202H109.004V20.8591H111.963C114.346 20.9822 116.699 20.2708 118.621 18.8457C119.464 18.1637 120.134 17.2895 120.576 16.2953C121.017 15.301 121.217 14.2152 121.16 13.1276C121.214 12.0688 121.025 11.0117 120.609 10.0378C120.193 9.06388 119.561 8.19912 118.761 7.51015C116.884 6.05367 114.547 5.33123 112.183 5.47659ZM114.182 15.4229C113.478 15.9253 112.624 16.1672 111.763 16.1075H108.944V10.49H111.723C112.62 10.4399 113.507 10.6952 114.242 11.2148C114.532 11.4614 114.763 11.7703 114.919 12.1187C115.075 12.4672 115.151 12.8463 115.142 13.2283C115.174 13.6396 115.11 14.0528 114.953 14.4342C114.797 14.8156 114.553 15.1544 114.242 15.4229H114.182Z" fill="#090A0B"/>
<path d="M129.077 5.47681H123.139V27.0204H136.254L138.454 21.7855H129.077V5.47681Z" fill="#090A0B"/>
<path d="M148.55 5.31567L140.893 23.5573L139.453 27.0204H145.691L147.211 23.1747H155.468L157.027 27.0204H163.385L154.268 5.31567H148.55ZM148.95 18.5237L151.369 12.4835L153.748 18.5237H148.95Z" fill="#090A0B"/>
<path d="M175.362 5.47681L170.924 13.3292L166.525 5.47681H159.768L167.905 18.9466V27.0204H173.863V18.8661L182 5.47681H175.362Z" fill="#090A0B"/>
<path d="M72.9562 5.47681L68.0978 19.1077L63.2394 5.47681H56.6016L65.2787 27.1815H70.7769L79.474 5.47681H72.9562Z" fill="#090A0B"/>
<path d="M89.4894 5.09375C87.2908 5.09375 85.1415 5.7503 83.3135 6.98039C81.4854 8.21047 80.0606 9.95883 79.2192 12.0044C78.3779 14.0499 78.1577 16.3008 78.5866 18.4723C79.0156 20.6439 80.0743 22.6386 81.629 24.2042C83.1836 25.7698 85.1643 26.836 87.3207 27.2679C89.4771 27.6999 91.7122 27.4782 93.7434 26.6309C95.7747 25.7836 97.5108 24.3487 98.7323 22.5078C99.9538 20.6668 100.606 18.5025 100.606 16.2884C100.606 13.3194 99.4345 10.472 97.3498 8.37258C95.2651 6.27318 92.4376 5.09375 89.4894 5.09375ZM89.4894 22.1676C88.3347 22.1676 87.206 21.8228 86.2459 21.1768C85.2859 20.5307 84.5376 19.6125 84.0957 18.5383C83.6538 17.464 83.5382 16.2819 83.7635 15.1414C83.9887 14.001 84.5448 12.9534 85.3612 12.1312C86.1777 11.3089 87.218 10.749 88.3504 10.5222C89.4829 10.2953 90.6567 10.4117 91.7235 10.8567C92.7903 11.3017 93.7021 12.0552 94.3436 13.0221C94.9851 13.9889 95.3275 15.1256 95.3275 16.2884C95.3222 17.8441 94.7048 19.3344 93.6105 20.4326C92.5162 21.5308 91.0343 22.1474 89.4894 22.1474V22.1676Z" fill="#090A0B"/>
</g>
<defs>
<clipPath id="clip0">
<rect width="182" height="30" fill="white"/>
</clipPath>
</defs>
</svg>
