<svg width="128" height="29" viewBox="0 0 128 29" fill="none" xmlns="http://www.w3.org/2000/svg">
<g clip-path="url(#clip0_51_490)">
<path d="M27.7712 13.8268H14.3608V18.598H22.08C21.3414 20.1693 20.371 21.3244 19.169 22.063C17.9669 22.8017 16.4862 23.1711 14.7335 23.1711C12.0373 23.1711 9.76758 22.2746 7.93096 20.485C6.09097 18.6953 5.17433 16.5129 5.17433 13.9342C5.17433 11.3555 6.06075 9.32752 7.83023 7.58491C9.5997 5.84229 11.799 4.97266 14.4246 4.97266C17.4364 4.97266 20.0722 6.17134 22.3319 8.56534L25.9044 5.02639C24.2726 3.26027 22.6072 2.01458 20.9015 1.28933C18.8836 0.429778 16.7179 0 14.3978 0C10.5801 0 7.38366 1.15167 4.80164 3.45837C4.81507 3.53559 4.80164 3.62289 4.76134 3.68669C4.74456 3.86464 4.60354 3.99559 4.42222 4.00231H4.39872C4.01931 4.31792 3.70705 4.69734 3.41493 5.09354C3.35114 5.71134 2.7434 6.15455 2.35056 6.62126C2.27669 6.76564 2.19947 6.91338 2.12224 7.0544C1.90735 7.43381 1.78312 7.83673 1.65553 8.25308C1.53801 8.6392 1.38692 9.00854 1.2459 9.3846C0.953782 10.1669 0.839623 10.9862 0.591157 11.782C0.456852 12.205 0.28897 12.6281 0.262109 13.0746C0.235248 13.5145 0.248678 13.9476 0.17481 14.3841C0.171453 14.411 0.16138 14.4345 0.147949 14.458C0.567654 17.2918 1.48429 20.072 3.18661 22.4055C4.70762 24.4873 6.97403 25.9176 9.32773 26.8813C11.7788 27.8852 14.5959 28.0497 17.1947 27.6233C19.7163 27.2103 22.1472 26.1627 23.8596 24.2153C25.5988 22.2343 26.764 19.8604 27.4086 17.312C27.4422 17.1777 27.5295 17.1038 27.6336 17.0803C27.7511 16.3819 27.8082 15.6701 27.8082 14.9482L27.7712 13.8234V13.8268Z" fill="white"/>
<path d="M27.6936 16.6776C27.4686 18.3833 26.9012 20.0218 25.9946 21.5898C24.7859 23.6816 23.2212 25.2798 21.3007 26.3812C19.3801 27.4825 17.1271 28.0331 14.5417 28.0331C11.775 28.0331 9.30718 27.4321 7.13814 26.2267C5.89246 25.535 4.79451 24.6721 3.84766 23.6413C3.6462 23.4231 5.68764 24.1248 8.86733 24.38C11.4091 24.5848 14.7734 24.4572 17.5636 23.6749C20.3975 22.8758 23.0567 21.2473 24.853 19.7028C26.7535 18.0676 27.7138 16.5399 27.6936 16.6809V16.6776Z" fill="white"/>
<path d="M10.6438 27.573C9.5056 27.3447 8.10546 26.9015 6.67511 26.0285C5.05001 25.038 4.06286 23.9065 3.39133 23.1275C2.95484 22.6171 2.28331 21.8314 1.63865 20.6428C0.970477 19.4106 0.503765 18.0675 0.238512 16.6137C-0.218127 14.1189 -0.0200266 11.6712 0.829456 9.27388C1.43047 7.57827 2.28331 6.09755 3.38798 4.83844C4.11658 4.00574 4.85526 3.40137 4.85526 3.40137C4.85526 3.40137 4.31133 5.82222 3.89162 8.88775C3.29396 13.2292 4.31468 17.1475 4.31468 17.1475C5.01979 19.9948 6.16139 22.0094 6.64824 22.8152C7.99466 25.0447 9.52574 26.5959 10.6438 27.5697V27.573Z" fill="white"/>
<path d="M35.601 3.87793H40.1708L49.2767 27.5795H44.5928L42.7394 22.6975H33.0795L31.1522 27.5795H26.4683L35.601 3.87793ZM37.9111 10.1634L34.7348 18.3023H41.0673L37.9111 10.1634Z" fill="white"/>
<path d="M55.0587 3.87451H59.4505L64.9368 20.4075L70.4769 3.87451H74.8654L78.8375 27.5794H74.4792L71.9409 12.6111L66.9111 27.5794H62.939L57.9529 12.6111L55.3541 27.5794H50.959L55.0587 3.87451Z" fill="white"/>
<path d="M81.1707 3.87451H95.4944L87.0633 23.2447H94.9471V27.5794H80.479L88.8697 8.34017H81.1707V3.87787V3.87451Z" fill="white"/>
<path d="M103.063 3.87451H98.5869V27.5794H103.063V3.87451Z" fill="white"/>
<path d="M106.592 3.87451H111.662L116.638 11.4863L121.624 3.87451H126.687L119.176 15.3677L127.16 27.5794H122.09L116.641 19.2458L111.195 27.5794H106.091L114.099 15.3576L106.592 3.87451Z" fill="white"/>
<path d="M104.745 3.44164C104.701 2.92456 104.077 0.00341797 100.759 0.00341797C97.4421 0.00341797 96.8848 3.44164 96.8848 3.44164C97.1937 3.06894 98.614 2.13552 100.817 2.13552C103.019 2.13552 104.439 3.06894 104.745 3.44164Z" fill="white"/>
</g>
<defs>
<clipPath id="clip0_51_490">
<rect width="127.16" height="28.0296" fill="white"/>
</clipPath>
</defs>
</svg>
