<?xml version="1.0" encoding="utf-8"?>
<!-- Generator: Adobe Illustrator 19.2.1, SVG Export Plug-In . SVG Version: 6.00 Build 0)  -->
<svg version="1.1" id="layer" xmlns="http://www.w3.org/2000/svg" xmlns:xlink="http://www.w3.org/1999/xlink" x="0px" y="0px"
	 viewBox="0 0 652 652" style="enable-background:new 0 0 652 652;" xml:space="preserve">
<style type="text/css">
	.st0{fill:#4BA32E;}
	.st1{fill:#00285A;}
</style>
<g>
	<g>
		<g>
			<path class="st0" d="M171.3,338.3c-9,0-16.8,7.7-16.8,16.8c0,9,7.7,16.8,16.8,16.8c9,0,16.8-7.7,16.8-16.8
				C188,345.4,180.3,338.3,171.3,338.3"/>
			<path class="st1" d="M62.6,206.2c-11.5,0-20.9,10-20.9,23.4c0,13,9.3,22.9,20.9,22.9c11.6,0,20.9-10.3,20.9-22.9
				C83.5,216.7,74.2,206.2,62.6,206.2 M104.4,266c0,27-16.1,44-42.2,44c-19.6,0-36.4-11.2-39.5-28.5h22.8c2.7,6.5,11.1,9,16.7,9
				c14.7,0,21.4-9.6,21.4-24.2v-3.6c-6.2,6-14.5,9.2-23.7,9.2c-21.5,0-39.1-19-39.1-42.4c0-23.6,17.2-42.9,41.9-42.9
				c24.5,0,41.8,19.3,41.8,42.9V266z"/>
			<path class="st1" d="M163.9,206.7c-13.3-2.4-22.1,4.7-22.1,16.3v47.1h-20.9V223c0-23.1,16-39.2,43-35.9V206.7z"/>
			<path class="st1" d="M228,212.2c-3.8-4.6-9.5-7.3-16.1-7.3c-12,0-21.7,9.5-22.1,23.4L228,212.2z M251.5,244.2
				c-4.7,16.6-19.1,27.8-39.4,27.8c-23.1,0-41.7-19-41.7-42.5c0-23.6,18.7-42.8,41.7-42.8c19.6,0,36.1,12.3,40,34.1L194.5,245
				c4.1,5.5,10.3,8.7,17.4,8.7c6.8,0,13.8-3,17.2-9.5H251.5z"/>
			<path class="st1" d="M319.6,212.2c-3.8-4.6-9.5-7.3-16.1-7.3c-12,0-21.7,9.5-22.1,23.4L319.6,212.2z M343,244.2
				c-4.7,16.6-19.1,27.8-39.4,27.8c-23.1,0-41.7-19-41.7-42.5c0-23.6,18.7-42.8,41.7-42.8c19.6,0,36.1,12.3,40,34.1L286.1,245
				c4.1,5.5,10.3,8.7,17.4,8.7c6.8,0,13.8-3,17.2-9.5H343z"/>
			<path class="st1" d="M393.4,186.6c22.8,0,36.2,15,36.2,36.4v47.1h-20.9v-47.6c0-4.6-1.6-15.5-15.3-15.5
				c-9.2,0-15.8,6.3-15.8,15.5v47.6h-20.9V223C356.8,202.3,371.3,186.6,393.4,186.6"/>
			<path class="st1" d="M342,387c-23.9,2.5-36.5-11.9-36.5-34.2V285h20.9v20.7h14.7v18.5h-14.7V353c0,11.4,5.2,15.7,15.7,15V387z"/>
			<path class="st1" d="M392.5,389c-22.8,0-36.2-15-36.2-36.4v-46.9h20.9v47.6c0,4.6,1.6,15.5,15.3,15.5c9.2,0,15.8-6.5,15.8-15.5
				v-47.6h20.9v46.9C429.2,373.4,414.6,389,392.5,389"/>
			<path class="st1" d="M487.4,323.2c-11.6,0-20.9,10.4-20.9,23.4c0,12.6,9.3,22.9,20.9,22.9c11.5,0,20.9-10,20.9-22.9
				C508.2,333.2,498.9,323.2,487.4,323.2 M487.4,389c-24.7,0-41.9-19-41.9-42.5v-77h21v44c6.2-6.5,14.2-9.5,23.7-9.5
				c21.5,0,38.9,19.1,38.9,42.5C529.1,370,511.9,389,487.4,389"/>
			<path class="st1" d="M596.3,329.2c-3.8-4.6-9.5-7.3-16.1-7.3c-12,0-21.7,9.5-22.1,23.4L596.3,329.2z M619.7,361.2
				c-4.7,16.6-19.1,27.8-39.4,27.8c-23.1,0-41.7-19-41.7-42.5c0-23.6,18.7-42.8,41.7-42.8c19.6,0,36.1,12.3,40,34.1L562.8,362
				c4.1,5.5,10.3,8.7,17.4,8.7c6.8,0,13.8-3,17.2-9.5H619.7z"/>
			<path class="st1" d="M53.2,355c0-9.7-7.1-16.8-16.1-16.8c-9,0-16.8,7.7-16.8,16.8c0,9,7.7,16.8,16.8,16.8
				C46.1,371.8,53.2,364.1,53.2,355"/>
			<path class="st1" d="M81.6,338.3c-9,0-16.8,7.7-16.8,16.8c0,9,7.1,16.8,16.8,16.8c9,0,16.8-7.7,16.8-16.8
				C98.4,345.4,90.6,338.3,81.6,338.3"/>
			<path class="st1" d="M126.7,371.8c9,0,16.1-7.7,16.1-16.8c0-9.7-7.1-16.8-16.1-16.8c-9.7,0-16.8,7.7-16.8,16.8
				C110,364.1,117.1,371.8,126.7,371.8"/>
			<path class="st1" d="M233.2,355c0-9.7-7.7-16.8-16.8-16.8c-9,0-16.8,7.7-16.8,16.8c0,9,7.7,16.8,16.8,16.8
				C225.4,371.8,233.2,364.1,233.2,355"/>
			<path class="st1" d="M261.5,338.3c-9,0-16.8,7.7-16.8,16.8c0,9,7.1,16.8,16.8,16.8c9,0,16.8-7.7,16.8-16.8
				C278.3,345.4,270.6,338.3,261.5,338.3"/>
			<polygon class="st1" points="619.8,423.8 21.2,423.8 21.2,425.6 398.3,425.6 619.8,425.6 			"/>
			<polygon class="st1" points="325.3,437.7 330.2,437.7 337.9,452.7 337.9,452.7 337.9,437.7 341.8,437.7 341.8,457.7 336.9,457.7 
				329.2,442.7 329.2,442.7 329.2,457.7 325.3,457.7 			"/>
			<path class="st1" d="M356.6,437.3c6.3,0,9.8,4.3,9.8,10.3c0,6.1-3.5,10.4-9.8,10.4c-6.4,0-9.8-4.3-9.8-10.4
				C346.7,441.5,350.2,437.3,356.6,437.3 M356.6,454.9c4.1,0,5.6-3.6,5.6-7.3c0-3.5-1.6-7.2-5.6-7.2c-4,0-5.6,3.6-5.6,7.2
				C350.9,451.3,352.4,454.9,356.6,454.9"/>
			<polygon class="st1" points="369.5,437.7 373.8,437.7 378.9,453.4 379,453.4 384.1,437.7 388.1,437.7 381.3,457.7 376.4,457.7 
							"/>
			<path class="st1" d="M401,437.3c6.3,0,9.8,4.3,9.8,10.3c0,6.1-3.5,10.4-9.8,10.4c-6.4,0-9.8-4.3-9.8-10.4
				C391.1,441.5,394.6,437.3,401,437.3 M401,454.9c4.1,0,5.6-3.6,5.6-7.3c0-3.5-1.6-7.2-5.6-7.2c-4,0-5.6,3.6-5.6,7.2
				C395.3,451.3,396.9,454.9,401,454.9"/>
			<polygon class="st1" points="415.9,437.7 422.4,437.7 427.1,452.9 427.2,452.9 432,437.7 438.4,437.7 438.4,457.7 434.6,457.7 
				434.6,441.2 434.5,441.2 429.1,457.7 425.2,457.7 419.8,441.2 419.8,441.2 419.8,457.7 415.9,457.7 			"/>
			<path class="st1" d="M450.3,437.7h4.5l7.9,20.1h-4.4l-1.7-4.6h-8.1l-1.8,4.6h-4.2L450.3,437.7z M452.5,441.7L452.5,441.7l-3,8.3
				h5.9L452.5,441.7z"/>
			<polygon class="st1" points="468.1,440.8 462.3,440.8 462.3,437.7 477.8,437.7 477.8,440.8 472.1,440.8 472.1,457.7 468.1,457.7 
							"/>
			<polygon class="st1" points="481.5,437.7 485.5,437.7 485.5,449.9 485.5,457.7 481.5,457.7 			"/>
			<path class="st1" d="M505.9,457.4c-1.5,0.3-3,0.6-4.6,0.6c-6.5,0-11-3.2-11-10c0-6.9,4.2-10.7,11-10.7c1.3,0,3.1,0.3,4.5,0.8
				l-0.3,3.4c-1.5-0.9-2.9-1.1-4.3-1.1c-4.1,0-6.7,3.2-6.7,7.3c0,4.1,2.5,7.2,6.8,7.2c1.6,0,3.5-0.3,4.4-0.8L505.9,457.4z"/>
			<path class="st1" d="M535.4,441.5c-1.5-0.7-3.6-1.1-5.2-1.1c-4.7,0-7.3,3.2-7.3,7.3c0,4.1,2.5,7.2,6.8,7.2c1.1,0,2-0.1,2.7-0.3
				v-5.2h-4.3v-3.2h8.1V457c-2.1,0.6-4.3,1-6.5,1c-6.5,0-11-3.3-11-10c0-6.9,4.2-10.7,11-10.7c2.3,0,4.2,0.3,5.9,0.8L535.4,441.5z"
				/>
			<path class="st1" d="M541.6,437.7h4.3c4.3,0,9.5-0.1,9.5,5.4c0,2.3-1.6,4.3-4.1,4.7v0c1.1,0.1,1.7,1.2,2.1,2.1l3.2,7.9h-4.5
				l-2.4-6.3c-0.6-1.5-1.1-2.1-2.8-2.1h-1.3v8.3h-4V437.7z M545.6,446.2h1.3c2,0,4.3-0.3,4.3-2.8c0-2.4-2.2-2.6-4.3-2.6h-1.3V446.2z
				"/>
			<path class="st1" d="M569.8,437.3c6.3,0,9.8,4.3,9.8,10.3c0,6.1-3.5,10.4-9.8,10.4c-6.4,0-9.8-4.3-9.8-10.4
				C559.9,441.5,563.4,437.3,569.8,437.3 M569.8,454.9c4.1,0,5.6-3.6,5.6-7.3c0-3.5-1.6-7.2-5.6-7.2c-4,0-5.6,3.6-5.6,7.2
				C564.1,451.3,565.7,454.9,569.8,454.9"/>
			<path class="st1" d="M584.6,437.7h4v11.6c0,3.4,1.1,5.7,4.2,5.7c3.1,0,4.2-2.2,4.2-5.7v-11.6h4v12.8c0,5.4-3,7.6-8.2,7.6
				c-5.1,0-8.2-2.2-8.2-7.6V437.7z"/>
			<path class="st1" d="M606.6,437.7h5.1c4.4,0,8.4,1.3,8.4,6.1c0,4.7-3.4,6.4-7.7,6.4h-1.7v7.6h-4V437.7z M610.6,446.9h1.4
				c2,0,3.8-0.7,3.8-3c0-2.3-1.8-3.1-3.8-3.1h-1.4V446.9z"/>
		</g>
	</g>
</g>
</svg>
