<?xml version="1.0" encoding="UTF-8"?> <svg xmlns="http://www.w3.org/2000/svg" height="64.165" viewBox="0 0 308.155 64.165" width="308.155"><g fill="#efb433" transform="translate(-49.113 -342.448)"><path d="m154.581 366.159a1.667 1.667 0 0 0 -.414.23l10.543-23.913-44.594-.028v14.738h4.751v10.778l.006-.006 17.387.011-.005-.005.02-10.777h5.641v26.281h-5.647l-.012-9.908h-17.392v.131h-.057v9.769l-4.692.008v.042h-.016l-.04 14.681 18.6.012c.351.47.747.972 1.188 1.486a18.337 18.337 0 0 0 8.521 6.055 16.226 16.226 0 0 0 5.274.867c.135 0 .269 0 .4-.005.188 0 .376.006.565.006 12.652 0 20.867-8.828 20.867-20.283-.003-15.396-13.158-20.194-20.894-20.17z"></path><path d="m166.878 349.639-3.176 7.849-.369.912c-.027.04-.041.066-.03.067v.01l.013-.009c4.423.37 19.61 3.75 20.381 21.537.3 6.878-1.409 13.762-5.248 18.134h40.8l-.013-14.8-17.312-.075a16.278 16.278 0 0 1 -5.177-.938 14.467 14.467 0 0 1 -4.162-2.8 14.721 14.721 0 0 1 -2.762-4.226 16.937 16.937 0 0 1 -.924-5.251 16.345 16.345 0 0 1 .912-5.145 13.355 13.355 0 0 1 2.833-3.916 17.487 17.487 0 0 1 4.032-2.676 16.594 16.594 0 0 1 5.08-1.008l17.391.018-.168-.2.17.2v-14.842h-.037v-.018l-29.025.018-3.732 7.135z"></path><path d="m194.671 370.344c0 5.35 5.42 7.376 8.763 7.376l11.977.012-.054-.045v-.008l.054.039v-4.1h-12.556l-1.21-.005v-5.5h17.6v-5.19l-15.905.042c-4.018-.004-8.669 1.447-8.669 7.379z"></path><path d="m351.822 359.11h.9v2.627h.385v-2.627h.9v-.324h-2.185z"></path><path d="m357.085 358.786h-.485l-.526 1.427c-.131.372-.236.7-.311.994h-.013c-.074-.307-.175-.631-.3-.994l-.5-1.427h-.486l-.205 2.951h.363l.079-1.266c.026-.442.048-.937.056-1.3h.009c.083.35.2.731.342 1.147l.477 1.4h.289l.521-1.432c.149-.407.271-.774.372-1.12h.013c0 .367.022.862.044 1.274l.074 1.3h.372z"></path><path d="m85.014 358.415h-4.363v24.813.012h4.362v-.012-24.813z"></path><path d="m117.9 383.253-.007-9.912v-3.788h-16.244v3.955.013h11.878v5.4h-11.548a8.237 8.237 0 0 1 -5.921-2.216 7.371 7.371 0 0 1 -1.225-1.513 8.049 8.049 0 0 1 -1.094-4.251 7.9 7.9 0 0 1 2.327-5.886 8.1 8.1 0 0 1 5.921-2.289l13.925-.013h.225l.006.006v-.006-4.318l-.013.013.013-.013h-.013-.292l-13.838.013c-8.122 0-10.833 5.072-11.62 6.9a11.354 11.354 0 0 0 -.426 1.142 14.538 14.538 0 0 0 .306 9.106 12.249 12.249 0 0 0 6.727 6.767 13.373 13.373 0 0 0 4.991.9l15.4-.015h.512z"></path><path d="m49.113 358.446v24.827l3.579-.01v.01h.792v-10.318h17.909v10.318h4.363v-24.828h-4.365v10.175h-17.9v-10.175h-4.378zm3.582.8v.005z"></path><path d="m287.462 358.274c-.052 0-.106 0-.16 0-1.187.06-2.145 1.84-2.379 2.311-.018.034-.037.066-.055.1l-1.561 3.034-6.758 13.081-6.934-13.472-1.35-2.636c-.014-.026-.028-.051-.042-.078a5.69 5.69 0 0 0 -1.433-1.87l-.016-.013-.116-.083q-.048-.033-.1-.063l-.026-.016a2.113 2.113 0 0 0 -.378-.183c-.039-.014-.078-.026-.117-.037l-.046-.012c-.033-.009-.066-.017-.1-.023l-.079-.013c-.025 0-.05-.008-.075-.01-.053 0-.107-.009-.161-.009-.08 0-.157 0-.232.011h-.018a2.268 2.268 0 0 0 -1.431.668c-.015.013-.03.025-.044.039a1.765 1.765 0 0 0 -.2.24 6.7 6.7 0 0 0 -1.069 2.678c-.066.311-5.251 21.35-5.251 21.35h.016l-.016.012h4.9l3.561-17.21 8.318 15.843a2.856 2.856 0 0 0 2.319 1.644h.047.067a3.062 3.062 0 0 0 2.538-1.821l8.217-15.683v.013l3.6 17.21 4.868-.012-5.523-22.576a2.89 2.89 0 0 0 -2.781-2.414z"></path><path d="m305.239 372.965h14.169v-4.3h-14.174z"></path><path d="m299.1 383.3h21.434v-4.3h-17.108v-16.009h17.105v-4.284l-21.436-.015z"></path><path d="m241.636 361.009a5.63 5.63 0 0 0 -.571-.8 3.818 3.818 0 0 0 -2.732-1.615h-.009c-1.853 0-3.047 1.761-3.361 2.286-.029.044-.058.089-.084.134l-3.292 5.5-10.033 16.728h5.4l11.19-18.218 4.322 7.092-6.612.018-1.924 3.127-.692 1.11h.009l-.008.013 11.807-.019 4.177 6.877 5.559.036-.008-.013h.008z"></path><path d="m351.458 375.528c0-.082 0-.164-.005-.244 0-.05-.005-.1-.008-.15a7.022 7.022 0 0 0 -5.77-6.852 10.47 10.47 0 0 0 -2.724-.341h-11.71a3.442 3.442 0 0 1 -2.11-.648 2.155 2.155 0 0 1 -.872-1.828 2.218 2.218 0 0 1 .872-1.837 3.327 3.327 0 0 1 2.111-.684h18.728v-4.289h-18.832a8.042 8.042 0 0 0 -5.315 1.766 6.114 6.114 0 0 0 -2.315 4.562v.058c0 .083-.005.168-.006.252v.125.013a6.2 6.2 0 0 0 2.329 5.046 8.332 8.332 0 0 0 5.419 1.766l11.948-.006c.149 0 .295.013.439.026 1.019.106 3.9.659 3.9 3.507a3.4 3.4 0 0 1 -2.271 2.793c-1.5.586-3.678.41-7.179.41h-14.078v4.289.012l.012-.012h12.808 6.023c.167 0 .329 0 .488-.008.069 0 .136-.006.2-.009l.248-.013.092-.007a9.357 9.357 0 0 0 3.868-1.043 7.221 7.221 0 0 0 3.079-3.355l.011-.026c.047-.1.091-.213.134-.324.021-.055.04-.112.06-.168s.037-.105.055-.159.039-.124.057-.187.033-.112.048-.169.03-.111.043-.167c.019-.076.036-.153.053-.232l.024-.114c.023-.118.043-.237.061-.36a8.357 8.357 0 0 0 .088-1.216v-.046c0-.047-.002-.089-.003-.131z"></path></g></svg> 