<svg data-v-29faf186="" fill="none" id="mascot-logo" viewBox="0 0 26 30" xmlns="http://www.w3.org/2000/svg"><path d="M13.188 10.053c.002.622.098 1.24.284 1.833a6.923 6.923 0 0 1 1.61-1.833 4.238 4.238 0 0 1 2.745-3.968 1.49 1.49 0 0 0 1.787.784c.51-.157.897-.58 1.009-1.104a1.494 1.494 0 0 0 .972-1.87 1.483 1.483 0 0 0-1.86-.977 1.431 1.431 0 0 0-1.453-.32 1.5 1.5 0 0 0-1.02 1.672 6.13 6.13 0 0 0-4.075 5.783Z" data-v-29faf186="" fill="#fff"></path> <path d="M1.894 10.053V1.888h21.598v8.165a4.24 4.24 0 0 1-2.466 3.857 4.2 4.2 0 0 1-4.515-.653 3.653 3.653 0 0 0-.725 1.832 6.066 6.066 0 0 0 6.3.406 6.128 6.128 0 0 0 3.277-5.424V0H0v10.053c.004.622.1 1.24.283 1.833a6.945 6.945 0 0 1 1.61-1.833Z" data-v-29faf186="" fill="#fff"></path> <path d="M18.268 22.9c.506.173 1.065.05 1.453-.319a1.483 1.483 0 0 0 1.86-.977 1.494 1.494 0 0 0-.972-1.87 1.473 1.473 0 0 0-1.015-1.103 1.488 1.488 0 0 0-1.788.782 4.232 4.232 0 0 1-2.735-3.766 4.238 4.238 0 0 1 2.369-4.01 4.196 4.196 0 0 1 4.6.61 3.652 3.652 0 0 0 .726-1.833 6.066 6.066 0 0 0-6.302-.408 6.128 6.128 0 0 0-3.276 5.426 6.195 6.195 0 0 0 4.054 5.8 1.5 1.5 0 0 0 1.026 1.668Zm-6.072-7.473a6.176 6.176 0 0 0-.283-1.832 6.898 6.898 0 0 1-1.61 1.832 4.237 4.237 0 0 1-2.745 3.965 1.487 1.487 0 0 0-1.787-.782 1.477 1.477 0 0 0-1.015 1.102 1.494 1.494 0 0 0-.973 1.87 1.483 1.483 0 0 0 1.861.978c.387.37.947.494 1.452.32a1.5 1.5 0 0 0 1.027-1.67 6.146 6.146 0 0 0 4.073-5.783ZM8.123 4.27a1.48 1.48 0 0 0-1.027-1.673 1.517 1.517 0 0 0-1.452.32 1.479 1.479 0 0 0-1.448.326 1.497 1.497 0 0 0 .56 2.522 1.487 1.487 0 0 0 2.792.32 4.234 4.234 0 0 1 2.737 3.767 4.239 4.239 0 0 1-2.367 4.011 4.197 4.197 0 0 1-4.6-.606 3.35 3.35 0 0 0-.726 1.832 6.078 6.078 0 0 0 6.558.258 6.144 6.144 0 0 0 3-5.868 6.13 6.13 0 0 0-4.027-5.21Z" data-v-29faf186="" fill="#fff"></path> <path clip-rule="evenodd" d="M25.102 13.612a6.94 6.94 0 0 1-1.61 1.832v8.165H1.894v-8.165a4.24 4.24 0 0 1 2.466-3.857 4.2 4.2 0 0 1 4.515.655A3.652 3.652 0 0 0 9.6 10.41a6.066 6.066 0 0 0-6.306-.412 6.128 6.128 0 0 0-3.277 5.43V30h25.367V15.444a6.307 6.307 0 0 0-.283-1.832ZM4.638 28.381l-.018-1.834-.973 1.852h-.195l-.99-1.834-.02 1.816h-.548l.089-3.221h.253l1.318 2.33 1.292-2.33H5.1l.088 3.22h-.55Zm3.894 0h.548l.002-1.834c0-.978-.514-1.423-1.328-1.423-.833 0-1.31.445-1.31 1.423v1.834h.565v-.766h1.523v.766Zm2.62.053a2.044 2.044 0 0 1-1.045-.303l.195-.51c.257.174.558.27.868.279.372 0 .55-.178.55-.392 0-.214-.128-.338-.691-.551-.62-.231-.833-.535-.833-.908 0-.48.39-.925 1.063-.925a1.81 1.81 0 0 1 .888.214l-.178.498a1.517 1.517 0 0 0-.708-.213c-.336 0-.495.177-.495.409 0 .213.177.338.62.498.708.284.92.552.92.978-.003.57-.428.926-1.153.926h-.001Zm2.035-1.658c0 .947.708 1.658 1.788 1.658h.002a2.07 2.07 0 0 0 1.067-.27l-.178-.48c-.289.14-.606.212-.927.21a1.105 1.105 0 0 1-.813-.314 1.116 1.116 0 0 1-.336-.808c0-.658.459-1.12 1.203-1.12.289.015.572.087.832.213l.195-.481a2.25 2.25 0 0 0-1.116-.267c-.938 0-1.717.734-1.717 1.659Zm5.31 1.658c-.974 0-1.698-.712-1.698-1.658 0-.449.18-.878.5-1.19.32-.313.752-.482 1.198-.469.993 0 1.7.694 1.7 1.659 0 .964-.724 1.658-1.699 1.658h-.001Zm3.949-2.74h1.044v-.517h-2.674v.517h1.063v2.687h.567v-2.687Z" data-v-29faf186="" fill="#fff" fill-rule="evenodd"></path> <path d="M7.754 25.659c-.443-.018-.762.248-.762.893v.622h1.523v-.604c-.001-.68-.32-.911-.761-.911Zm10.744-.036c-.299.005-.583.13-.79.347a1.124 1.124 0 0 0-.307.809c-.014.403.192.781.538.987.345.205.774.205 1.119 0 .345-.206.551-.584.538-.987 0-.658-.46-1.156-1.098-1.156Z" data-v-29faf186="" fill="#fff"></path></svg>