<?xml version="1.0" encoding="utf-8"?>
<!-- Generator: Adobe Illustrator 19.0.0, SVG Export Plug-In . SVG Version: 6.00 Build 0)  -->
<svg version="1.1" id="layer" xmlns="http://www.w3.org/2000/svg" xmlns:xlink="http://www.w3.org/1999/xlink" x="0px" y="0px"
	 viewBox="-153 -46 652 652" style="enable-background:new -153 -46 652 652;" xml:space="preserve">
<style type="text/css">
	.st0{fill:url(#SVGID_1_);}
	.st1{fill:url(#SVGID_2_);}
	.st2{fill:url(#SVGID_3_);}
	.st3{fill:url(#SVGID_4_);}
	.st4{fill:url(#SVGID_5_);}
	.st5{fill:url(#SVGID_6_);}
	.st6{fill:url(#SVGID_7_);}
	.st7{fill:url(#SVGID_8_);}
	.st8{fill:url(#SVGID_9_);}
	.st9{fill:url(#SVGID_10_);}
	.st10{fill:url(#SVGID_11_);}
	.st11{fill:url(#SVGID_12_);}
</style>
<linearGradient id="SVGID_1_" gradientUnits="userSpaceOnUse" x1="-138.057" y1="263.9403" x2="460.5824" y2="408.158" gradientTransform="matrix(1 0 0 -1 0 560)">
	<stop  offset="0" style="stop-color:#21E418"/>
	<stop  offset="0.3" style="stop-color:#31B6E9"/>
	<stop  offset="0.9757" style="stop-color:#21E418"/>
</linearGradient>
<path class="st0" d="M-52.4,201.4c-41,0-74.1,33.2-74.1,74.3c0,7.3,1.1,14.6,3.3,21.5c1.4-1.9,2.7-3.8,3.9-5.9
	c5.2-7.6,10.2-15.2,15.2-23l3.7-5.9c1.2-1.9,2.4-3.9,3.5-5.9c2.4-3.9,4.8-7.9,6.9-11.8c1.1-2,2.2-3.9,3.4-6c1.2-2,2.2-3.9,3.3-6
	s2.2-4.1,3.1-6l3-6.1l0.3-0.4c1.6-3.3,5.6-4.6,9-3.1c2.4,1.4,3.9,3.9,3.8,6.8l0,0c0,3.5-0.7,7.2-1,10.7s-0.4,7.2-0.7,10.9
	c-0.3,7.2-0.4,14.6-0.4,21.8s0.4,14.4,1.1,21.4c0.4,3.4,1,6.8,1.6,10.2c0.5,3,1.5,6,2.9,8.7c0.4,0.8,1,1.6,1.6,2.3
	c0.4,0.3,0.1,0.1,0.4,0.1s0.1,0,0.3,0l0.3-0.1h0.1l0,0l0.4-0.1l0,0c0.1-0.1,0.4-0.3,0.5-0.4c1.1-0.8,2-1.8,3-2.9
	c2.2-2.6,4.2-5.2,6-8c1.9-2.9,3.7-6,5.4-9.1c3.5-6.3,6.8-12.7,9.9-19.2c1.5-3.3,3.1-6.5,4.6-9.9c1.5-3.3,3-6.7,4.4-9.9
	c1.4-3.4,5.3-5,8.7-3.7c2.2,0.8,3.7,2.7,4.1,5l0,0c0,0.8,0.1,1.9,0.3,3l0.4,3.1c0.3,2,0.5,4.1,1,6.1c0.7,4.1,1.5,8.2,2.6,12.1
	s2.4,7.9,4.1,11.7c1.6,3.8,3.7,7.3,6.3,10.6l0,0c0.5,0.8,0.4,1.9-0.3,2.4s-1.6,0.5-2.2,0c-3.4-3-6.4-6.4-9-10.1s-4.8-7.6-6.8-11.6
	c-1.4-2.7-2.4-5.4-3.7-8.2c-0.8,1.6-1.5,3.3-2.3,4.8c-3.3,6.7-6.5,13.3-10.3,20c-1.9,3.5-3.8,6.8-6,10.1c-2.2,3.4-4.6,6.7-7.2,9.7
	c-1.5,1.8-3.3,3.3-5,4.8c-0.5,0.4-1.1,0.8-1.8,1.1l-1.2,0.7l-0.7,0.3h-0.1l-0.4,0.1h-0.3l-0.5,0.1c-0.4,0.1-0.7,0.3-1.1,0.3
	c-0.8,0.1-1.6,0.3-2.4,0.4c-1.8,0.1-3.7-0.1-5.3-0.7s-3.1-1.5-4.5-2.6c-2-1.8-3.8-3.9-5-6.4c-1.9-3.8-3.3-7.9-4.1-12.1
	c-0.8-3.8-1.4-7.8-1.8-11.6c-0.8-7.6-1.1-15.1-1.2-22.7c0-3.5,0-7.2,0-10.7c-1.4,2.6-2.7,5.2-4.1,7.6c-1.1,2-2.2,4.1-3.4,6.1
	l-3.4,6.1c-4.6,8.2-9.4,16.2-14.4,24.2c-3.1,5.2-6.4,10.3-9.7,15.4c22.4,34.3,68.4,43.8,102.7,21.4c34.3-22.4,43.8-68.4,21.4-102.7
	C-4.1,214-27.3,201.4-52.4,201.4z"/>
<linearGradient id="SVGID_2_" gradientUnits="userSpaceOnUse" x1="-131.5587" y1="236.9664" x2="467.0807" y2="381.1841" gradientTransform="matrix(1 0 0 -1 0 560)">
	<stop  offset="0" style="stop-color:#21E418"/>
	<stop  offset="0.3" style="stop-color:#31B6E9"/>
	<stop  offset="0.9757" style="stop-color:#21E418"/>
</linearGradient>
<path class="st1" d="M86,302.3v-49.3h-1.2L69,302.5h-3.9l-15.8-49.4h-1.2v49.3h-6.5v-54.4h11.6l14,43.3l13.7-43.3h11.7v54.6H86
	V302.3z"/>
<linearGradient id="SVGID_3_" gradientUnits="userSpaceOnUse" x1="-129.4584" y1="228.2482" x2="469.181" y2="372.4659" gradientTransform="matrix(1 0 0 -1 0 560)">
	<stop  offset="0" style="stop-color:#21E418"/>
	<stop  offset="0.3" style="stop-color:#31B6E9"/>
	<stop  offset="0.9757" style="stop-color:#21E418"/>
</linearGradient>
<path class="st2" d="M102.1,255v-7.1h7.1v7.1H102.1z M102.2,302.3v-42h6.9v42H102.2z"/>
<linearGradient id="SVGID_4_" gradientUnits="userSpaceOnUse" x1="-126.484" y1="215.9012" x2="472.1555" y2="360.1189" gradientTransform="matrix(1 0 0 -1 0 560)">
	<stop  offset="0" style="stop-color:#21E418"/>
	<stop  offset="0.3" style="stop-color:#31B6E9"/>
	<stop  offset="0.9757" style="stop-color:#21E418"/>
</linearGradient>
<path class="st3" d="M151.2,288.6c0,8.2-3.1,14.4-16.7,14.4c-17.1,0-18.1-9.8-18.1-21.8c0-12,1-21.8,18.1-21.8
	c13.6,0,16.7,6.3,16.7,14.4h-6.5c0-6.7-2.3-9.9-10.2-9.9c-10.6,0-11.2,5.7-11.2,17.1c0,11.4,0.5,17.1,11.2,17.1
	c7.9,0,10.2-3.3,10.2-9.9L151.2,288.6z"/>
<linearGradient id="SVGID_5_" gradientUnits="userSpaceOnUse" x1="-124.955" y1="209.5542" x2="473.6845" y2="353.7719" gradientTransform="matrix(1 0 0 -1 0 560)">
	<stop  offset="0" style="stop-color:#21E418"/>
	<stop  offset="0.3" style="stop-color:#31B6E9"/>
	<stop  offset="0.9757" style="stop-color:#21E418"/>
</linearGradient>
<path class="st4" d="M164.7,264.8c3.3-2,7.5-4.8,11.4-4.9c0.8-0.1,1.6-0.1,2.4-0.1c1.1,0,2,0,3.3,0.1l-0.5,5c-1.1-0.1-2-0.1-3-0.1
	c-0.8,0-1.6,0-2.6,0.1c-3.7,0.1-7.6,2.9-10.5,4.5v33.1h-6.9v-42.2h5.4L164.7,264.8z"/>
<linearGradient id="SVGID_6_" gradientUnits="userSpaceOnUse" x1="-122.7272" y1="200.307" x2="475.9122" y2="344.5247" gradientTransform="matrix(1 0 0 -1 0 560)">
	<stop  offset="0" style="stop-color:#21E418"/>
	<stop  offset="0.3" style="stop-color:#31B6E9"/>
	<stop  offset="0.9757" style="stop-color:#21E418"/>
</linearGradient>
<path class="st5" d="M220.7,281.4c0,12-1,21.8-18.4,21.8s-18.4-9.8-18.4-21.8c0-12,1-21.8,18.4-21.8S220.7,269.4,220.7,281.4z
	 M190.9,281.4c0,11.4,0.5,17.1,11.4,17.1s11.4-5.6,11.4-17.1s-0.5-17.1-11.4-17.1S190.9,269.8,190.9,281.4L190.9,281.4z"/>
<linearGradient id="SVGID_7_" gradientUnits="userSpaceOnUse" x1="-118.7972" y1="183.9939" x2="479.8422" y2="328.2116" gradientTransform="matrix(1 0 0 -1 0 560)">
	<stop  offset="0" style="stop-color:#21E418"/>
	<stop  offset="0.3" style="stop-color:#31B6E9"/>
	<stop  offset="0.9757" style="stop-color:#21E418"/>
</linearGradient>
<path class="st6" d="M233.4,312.1c2.6,0.3,6,0.4,9.8,0.4c10.6,0,12-2.9,12.1-14c-3.1,1.8-7.5,3.8-12,3.9c-15.4,0.3-16.3-8-16.3-21.1
	s0.8-21.8,15.6-21.8c5,0,9.7,2.3,13.3,4.6l0.7-3.8h5.4v37.3c0,15.1-3.4,19.7-17.3,19.7c-4.1,0-8.2-0.4-12.1-1L233.4,312.1z
	 M255.3,268c-3-1.9-6.8-3.8-10.5-3.8c-10.2,0-10.9,5.7-10.9,17.1c0,11.2,0.7,16.5,10.9,16.5c3.7,0,7.6-2,10.5-3.5V268z"/>
<linearGradient id="SVGID_8_" gradientUnits="userSpaceOnUse" x1="-117.8076" y1="179.886" x2="480.8318" y2="324.1037" gradientTransform="matrix(1 0 0 -1 0 560)">
	<stop  offset="0" style="stop-color:#21E418"/>
	<stop  offset="0.3" style="stop-color:#31B6E9"/>
	<stop  offset="0.9757" style="stop-color:#21E418"/>
</linearGradient>
<path class="st7" d="M299.8,302.3l-0.7-3.8c-3.4,2.2-7.9,4.6-12.8,4.6c-15.4,0.3-16.3-8.4-16.3-21.8c0-13.3,0.8-21.8,16.1-21.8
	c5,0,9.5,2.3,12.9,4.4l0.7-3.7h5.4v42H299.8z M298.4,267.8c-2.9-1.6-6.8-3.5-10.5-3.5c-10.2,0-10.9,5.7-10.9,17.1
	c0,11.4,0.7,17.1,10.9,17.1c3.7,0,7.5-2,10.5-3.8V267.8z"/>
<linearGradient id="SVGID_9_" gradientUnits="userSpaceOnUse" x1="-115.0407" y1="168.4012" x2="483.5987" y2="312.6189" gradientTransform="matrix(1 0 0 -1 0 560)">
	<stop  offset="0" style="stop-color:#21E418"/>
	<stop  offset="0.3" style="stop-color:#31B6E9"/>
	<stop  offset="0.9757" style="stop-color:#21E418"/>
</linearGradient>
<path class="st8" d="M319.8,264c3.1-1.9,7.3-4.2,11.8-4.4c7.1-0.3,10.7,1.6,12.5,4.6c3.3-2,7.6-4.5,12.4-4.6
	c14.4-0.4,15.4,6.9,15.4,17.1v25.6h-6.9v-25.2c0-8.7-0.5-12.9-9.9-12.9c-3.4,0-6.9,2-9.8,3.8c0.7,3,1,6.1,0.8,9.3v25.2h-6v-25.3
	c0-8.7-0.5-12.9-9.9-12.9c-3.3,0-6.8,2-9.5,3.5v34.6h-6.9v-42h5.4L319.8,264z"/>
<linearGradient id="SVGID_10_" gradientUnits="userSpaceOnUse" x1="-114.189" y1="164.8655" x2="484.4504" y2="309.0832" gradientTransform="matrix(1 0 0 -1 0 560)">
	<stop  offset="0" style="stop-color:#21E418"/>
	<stop  offset="0.3" style="stop-color:#31B6E9"/>
	<stop  offset="0.9757" style="stop-color:#21E418"/>
</linearGradient>
<path class="st9" d="M380.4,255v-7.1h7.1v7.1H380.4z M380.6,302.3v-42h6.9v42H380.6z"/>
<linearGradient id="SVGID_11_" gradientUnits="userSpaceOnUse" x1="-111.1487" y1="152.2458" x2="487.4907" y2="296.4634" gradientTransform="matrix(1 0 0 -1 0 560)">
	<stop  offset="0" style="stop-color:#21E418"/>
	<stop  offset="0.3" style="stop-color:#31B6E9"/>
	<stop  offset="0.9757" style="stop-color:#21E418"/>
</linearGradient>
<path class="st10" d="M402.2,264c3.4-1.9,7.9-4.2,12.8-4.4c15.4-0.4,16.3,6.9,16.3,17.1v25.6h-6.9v-25.2c0-8.7-0.7-12.9-10.9-12.9
	c-3.7,0-7.6,2-10.5,3.7v34.6h-6.9v-42.2h5.4L402.2,264z"/>
<linearGradient id="SVGID_12_" gradientUnits="userSpaceOnUse" x1="-107.1995" y1="135.8528" x2="491.4399" y2="280.0705" gradientTransform="matrix(1 0 0 -1 0 560)">
	<stop  offset="0" style="stop-color:#21E418"/>
	<stop  offset="0.3" style="stop-color:#31B6E9"/>
	<stop  offset="0.9757" style="stop-color:#21E418"/>
</linearGradient>
<path class="st11" d="M444.8,312.1c2.6,0.3,6,0.4,9.8,0.4c10.6,0,12-2.9,12.1-14c-3.1,1.8-7.5,3.8-12,3.9
	c-15.4,0.3-16.3-8-16.3-21.1s0.8-21.8,15.6-21.8c5,0,9.7,2.3,13.3,4.6l0.7-3.8h5.4v37.3c0,15.1-3.4,19.7-17.3,19.7
	c-4.1,0-8.2-0.4-12.1-1L444.8,312.1z M466.6,268c-3-1.9-6.8-3.8-10.5-3.8c-10.2,0-10.9,5.7-10.9,17.1c0,11.2,0.7,16.5,10.9,16.5
	c3.7,0,7.6-2,10.5-3.5V268z"/>
</svg>
