<?xml version="1.0" encoding="utf-8"?>
<!-- Generator: Adobe Illustrator 19.2.1, SVG Export Plug-In . SVG Version: 6.00 Build 0)  -->
<svg version="1.1" id="layer" xmlns="http://www.w3.org/2000/svg" xmlns:xlink="http://www.w3.org/1999/xlink" x="0px" y="0px"
	 viewBox="0 0 652 652" style="enable-background:new 0 0 652 652;" xml:space="preserve">
<style type="text/css">
	.st0{fill:#00285A;}
</style>
<g>
	<path class="st0" d="M55.6,513.4c-2.6,0-5.2,0.5-7.6,1.4c-2.5,0.9-4.7,2.2-6.7,3.9c-1.9,1.7-3.5,3.8-4.7,6.2
		c-1.2,2.4-1.8,5.2-1.8,8.4c0,3.1,0.6,6,1.8,8.4c1.2,2.4,2.7,4.5,4.7,6.2c1.9,1.7,4.2,3,6.7,3.9c2.5,0.9,5,1.4,7.6,1.4
		c2.6,0,5.2-0.5,7.6-1.4c2.5-0.9,4.7-2.2,6.7-3.9c1.9-1.7,3.5-3.8,4.7-6.2c1.2-2.4,1.8-5.2,1.8-8.4c0-3.1-0.6-5.9-1.8-8.4
		c-1.2-2.4-2.8-4.5-4.7-6.2c-1.9-1.7-4.2-3-6.7-3.9C60.8,513.9,58.2,513.4,55.6,513.4 M55.6,564.6c-4.7,0-9.2-0.6-13.4-1.7
		c-4.2-1.2-7.9-3.1-11.1-5.7c-3.1-2.6-5.6-6-7.5-9.9c-1.8-4-2.7-8.6-2.7-13.9c0-5.3,0.9-10,2.7-14c1.8-4,4.3-7.3,7.5-9.9
		c3.1-2.6,6.8-4.6,11-5.9c4.2-1.3,8.7-2,13.4-2c4.7,0,9.2,0.7,13.4,2c4.2,1.3,7.9,3.3,11,5.9c3.1,2.6,5.7,6,7.5,9.9
		c1.8,4,2.7,8.7,2.7,14c0,5.3-0.9,10-2.7,13.9c-1.8,4-4.3,7.3-7.5,9.9c-3.1,2.6-6.8,4.5-11.1,5.7C64.8,564,60.3,564.6,55.6,564.6"/>
	<path class="st0" d="M189.7,513.4c-2.6,0-5.2,0.5-7.6,1.4c-2.5,0.9-4.7,2.2-6.7,3.9c-1.9,1.7-3.5,3.8-4.7,6.2
		c-1.2,2.4-1.8,5.2-1.8,8.4s0.6,6,1.8,8.4c1.2,2.4,2.7,4.5,4.7,6.2c1.9,1.7,4.2,3,6.7,3.9c2.5,0.9,5.1,1.4,7.6,1.4
		c2.6,0,5.2-0.5,7.6-1.4c2.5-0.9,4.7-2.2,6.7-3.9c1.9-1.7,3.5-3.8,4.7-6.2c1.2-2.4,1.8-5.2,1.8-8.4s-0.6-5.9-1.8-8.4
		c-1.2-2.4-2.8-4.5-4.7-6.2c-1.9-1.7-4.2-3-6.7-3.9C194.9,513.9,192.3,513.4,189.7,513.4 M189.7,564.6c-4.7,0-9.2-0.6-13.4-1.7
		c-4.2-1.2-7.9-3.1-11.1-5.7c-3.1-2.6-5.6-6-7.5-9.9c-1.8-4-2.8-8.6-2.8-13.9c0-5.3,0.9-10,2.8-14c1.8-4,4.3-7.3,7.5-9.9
		c3.1-2.6,6.8-4.6,11-5.9c4.2-1.3,8.7-2,13.4-2c4.7,0,9.2,0.7,13.4,2c4.2,1.3,7.9,3.3,11,5.9c3.1,2.6,5.7,6,7.5,9.9
		c1.8,4,2.7,8.7,2.7,14c0,5.3-0.9,10-2.7,13.9c-1.8,4-4.3,7.3-7.5,9.9c-3.1,2.6-6.8,4.5-11.1,5.7C199,564,194.5,564.6,189.7,564.6"
		/>
</g>
<polygon class="st0" points="-2.7,571.5 -52.2,514.3 -52.2,571.5 -67.2,571.5 -67.2,491.2 -51.5,491.2 -3.9,546.2 -3.9,491.2 
	11.1,491.2 11.1,571.5 "/>
<polygon class="st0" points="129.1,564.1 116,564.1 89.2,502.3 104.1,502.3 122.6,545.3 141,502.3 155.9,502.3 "/>
<polygon class="st0" points="392,564.1 392,514.1 370.4,514.1 370.4,502.3 427.5,502.3 427.5,514.1 405.9,514.1 405.9,564.1 "/>
<rect x="437.8" y="502.3" class="st0" width="14.1" height="61.8"/>
<path class="st0" d="M351.8,537.3l-8.5-19.9l-8.5,19.9H351.8z M363.3,564.1l-6.4-15h-27l-6.4,15h-13.9l27.3-61.8h13l27.3,61.8H363.3
	z"/>
<g>
	<path class="st0" d="M507.9,572c-5.9,0-11.7-0.8-17.2-2.4c-5.5-1.6-10.4-4.2-14.6-7.6c-4.2-3.4-7.6-7.7-10-12.8
		c-2.5-5-3.7-11.1-3.7-17.9c0-6.7,1.2-12.7,3.7-17.8c2.4-5.1,5.8-9.5,10-12.9c4.2-3.4,9.1-6.1,14.6-7.8c5.5-1.7,11.2-2.6,17.2-2.6
		c12.1,0,23.3,4,30.6,7.1c0.8,0.4,5.7,2.5,5.7,2.5l-7.6,12.7l-1.1-0.7c-7.5-4.5-16-7.4-23.8-8.3c-1.4-0.2-2.6-0.2-3.8-0.2l-0.6,0
		l-0.4,0c-3.6,0.1-7.2,0.7-10.5,1.8c-3.6,1.2-6.8,3-9.5,5.4c-2.7,2.3-4.9,5.3-6.5,8.6c-1.6,3.4-2.4,7.3-2.4,11.7
		c0,4.4,0.8,8.3,2.4,11.7c1.6,3.4,3.8,6.3,6.5,8.6c2.7,2.3,5.9,4.1,9.5,5.4c3.6,1.2,7.5,1.8,11.5,1.8c12.9,0,23.7-5.9,30.5-10.9
		l1.2-0.8l6.8,11.7l-1,0.7c-8.5,5.4-21.5,12.1-35,12.9C509.5,571.9,508.7,572,507.9,572"/>
</g>
<polygon class="st0" points="288.2,502.3 268.1,539 247.9,502.3 234.3,502.3 234.3,564.1 246.6,564.1 246.6,525.7 268.1,564.3 
	289.6,525.7 289.6,564.1 301.9,564.1 301.9,502.3 "/>
<path class="st0" d="M611.9,537.3l-8.5-19.9l-8.5,19.9H611.9z M623.4,564.1l-6.4-15h-27l-6.4,15h-13.9l27.3-61.8h13l27.3,61.8H623.4
	z"/>
<g>
	<path class="st0" d="M707.7,556.3c-10.6,5.6-20.9,8.3-30.9,8.3c-9.9,0-18-2.3-24.3-7c-7.8-5.9-11.7-14-11.7-24.5
		c0-9.7,3.5-17.5,10.5-23.3c6.6-5.5,15.5-8.2,26.4-8.2c3.2,0,6.3,0.4,9.1,0.9c2.4,0.4,5.3,1.2,8.7,2.4c0.9,0.3,1.8,0.6,2.7,1
		c0.7,0.3,1.3,0.4,1.9,0.6c1.6,0.6,3.3,1.3,5,2.1l-4.9,10.5c-2.8-1.4-5.4-2.5-7.6-3.4c-1.5-0.6-3.1-1.2-5-1.7
		c-1-0.3-1.9-0.4-2.7-0.6c-4.9-1.1-7.3-0.8-7.3-0.8c-6.4,0-11.7,1.7-15.9,5.2c-4.8,3.9-7.2,8.8-7.2,15.5c0,6.4,2.4,11,7,14.8
		c4.2,3.5,9.8,5.3,16.8,5.3c3.4,0,6.7-0.4,10-1.1c3.3-0.7,6.2-1.8,8.6-3.1v-7.4h-19.8V533l30.8,0.1V556.3z"/>
</g>
<g>
	<path class="st0" d="M460.1,111c-9.5-14.7-28.5-25-58.3-31.4c-22.9-5-51.6-7.6-83.2-7.6c-31.5,0-60.3,2.6-83.1,7.6
		c-29.7,6.5-48.8,16.7-58.2,31.4c-15.6,24.1-11.9,59.2-7.8,99.9c0.8,7.5,1.6,15.2,2.2,22.7c1.3,15,4.3,44.6,9.8,73.1
		c8,41.5,16.6,56.1,22.4,63.5c24.7,31.2,94.1,33.6,114.8,33.6c20.7,0,90.1-2.4,114.8-33.6c5.8-7.4,14.5-21.9,22.4-63.5
		c5.5-28.6,8.5-58.1,9.8-73.1c0.6-7.5,1.4-15.2,2.2-22.7C472,170.2,475.6,135,460.1,111 M456.4,209.7c-0.8,7.5-1.6,15.3-2.2,22.9
		c-1.3,14.8-4.2,43.9-9.6,72c-7.5,39.1-15.1,52.1-20.2,58.5c-22,27.9-92,29.3-105.8,29.3c-13.8,0-83.8-1.4-105.8-29.3
		c-5.1-6.4-12.7-19.5-20.2-58.5c-5.4-28.1-8.3-57.1-9.6-72c-0.7-7.6-1.4-15.4-2.2-22.9c-4-38.6-7.4-71.9,6-92.6
		c7.8-12,24.5-20.7,51.1-26.4c22.1-4.8,50-7.3,80.7-7.3c30.7,0,58.6,2.5,80.7,7.3c26.6,5.8,43.3,14.4,51.1,26.4
		C463.8,137.9,460.4,171.2,456.4,209.7 M318.7,99.8c59.3,0,107.4,9.8,118.1,26.3c12.5,19.4,4.9,62.7,1.2,105.2
		c-3.7,42.5-12.6,104.3-26.3,121.8c-12,15.2-54.9,23-93,23c-38,0-81-7.9-93-23c-13.8-17.4-22.7-79.3-26.3-121.8
		c-3.6-42.5-11.3-85.8,1.2-105.2C211.3,109.6,259.4,99.8,318.7,99.8 M231.2,158.8c-1.6,0.9-2.3,3.8-2.3,3.8l-1.7,7.5
		c0,0-0.6,1.9,0.5,4.2c1.2,2.3,8.7,3.7,8.7,3.7s13.1,2,18.4,8.5c5.3,6.5,3.2,15.4,3.2,15.4l-14.3,70.1c0,0-1.4,6.8-5,10.1
		c-3.5,3.2-9.3,3.4-9.3,3.4s-3.4,0.1-5.6,1c-1.9,0.8-2.5,3.9-2.5,3.9l-0.9,4.6c0,0-0.5,1.9,0.6,3.6c1.1,1.7,4.2,2.1,4.2,2.1
		l72.3,0.5c0,0,2.2-0.1,3.4-1.3c1.2-1.2,1.5-3.7,1.5-3.7l1.2-6.6c0,0,0.5-2-0.5-3.2c-1.2-1.4-2.2-1.3-5.5-2.1
		c-3.4-0.8-5.4-1.8-8.7-4.5c-4.1-3.4-2.7-9.9-2.7-9.9l6.3-35.1c0,0,0.8-2.6,2.5-2.5c2.5,0.1,3.3,2.4,3.3,2.4l34.5,61.7
		c0,0,1.2,2.1,3,3.5c1.8,1.4,5.9,1.5,5.9,1.5l58.2-0.5c0,0,2.9,0.1,4.5-1.2c1.9-1.6,2.4-4.1,2.4-4.1l1.1-5.1c0,0,0.8-2.4-0.3-4.7
		c-1.3-2.7-6.3-3.3-12-5c-4.2-1.3-9.7-4.3-11.6-7.1c-1.3-2,0-6.1,0-6.1l19.4-79.8c0,0,0.6-3.3,3.9-6.7c3-3.1,11.2-4.8,11.2-4.8
		s2.1-0.4,3.4-1.6c0.9-0.9,1.3-2.8,1.3-2.8l2.2-8.6c0,0,0.6-2.2-0.7-3.7c-1.1-1.3-4.2-1.3-4.2-1.3H354c0,0-2.2-0.1-4.3,1.6
		c-1.9,1.6-2.2,3.2-2.2,3.2l-1.6,7.2c0,0-0.5,1.8,0.1,3.2c0.8,1.8,2.6,1.9,2.6,1.9l2.8,0.5c0,0,5.2,1,7.9,3.7
		c2.7,2.7,1.4,9.7,1.4,9.7l-9.7,46.5l-35.2-67.1c0,0-1-3.1-4.9-6.9c-3.8-3.8-9.7-3.5-9.7-3.5h-65.7
		C235.6,157.8,232.8,157.9,231.2,158.8"/>
</g>
</svg>
