<svg xmlns="http://www.w3.org/2000/svg" height="800" width="1200" viewBox="-5.678814 -2.0828625 49.216388 12.497175"><g fill="#161f49"><path d="M8.67706 3.03774c-.006-.01446-.0095-.02858-.01552-.04339-.3609-.88476-1.73214-1.15287-3.31294-.74859l-.2593-.16157c.77824-.33585 1.55329-.51118 2.20275-.4632.96873.07338 1.44251.62477 1.385 1.41676M7.2716 4.89618c-1.01353 1.29046-2.84515 2.1837-4.09151 2.09127-1.24425-.0942-1.43299-1.21568-.4191-2.50614.0201-.02646.04198-.05256.06315-.07902l.0032 1.61784c-.0067.41134.38946.60431.67415.44097l3.7264-2.27259c.29139-.18874.2607-.61101-.01376-.77364l-1.51095-.8696c.40851-.12277.80045-.18062 1.14864-.15487 1.2453.0942 1.43263 1.21532.4198 2.50578M2.53206 7.68172c-1.1437-.08608-1.59985-.83997-1.3021-1.86655-.0018.1711.02505.33514.08855.48754.44697 1.0989 2.45357 1.24777 4.48133.33549.04163-.0187.0829-.03916.12383-.0575-1.13842.73483-2.40665 1.17404-3.3916 1.10102m1.31762-5.74499L6.35122 3.5133c.18486.11077.20708.39934.01023.5274L3.83451 5.58163c-.19297.11113-.46355-.02117-.45826-.30233l-.012-3.05964c.01095-.25541.26353-.40958.48543-.28293m5.7905.56762C9.11594 1.21601 6.9386.93237 4.5824 1.766l-1.04563-.65511c-.32562-.18591-.69745.04057-.71544.41734l.0007 1.06397C.79146 3.80892-.38611 5.56047.11518 6.79342c.58103 1.42417 3.18347 1.6196 5.81308.43498 2.6303-1.18392 4.29189-3.29918 3.71192-4.72405m2.09009 1.85692l-.2272.83643c-.03386.12736-.05996.24342-.08078.34326-.02152.10513-.03034.18027-.03034.22683 0 .08961.02434.15805.07408.20955.0522.05115.12136.0762.20637.0762.13335 0 .272-.07514.41558-.22542.14287-.15064.27975-.36583.41345-.64805.15981-.3609.29034-.71614.39088-1.07174.09701-.35137.14817-.62795.14817-.8248 0-.14287-.02963-.25823-.08714-.34396-.05786-.08678-.13194-.13123-.21873-.13123-.1979 0-.37817.12806-.54363.37994-.16545.2547-.3189.64453-.46072 1.17299m-1.42734-1.9431c.35313-.02787.68756-.06491 1.00859-.10619.31962-.04128.62759-.08925.92498-.14746l-.25012.89676c.24977-.34678.4879-.60148.71614-.75812.22402-.16192.45685-.23883.70168-.23883.33302 0 .5916.10513.77117.31468.18239.21167.27164.51223.27164.901 0 .32808-.06103.6745-.18556 1.0361-.12524.3623-.30128.69886-.52106 1.01142-.25858.36336-.53128.6357-.82303.81597-.29315.18168-.60184.2734-.93098.2734-.13511 0-.26105-.0187-.38064-.05927-.11713-.04198-.22331-.09878-.31962-.17568l-.25612.97226c-.01764.0582-.0314.12065-.0381.18168-.0099.05962-.01235.11994-.01235.18027 0 .11677.03351.20143.10266.2487.0695.04693.2099.07586.42086.08926v.22718h-2.3876v-.23706c.0081 0 .01976-.0011.03492-.0039.01588-.0039.02822-.0053.03422-.0053.14852 0 .25894-.0381.33303-.11607.07479-.0776.15063-.27975.23071-.60924l.95039-3.87103c.01658-.06174.02928-.12489.0395-.18486.0095-.05786.01518-.10548.01518-.13723 0-.10654-.0321-.1778-.0942-.21696-.0642-.04375-.18309-.0635-.3563-.0635z"/><path d="M14.68387.28293a16.9429 16.9429 0 001.02905-.115C16.0417.121 16.35427.06666 16.64742 0l-1.31127 5.19042a2.42551 2.42551 0 00-.02963.10795c-.01729.06703-.02364.11007-.02364.133 0 .06103.0113.10971.03528.14322.0254.03493.06103.05186.10725.05186.04727 0 .10054-.03246.16192-.09913.06068-.06526.1785-.23706.35384-.5154l.2092.15875c-.26318.44062-.51682.76094-.7553.9592-.23848.1979-.48613.29633-.74507.29633-.22825 0-.40675-.06315-.52987-.1919-.12453-.12877-.18556-.31433-.18556-.55387 0-.11783.06385-.43039.1898-.93698l.0127-.05115.8703-3.3782c.0078-.03104.0187-.07726.0328-.13793.0554-.22225.07973-.36548.07973-.42722 0-.08502-.02858-.14675-.08784-.18803-.05786-.03986-.14816-.06138-.2734-.06138h-.07479z"/><path d="M18.78906 2.97096c0-.12418-.02611-.2226-.08043-.29668-.05433-.07338-.12453-.10972-.21237-.10972-.12489 0-.24483.06068-.36125.18415-.11641.12489-.24976.3309-.40252.61948-.1785.34396-.31855.6791-.4191 1.00965-.10336.33338-.15451.61524-.15451.84914 0 .14217.02857.25188.08502.33514.0568.07832.13476.11818.22966.11818.14075 0 .28434-.08361.4332-.2547.14853-.17005.28893-.40994.42193-.71862.1397-.34396.24977-.67945.33408-.99906.08361-.32209.1263-.56727.1263-.73696m1.58185-.76164l-.69956 2.56751v.0092c-.10654.39547-.16016.62548-.16016.69145 0 .06103.01058.10971.03528.14781.02293.03845.05292.05503.09313.05503.11324 0 .26106-.13617.4385-.40958.05362-.07796.0949-.1397.12312-.18273l.2032.16016c-.22824.40075-.45579.69709-.68791.88582-.23213.18944-.48296.28293-.75001.28293-.2226 0-.39264-.04939-.5073-.1471-.11817-.10126-.17568-.24519-.17568-.43745 0-.05715.0042-.13088.01658-.21731.01023-.08784.02858-.20144.05292-.34008-.21131.38629-.44168.6738-.69038.85936-.24765.1891-.52458.28258-.82974.28258-.31538 0-.56338-.09807-.74577-.29492-.1831-.19897-.27446-.46884-.27446-.81245 0-.39546.08643-.81174.26388-1.252.17498-.43463.41028-.82374.70696-1.15782.2339-.26847.4759-.47484.72778-.61948.25365-.14464.496-.2159.7292-.2159.22295 0 .39581.05433.52458.16192.1284.10936.21272.27552.2533.49671l.12875-.51364z"/><path d="M19.96326 2.56448v-.23706c.34078-.0381.6858-.08537 1.03751-.1383.3489-.05326.53905-.07901.5655-.07901.14041 0 .32421.61771.54681 1.85526.09031.49247.1644.88935.2226 1.18639.2653-.53799.44662-.93063.5447-1.17616.09771-.24413.1457-.4258.1457-.54187 0-.08996-.08186-.19932-.24484-.32385-.16263-.12594-.24588-.27058-.24588-.43039 0-.1852.05644-.33443.17145-.44767.11253-.11148.26317-.16757.4512-.16757.18591 0 .33267.05609.4378.16757.10336.11324.15698.27163.15698.47307 0 .2533-.1217.66146-.36265 1.22273-.24165.5602-.57185 1.19098-.9899 1.89653-.47307.80433-.90487 1.38818-1.29222 1.7579-.3877.36935-.76094.55315-1.11972.55315-.23848 0-.4251-.05292-.56162-.1591-.13582-.1069-.20426-.25295-.20426-.43921 0-.16934.05821-.30657.1771-.41804.11747-.11042.26634-.1651.44767-.1651.14182 0 .29422.0568.45685.16862.16192.1136.27234.16722.32597.16722.09772 0 .20778-.08184.33231-.24518.12806-.16545.19191-.32068.19191-.47131 0-.10972-.01023-.24977-.02963-.41769-.01905-.16969-.04974-.37677-.08925-.62265-.08255-.5274-.16616-1.00895-.24941-1.4411-.08537-.43145-.16122-.77223-.2293-1.0213-.05998-.21378-.1203-.35277-.18133-.41839-.06103-.0649-.15981-.097-.30092-.097h-.01094c-.04092.0056-.07232.0095-.1002.0095"/><path d="M25.41878 5.25604c-.26353.37147-.52247.65652-.7747.85337-.24977.19896-.47802.29774-.68545.29774-.16722 0-.29774-.05539-.39405-.16228-.09631-.10936-.14535-.25576-.14535-.4392 0-.06457.0067-.13618.0194-.21661.01164-.08114.03034-.1711.0554-.266l.75212-2.94075h-.79199l.07373-.25294c.34043-.07444.64135-.23672.90417-.4879.2614-.25223.49883-.60042.70732-1.04633h.27023l-.35349 1.47637h.72355l-.07303.3108h-.74577l-.72214 2.84057c-.01658.06456-.02928.121-.0381.17427-.006.05186-.01164.09948-.01164.1397 0 .09455.02046.1658.06315.2166.03916.05045.09878.0748.1711.0748.09455 0 .20567-.05504.33726-.1704.13123-.11289.29739-.29845.4967-.55421z"/><path d="M26.15747 4.28793c.58208-.02787 1.0728-.18733 1.46614-.47484.39653-.2921.59196-.61983.59196-.99166 0-.12453-.0314-.21802-.09454-.28081-.06103-.06032-.15592-.09137-.28328-.09137-.35277 0-.6805.1598-.98037.48577-.30021.32809-.53269.77823-.6999 1.3529m-.0688.3115c-.02716.10549-.04445.20744-.0568.30446-.01446.09419-.01834.18273-.01834.26281 0 .24624.05962.43427.18239.56374.12065.12983.2988.22578.53093.22578.2286 0 .49142-.10865.7807-.26564.2928-.15593.62194-.39229.9846-.70803l.19156.28999c-.43286.39017-.84032.67874-1.22344.8629-.3817.18802-.75565.27975-1.12289.27975-.35948 0-.6417-.10901-.8396-.32315-.19968-.21696-.29881-.5207-.29881-.91687 0-.37853.0776-.76376.23283-1.15393.15522-.38877.3676-.73766.6357-1.03964.26-.28963.5461-.50941.85408-.66322.31256-.15205.63112-.23072.9592-.23072.30234 0 .53905.07091.71403.21131.17462.13935.26282.33162.26282.57644 0 .44062-.25682.82339-.76553 1.14512-.50976.32103-1.17757.51259-2.00343.5789"/><path d="M31.77616 4.65985l-.0113.55668c-.2741.40111-.57114.70027-.89463.89994-.3235.1979-.67663.29633-1.05904.29633-.41875 0-.76095-.14005-1.02376-.42368-.26177-.27905-.3923-.65088-.3923-1.11266 0-.33938.07409-.68545.22226-1.03858.1464-.35454.35242-.66922.61524-.94897.24024-.25295.50976-.4505.80857-.58597.29598-.13793.59866-.20884.91052-.20884.32702 0 .58667.0762.78034.22542.19332.14958.29034.3482.29034.59867 0 .14852-.0494.27728-.151.38311-.10018.1069-.21871.1591-.35736.1591-.11324 0-.2046-.03562-.27481-.11077-.06985-.07408-.10477-.17004-.10477-.28998 0-.0836.02716-.17921.08467-.29069.05539-.10971.0822-.17815.0822-.20567 0-.0515-.02716-.09278-.08537-.12488-.05786-.0321-.13406-.04798-.2332-.04798-.20143 0-.40533.06138-.61559.18838-.20849.12912-.39088.30268-.54751.52317-.19085.2674-.33831.5521-.44168.85266-.10195.29987-.1524.59126-.1524.87983 0 .32597.08184.58667.2473.77682.16722.1905.39158.31962.67557.31962.22401 0 .44415-.10478.6604-.24448.21766-.14217.57785-.4251.96732-1.02658"/><path d="M31.28266 6.41764l1.48131-5.36681c.0088-.03281.01411-.06597.018-.10195.0056-.03281.0071-.06703.0071-.09454 0-.0956-.02435-.16122-.07056-.19827-.04692-.0328-.18133-.0508-.40075-.0508h-.33726l.05221-.24482a5.0255 5.0255 0 00.7627-.08925c.23425-.0494.45862-.1129.6664-.1958h.26776l-1.02517 3.707c.52493-.53517 1.00859-.94933 1.4485-1.24778.43886-.29316.78952-.44203 1.05093-.44203.13794 0 .23777.0328.3041.09842.06455.06773.09947.17039.09947.30833 0 .04304-.0071.09419-.01976.15592-.01164.06385-.02752.1337-.04657.20885l-.74824 2.52518a1.6213 1.6213 0 00-.03492.16157.97146.97146 0 00-.01552.17145c0 .03246.01552.06068.04233.08678.02681.0247.05962.0688.0949.0688.07303 0 .17569-.08044.30374-.17992.12912-.09948.26459-.23566.40782-.40781l.1524.13088c-.25753.31961-.50589.56585-.74401.73342-.23919.16933-.46003.2547-.6611.2547-.1316 0-.23531-.03244-.31116-.09595-.07726-.06491-.11395-.151-.11395-.26353 0-.0395.0032-.0822.012-.1277.0078-.04516.02257-.0942.04056-.14817l.7687-2.61161c.01412-.05715.02329-.1009.02823-.13053.0046-.02858.006-.05715.006-.08114 0-.06668-.018-.11748-.0568-.15346-.0367-.03316-.09031-.05045-.16087-.05045-.10936 0-.27093.06809-.48366.20637-.21449.13794-.45896.33514-.74048.5902-.25153.22578-.43744.41804-.55421.57715-.11677.15945-.20214.32455-.25506.496L32.008 6.41762c-.0582-.0088-.26423-.01552-.3242-.0194-.05962-.0042.02752-.0042-.03422-.0042-.06244 0-.12488 0-.1852.0042-.05857.0039-.11925.01058-.18169.0194M22.48476 7.8939v.06986c-.00035.03598.0035.06879.01341.10018.02117.08467.08996.127.20743.127.04374 0 .08326-.006.11889-.01834.08008-.02434.12065-.08467.12312-.17885-.0007-.06456-.02681-.115-.07902-.15029-.0374-.02434-.0815-.04798-.13265-.07232l-.15487-.0702c-.06138-.02716-.11253-.05503-.1531-.08396-.08537-.05962-.12841-.14463-.12841-.25611.0011-.12206.04939-.20814.14358-.2593.07056-.03844.1665-.0582.28963-.05926.14958 0 .25788.02822.32385.08502.05256.0455.07902.13511.07902.26846v.02505h-.21273v-.02999l-.0042-.06491c-.01305-.09737-.0762-.145-.18908-.14252-.14323 0-.21555.0575-.21732.17215 0 .07303.04516.13265.13441.1785.0561.02929.11854.05787.18839.0875.07056.02893.1277.0568.17145.08325.10265.0628.15416.15663.15416.28328-.0021.22825-.15346.34325-.45473.34325-.12912.0018-.2286-.0201-.2981-.06385-.08149-.0522-.12559-.12559-.13264-.22295l-.0028-.10055v-.05009zm.81812-.42904c.0007-.10301.01058-.17816.02858-.22613.02893-.0755.09137-.12983.18803-.16122.06985-.02364.145-.03528.22578-.03528.07937 0 .15451.01164.22542.03528.09525.0314.15734.08573.18662.16122.018.04692.02822.12312.02963.22613v.42016c0 .0755-.0042.14146-.0127.19614-.02364.16545-.16474.24941-.42298.25012-.18732 0-.31291-.03845-.37676-.11642-.04868-.0582-.07267-.16862-.07161-.32984zm.21308.41874c.0007.10549.0085.17463.02293.20532.01446.03104.04233.05644.08185.0748.04057.01798.08184.02715.12453.02715.03845 0 .07585-.0071.11112-.02293.06773-.0268.10478-.07479.11148-.14358.0035-.03916.0053-.08572.006-.14076v-.4198c.0014-.09102-.0092-.15523-.03034-.19191-.03351-.05927-.10019-.08925-.19826-.08855-.03845 0-.07408.0056-.1076.0187-.0695.02364-.1083.07267-.11641.1457-.0046.03315-.006.07196-.0053.11606zm.86361-.82337h.21238v.83644l.0021.11042c.0074.1217.07832.18309.21237.1838.1344 0 .20814-.05716.22084-.17216.0049-.04022.0074-.0808.0081-.12206v-.83644h.21272v.84984c-.0007.0695-.0032.12312-.0074.16157-.0067.05821-.02999.1069-.0709.14605-.07762.07585-.1965.1129-.35667.1136-.16615-.0007-.2861-.0374-.35912-.11148-.04092-.04233-.06385-.09137-.06914-.14817-.0035-.03387-.0053-.08714-.0053-.16157zm1.42299 0h.127c.04904 0 .09419.0046.13511.01129.15699.02505.23636.12488.23883.30092 0 .09243-.02081.16157-.06209.2106-.04022.04552-.11889.0762-.23424.09279v-.0007c.07197.0071.12382.01798.15557.0328.04551.02258.07408.05927.08537.10901.0074.03281.01164.07197.01376.11606l.0092.14747c.0035.05609.0095.10018.01764.13229.0046.02293.01482.05644.0314.10054h-.22154l-.02152-.08008c-.006-.02258-.0099-.0515-.01164-.08643l-.0085-.11254-.0071-.11747c-.0099-.0896-.05327-.14394-.12983-.16157-.0321-.0067-.07056-.01023-.11112-.01023h-.1471v.56832h-.21344V7.06023zm-.14076.14111v.40217h.15205c.0455 0 .0836-.0028.11782-.0078.06491-.01023.11007-.03634.13512-.07867.01623-.02787.02399-.07408.02399-.139 0-.0695-.02364-.11818-.07126-.14499-.03457-.02046-.09842-.03104-.19368-.03175zm1.44216.18941l-.0011-.05821c-.0053-.1002-.06456-.14993-.17886-.14923-.1016.00035-.16757.02681-.19826.07902-.01693.02505-.0261.05115-.02787.0769l-.0018.10301v.4946c.0007.0896.0095.14746.02575.17286.03528.05398.09595.08114.18239.08114.11253-.0007.17674-.05398.19085-.16016l.0088-.0808v-.04303h.21273v.04374l-.0018.07832c-.0071.09349-.03845.1651-.09631.2152-.03493.03068-.07655.05185-.12383.0642-.05645.01552-.11747.02293-.18415.02293a.7439.7439 0 01-.16334-.01482c-.17533-.0328-.26317-.14958-.26423-.35136v-.49918c-.00035-.05468.0025-.10478.01023-.1517.0078-.05715.02681-.10513.05715-.14252.06773-.08467.18944-.12806.36478-.12947.24518.0014.37747.07937.39616.23319.0035.02963.0053.06244.0053.09878v.04868h-.21272zm.39832-.33052h.696v.14111h-.4833v.39723h.4533v.14111h-.4533v.43215h.4967v.14147h-.7094zm1.2611.40463c.00035-.10301.0095-.17816.02822-.22613.02822-.0755.09102-.12983.18767-.16122.06985-.02364.145-.03528.22578-.03528.07937 0 .15487.01164.22613.03528.09454.0314.15699.08573.18662.16122.018.04692.02787.12312.02928.22613v.42016c0 .0755-.0042.14146-.01199.19614-.02505.16545-.1651.24941-.42404.25012-.18768 0-.31326-.03845-.37641-.11642-.04868-.0582-.07232-.16862-.07126-.32984zm.21237.41874c.0011.10549.0088.17463.02364.20532.01446.03104.04163.05644.08149.0748.04022.01798.08184.02715.12418.02715.03916 0 .07585-.0071.11183-.02293.06668-.0268.10371-.07479.11042-.14358.0039-.03916.006-.08572.0064-.14076v-.4198c.0014-.09102-.0088-.15523-.03-.19191-.03386-.05927-.10054-.08925-.1986-.08855-.03846 0-.07374.0056-.10725.0187-.0695.02364-.1083.07267-.11607.1457-.0049.03315-.0067.07196-.006.11606zm1.54353-.82337v.14111h-.4653v.39617h.4477v.14076h-.4477v.57503h-.2131V7.06023zm.70779.83367v.06986c-.0011.03598.0028.06879.0127.10018.02117.08467.09066.127.20708.127.04374 0 .08361-.006.1196-.01834.07936-.02434.12029-.08467.12311-.17885-.0007-.06456-.02646-.115-.07902-.15029-.03739-.02434-.08184-.04798-.133-.07232l-.15486-.0702c-.06103-.02716-.11219-.05503-.15382-.08396-.0843-.05962-.12735-.14463-.12735-.25611.0018-.12206.04904-.20814.14393-.2593.06985-.03844.16652-.0582.28893-.05926.14958 0 .25753.02822.32456.08502.05256.0455.07832.13511.07832.26846v.02505h-.21238v-.02999l-.0042-.06491c-.0134-.09737-.0762-.145-.18944-.14252-.14393 0-.2152.0575-.21731.17215 0 .07303.04551.13265.13476.1785.0554.02929.11854.05787.18839.0875.0702.02893.1277.0568.1718.08325.10195.0628.1538.15663.1538.28328-.0025.22825-.1538.34325-.45472.34325-.12947.0018-.22895-.0201-.2981-.06385-.08184-.0522-.12594-.12559-.1323-.22295l-.0035-.10055v-.05009zm.8255-.83367h.21237v.83644l.0018.11042c.0074.1217.07902.18309.21237.1838.13441 0 .20814-.05716.2212-.17216a1.4019 1.4019 0 00.0074-.12206v-.83644h.21307v.84984c-.0007.0695-.0032.12312-.0081.16157-.0056.05821-.02928.1069-.06985.14605-.07832.07585-.19755.1129-.357.1136-.16617-.0007-.28646-.0374-.35984-.11148-.04022-.04233-.06315-.09137-.06844-.14817-.0032-.03387-.0049-.08714-.0049-.16157zm1.6969.33052l-.0011-.05821c-.0049-.1002-.06526-.14993-.17956-.14923-.10125.00035-.16686.02681-.1979.07902-.01659.02505-.02576.05115-.02788.0769l-.0018.10301v.4946c.0011.0896.0095.14746.02681.17286.03422.05398.09525.08114.18133.08114.11289-.0007.17674-.05398.19156-.16016l.0085-.0808v-.04303h.21272v.04374l-.0021.07832c-.006.09349-.0388.1651-.0963.2152-.03529.03068-.07656.05185-.12383.0642-.0568.01552-.11783.02293-.1838.02293-.0575.0011-.11183-.0042-.16334-.01482-.17533-.0328-.26317-.14958-.26352-.35136v-.49918c-.0011-.05468.0021-.10478.0095-.1517.0071-.05715.02575-.10513.0568-.14252.06809-.08467.18944-.12806.36512-.12947.24554.0014.37783.07937.39617.23319a.91599.91599 0 01.0053.09878v.04868h-.21272zm1.0273 0l-.0011-.05821c-.0053-.1002-.0642-.14993-.1792-.14923-.1016.00035-.16723.02681-.19827.07902-.01693.02505-.02611.05115-.02716.0769l-.0025.10301v.4946c.0007.0896.0099.14746.0261.17286.03529.05398.09597.08114.18204.08114.11324-.0007.17674-.05398.1912-.16016l.0088-.0808v-.04303h.21273v.04374l-.0018.07832c-.0071.09349-.03916.1651-.0963.2152-.03494.03068-.07656.05185-.12418.0642-.05574.01552-.11783.02293-.18415.02293a.73672.73672 0 01-.16299-.01482c-.17533-.0328-.26317-.14958-.26423-.35136v-.49918a.85367.85367 0 01.01023-.1517c.0074-.05715.02575-.10513.05644-.14252.0681-.08467.19015-.12806.36548-.12947.24553.0014.37747.07937.39617.23319.0035.02963.0053.06244.0053.09878v.04868h-.21273zm.39811-.33052h.6957v.14111h-.483v.39723h.453v.14111h-.453v.43215h.4967v.14147h-.7094zm1.02188.83367v.06986c-.0007.03598.0035.06879.01341.10018.02117.08467.08996.127.20673.127.04374 0 .08396-.006.1196-.01834.07937-.02434.12064-.08467.12382-.17885-.0014-.06456-.02752-.115-.07973-.15029-.0374-.02434-.08184-.04798-.133-.07232l-.15452-.0702c-.06138-.02716-.11253-.05503-.15345-.08396-.08467-.05962-.12771-.14463-.12771-.25611.0014-.12206.04868-.20814.14358-.2593.06985-.03844.16616-.0582.28928-.05926.14958 0 .25753.02822.32455.08502.05221.0455.07832.13511.07832.26846v.02505h-.21272v-.02999l-.0042-.06491c-.01305-.09737-.07655-.145-.18944-.14252-.14288 0-.21555.0575-.21696.17215 0 .07303.04516.13265.13405.1785.05574.02929.11889.05787.1891.0875.0702.02893.127.0568.17144.08325.10196.0628.15417.15663.15417.28328-.0025.22825-.15346.34325-.45509.34325-.12982.0018-.2286-.0201-.29774-.06385-.0822-.0522-.1263-.12559-.1323-.22295l-.0039-.10055v-.05009zm.9864 0v.06986c-.0011.03598.0032.06879.0127.10018.02117.08467.09066.127.20708.127.0441 0 .0836-.006.11888-.01834.08008-.02434.121-.08467.12418-.17885-.0011-.06456-.02752-.115-.07973-.15029-.03704-.02434-.08184-.04798-.133-.07232l-.15416-.0702c-.06138-.02716-.11254-.05503-.15346-.08396-.08537-.05962-.12806-.14463-.12806-.25611.0014-.12206.0494-.20814.14358-.2593.0702-.03844.16616-.0582.28963-.05926.14994 0 .25718.02822.32385.08502.05256.0455.07937.13511.07937.26846v.02505h-.21272v-.02999l-.0049-.06491c-.0127-.09737-.0762-.145-.18944-.14252-.14252 0-.2152.0575-.2166.17215 0 .07303.04444.13265.13475.1785.05503.02929.11818.05787.18803.0875.07056.02893.12736.0568.1711.08325.10266.0628.15452.15663.15452.28328-.0025.22825-.15381.34325-.45473.34325-.12912.0018-.22825-.0201-.29775-.06385-.08255-.0522-.1263-.12559-.13264-.22295l-.0039-.10055v-.05009z"/></g></svg>