<?xml version="1.0" encoding="utf-8"?>
<!-- Generator: Adobe Illustrator 19.0.0, SVG Export Plug-In . SVG Version: 6.00 Build 0)  -->
<svg version="1.1" id="layer" xmlns="http://www.w3.org/2000/svg" xmlns:xlink="http://www.w3.org/1999/xlink" x="0px" y="0px"
	 viewBox="-153 -46 652 652" style="enable-background:new -153 -46 652 652;" xml:space="preserve">
<style type="text/css">
	.st0{fill:#2185C7;}
	.st1{fill:#FFFFFF;}
	.st2{fill:#ED1F24;}
</style>
<path class="st0" d="M435.9,233c-0.5-8.9-3.6-17.9-9.7-24.6c-6.7-7.5-16.3-11.6-26.1-12.8H249.8c-22,2.5-41.9,17.4-51.5,37.3v0.1
	c-94.1,0-188.3,0-282.4,0c-15.2,0-29.1,12.1-32.1,26.9c-3.3,13.1-7,25.9-9.8,39.1v6.6c0.7,4.9,2.8,9.8,6.3,13.2
	c4.8,4.7,11.6,6.4,18.2,6.4c91.2,0,182.4,0,273.6,0c0.5,9.1,3.9,17.9,10.2,24.5c6.4,6.9,15.8,10.9,25.2,11.9H356
	c22.5-1.8,43.1-16.6,53.5-36.5L435.9,233z"/>
<path class="st0" d="M442.9,221.6c1.2,0.8,2.5,1.5,3.9,1.9c1.4,0.4,2.8,0.5,4.3,0.4c1.9-0.2,3.8-0.9,5.3-2.1c1.3-0.9,2.3-2.1,3-3.4
	c1.1-1.9,1.6-4,1.5-6.1c0-1.5-0.5-3.2-1.2-4.6c-0.6-1.3-1.5-2.5-2.6-3.4c-1.4-1.2-3-2.1-4.8-2.5c-1.2-0.2-2.3-0.4-3.5-0.2
	c-1.8,0.1-3.4,0.7-4.9,1.5c-1.5,0.9-2.9,2.2-3.9,3.8c-0.9,1.5-1.5,3.4-1.6,5.3c-0.1,2.1,0.4,4.4,1.4,6.2
	C440.7,219.5,441.7,220.6,442.9,221.6z M440.9,211.6c0.2-1.6,0.8-3.2,1.8-4.4c1.1-1.3,2.3-2.4,3.9-2.9c0.8-0.4,1.6-0.5,2.5-0.6
	c1.2-0.1,2.5,0,3.5,0.5c1.5,0.5,2.8,1.4,3.9,2.6c1.2,1.3,1.9,2.8,2.1,4.5c0.2,1.5,0.1,3.2-0.5,4.6c-0.5,1.2-1.1,2.2-2,3.1
	c-0.8,0.8-1.8,1.5-2.8,2c-1.4,0.6-3,0.8-4.7,0.7c-1.9-0.2-3.6-1.1-4.9-2.4c-1.2-1.1-2-2.5-2.5-4C440.8,214,440.7,212.7,440.9,211.6z
	 M447.8,218.3c0-1.5,0-2.9,0-4.5c0.4,0,0.7,0,1.2,0c0.2,0,0.6,0.1,0.8,0.2c0.2,0.1,0.5,0.4,0.6,0.7c0.2,0.4,0.4,0.7,0.6,1.1
	c0.4,0.8,0.8,1.6,1.2,2.5c1.1,0,2.1,0,3.2,0c-0.6-1.1-1.1-2.1-1.6-3.2c-0.2-0.6-0.6-1.2-1.1-1.6c-0.4-0.4-0.7-0.5-1.1-0.6
	c0.2-0.1,0.4-0.1,0.6-0.2c0.6-0.2,1.1-0.7,1.3-1.2c0.2-0.5,0.4-0.9,0.4-1.4c0-0.5,0-0.9-0.2-1.4c-0.1-0.4-0.4-0.7-0.6-0.9
	c-0.5-0.5-1.2-0.7-1.9-0.9c-0.6-0.1-1.2-0.1-1.9-0.1c-1.5,0-3,0-4.6,0c0,3.9,0,7.9,0,11.8C445.8,218.3,446.9,218.3,447.8,218.3z
	 M447.8,208.6c0.4,0,0.7,0,1.2,0c0.5,0,0.9,0,1.3,0.2c0.2,0.1,0.5,0.4,0.6,0.6c0.1,0.4,0.1,0.7,0.1,0.9c0,0.4-0.1,0.7-0.5,0.8
	c-0.4,0.2-0.7,0.4-1.2,0.4c-0.5,0-0.9,0-1.4,0C447.8,210.6,447.8,209.7,447.8,208.6z"/>
<path class="st0" d="M409.5,325c10.3-0.5,21.1,1.4,31.2-1.8c11.3-3.8,20.2-13.5,23-25.2c3.3-12.8,7.3-25.4,10.3-38.3V253
	c-1.1-7.2-5.3-13.9-11.8-17.2c-8.1-4.4-17.5-2.4-26.3-2.8L409.5,325z"/>
<path class="st1" d="M-61.9,290.1c-4.6,0.4-9.3,0.1-13.8,0.1c-1.4,4.5-2.8,9.1-4.2,13.5c-4.7,0-9.4,0-14.1,0
	c5.6-18.3,11.5-36.7,17.2-55c9.6,0.1,19.1-0.1,28.7,0c5.3,0.1,9.6,5.1,8.9,10.4c-0.8,5.8-3.2,11.1-4.7,16.6
	C-46.2,283.7-53.7,289.8-61.9,290.1z M-46.9,303.8c5.6-18.3,11.5-36.6,17.1-54.9c4.7-0.1,9.4-0.1,14.2,0
	c-4.2,13.8-8.6,27.4-12.9,41.2c4.5,0,8.8,0,13.2,0c1.5-4.7,2.9-9.3,4.3-13.9c4.7,0,9.4,0,14.1,0c-2.8,9.2-5.7,18.5-8.7,27.6
	C-19.3,303.8-33,303.8-46.9,303.8z M54.3,263c-4.2,13.6-8.6,27.2-12.8,40.8c-4.7,0-9.4,0-14.1,0c1.4-4.5,2.8-9.1,4.2-13.5
	c-4.5,0-8.8,0-13.2,0c-1.4,4.5-2.8,9.1-4.2,13.5c-4.7,0-9.4,0-14.1,0c4.2-13.4,8.4-26.8,12.7-40.2c2.3-8.2,10.3-14.9,19-14.7
	c5,0,10.2-0.2,15.2,0.2C53.5,249.7,56.8,257.3,54.3,263z M98.3,276.1c-2.6,7.9-10.1,13.4-18.2,14.2c-1.4,4.5-2.8,8.9-4.2,13.4
	c-4.7,0-9.4,0-14.1,0c1.4-4.5,2.8-8.8,4.2-13.3c-2.9-0.8-6.4-1.4-8.2-4.2c-2.3-3.3-1.9-7.5-0.7-11.2c2.7-8.7,5.5-17.4,8.2-26.2
	c4.7-0.1,9.4-0.1,14.2-0.1c-2.9,9.2-5.9,18.3-8.7,27.6c4.3,0,8.8,0,13.2,0c2.9-9.2,5.7-18.5,8.7-27.6c4.7,0,9.4,0,14.1,0
	C104,257.9,101.2,267,98.3,276.1z M114.4,250.3c6.1,0,12.2,0,18.4,0c-1.8,5.4-3.8,10.7-5.5,16.1c-6.1,0-12.2,0-18.3,0
	C110.8,261,112.6,255.6,114.4,250.3z M165.5,280.4c-2.2,7.8-4.6,15.5-6.8,23.4c-4.7,0-9.4,0-14.1,0c2.3-8.4,4.9-16.6,7.3-24.9
	c-4.5,0-8.8,0-13.2,0c-2.5,8.2-4.8,16.6-7.3,24.9c-4.7,0-9.4,0-14.1,0c2.3-7.9,4.6-15.9,6.9-23.9c2.2-8.4,10.3-14.9,19-14.8
	c4.8-0.1,9.6-0.2,14.4,0.1c3.2,0.2,6.3,1.8,7.7,4.7C167.2,273.1,166.5,277,165.5,280.4z"/>
<path class="st2" d="M247.7,346.6c-12.1,0.2-24.3,0.1-36.3,0.1c-8,0.1-16.3-3.4-20.8-10.4c-4.6-6.9-4.7-15.9-2.2-23.6
	c6.8-21.8,13.7-43.5,20.5-65.4c5.7-21.4,27-38.2,49.4-37.1c20.2,0.1,40.3,0,60.5,0.1c-3.4,11.3-7,22.5-10.6,33.8
	c-21.2,0-42.6,0.1-63.8,0c-7.3,22.9-14.5,45.9-21.7,68.8c11.3,0,22.4,0,33.6,0c1.8-5.9,3.6-11.8,5.5-17.6c-5.6,0-11.4,0-17,0
	c3.4-11.2,7-22.3,10.4-33.5c16.4,0,32.7,0,49.1,0c-5.5,17.3-10.8,34.7-16.4,52.1C282.1,331,266.2,345.5,247.7,346.6z M399.8,309.1
	c-6,21.8-27.4,38.5-50.1,37.8c-10.1-0.1-20.3,0.2-30.4-0.2c-7.7-0.4-15.4-3.9-19.7-10.4c-4.8-7.1-5.2-16.2-2.7-24.2
	c7-22.3,14-44.7,21-67c5-17.6,20.4-31.6,38.1-35.9c10.7-1.9,21.6-0.5,32.4-0.8c8.3-0.2,17.6-0.4,24.5,5.3
	c8.6,6.5,10.7,18.6,7.7,28.5C413.8,264.4,406.7,286.7,399.8,309.1z"/>
<path class="st0" d="M353.8,244.4c-7,22.9-14.2,45.8-21.3,68.5c10.3,0,20.6,0,30.9,0c7.2-22.8,14.3-45.6,21.3-68.5
	C374.5,244.4,364.1,244.3,353.8,244.4z M-71.3,276.4c4.5,0,8.8,0,13.2,0c1.4-4.6,2.9-9.2,4.3-13.8c-4.5,0-8.9,0-13.4,0
	C-68.6,267.2-70,271.8-71.3,276.4z M22.9,276.4c4.3,0,8.8,0,13.2,0c1.4-4.6,2.9-9.2,4.3-13.8c-4.3,0-8.8,0-13.2,0
	C25.7,267.2,24.2,271.8,22.9,276.4z"/>
</svg>
