<svg fill="none" height="32" viewBox="0 0 169 32" width="169" xmlns="http://www.w3.org/2000/svg">
<path d="M61.8562 11.0029C61.5948 10.4016 61.1765 9.87868 60.6274 9.51266C60.366 9.32966 60.0523 9.17279 59.7386 9.09436C59.4248 8.98979 59.085 8.9375 58.719 8.9375H49.4118C49.0458 8.9375 48.6797 9.09436 48.4183 9.3558C48.1569 9.61724 48 9.98325 48 10.3493V21.6434C48 22.4277 48.6274 23.0551 49.4118 23.0551C50.1961 23.0551 50.8235 22.4277 50.8235 21.6434V18.3493H58.719C59.1895 18.3493 59.634 18.2447 60.0261 18.0878C60.6275 17.8264 61.1503 17.4081 61.5163 16.8591C61.6993 16.5976 61.8562 16.2839 61.9346 15.9702C62.0392 15.6565 62.0915 15.3166 62.0915 14.9506V12.3362C62.1176 11.8656 62.0131 11.4212 61.8562 11.0029ZM59.2941 14.9506C59.2941 15.029 59.268 15.1074 59.2418 15.1597C59.1895 15.2643 59.1373 15.3427 59.0327 15.4212C58.9804 15.4473 58.9281 15.4734 58.8758 15.4996C58.8235 15.5257 58.7712 15.5257 58.719 15.5257H50.8235V11.761H58.719C58.7974 11.761 58.8758 11.7872 58.9281 11.8133C59.0327 11.8656 59.1111 11.9179 59.1895 12.0225C59.2157 12.0748 59.2418 12.127 59.268 12.1793C59.2941 12.2316 59.2941 12.2839 59.2941 12.3362V14.9506Z" fill="white"></path>
<path d="M129.44 15.1624C129.178 14.9794 128.865 14.8226 128.551 14.7441C128.237 14.6396 127.897 14.5873 127.531 14.5873H119.244C119.165 14.5873 119.087 14.5611 119.034 14.535C118.93 14.4827 118.851 14.4304 118.773 14.3258C118.747 14.2735 118.721 14.2213 118.695 14.169C118.668 14.1167 118.668 14.0644 118.668 14.0121V12.3128C118.668 12.2343 118.695 12.1559 118.721 12.1036C118.773 11.999 118.825 11.9206 118.93 11.8422C118.982 11.816 119.034 11.7899 119.087 11.7637C119.139 11.7376 119.191 11.7376 119.244 11.7376H129.021C129.806 11.7376 130.433 11.1101 130.433 10.3258C130.433 9.54151 129.806 8.91406 129.021 8.91406H119.244C118.773 8.91406 118.329 9.01864 117.936 9.1755C117.335 9.43694 116.812 9.85524 116.446 10.4043C116.263 10.6657 116.106 10.9794 116.028 11.2931C115.923 11.6069 115.871 11.9467 115.871 12.3128V14.0121C115.871 14.4827 115.976 14.9271 116.133 15.3193C116.394 15.9206 116.812 16.4435 117.361 16.8095C117.623 16.9925 117.936 17.1494 118.25 17.2278C118.564 17.3324 118.904 17.3846 119.27 17.3846H127.557C127.636 17.3846 127.714 17.4108 127.767 17.4369C127.871 17.4892 127.95 17.5415 128.028 17.6461C128.054 17.6984 128.08 17.7507 128.106 17.8029C128.133 17.8552 128.133 17.9075 128.133 17.9598V19.6592C128.133 19.7376 128.106 19.816 128.08 19.8683C128.028 19.9729 127.976 20.0513 127.871 20.1297C127.819 20.1559 127.767 20.182 127.714 20.2082C127.662 20.2343 127.61 20.2343 127.557 20.2343H117.78C116.995 20.2343 116.368 20.8618 116.368 21.6461C116.368 22.4304 116.995 23.0579 117.78 23.0579H127.557C128.028 23.0579 128.472 22.9533 128.865 22.7964C129.466 22.535 129.989 22.1167 130.355 21.5677C130.538 21.3062 130.695 20.9925 130.773 20.6788C130.878 20.365 130.93 20.0252 130.93 19.6592V17.9598C130.93 17.4892 130.825 17.0448 130.668 16.6526C130.407 16.0513 129.963 15.5284 129.44 15.1624Z" fill="white"></path>
<path d="M112.471 9.27982C111.895 8.75694 110.98 8.83537 110.484 9.41054L104.967 15.7373L99.4248 9.41054C98.9019 8.83537 98.013 8.75694 97.4379 9.27982C96.8627 9.80269 96.7843 10.6916 97.3072 11.2667L103.529 18.404V21.6458C103.529 22.4301 104.157 23.0576 104.941 23.0576C105.725 23.0576 106.353 22.4301 106.353 21.6458V18.404L112.601 11.2667C113.098 10.6916 113.046 9.80269 112.471 9.27982Z" fill="white"></path>
<path d="M149.439 11.0029C149.178 10.4016 148.759 9.87868 148.21 9.51266C147.949 9.32966 147.635 9.17279 147.322 9.09436C147.008 8.98979 146.668 8.9375 146.302 8.9375H138.041C137.57 8.9375 137.125 9.04208 136.733 9.19894C136.132 9.46038 135.609 9.87868 135.243 10.4277C135.06 10.6891 134.903 11.0029 134.825 11.3166C134.72 11.6303 134.668 11.9702 134.668 12.3362V19.6826C134.668 20.1532 134.773 20.5976 134.929 20.9898C135.191 21.5911 135.609 22.114 136.158 22.48C136.42 22.663 136.733 22.8199 137.047 22.8983C137.361 23.0029 137.701 23.0551 138.067 23.0551H146.354C146.825 23.0551 147.269 22.9506 147.661 22.7937C148.263 22.5323 148.786 22.114 149.152 21.5649C149.335 21.3035 149.491 20.9898 149.57 20.6761C149.675 20.3623 149.727 20.0225 149.727 19.6565V12.3362C149.701 11.8656 149.596 11.4212 149.439 11.0029ZM146.877 19.6565C146.877 19.7349 146.851 19.8133 146.825 19.8656C146.773 19.9702 146.72 20.0486 146.616 20.127C146.563 20.1532 146.511 20.1793 146.459 20.2055C146.407 20.2316 146.354 20.2316 146.302 20.2316H138.041C137.962 20.2316 137.884 20.2055 137.831 20.1793C137.727 20.127 137.648 20.0748 137.57 19.9702C137.544 19.9179 137.518 19.8656 137.492 19.8133C137.465 19.761 137.465 19.7087 137.465 19.6565V12.3362C137.465 12.2578 137.492 12.1793 137.518 12.127C137.57 12.0225 137.622 11.944 137.727 11.8656C137.779 11.8395 137.831 11.8133 137.884 11.7872C137.936 11.761 137.988 11.761 138.041 11.761H146.328C146.407 11.761 146.485 11.7872 146.537 11.8133C146.642 11.8656 146.72 11.9179 146.799 12.0225C146.825 12.0748 146.851 12.127 146.877 12.1793C146.903 12.2316 146.903 12.2839 146.903 12.3362V19.6565H146.877Z" fill="white"></path>
<path d="M167.269 8.9375C166.485 8.9375 165.858 9.56495 165.858 10.3493V18.4277L156.001 9.32966C155.583 8.9375 154.982 8.85907 154.485 9.06822C153.962 9.30351 153.648 9.80024 153.648 10.3493V21.6434C153.648 22.4277 154.276 23.0551 155.06 23.0551C155.845 23.0551 156.472 22.4277 156.472 21.6434V13.565L166.328 22.663C166.746 23.0551 167.348 23.1336 167.845 22.9244C168.367 22.6891 168.681 22.1924 168.681 21.6434V10.3493C168.681 9.56495 168.054 8.9375 167.269 8.9375Z" fill="white"></path>
<path d="M77.0754 20.2316H68.6048V10.3493C68.6048 9.56495 67.9773 8.9375 67.193 8.9375C66.4087 8.9375 65.7812 9.56495 65.7812 10.3493V21.6434C65.7812 22.0094 65.9381 22.3754 66.1995 22.6368C66.461 22.8983 66.827 23.0551 67.193 23.0551H77.0754C77.8597 23.0551 78.4871 22.4277 78.4871 21.6434C78.4871 20.8591 77.8597 20.2316 77.0754 20.2316Z" fill="white"></path>
<path d="M96.2866 23.0579C95.7899 23.0579 95.3193 22.7964 95.0579 22.352L89.6984 13.1494L84.3389 22.352C83.9468 23.0317 83.084 23.2409 82.4043 22.8487C81.7245 22.4565 81.5154 21.5938 81.9075 20.9141L88.4958 9.61994C88.7572 9.1755 89.2017 8.91406 89.7245 8.91406C90.2213 8.91406 90.6919 9.1755 90.9533 9.61994L97.5154 20.9402C97.9075 21.6199 97.6723 22.4827 97.0187 22.8748C96.7834 23.0056 96.5219 23.0579 96.2866 23.0579Z" fill="white"></path>
<path class="no-change-fill" d="M4.57516 29.7243V5.98577L24.6013 15.9988L13.2549 21.672V15.9988C13.2549 14.7439 12.2353 13.7243 10.9804 13.7243C9.72549 13.7243 8.70588 14.7439 8.70588 15.9988V25.3583C8.70588 26.1426 9.12418 26.8747 9.77778 27.293C10.4575 27.7113 11.2941 27.7374 12 27.3975L30.7451 18.0381C31.5294 17.6459 32 16.8616 32 15.9988C32 15.1361 31.5033 14.3518 30.7451 13.9596L3.32026 0.234141C2.58824 -0.105728 1.75163 -0.0795843 1.0719 0.338716C0.418301 0.757017 0 1.48904 0 2.27336V29.6982C0 30.9531 1.01961 31.9727 2.27451 31.9727C3.55556 31.9988 4.57516 30.9792 4.57516 29.7243Z" fill="#FF002A"></path>
</svg>