<?xml version="1.0" encoding="utf-8"?>
<!-- Generator: Adobe Illustrator 19.0.0, SVG Export Plug-In . SVG Version: 6.00 Build 0)  -->
<svg version="1.1" id="layer" xmlns="http://www.w3.org/2000/svg" xmlns:xlink="http://www.w3.org/1999/xlink" x="0px" y="0px"
	 viewBox="-153 -46 652 652" style="enable-background:new -153 -46 652 652;" xml:space="preserve">
<style type="text/css">
	.st0{fill:#FF0000;}
</style>
<g id="Page-1">
	<g id="red-tiger" transform="translate(-1.000000, 0.000000)">
		<path id="Shape" class="st0" d="M0.8,227.5c0-7-12.5-4.2-13.9-4.2c-4.2,0-8.4,2.8-11.2,2.8c-2.8,0-7-1.4-9.8-1.4
			c11.2,1.4,25.1-2.8,34.8-8.4c4.2-1.4,8.4,0,8.4,5.6c0,7-1.4,12.5-7,16.7c0,1.4,0,2.8-1.4,4.2l4.2-2.8c0,5.6-2.8,7-7,8.4
			c0-1.4,0-5.6-4.2-8.4L0.8,227.5z"/>
		<path id="Shape_1_" class="st0" d="M-108,240c-2.8,1.4-4.2,4.2-5.6,7c-4.2-1.4-7-2.8-7-8.4l4.2,2.8c0-1.4-1.4-2.8-1.4-4.2
			c-5.6-4.2-7-9.8-7-16.7c0-4.2,4.2-7,8.4-5.6c11.2,5.6,25.1,9.8,36.2,8.4c-2.8,1.4-5.6,2.8-9.8,1.4c-4.2,0-8.4-2.8-12.5-2.8
			c-2.8,0-13.9-2.8-13.9,4.2L-108,240z"/>
		<path id="Shape_2_" class="st0" d="M-62,315.3c-12.5,1.4-20.9,8.4-22.3,16.7c1.4,0,2.8-2.8,4.2-2.8c1.4-1.4,2.8-2.8,4.2-1.4
			c1.4,0,0,4.2,0,5.6c8.4,5.6,18.1,4.2,18.1-1.4c0,4.2,2.8,4.2,5.6,4.2c4.2,0,8.4-1.4,12.5-4.2c-1.4-4.2,0-5.6,4.2-4.2
			c1.4,1.4,2.8,1.4,4.2,2.8l2.8,1.4C-34.1,319.5-45.2,313.9-62,315.3z"/>
		<path id="Shape_3_" class="st0" d="M-75.9,311.1c5.6-1.4,9.8-2.8,15.3-5.6c1.4,0,1.4-1.4,1.4-2.8s0-2.8,0-4.2s-1.4-4.2-2.8-4.2
			l0,0c-4.2,0-8.4-2.8-11.2-7c-1.4-1.4-1.4-4.2-2.8-7c0-2.8,0-4.2,1.4-7c-4.2,0-4.2,1.4-5.6,4.2c-1.4,4.2,2.8,7-2.8,8.4
			c2.8,1.4,5.6,7,8.4,9.8c-5.6,1.4-8.4-4.2-12.5-5.6c1.4,7,8.4,8.4,11.2,11.1l-11.2-2.8c2.8,5.6,9.8,2.8,13.9,7
			c-4.2,2.8-8.4,1.4-11.2,0c-1.4,0-1.4,0-2.8,1.4c0,1.4,1.4,1.4,1.4,2.8c1.4,0,2.8,1.4,5.6,1.4C-78.7,312.5-77.3,312.5-75.9,311.1z"
			/>
		<path id="Shape_4_" class="st0" d="M-45.2,277.7c0,1.4,0,2.8-4.2,4.2c-2.8,0-5.6,1.4-7,1.4c-8.4,0-12.5,0-12.5-5.6
			c-1.4,0-1.4,1.4-2.8,2.8c1.4,4.2,1.4,4.2,1.4,4.2c1.4,1.4,7,1.4,7,1.4c7,0,9.8,0,15.3,0c1.4,0,2.8,0,2.8-1.4s0-2.8,0-2.8
			C-43.8,280.4-45.2,279.1-45.2,277.7z"/>
		<path id="Shape_5_" class="st0" d="M-31.3,262.3c4.2-1.4,2.8-5.6,2.8-7c-1.4,0-2.8,0-4.2,0c-1.4,1.4-2.8,2.8-2.8,4.2
			C-35.5,262.3-34.1,263.7-31.3,262.3z"/>
		<path id="Shape_6_" class="st0" d="M-27.1,298.6l-11.2,2.8c4.2-4.2,9.8-4.2,11.2-11.1c-4.2,2.8-7,7-12.5,5.6l11.2-8.4
			c-5.6-1.4-5.6-5.6-5.6-8.4c0-1.4,0-1.4-1.4-2.8c-1.4,0-2.8-1.4-4.2-2.8c0,1.4,0,2.8,0,4.2s0,2.8,0,4.2c0,2.8,0,2.8-1.4,4.2
			c-2.8,4.2-7,7-11.2,8.4c-1.4,1.4-2.8,2.8-2.8,2.8c0,1.4,0,4.2,0,5.6c0,2.8,0,2.8,1.4,4.2c5.6,1.4,9.8,4.2,13.9,5.6
			c1.4,0,2.8,0,4.2,0c2.8-1.4,4.2-1.4,5.6-2.8c0,0,1.4-1.4,1.4-2.8c-1.4,0-1.4,0-2.8,0c-2.8,0-5.6,0-7-1.4
			C-34.1,302.7-29.9,304.1-27.1,298.6z"/>
		<path id="Shape_7_" class="st0" d="M-87.1,256.8c0,1.4,0,4.2,2.8,5.6c1.4,0,4.2-1.4,4.2-4.2c0,0-1.4-1.4-2.8-1.4
			C-85.7,255.4-87.1,255.4-87.1,256.8z"/>
		<path id="Shape_8_" class="st0" d="M-108,240c0,0-11.2-18.1,5.6-16.7l13.9,2.8c-2.8,0-4.2,1.4-7,0c-2.8,0-5.6-1.4-9.8-1.4
			c-1.4,0-2.8,0-2.8,1.4c2.8,1.4,9.8,4.2,9.8,4.2c-1.4,0-5.6-1.4-7-1.4c1.4,2.8-1.4,11.1,5.6,23.7c2.8,5.6,7,11.1,11.2,13.9
			c2.8,2.8,8.4,4.2,12.5,2.8c0-1.4-1.4-1.4-2.8-2.8c-1.4-1.4-2.8-1.4-5.6-2.8c-7-1.4-11.2-8.4-15.3-13.9c0-2.8,0-4.2,0-7h1.4
			c0,1.4,1.4,2.8,1.4,4.2s2.8,2.8,5.6,2.8c7,0,12.5,1.4,16.7,8.4c1.4,2.8,4.2,7,7,8.4c0,0,0-4.2-1.4-5.6c2.8-1.4,1.4-4.2,0-5.6
			c-1.4-1.4-4.2-4.2-7-7c2.8,0,5.6-2.8,5.6-2.8h-12.5c4.2,0,11.2-2.8,11.2-4.2c-5.6-4.2-12.5-1.4-19.5-2.8c4.2-1.4,8.4-2.8,12.5-2.8
			s11.2-4.2,11.2-4.2h-16.7c5.6-2.8,9.8-7,16.7-7c5.6,0,12.5,0,18.1,0c7,0,12.5,2.8,18.1,5.6h-15.3c0,0,8.4,4.2,11.2,4.2
			c4.2,1.4,8.4,2.8,11.2,4.2c-5.6,1.4-12.5,0-19.5,2.8c2.8,4.2,8.4,1.4,12.5,4.2h-13.9c0,0,2.8,2.8,5.6,2.8c-2.8,2.8-4.2,5.6-7,8.4
			c-1.4,1.4-1.4,2.8,0,4.2c0,1.4-1.4,5.6-1.4,5.6c1.4-1.4,2.8-2.8,4.2-2.8c2.8-2.8,4.2-4.2,5.6-5.6c2.8-7,9.8-7,15.3-7
			c4.2,0,5.6-1.4,7-4.2c-1.4-2.8,0-4.2,0-4.2c1.4,4.2,0,7-1.4,9.8c-2.8,7-9.8,11.1-18.1,13.9c-1.4,0-2.8,1.4-4.2,4.2
			c1.4,0,4.2,0,5.6,0c7-1.4,12.5-5.6,16.7-11.1c0,0,1.4-2.8,1.4-4.2c2.8-5.6,4.2-11.1,4.2-18.1c0-2.8,0-4.2,0-7
			c0,1.4-2.8,1.4-4.2,2.8c2.8-2.8,5.6-5.6,9.8-5.6c0,0-4.2-1.4-7-1.4c-4.2,0-8.4,1.4-11.2,1.4c-1.4,0-1.4,0-2.8,0l15.3-4.2
			C4.9,221.9-6.2,240-6.2,240c11.2-11.1,15.3-23.7-4.2-19.5c-11.2,2.8-18.1,4.2-20.9,4.2c0,0-20.9-5.6-47.4,0h-2.8
			c-2.8,0-9.8,0-22.3-2.8C-123.3,216.3-119.1,228.9-108,240z"/>
		<path id="Shape_9_" class="st0" d="M7.7,283.2C7.7,283.2,6.3,281.8,7.7,283.2c-1.4,0-1.4,0-1.4,0c0,2.8,0,5.6,0,8.4
			c-1.4,11.1-4.2,20.9-12.5,29.3c-1.4,1.4-2.8,2.8-4.2,2.8h-1.4c0,0,0,0,0-1.4c2.8-4.2,4.2-9.8,7-13.9c2.8-4.2,4.2-9.8,5.6-15.3
			v-1.4l0,0c-1.4,0-2.8,1.4-4.2,1.4h-1.4l0,0c0-5.6,5.6-19.5,5.6-19.5l-2.8,4.2c-2.8,4.2-4.2,5.6-7,11.1c0,1.4-1.4,2.8-1.4,4.2v1.4
			c4.2,2.8,0,9.8-1.4,11.1c-1.4,2.8-2.8,5.6-4.2,9.8c0,1.4,0,1.4-1.4,2.8c0,0,0,1.4-1.4,0c0,0,0,0,0-1.4c0-4.2,1.4-11.1,2.8-12.5
			c2.8,0,1.4-8.4-1.4-9.8c-1.4-1.4-2.8-1.4-1.4-4.2v-1.4l0,0l-11.2-5.6v-1.4l0,0c4.2,0,7,1.4,11.2,2.8c1.4,1.4,5.6,0,7-1.4v-1.4
			v-1.4v-1.4l0,0c-5.6-1.4-7-1.4-7-2.8c0,0,0-1.4,1.4-1.4l0,0c1.4,0,4.2,0,5.6,0c1.4-1.4,1.4-2.8,1.4-4.2v-1.4l0,0
			c-2.8,0-2.8,0-4.2,0v-1.4l0,0c0,0,0,0,1.4-1.4c4.2-2.8,9.8-19.5,9.8-25.1V240c0,0,0-1.4-1.4-1.4c0,0,0,0-1.4,0
			c-2.8,8.4-7,27.9-26.5,30.7c-1.4,0-2.8,0-5.6,0h-1.4v5.6c0,1.4,0,2.8,0,2.8c0,2.8,1.4,4.2,2.8,5.6c18.1,7,15.3,22.3,13.9,25.1l0,0
			c-11.2,7-5.6,20.9-4.2,25.1v1.4l0,0c-1.4,0-2.8,0-4.2,0c-2.8-1.4-7,0-9.8,2.8l-2.8,1.4c2.8-4.2,8.4-2.8,12.5-1.4
			c2.8,0,4.2,1.4,7,2.8h1.4l0,0c0-1.4,0-4.2,0-5.6s0-4.2,2.8-4.2s2.8,2.8,2.8,4.2c0,2.8,0,5.6,0,8.4c0,0,0,1.4,1.4,1.4
			c0,0,0,0,1.4,0c0-2.8,1.4-7,2.8-9.8c0,0,0,0,0-1.4H-9c0,0,0,1.4,1.4,0l0,0c5.6-7,11.2-15.3,15.3-22.3c0,0,1.4-1.4,1.4-2.8
			c1.4-8.4,0-11.1,0-18.1C9.1,288.8,7.7,286,7.7,283.2z"/>
		<path id="Shape_10_" class="st0" d="M-121.9,283.2C-121.9,283.2-121.9,281.8-121.9,283.2c1.4,0,1.4,0,1.4,0c0,2.8,0,5.6,0,8.4
			c1.4,11.1,4.2,20.9,11.2,29.3c1.4,1.4,2.8,1.4,4.2,2.8h1.4c0,0,0,0,0-1.4c-2.8-4.2-4.2-8.4-7-13.9c-1.4-4.2-2.8-9.8-4.2-15.3v-1.4
			l0,0c2.8,1.4,4.2,1.4,4.2,1.4h1.4l0,0c-1.4-5.6-5.6-19.5-5.6-19.5l2.8,4.2c2.8,4.2,4.2,5.6,5.6,11.1c1.4,1.4,1.4,4.2,1.4,4.2v1.4
			c-4.2,2.8,0,9.8,1.4,11.1c2.8,2.8,4.2,5.6,4.2,9.8c0,1.4,0,1.4,1.4,2.8c0,0,0,1.4,1.4,0c0,0,0,0,0-1.4c0-4.2,0-9.8-1.4-11.1
			c-2.8-1.4-2.8-9.8,0-11.1s2.8-1.4,1.4-4.2v-1.4l0,0l11.2-5.6v-1.4l0,0c-4.2-1.4-7,0-9.8,2.8c-2.8,1.4-5.6,0-7-1.4v-1.4v-1.4v-1.4
			l0,0c5.6-1.4,5.6-1.4,5.6-2.8c0,0,0-1.4-1.4-1.4l0,0c-1.4,0-4.2,0-5.6,0c0-1.4,0-2.8-1.4-4.2v-1.4l0,0c1.4,1.4,2.8,1.4,2.8,0v-1.4
			l0,0c0,0,0,0-1.4-1.4c-1.4-2.8-7-19.5-7-25.1V240c0-1.4,1.4-1.4,1.4-1.4s1.4,0,1.4,1.4c2.8,8.4,5.6,26.5,26.5,29.3
			c1.4,0,2.8,0,5.6,0h1.4l1.4,5.6c0,1.4,0,2.8,0,2.8c0,2.8-1.4,4.2-2.8,5.6c-20.9,7-15.3,22.3-13.9,25.1l0,0
			c9.8,5.6,5.6,20.9,4.2,25.1v1.4l0,0c1.4,0,2.8,0,2.8,0c4.2-1.4,8.4,0,11.2,2.8c-5.6-2.8-7-1.4-11.2,0c-2.8,0-5.6,1.4-7,2.8h-1.4
			l0,0c0-1.4,0-4.2,0-5.6s0-4.2-2.8-4.2c-2.8,0-2.8,2.8-2.8,4.2c0,2.8,0,5.6,0,8.4c0,0,0,1.4-1.4,1.4c0,0,0,0-1.4,0
			c0-2.8-2.8-7-4.2-9.8c0,0,0,0,0-1.4h-2.8c0,0,0,1.4-1.4,0l0,0c-5.6-7-9.8-15.3-15.3-22.3c0,0-1.4-1.4-1.4-2.8
			c-1.4-8.4,0-11.1,0-18.1C-123.3,288.8-123.3,286-121.9,283.2z"/>
		<path id="Shape_11_" class="st0" d="M78.8,312.5H57.9l-15.3-25.1v25.1H25.9V247h25.1c7,0,12.5,1.4,16.7,5.6
			c4.2,2.8,5.6,8.4,5.6,15.3c0,4.2-1.4,8.4-4.2,12.5c-2.8,2.8-7,5.6-11.2,7L78.8,312.5z M41.2,276.3h1.4c1.4,0,2.8,0,4.2,0
			s2.8,0,4.2-1.4c1.4,0,1.4-1.4,2.8-2.8c1.4-2.8,1.4-5.6,0-8.4c0-1.4-1.4-1.4-2.8-2.8c-1.4,0-2.8-1.4-4.2-1.4s-2.8,0-4.2,0h-1.4
			V276.3z"/>
		<polygon id="Shape_12_" class="st0" points="99.7,260.9 99.7,272.1 119.2,272.1 119.2,286 99.7,286 99.7,298.6 119.2,298.6 
			119.2,312.5 81.6,312.5 81.6,247 119.2,247 119.2,260.9 		"/>
		<path id="Shape_13_" class="st0" d="M130.4,247h23.7c4.2,0,8.4,1.4,12.5,2.8s7,4.2,11.2,7c2.8,2.8,5.6,7,7,11.1
			c1.4,4.2,2.8,8.4,2.8,12.5s-1.4,8.4-2.8,12.5c-1.4,4.2-4.2,7-7,9.8s-7,5.6-11.2,7c-2.8,1.4-7,2.8-11.2,2.8h-23.7V247H130.4z
			 M147.1,298.6h4.2c2.8,0,5.6,0,7-1.4c2.8,0,4.2-1.4,5.6-2.8c1.4-1.4,2.8-4.2,4.2-5.6c1.4-2.8,1.4-5.6,1.4-8.4
			c0-5.6-1.4-9.8-5.6-13.9c-4.2-2.8-8.4-5.6-13.9-4.2h-4.2L147.1,298.6z"/>
		<polygon id="Shape_14_" class="st0" points="251.7,312.5 234.9,312.5 234.9,260.9 221,260.9 221,247 265.6,247 265.6,260.9 
			251.7,260.9 		"/>
		<polygon id="Shape_15_" class="st0" points="289.3,312.5 272.6,312.5 272.6,247 289.3,247 		"/>
		<path id="Shape_16_" class="st0" d="M364.6,276.3c0,4.2,0,9.8-1.4,13.9c0,4.2-2.8,8.4-5.6,11.1c-2.8,4.2-7,7-11.2,9.8
			s-9.8,2.8-15.3,2.8c-4.2,0-9.8-1.4-13.9-2.8c-4.2-1.4-8.4-4.2-11.2-7c-2.8-2.8-5.6-7-7-11.1c-1.4-4.2-2.8-9.8-2.8-13.9
			c0-5.6,1.4-9.8,2.8-13.9c1.4-4.2,4.2-8.4,7-11.1c2.8-2.8,7-5.6,11.2-7c4.2-1.4,9.8-2.8,13.9-2.8c5.6,0,12.5,1.4,18.1,4.2
			s9.8,8.4,11.2,13.9l-16.7,7c-1.4-2.8-2.8-5.6-5.6-7c-2.8-1.4-5.6-2.8-8.4-2.8c-2.8,0-5.6,0-7,1.4c-2.8,1.4-4.2,2.8-5.6,4.2
			c-1.4,1.4-2.8,4.2-2.8,7c-1.4,5.6-1.4,9.8,0,15.3c1.4,2.8,1.4,4.2,2.8,7c2.8,1.4,4.2,2.8,7,4.2c2.8,1.4,4.2,1.4,7,1.4
			s7-1.4,9.8-2.8c2.8-1.4,4.2-5.6,4.2-8.4h-13.9v-13.9L364.6,276.3z"/>
		<polygon id="Shape_17_" class="st0" points="389.7,260.9 389.7,272.1 409.2,272.1 409.2,286 389.7,286 389.7,298.6 409.2,298.6 
			409.2,312.5 371.5,312.5 371.5,247 409.2,247 409.2,260.9 		"/>
		<path id="Shape_18_" class="st0" d="M474.7,312.5h-20.9l-15.3-25.1v25.1h-16.7V247h25.1c7,0,12.5,1.4,16.7,5.6s5.6,8.4,5.6,15.3
			c0,4.2-1.4,8.4-4.2,12.5c-2.8,2.8-7,5.6-11.2,7L474.7,312.5z M437.1,276.3h1.4c1.4,0,2.8,0,4.2,0c1.4,0,2.8,0,4.2-1.4
			c1.4,0,1.4-1.4,2.8-2.8c1.4-2.8,1.4-5.6,0-8.4c0-1.4-1.4-1.4-2.8-2.8c-1.4,0-2.8-1.4-4.2-1.4c-1.4,0-2.8,0-4.2,0h-1.4V276.3z"/>
	</g>
</g>
</svg>
