<?xml version="1.0" encoding="UTF-8"?> <svg xmlns="http://www.w3.org/2000/svg" id="Layer_2" data-name="Layer 2" viewBox="0 0 490.73 740.6"><defs><style> .cls-1 { opacity: .5; } .cls-1, .cls-2, .cls-3, .cls-4 { fill: none; stroke: #00d45c; stroke-miterlimit: 10; stroke-width: 18px; } .cls-3 { opacity: .75; } .cls-4 { opacity: .25; } </style></defs><g id="Layer_1-2" data-name="Layer 1"><g><path class="cls-4" d="M245.36,731.6c-69.65,0-123.43-15.6-164.42-47.68-24.11-18.87-42.51-42.65-54.69-70.68-11.45-26.36-17.26-56.36-17.26-89.18v-52.48c0-42.72,18.65-70.34,34.3-86,2-2,4.06-3.91,6.18-5.75-10.35-15.2-18.54-31.22-24.75-48.38-13.05-36.04-15.72-72-15.72-114.92,0-32.81,5.81-62.82,17.26-89.18,12.18-28.03,30.58-51.81,54.69-70.68C121.94,24.6,175.72,9,245.36,9s123.43,15.6,164.42,47.68c24.11,18.87,42.51,42.65,54.69,70.68,11.45,26.36,17.26,56.36,17.26,89.18v52.48c0,42.73-18.66,70.35-34.31,86-2,1.99-4.05,3.91-6.17,5.74,10.36,15.21,18.54,31.22,24.75,48.38,13.05,36.04,15.72,72.01,15.72,114.92,0,32.82-5.81,62.82-17.26,89.18-12.18,28.03-30.58,51.81-54.69,70.68-40.99,32.08-94.77,47.68-164.42,47.68Z"></path><path class="cls-1" d="M245.36,701.6c-62.68,0-110.42-13.51-145.92-41.31-20.13-15.76-35.5-35.62-45.66-59.01-9.8-22.56-14.78-48.54-14.78-77.22v-52.48c0-32.45,13.88-53.14,25.51-64.79,6.67-6.67,16.32-14.08,29.45-19.19-19.17-20.77-32.24-42.07-41.04-66.36-11.56-31.93-13.93-64.95-13.93-104.7,0-28.68,4.97-54.66,14.78-77.22,10.17-23.4,25.53-43.25,45.66-59.01,35.51-27.79,83.24-41.31,145.92-41.31s110.42,13.51,145.93,41.31c20.13,15.76,35.5,35.61,45.67,59.01,9.8,22.56,14.78,48.54,14.78,77.22v52.48c0,32.46-13.88,53.15-25.52,64.79-6.67,6.67-16.32,14.08-29.45,19.19,19.16,20.77,32.24,42.07,41.03,66.36,11.56,31.93,13.93,64.95,13.93,104.7,0,28.68-4.97,54.66-14.78,77.22-10.17,23.4-25.53,43.25-45.67,59.01-35.51,27.79-83.24,41.31-145.93,41.31Z"></path><path class="cls-3" d="M245.36,671.6c-55.72,0-97.41-11.43-127.43-34.93-32.47-25.42-48.93-63.3-48.93-112.61v-52.48c0-22.19,9.1-35.94,16.73-43.58,7.63-7.63,21.39-16.73,43.57-16.73h35.78l-24.85-21.03c-30.34-25.7-48.56-50.13-59.1-79.21-10.07-27.82-12.14-57.89-12.14-94.49,0-49.31,16.46-87.19,48.93-112.61,30.03-23.5,71.71-34.93,127.43-34.93s97.41,11.43,127.44,34.93c32.47,25.42,48.93,63.3,48.93,112.61v52.48c0,22.19-9.1,35.94-16.73,43.58-7.63,7.63-21.39,16.73-43.58,16.73h-35.76l24.84,21.02c30.34,25.71,48.56,50.14,59.1,79.22,10.07,27.82,12.14,57.89,12.14,94.49,0,49.31-16.46,87.2-48.93,112.61-30.03,23.5-71.71,34.93-127.44,34.93Z"></path><path class="cls-2" d="M244.63,300.07l86.49,73.19c53.23,45.1,60.61,82.06,60.61,150.81,0,80.58-51,117.54-146.37,117.54s-146.36-36.96-146.36-117.54v-52.48c0-19.22,11.09-30.31,30.3-30.31h48.79c19.22,0,30.31,11.09,30.31,30.31v52.48c0,19.96,12.57,34.75,36.96,34.75s36.97-14.79,36.97-34.75c0-38.44-5.91-58.4-36.22-83.54l-86.49-73.19c-53.23-45.09-60.61-82.05-60.61-150.8,0-80.58,51-117.54,146.36-117.54s146.37,36.96,146.37,117.54v52.48c0,19.22-11.09,30.31-30.31,30.31h-48.78c-19.22,0-30.31-11.09-30.31-30.31v-52.48c0-19.96-12.57-34.75-36.97-34.75s-36.96,14.79-36.96,34.75c0,38.44,5.91,58.4,36.22,83.53Z"></path></g></g></svg> 