<svg width="198" height="24" viewBox="0 0 198 24" fill="none" xmlns="http://www.w3.org/2000/svg">
<g id="Logo">
<path id="Vector" d="M113.823 7.20557L113.543 8.95462C112.464 7.73829 110.801 6.86377 108.196 6.86377C103.534 6.86377 100.227 10.4111 100.227 15.4135C100.227 20.4158 103.534 23.9986 108.196 23.9986C110.612 23.9986 112.445 23.1764 113.543 21.9077L113.823 23.6552H117.946V7.20557H113.823ZM109.104 20.0586C106.482 20.0586 104.648 18.0016 104.648 15.3965C104.648 12.7914 106.482 10.8053 109.104 10.8053C111.726 10.8053 113.575 12.776 113.575 15.3965C113.575 18.017 111.691 20.0586 109.104 20.0586Z" fill="#191919"/>
<path id="Vector_2" d="M132.539 10.3927V7.20557H119.825V10.873H127.518L119.738 20.4866V23.6568H133.053V19.9893H124.759L132.539 10.3927Z" fill="#191919"/>
<path id="Vector_3" d="M146.894 0V9.19635C145.801 7.82606 144.103 6.86378 141.467 6.86378C136.805 6.86378 133.496 10.4111 133.496 15.4119C133.496 20.4127 136.805 23.997 141.467 23.997C143.881 23.997 145.712 23.1749 146.811 21.9108L147.09 23.6583H151.218V0H146.894ZM142.372 20.0555C139.752 20.0555 137.915 18.0032 137.915 15.3935C137.915 12.7837 139.752 10.8038 142.372 10.8038C144.993 10.8038 146.843 12.7745 146.843 15.3935C146.843 18.0124 144.963 20.0555 142.372 20.0555Z" fill="#191919"/>
<path id="Vector_4" d="M166.486 7.20557L166.203 8.95462C165.124 7.73829 163.461 6.86377 160.856 6.86377C156.194 6.86377 152.887 10.4111 152.887 15.4135C152.887 20.4158 156.194 23.9986 160.856 23.9986C163.272 23.9986 165.105 23.1764 166.203 21.9077L166.486 23.6552H170.608V7.20557H166.486ZM161.766 20.0586C159.144 20.0586 157.31 18.0016 157.31 15.3965C157.31 12.7914 159.144 10.8053 161.766 10.8053C164.388 10.8053 166.237 12.776 166.237 15.3965C166.237 18.017 164.353 20.0586 161.766 20.0586Z" fill="#191919"/>
<path id="Vector_5" d="M182.049 6.8623C179.598 6.8623 177.833 7.95854 176.977 9.10712L176.696 7.20565H172.711V23.6568H177.097V14.4543C177.097 12.1756 178.811 10.9409 180.748 10.9409C182.685 10.9409 184.158 12.1741 184.158 14.4543V23.6568H188.545V13.3242C188.545 9.36578 185.855 6.86385 182.05 6.86385L182.049 6.8623Z" fill="#191919"/>
<path id="Vector_6" d="M195.761 0L194.602 3.07623L193.43 0H191.738V4.87454H192.898V1.41956H192.922L194.152 4.87454H195.039L196.271 1.41956H196.294V4.87454H197.453V0H195.761Z" fill="#191919"/>
<path id="Vector_7" d="M187.137 0.934571H188.556V4.87454H189.716V0.934571H191.137V0H187.137V0.934571Z" fill="#191919"/>
<path id="Vector_8" d="M63.5991 0H2.57805C0.285503 0 -0.861535 2.77138 0.75818 4.39263L19.1278 22.7622C20.7537 24.3881 23.388 24.3881 25.0123 22.7622L37.9069 9.86764C39.4558 8.31875 42.1056 9.41498 42.1056 11.6074V20.9208C42.1056 23.6583 45.4158 25.0302 47.3527 23.0933L65.6038 4.84221C67.3913 3.05467 66.1257 0 63.5976 0H63.5991Z" fill="#191919"/>
<path id="Vector_9" d="M70.0938 0H74.4186V17.3904L86.4048 0H89.8721V17.3904L101.86 0H106.879L90.3848 23.6568L85.5534 23.6552V8.42344L74.9329 23.6568H70.0938V0Z" fill="#191919"/>
</g>
</svg>
