<?xml version="1.0" encoding="utf-8"?>
<!-- Generator: Adobe Illustrator 19.0.0, SVG Export Plug-In . SVG Version: 6.00 Build 0)  -->
<svg version="1.1" id="layer" xmlns="http://www.w3.org/2000/svg" xmlns:xlink="http://www.w3.org/1999/xlink" x="0px" y="0px"
	 viewBox="-153 -46 652 652" style="enable-background:new -153 -46 652 652;" xml:space="preserve">
<style type="text/css">
	.st0{fill:#F96432;}
</style>
<path class="st0" d="M-80.5,209.4c5.4-2.1,11-3.6,16.7-4.4c1.1,11.2,4.3,22,9.4,31.9c5.1-9.9,8.4-20.8,9.6-31.9
	c5.7,0.8,11.3,2.3,16.7,4.4c-1.2,9.1-3.5,18-6.8,26.5c9.2-3.4,17.4-9,24-16.5c4.6,3.6,8.7,7.7,12.3,12.3
	C-9.9,244.5-24.9,253-41.4,256c5,5.4,10.5,10.1,16.5,14.1c10.2-10.2,22.5-17.9,36-22.4c2.4,5.4,4.1,11,5.3,16.7
	c-9.1,3-17.5,7.8-24.8,14c8.4,3,17.1,4.7,26,5c-0.4,5.9-1.4,11.7-3.1,17.4c-26.3-1.7-51-13.8-68.9-33.7
	c-17.9,20-42.6,32.1-68.9,33.7c-1.7-5.7-2.7-11.5-3.1-17.4c8.9-0.3,17.7-2.1,26.1-5.3c-7.4-6.2-15.8-11-24.8-14.1
	c1.2-5.7,3-11.2,5.3-16.5c13.5,4.5,25.8,12.2,36,22.4c6.1-4,11.6-8.8,16.6-14.2c-16.5-3-31.6-11.6-42.8-24.4
	c3.6-4.6,7.8-8.7,12.4-12.3c6.5,7.5,14.8,13.1,24,16.5C-77,227.2-79.3,218.4-80.5,209.4z M-87.4,294.8c5.3-2.4,10.4-5.2,15.2-8.5
	c6,7.9,12,16,17.8,23.9c6-7.9,12-15.9,17.8-23.9c4.8,3.2,9.9,6.1,15.2,8.5c-8,11.1-16.5,21.9-24.4,32.9c0,8.2,0,16.5,0,24.7
	c-5.7,0.7-11.4,0.7-17,0v-24.7L-87.4,294.8z"/>
<path d="M376.2,250.5c4.9-3.1,10.8-4.3,16.4-3.2c5.3,0.7,10.4,2.9,14.6,6.4l-5.9,8.8c-4.3-3.6-9.8-5.4-15.3-5.1
	c-2.5,0.3-5.2,2.2-4.8,5c0.4,2.8,2.1,3.8,4,4.5c6.2,2.4,13.1,3,18.5,7.2c5.7,5.1,6.7,13.8,2.4,20.2c-2.8,3.9-7.1,6.4-11.8,7
	c-9.6,1.4-19.2-1.6-26.4-8.2l6.6-8.2c3.9,3.6,8.7,5.8,13.9,6.4c2.8,0.5,5.7-0.2,8-2c0.9-1,1.3-2.5,1.1-3.9c-0.3-1.4-1.1-2.6-2.4-3.2
	c-6.5-3.5-14.5-3.4-20.5-8.2c-3.2-2.7-4.9-6.9-4.6-11.1C370.1,258.1,372.4,253.4,376.2,250.5z M111.4,250.5
	c6.6-3.4,14.2-4.2,21.4-2.3c4.4,1.1,8.6,3.2,12,6.3l-7.2,8.9c-3.3-3.2-7.5-5.1-12-5.3c-4.7-0.4-9.4,1.6-12.4,5.3
	c-5.9,7.4-5.2,18.2,1.6,24.7c6.1,4.8,14.5,5.1,20.8,0.6c0-1.9,0-3.8,0-5.7h-5.4c0-3,0-6,0-9.1h16.2v20.1c-7.1,6.3-16.5,9.3-25.8,8.2
	c-6.9-0.7-13.2-4.2-17.6-9.7c-5-6.7-6.8-15.3-5.1-23.6C99.6,261,104.5,254.3,111.4,250.5z M166.4,251.5c7-4.2,15.4-5.4,23.2-3.3
	c4.3,1.1,8.4,3.2,11.7,6.2c-2.4,2.9-4.8,5.9-7.1,8.8c-3.4-3.3-7.7-5.2-12.4-5.3c-5-0.3-9.9,2-12.8,6.3c-5.2,7.6-4,18,2.8,24.1
	c6.1,4.3,14.2,4.3,20.4,0v-5.5h-5.3v-9.1h16.2c0,6.7,0,13.4,0,20.2c-5.9,5.2-13.4,8.1-21.2,8.2c-7.5,0.4-14.8-2.3-20.3-7.6
	c-5.3-5.5-8-13.1-7.6-20.8C154.3,264.7,158.9,256.4,166.4,251.5z M47.7,248.2c4.4,0,8.8,0,13.2,0c4,7.9,8.2,15.8,12.3,23.7
	l12.4-23.7h12.8c-6.5,12.1-13.3,24-19.8,36.2c0,5.6,0,11.4,0,17H67.5c0-5.6,0-11.3,0-16.9C61,272.3,54.2,260.3,47.7,248.2z
	 M212.2,248.2h17.4c9.6-0.5,18.8,4.4,24,12.8c4.3,7.6,4.9,16.9,1.4,25c-4.2,9.1-13.1,15.1-22.9,15.4c-6.6,0-13.3,0-20,0
	C212.2,283.6,212.2,265.9,212.2,248.2z M223.5,258.5c0,10.7,0,21.5,0,32.2c5.1,0,10.6,0.6,15.1-2.4c4.4-3.2,6.9-8.3,6.9-13.8
	c0-5.5-2.7-10.6-7.1-13.7C234,258.1,228.6,258.7,223.5,258.5z M264.6,248.2c7.8,0,15.6,0,23.3,0c6.5-0.2,12.6,3.2,16,8.9
	c3.5,7.1,2.3,15.7-3,21.4c-1.8,1.7-3.9,2.9-6.1,3.8l12.6,19h-13.2c-3.6-5.7-7.3-11.3-11-17h-3V274c3.8-0.2,8,0.8,11.4-1.5
	c2.1-1.6,3.2-4.2,2.9-6.9s-1.9-5-4.3-6.1c-4.7-0.9-9.5-1.2-14.3-0.8v42.7h-11.2C264.6,283.6,264.6,265.9,264.6,248.2z M311.1,301.5
	l22-53.5h10.4l22,53.5h-12c-1.6-4.1-3.2-8-4.7-12h-17.2l4-10.2h9.2l-6.8-17.3c-5.2,13.2-10.4,26.4-15.6,39.6H311.1z M417.6,248.2
	h11.2v53.2h-11.2V248.2z M438.2,248.2h11.4c0,14.2,0,28.4,0,42.6h24v10.6h-35.4C438.2,283.6,438.1,265.9,438.2,248.2z"/>
</svg>
